<svg preserveAspectRatio="none" width="100%" height="100%" overflow="visible" style="display: block;" viewBox="0 0 29.2683 29.2683" fill="none" xmlns="http://www.w3.org/2000/svg">
<g id="Group 1261153817">
<g id="Ellipse 13">
<circle cx="14.6341" cy="14.6341" r="14.6341" fill="var(--fill-0, white)" fill-opacity="0.2"/>
<circle cx="14.6341" cy="14.6341" r="14.2683" stroke="var(--stroke-0, white)" stroke-opacity="0.1" stroke-width="0.731707"/>
</g>
<g id="Ellipse 15">
</g>
<g id="Group 1171274838">
<path id="Vector" d="M10.4645 11.7892C11.193 11.7892 11.7836 11.1976 11.7836 10.4677C11.7836 9.73789 11.193 9.14624 10.4645 9.14624C9.736 9.14624 9.14544 9.73789 9.14544 10.4677C9.14544 11.1976 9.736 11.7892 10.4645 11.7892Z" fill="var(--fill-0, white)"/>
<path id="Vector_2" d="M13.0289 12.79V20.1216H15.3011V16.4959C15.3011 15.5392 15.4807 14.6127 16.6648 14.6127C17.8325 14.6127 17.847 15.7065 17.847 16.5563V20.1222H20.1204V16.1015C20.1204 14.1265 19.696 12.6088 17.3918 12.6088C16.2856 12.6088 15.544 13.217 15.2408 13.7926H15.21V12.79H13.0289ZM9.3261 12.79H11.6019V20.1216H9.3261V12.79Z" fill="var(--fill-0, white)"/>
</g>
</g>
</svg>
