<svg preserveAspectRatio="none" width="100%" height="100%" overflow="visible" style="display: block;" viewBox="0 0 10 10" fill="none" xmlns="http://www.w3.org/2000/svg">
<g id="fi_1828884" clip-path="url(#clip0_0_7)">
<path id="Vector" d="M9.97393 3.83623C9.90847 3.63374 9.72887 3.48992 9.51639 3.47077L6.63011 3.20869L5.4888 0.537347C5.40465 0.341571 5.21299 0.214844 5.00005 0.214844C4.78711 0.214844 4.59545 0.341571 4.5113 0.537804L3.36999 3.20869L0.483257 3.47077C0.271154 3.49038 0.0920116 3.63374 0.0261682 3.83623C-0.0396751 4.03872 0.0211327 4.26082 0.181583 4.40082L2.36326 6.31417L1.71994 9.14803C1.67286 9.35639 1.75374 9.57177 1.92662 9.69675C2.01955 9.76389 2.12827 9.79807 2.23791 9.79807C2.33244 9.79807 2.42621 9.77258 2.51036 9.72223L5.00005 8.23423L7.48882 9.72223C7.67094 9.83179 7.90052 9.82179 8.07302 9.69675C8.24598 9.57139 8.32678 9.35593 8.27971 9.14803L7.63638 6.31417L9.81806 4.4012C9.97851 4.26082 10.0398 4.0391 9.97393 3.83623Z" fill="var(--fill-0, #FCC926)"/>
</g>
<defs>
<clipPath id="clip0_0_7">
<rect width="10" height="10" fill="white"/>
</clipPath>
</defs>
</svg>
