<svg preserveAspectRatio="none" width="100%" height="100%" overflow="visible" style="display: block;" viewBox="0 0 28.6667 25.3301" fill="none" xmlns="http://www.w3.org/2000/svg">
<g id="Icon">
<path id="Vector" fill-rule="evenodd" clip-rule="evenodd" d="M1.17867 10.4717C0.424 10.0543 0 9.32367 0 8.55967C0 7.79433 0.424 7.06367 1.17867 6.64767L12.264 0.521C13.5227 -0.173667 15.144 -0.173667 16.4027 0.521L27.488 6.64767C28.2427 7.06367 28.6667 7.79433 28.6667 8.55967C28.6667 9.32367 28.2427 10.0543 27.488 10.4717L16.4027 16.597C15.144 17.293 13.5227 17.293 12.264 16.597L1.17867 10.4717ZM2.14533 8.721L13.2307 14.8463C13.9013 15.217 14.7653 15.217 15.436 14.8463L26.5213 8.721C26.5947 8.681 26.6667 8.633 26.6667 8.55967C26.6667 8.485 26.5947 8.43833 26.5213 8.397L15.436 2.27167C14.7653 1.901 13.9013 1.901 13.2307 2.27167L2.14533 8.397C2.072 8.43833 2 8.485 2 8.55967C2 8.633 2.072 8.681 2.14533 8.721Z" fill="var(--fill-0, #3E5640)"/>
<path id="Vector_2" fill-rule="evenodd" clip-rule="evenodd" d="M22.6667 11.6641C22.6667 11.1121 23.1147 10.6641 23.6667 10.6641C24.2187 10.6641 24.6667 11.1121 24.6667 11.6641V17.6641C24.6667 20.4254 22.428 22.6641 19.6667 22.6641H9C6.23867 22.6641 4 20.4254 4 17.6641V11.6641C4 11.1121 4.448 10.6641 5 10.6641C5.552 10.6641 6 11.1121 6 11.6641V17.6641C6 19.3214 7.34267 20.6641 9 20.6641H19.6667C21.324 20.6641 22.6667 19.3214 22.6667 17.6641V11.6641Z" fill="var(--fill-0, #3E5640)"/>
<path id="Vector_3" fill-rule="evenodd" clip-rule="evenodd" d="M13.627 9.7034C13.2363 9.31407 13.2363 8.6794 13.627 8.29007C14.0163 7.8994 14.651 7.8994 15.0403 8.29007L19.707 12.9567C19.895 13.1434 20.0003 13.3981 20.0003 13.6634V24.3301C20.0003 24.8821 19.5523 25.3301 19.0003 25.3301C18.4483 25.3301 18.0003 24.8821 18.0003 24.3301V14.0781L13.627 9.7034Z" fill="var(--fill-0, #3E5640)"/>
</g>
</svg>
