<svg preserveAspectRatio="none" width="100%" height="100%" overflow="visible" style="display: block;" viewBox="0 0 29.2684 29.2683" fill="none" xmlns="http://www.w3.org/2000/svg">
<g id="Group 1261153818">
<g id="Ellipse 13">
<path d="M29.2684 14.6341C29.2684 22.7163 22.7165 29.2683 14.6343 29.2683C6.5521 29.2683 0.000175476 22.7163 0.000175476 14.6341C0.000175476 6.55192 6.5521 0 14.6343 0C22.7165 0 29.2684 6.55192 29.2684 14.6341Z" fill="var(--fill-0, white)" fill-opacity="0.2"/>
<path d="M14.634 0.366211C22.514 0.366211 28.9023 6.75379 28.9025 14.6338C28.9025 22.5139 22.5141 28.9023 14.634 28.9023C6.75397 28.9022 0.366386 22.5138 0.366386 14.6338C0.366572 6.75391 6.75408 0.366397 14.634 0.366211Z" stroke="var(--stroke-0, white)" stroke-opacity="0.1" stroke-width="0.731707"/>
</g>
<g id="Ellipse 16">
</g>
<path id="Vector" d="M14.6341 12.6857C13.5554 12.6857 12.6857 13.5638 12.6857 14.6342C12.6857 15.7046 13.5638 16.5826 14.6341 16.5826C15.7044 16.5826 16.5824 15.7046 16.5824 14.6342C16.5824 13.5638 15.7044 12.6857 14.6341 12.6857ZM20.4875 14.6342C20.4875 13.823 20.4875 13.0286 20.4457 12.2174C20.4039 11.2809 20.1864 10.4446 19.5008 9.76728C18.8151 9.08156 17.9872 8.86414 17.0507 8.82233C16.2396 8.78052 15.4452 8.78052 14.6341 8.78052C13.823 8.78052 13.0286 8.78052 12.2175 8.82233C11.2809 8.86414 10.4447 9.08156 9.76741 9.76728C9.08172 10.453 8.86431 11.2809 8.8225 12.2174C8.78069 13.0286 8.78069 13.823 8.78069 14.6342C8.78069 15.4453 8.78069 16.2397 8.8225 17.0509C8.86431 17.9875 9.08172 18.8237 9.76741 19.5011C10.4531 20.1868 11.2809 20.4042 12.2175 20.446C13.0286 20.4878 13.823 20.4878 14.6341 20.4878C15.4452 20.4878 16.2396 20.4878 17.0507 20.446C17.9872 20.4042 18.8234 20.1868 19.5008 19.5011C20.1864 18.8154 20.4039 17.9875 20.4457 17.0509C20.4958 16.2481 20.4875 15.4453 20.4875 14.6342ZM14.6341 17.6363C12.97 17.6363 11.6321 16.2983 11.6321 14.6342C11.6321 12.9701 12.97 11.6321 14.6341 11.6321C16.2981 11.6321 17.636 12.9701 17.636 14.6342C17.636 16.2983 16.2981 17.6363 14.6341 17.6363ZM17.7615 12.2091C17.3768 12.2091 17.0591 11.8997 17.0591 11.5066C17.0591 11.1136 17.3685 10.8042 17.7615 10.8042C18.1545 10.8042 18.4639 11.1136 18.4639 11.5066C18.466 11.5982 18.4493 11.6893 18.4147 11.7742C18.3802 11.859 18.3286 11.9359 18.2632 12C18.1991 12.0655 18.1222 12.1171 18.0373 12.1516C17.9525 12.1861 17.8614 12.2028 17.7698 12.2007L17.7615 12.2091Z" fill="var(--fill-0, white)"/>
</g>
</svg>
