<svg preserveAspectRatio="none" width="100%" height="100%" overflow="visible" style="display: block;" viewBox="0 0 12.8 12.8" fill="none" xmlns="http://www.w3.org/2000/svg">
<g id="Frame" clip-path="url(#clip0_0_17)">
<path id="Vector" d="M10.6661 6.93429C10.6661 9.60096 8.79948 10.9343 6.58081 11.7076C6.46463 11.747 6.33843 11.7451 6.22348 11.7023C3.99948 10.9343 2.13281 9.60096 2.13281 6.93429V3.20096C2.13281 3.05951 2.189 2.92385 2.28902 2.82383C2.38904 2.72381 2.5247 2.66762 2.66615 2.66762C3.73281 2.66762 5.06615 2.02762 5.99415 1.21696C6.10714 1.12042 6.25087 1.06738 6.39948 1.06738C6.54809 1.06738 6.69182 1.12042 6.80481 1.21696C7.73815 2.03296 9.06615 2.66762 10.1328 2.66762C10.2743 2.66762 10.4099 2.72381 10.5099 2.82383C10.61 2.92385 10.6661 3.05951 10.6661 3.20096V6.93429Z" stroke="var(--stroke-0, #3E5640)" stroke-width="1.06667" stroke-linecap="round" stroke-linejoin="round"/>
</g>
<defs>
<clipPath id="clip0_0_17">
<rect width="12.8" height="12.8" fill="white"/>
</clipPath>
</defs>
</svg>
