<svg preserveAspectRatio="none" width="100%" height="100%" overflow="visible" style="display: block;" viewBox="0 0 29.2585 35.761" fill="none" xmlns="http://www.w3.org/2000/svg">
<g id="Layer 2">
<path id="Vector" d="M23.9215 3.33283C22.2352 1.95207 20.2635 0.962772 18.1485 0.436284C16.0336 -0.0902048 13.8281 -0.140756 11.6913 0.288275C8.94374 0.851575 6.41603 2.19279 4.40925 4.15216C2.40248 6.11153 1.00123 8.60646 0.372421 11.3397C-0.256388 14.073 -0.0862496 16.9295 0.862569 19.5688C1.81139 22.2081 3.49889 24.5191 5.72406 26.2264C8.26461 28.0858 10.4277 30.4122 12.0976 33.0811L13.2355 34.9732C13.38 35.2135 13.5842 35.4124 13.8283 35.5504C14.0724 35.6885 14.3481 35.761 14.6285 35.761C14.909 35.761 15.1847 35.6885 15.4288 35.5504C15.6729 35.4124 15.8771 35.2135 16.0216 34.9732L17.1123 33.1559C18.5665 30.5996 20.5493 28.3829 22.9283 26.6539C24.7938 25.3704 26.3354 23.671 27.4317 21.6898C28.5279 19.7086 29.1488 17.4997 29.2452 15.2374C29.3417 12.9752 28.9112 10.7215 27.9876 8.65412C27.0639 6.58675 25.6725 4.7623 23.9232 3.32471L23.9215 3.33283ZM14.6269 21.1337C13.341 21.1337 12.0839 20.7523 11.0146 20.0379C9.94536 19.3234 9.11198 18.308 8.61986 17.1199C8.12774 15.9318 7.99898 14.6245 8.24986 13.3632C8.50074 12.1019 9.12 10.9434 10.0293 10.0341C10.9386 9.12475 12.0972 8.5055 13.3584 8.25462C14.6197 8.00374 15.927 8.1325 17.1151 8.62462C18.3032 9.11674 19.3187 9.95012 20.0331 11.0194C20.7476 12.0886 21.1289 13.3457 21.1289 14.6317C21.1289 16.3561 20.4439 18.0099 19.2245 19.2293C18.0052 20.4486 16.3514 21.1337 14.6269 21.1337Z" fill="var(--fill-0, white)"/>
</g>
</svg>
