<svg width="673" height="408" viewBox="0 0 673 408" fill="none" xmlns="http://www.w3.org/2000/svg">
<path d="M264.165 167.234C66.4398 151.876 -24.9972 49.3454 -46 0V366.038L672.66 378C682.862 318.131 461.891 182.592 264.165 167.234Z" fill="url(#paint0_linear_74_1797)"/>
<path d="M94.7721 267.314C94.7524 269.182 94.6262 271.048 94.3941 272.903C94.2443 273.923 94.1041 274.839 93.8953 275.855C93.5867 277.268 93.2775 278.468 92.8885 279.862C92.5585 280.863 92.2761 281.759 91.8473 282.726C90.6162 285.833 88.9022 289.039 86.8733 291.701C86.0406 292.793 84.841 294.042 84.1738 294.946C83.588 295.58 81.598 297.562 80.9024 298.087C79.2738 299.381 77.9653 300.373 76.2019 301.497C73.0096 303.353 70.4024 304.615 66.7835 305.633C61.5335 306.919 56.334 307.341 51.189 305.252C49.7111 304.59 48.5574 303.998 47.2887 302.968C42.9046 299.612 40.7947 294.13 44.8092 289.566C45.3 288.784 46.9314 287.244 47.6521 286.618C49.8572 284.678 53.9654 282.124 56.595 280.818C61.8824 277.945 68.4691 275.522 74.094 273.455C76.0344 272.788 77.9827 272.148 79.9401 271.534C81.604 270.974 83.2825 270.458 84.9738 269.987C86.6142 269.489 88.2621 269.015 89.9169 268.566C91.5305 268.13 93.1489 267.712 94.7721 267.314Z" fill="#8D9576"/>
<path d="M94.771 267.313C94.7512 269.182 94.625 271.048 94.3929 272.902C94.2432 273.923 94.1029 274.839 93.8941 275.854C93.5855 277.267 93.2764 278.468 92.8873 279.862C92.5573 280.862 92.2749 281.759 91.8461 282.726C90.615 285.833 88.9011 289.038 86.8722 291.701C86.0394 292.792 84.8398 294.042 84.1726 294.946C83.6737 294.085 80.8776 293.106 79.92 292.872C78.5754 292.542 77.3974 292.371 76.0292 292.677L75.2476 293.665C73.2141 292.625 71.4136 291.802 69.2277 291.088L69.1292 291.031C68.7793 290.248 68.6389 289.441 68.3784 288.627C68.0905 287.728 68.0908 287.722 67.3134 287.308C67.3499 286.836 74.3662 282.845 75.18 282.341C80.4457 279.077 77.7584 276.46 74.0928 273.454C76.0333 272.787 77.9815 272.148 79.9389 271.533C81.6028 270.973 83.2813 270.458 84.9726 269.987C86.6131 269.488 88.2609 269.014 89.9158 268.566C91.5293 268.129 93.1477 267.712 94.771 267.313Z" fill="#8D9576"/>
<path d="M94.7707 267.313C94.751 269.181 94.6248 271.047 94.3927 272.902C94.2429 273.922 94.1027 274.839 93.8939 275.854C93.5853 277.267 93.2761 278.467 92.8871 279.861C92.5571 280.862 92.2747 281.758 91.8459 282.725C90.6148 285.832 88.9008 289.038 86.8719 291.7C85.6403 290.156 86.2645 288.316 86.0286 286.485C85.7102 284.002 85.1868 282.482 86.1983 280.056C86.8149 279.866 87.4226 279.73 88.0488 279.582C85.2841 276.192 85.6725 275.388 89.7475 274.552C89.0502 274.095 88.5986 273.766 87.9459 273.246C87.2916 273.856 86.8379 274.19 86.0912 274.654C83.5571 274.419 81.8413 273.05 79.9387 271.533C81.6026 270.973 83.2811 270.457 84.9724 269.986C86.6128 269.488 88.2607 269.014 89.9155 268.565C91.5291 268.129 93.1475 267.711 94.7707 267.313Z" fill="#8D9576"/>
<path d="M84.9734 269.987C86.6139 269.488 88.2618 269.015 89.9166 268.566C89.673 270.854 89.5336 271.545 87.9298 273.238C86.7654 272.241 85.8411 271.263 84.9734 269.987Z" fill="#8D9576"/>
<path d="M92.8878 279.862C92.5579 280.862 92.2754 281.759 91.8466 282.725C90.2552 281.419 89.7216 281.256 88.1055 279.586C90.1569 279.308 90.9121 279.331 92.8878 279.862Z" fill="#8D9576"/>
<path d="M94.3938 272.902C94.2441 273.922 94.1038 274.838 93.895 275.853C92.0332 275.684 91.414 275.431 89.7527 274.549C91.5323 274.201 92.6924 273.439 94.3938 272.902Z" fill="#8D9576"/>
<path d="M81.7878 289.658C81.9428 289.795 82.2769 290.086 82.3697 290.249C83.0693 291.475 81.0786 293.037 79.9889 292.649C79.9676 291.625 79.7686 290.686 79.9009 289.685C80.7266 289.537 80.9571 289.507 81.7878 289.658Z" fill="#8D9576"/>
<path d="M78.2543 288.276C78.593 288.645 78.9412 288.958 78.877 289.52C78.7783 290.374 77.2869 291.386 76.4908 291.204L76.3349 290.94C76.3425 290.086 75.9292 288.85 76.5462 288.209C77.1608 287.931 77.6084 288.091 78.2543 288.276Z" fill="#8D9576"/>
<path d="M74.0944 273.454C77.76 276.461 80.4474 279.077 75.1816 282.341C74.3678 282.845 67.3515 286.836 67.3151 287.308C68.0925 287.723 68.0922 287.729 68.38 288.627C68.6406 289.442 68.7809 290.248 69.1308 291.032C64.6235 289.607 60.5133 288.721 55.8226 289.984C55.4812 289.166 55.3129 288.69 55.0638 287.839C59.0149 285.578 62.1425 284.281 56.5955 280.818C61.8829 277.945 68.4695 275.522 74.0944 273.454Z" fill="#8D9576"/>
<path d="M76.0306 292.676C77.3988 292.371 78.5767 292.541 79.9214 292.872C80.8789 293.105 83.6751 294.085 84.174 294.945C83.5882 295.579 81.5982 297.562 80.9026 298.087C79.274 299.38 77.9655 300.372 76.2021 301.496C73.0098 303.353 70.4026 304.614 66.7837 305.632C66.7944 304.469 65.7307 302.054 65.2112 300.932C65.1178 300.73 63.8785 300.214 63.513 299.69C63.1535 299.174 64.0639 298.367 64.0211 297.863C63.9541 297.07 62.6923 293.506 62.2625 293.112C60.8888 292.809 59.9204 294.955 59.4013 295.038C59.2962 294.361 59.2396 294.177 58.9073 293.579C61.0522 292.524 62.2165 291.685 64.0259 290.224C63.3068 291.448 62.5428 292.87 63.181 294.309C63.9665 296.106 66.6211 296.895 68.3435 296.025C70.645 294.863 70.1173 292.906 69.229 291.088C71.4149 291.801 73.2155 292.625 75.249 293.665L76.0306 292.676Z" fill="#8D9576"/>
<path d="M75.2311 293.675C76.687 294.379 79.9251 296.319 80.9567 297.61C81.0774 297.76 80.9859 297.838 80.9027 298.087C79.2741 299.381 77.9655 300.372 76.2022 301.497C74.6809 299.96 75.1046 299.698 74.1046 298.167C73.6479 297.823 73.163 298.148 72.8265 297.995C72.2019 297.711 71.1895 297.057 71.3386 296.287C72.2652 295.326 73.9441 296.028 74.6086 294.805L75.2311 293.675Z" fill="#8D9576"/>
<path d="M70.1401 296.916C70.6184 297.565 70.8462 298.677 71.2008 299.426C72.3545 301.863 71.9902 303.938 68.8366 303.769C63.8292 302.324 68.164 296.919 70.1401 296.916Z" fill="#8D9576"/>
<path d="M50.7178 301.792C50.7608 302.946 50.8394 304.146 51.1888 305.25C49.7109 304.589 48.5572 303.996 47.2885 302.967C48.9437 302.504 49.103 302.652 50.7178 301.792Z" fill="#8D9576"/>
<path d="M44.8085 289.565C45.2992 288.783 46.9306 287.243 47.6513 286.617C47.9252 287.283 48.4825 288.025 48.8627 288.691C47.0939 288.584 46.2047 288.27 44.8085 289.565Z" fill="#8D9576"/>
<path d="M14.1436 248.921C15.4473 250.282 16.6953 251.696 17.8847 253.158C18.4581 253.904 19.1513 254.763 19.6664 255.535C20.4623 256.747 21.092 257.784 21.8121 259.043C22.2642 259.924 22.7033 260.812 23.1311 261.706C24.6501 265.31 25.4421 267.739 26.1002 271.612C26.2972 272.989 26.4567 274.275 26.5283 275.668C26.5901 277.18 26.5727 278.44 26.5309 279.956C25.8225 288.719 22.7521 297.643 15.8844 303.51C14.3929 304.802 12.7138 305.861 10.905 306.65C9.47484 307.215 8.10499 307.678 6.56506 307.847L5.76844 307.926C0.730763 308.103 -3.06557 306.879 -4.49977 301.654C-5.7938 297.173 -4.07666 290.124 -2.79059 285.651C-0.725572 279.195 1.29953 274.277 4.09031 268.104C5.00528 266.258 5.89354 264.378 6.78694 262.521C7.60385 261.002 8.40325 259.362 9.1862 257.818C9.90296 256.679 10.9388 254.616 11.6184 253.37C12.444 251.878 13.2854 250.395 14.1436 248.921Z" fill="#8D9576"/>
<path d="M14.1436 248.921C15.4473 250.282 16.6953 251.696 17.8847 253.158C18.4581 253.904 19.1513 254.763 19.6664 255.535C20.4623 256.747 21.092 257.784 21.8121 259.043C22.2642 259.924 22.7033 260.812 23.1311 261.706C24.6501 265.31 25.4421 267.739 26.1002 271.612C26.2972 272.989 26.4567 274.275 26.5283 275.668C26.5901 277.18 26.5727 278.44 26.5309 279.956C23.312 279.543 17.1673 282.252 14.1188 283.719C14.0454 283.754 13.9606 283.863 13.9028 283.931C13.5713 283.958 13.6914 283.969 13.3769 283.865L13.2693 283.86C12.2289 283.492 11.3659 282.866 10.3771 282.459C10.113 282.35 9.82762 282.675 9.32288 282.564C8.86921 281.223 12.0013 272.796 11.4358 270.502C10.6029 267.117 6.99336 267.575 4.09031 268.104C5.00528 266.258 5.89354 264.378 6.78694 262.52C7.60385 261.002 8.40325 259.362 9.1862 257.818C9.90296 256.679 10.9388 254.616 11.6184 253.37C12.444 251.878 13.2854 250.395 14.1436 248.921Z" fill="#8D9576"/>
<path d="M14.1436 248.921C15.4473 250.282 16.6953 251.696 17.8847 253.158C18.4581 253.904 19.1513 254.763 19.6664 255.535C20.4623 256.747 21.092 257.784 21.8121 259.043C22.2642 259.924 22.7033 260.812 23.1311 261.706C24.6501 265.31 25.4421 267.739 26.1002 271.612C24.3383 271.486 23.1638 269.69 21.8475 268.643C19.9991 267.172 18.1028 266.285 17.3287 263.916C17.6322 263.369 17.924 262.81 18.2767 262.295C13.8499 261.952 13.602 261.093 15.8169 257.586C15.0888 257.729 14.3646 257.891 13.6256 257.951C13.5801 258.869 13.5191 259.408 13.3408 260.32C11.1022 261.93 9.52709 262.217 6.78694 262.52C7.60385 261.002 8.40325 259.362 9.1862 257.818C9.90296 256.679 10.9388 254.616 11.6184 253.37C12.444 251.878 13.2854 250.395 14.1436 248.921Z" fill="#8D9576"/>
<path d="M11.6179 253.371C12.9112 254.63 13.5924 255.813 13.6198 257.698C13.6211 257.786 13.6209 257.874 13.6194 257.962C12.0086 258.163 10.7992 258.059 9.18573 257.819C9.90249 256.679 10.9383 254.617 11.6179 253.371Z" fill="#8D9576"/>
<path d="M21.8122 259.044C22.2643 259.925 22.7035 260.813 23.1312 261.706C22.9121 261.73 22.2358 261.906 21.9303 261.963C20.5616 262.218 19.5893 262.313 18.2101 262.291C19.4745 260.741 20.1117 260.082 21.8122 259.044Z" fill="#8D9576"/>
<path d="M17.8848 253.157C18.4582 253.904 19.1514 254.763 19.6666 255.535C19.4547 255.624 19.5153 255.578 19.3495 255.726C18.2514 256.705 17.2574 257.137 15.8762 257.561C16.7511 256.005 17.0857 254.674 17.8848 253.157Z" fill="#8D9576"/>
<path d="M26.5275 275.668C26.5892 277.181 26.5719 278.44 26.53 279.956C23.3111 279.543 17.1665 282.253 14.118 283.719C14.0446 283.754 13.9598 283.863 13.902 283.932C13.5704 283.958 13.6906 283.969 13.376 283.865C14.8935 282.945 17.7143 281.892 19.3931 281.312L19.2165 280.022C21.0879 277.511 23.538 276.387 26.5275 275.668Z" fill="#8D9576"/>
<path d="M22.3313 273.903C23.051 274.678 23.0201 276.472 22.141 277.028C21.6761 277.008 21.8039 276.992 21.3573 276.609C20.753 276.176 19.3087 275.187 20.4842 274.188C20.9628 273.782 21.7215 273.809 22.3313 273.903Z" fill="#8D9576"/>
<path d="M18.93 275.597C19.2869 276.448 19.5044 278.229 18.4191 278.622C17.8821 278.502 17.8621 278.357 17.4196 277.95C15.3023 276.411 17.039 275.094 18.93 275.597Z" fill="#8D9576"/>
<path d="M4.08944 268.105C6.99249 267.575 10.6021 267.117 11.4349 270.502C12.0005 272.797 8.86834 281.223 9.32201 282.565C9.82676 282.675 10.1121 282.35 10.3762 282.46C11.365 282.866 12.228 283.493 13.2685 283.86C9.36634 285.905 5.30581 288.639 3.2396 292.661C2.43548 292.354 1.9647 292.138 1.1959 291.747C1.36405 291.036 1.59259 290.232 1.71473 289.543C1.99609 287.954 3.04654 285.865 0.714379 285.459C-0.639926 285.223 -1.53933 285.594 -2.79145 285.652C-0.726438 279.195 1.29866 274.278 4.08944 268.105Z" fill="#8D9576"/>
<path d="M4.07525 297.068C4.23859 297.685 4.45175 298.321 4.64395 298.932C2.2114 302.318 3.2563 305.058 5.76776 307.926C0.730082 308.103 -3.06625 306.879 -4.50045 301.654C-1.56134 301.555 -0.127859 299.669 0.718282 297.079C1.73791 297.16 3.05672 297.124 4.07525 297.068Z" fill="#8D9576"/>
<path d="M8.17477 304.546C9.07539 305.437 9.85543 305.944 10.9047 306.65C9.47454 307.215 8.10468 307.678 6.56475 307.847C7.4421 306.538 7.68343 306.042 8.17477 304.546Z" fill="#8D9576"/>
<path d="M36.8524 322.67C37.6561 323.28 38.6042 324.223 39.2855 324.966C40.0146 325.79 40.6653 326.53 41.3471 327.399C43.1502 329.866 44.1434 331.638 45.3722 334.45C45.6505 335.189 45.9717 335.981 46.1762 336.737C46.506 337.727 46.771 338.737 46.9696 339.763C47.1325 340.564 47.2845 341.323 47.4137 342.13C47.6239 343.609 47.7052 345.094 47.753 346.587C46.5143 346.267 45.1976 345.951 43.9711 345.61C42.6222 345.262 41.2782 344.901 39.9366 344.526L36.1184 343.368C34.5455 342.877 32.9758 342.378 31.4085 341.871C26.8248 340.218 21.9478 338.471 17.6282 336.184C15.3265 335.017 12.4098 333.358 10.4845 331.65C9.88422 331.12 9.46527 330.721 8.91203 330.143C8.38231 329.586 8.04977 329.125 7.59318 328.509C5.70569 325.068 6.70041 321.644 9.67078 319.265L10.1308 318.825C11.2313 317.997 11.8691 317.653 13.1139 317.049C21.3283 313.949 30.4457 317.159 36.8524 322.67Z" fill="#8D9576"/>
<path d="M39.2854 324.967C40.0145 325.791 40.6651 326.53 41.347 327.399C43.1501 329.866 44.1433 331.638 45.3721 334.45C45.6504 335.189 45.9716 335.982 46.1761 336.737C46.5058 337.728 46.7708 338.737 46.9695 339.763C47.1323 340.564 47.2843 341.323 47.4136 342.13C47.6238 343.61 47.7051 345.094 47.7528 346.588C46.5141 346.267 45.1974 345.951 43.9709 345.61C42.6221 345.262 41.2781 344.901 39.9364 344.526L36.1182 343.369C34.5453 342.878 32.9757 342.378 31.4084 341.872C39.2411 336.264 30.2559 334.333 26.0465 331.128L26.0994 330.887C27.3085 330.042 26.7231 329.487 27.48 328.039L27.5657 327.965C28.9764 327.706 31.4181 326.074 32.2931 326.21C33.6618 327.22 34.4204 326.913 35.9977 326.533C37.5118 326.062 37.946 325.836 39.2854 324.967Z" fill="#8D9576"/>
<path d="M41.3467 327.399C43.1498 329.866 44.143 331.638 45.3718 334.45C45.6501 335.189 45.9714 335.981 46.1758 336.737C46.5056 337.727 46.7706 338.737 46.9692 339.763C47.1321 340.564 47.2841 341.323 47.4133 342.13C47.6235 343.61 47.7049 345.094 47.7526 346.587C46.5139 346.267 45.1972 345.951 43.9707 345.61C42.6218 345.262 41.2778 344.901 39.9362 344.526L36.118 343.368C37.3498 342.164 39.1097 340.999 40.8595 340.845C41.3661 341.162 41.8772 341.556 42.3626 341.91C42.8318 341.566 43.3068 341.23 43.7868 340.899C40.5426 340.388 40.2168 339.516 42.4492 336.983C41.9578 336.877 41.3839 336.7 40.8931 336.562C39.8999 334.062 40.9976 331.024 40.8784 328.344C40.87 328.163 41.2369 327.572 41.3467 327.399Z" fill="#8D9576"/>
<path d="M42.3792 341.948C43.5688 343.329 43.7037 343.818 43.9706 345.61C42.6218 345.262 41.2777 344.901 39.9361 344.526C40.677 343.6 41.4938 342.738 42.3792 341.948Z" fill="#8D9576"/>
<path d="M45.3712 334.451C45.6494 335.19 45.9707 335.982 46.1752 336.738C46.0011 336.734 46.0733 336.724 45.9127 336.764C44.598 337.095 43.7364 337.144 42.4042 336.982C43.4318 335.945 44.1841 335.298 45.3712 334.451Z" fill="#8D9576"/>
<path d="M46.9693 339.763C47.1322 340.564 47.2842 341.324 47.4135 342.131C46.1889 341.698 44.981 341.162 43.7385 340.904C45.0659 340.201 45.4855 340.075 46.9693 339.763Z" fill="#8D9576"/>
<path d="M35.9972 326.534C36.8476 326.836 38.0619 327.315 37.9644 328.391C37.7178 328.8 37.6275 328.893 37.1753 329.122C36.7618 329.144 36.5073 329.203 36.1439 329.013C35.6083 328.413 35.9293 327.32 35.9972 326.534Z" fill="#8D9576"/>
<path d="M34.2645 328.211C35.8671 329.664 34.866 330.471 33.0931 330.262C32.8976 329.643 32.8609 328.449 33.3476 327.945C33.8102 327.898 33.7659 327.975 34.2645 328.211Z" fill="#8D9576"/>
<path d="M16.9735 328.968C20.377 330.04 24.2043 329.14 27.4798 328.038C26.7229 329.487 27.3083 330.042 26.0991 330.887L26.0463 331.128C30.2557 334.333 39.2408 336.264 31.4082 341.871C26.8244 340.218 21.9475 338.471 17.6278 336.184C21.7334 333.272 19.8314 332.59 16.3739 330.674C16.5445 330.057 16.7437 329.561 16.9735 328.968Z" fill="#8D9576"/>
<path d="M9.67019 319.266C9.4822 319.849 9.90664 321.32 10.1937 321.861C11.1876 323.737 12.1415 324.463 14.1787 324.819C14.4076 325.238 14.6449 325.697 14.8868 326.104C14.2593 326.724 13.6423 327.353 13.0341 327.992C10.9519 327.099 9.41648 326.836 7.59259 328.509C5.7051 325.069 6.69983 321.645 9.67019 319.266Z" fill="#8D9576"/>
<path d="M36.8525 322.67C37.6562 323.28 38.6043 324.222 39.2856 324.966C37.9462 325.836 37.512 326.061 35.9979 326.532C34.4206 326.912 33.662 327.22 32.2933 326.209C31.4183 326.074 28.9766 327.706 27.5659 327.964C27.8063 327.422 31.1175 326.534 31.8649 325.916C31.8773 325.525 31.6999 325.355 31.4888 324.95L31.5742 324.848C31.7701 325.253 31.982 325.591 32.2141 325.974C33.5013 325.314 35.9154 323.751 36.8525 322.67Z" fill="#8D9576"/>
<path d="M13.1135 317.05C13.0081 317.886 12.8641 318.846 12.8272 319.674C11.7764 319.202 11.2909 319.022 10.1304 318.826C11.2309 317.998 11.8687 317.654 13.1135 317.05Z" fill="#8D9576"/>
<path d="M8.91241 330.144C9.80557 330.052 10.5897 330.139 11.488 330.074L10.4848 331.651C9.88459 331.121 9.46564 330.722 8.91241 330.144Z" fill="#8D9576"/>
<path d="M71.0283 321.374C73.3118 323.287 74.6872 324.719 76.469 327.203C77.4737 328.67 78.1049 329.71 78.929 331.327C79.436 332.462 79.8218 333.353 80.2445 334.53C80.5967 335.575 80.8542 336.403 81.1253 337.471C81.8359 340.24 82.0456 342.803 82.0106 345.648C81.971 346.502 81.9265 347.211 81.8295 348.058C81.6971 349.189 81.5813 350.066 81.3586 351.192C81.1823 351.961 81.0135 352.738 80.801 353.498C80.3397 354.956 79.9029 356.251 79.3322 357.675C78.3217 356.932 77.3268 356.166 76.3522 355.377C75.2352 354.522 74.1436 353.636 73.0764 352.721C72.0004 351.852 70.9407 350.96 69.8989 350.049C68.6808 349.002 67.4847 347.93 66.3114 346.833C63.6408 344.533 57.3417 338.428 55.4514 335.483C53.8521 333.658 52.39 331.246 51.2151 329.128C50.7996 328.216 50.5533 327.616 50.232 326.67C50.0533 326.131 49.9702 325.654 49.858 325.099C49.1842 320.844 51.885 318.719 55.443 317.371L56.0339 317.212C57.4723 316.842 58.1112 316.753 59.5943 316.734C64.1056 316.928 67.5265 318.66 71.0283 321.374Z" fill="#8D9576"/>
<path d="M80.2445 334.53C80.5967 335.575 80.8541 336.402 81.1252 337.47C81.8359 340.24 82.0455 342.803 82.0105 345.648C81.971 346.502 81.9265 347.21 81.8294 348.058C81.697 349.189 81.5813 350.065 81.3586 351.192C81.1823 351.961 81.0134 352.738 80.801 353.497C80.3396 354.956 79.9028 356.251 79.3321 357.675C78.3217 356.932 77.3267 356.165 76.3521 355.376C75.2352 354.522 74.1435 353.636 73.0763 352.721C72.0003 351.852 70.9406 350.96 69.8989 350.049C68.6807 349.001 67.4846 347.93 66.3113 346.833L66.4613 346.787C67.8583 346.36 70.0966 345.764 70.7446 344.369C71.9563 341.76 66.5332 337.328 65.6949 334.78C65.9685 334.384 66.2404 334.715 66.4788 334.481C67.0151 333.955 67.61 333.195 68.0935 332.614L68.2165 332.596C70.1221 332.7 71.5142 332.705 73.3924 332.587L73.6236 333.58C75.7626 334.765 77.8339 334.978 80.2445 334.53Z" fill="#8D9576"/>
<path d="M81.1251 337.471C81.8358 340.24 82.0454 342.803 82.0104 345.648C81.9709 346.502 81.9264 347.211 81.8293 348.058C81.6969 349.189 81.5812 350.066 81.3585 351.192C81.1822 351.961 81.0133 352.738 80.8009 353.498C80.3395 354.956 79.9027 356.251 79.332 357.675C78.3216 356.933 77.3266 356.166 76.352 355.377C75.2351 354.522 74.1434 353.637 73.0762 352.722C72.0002 351.852 70.9405 350.961 69.8988 350.05C71.8041 349.506 73.4205 349.11 75.374 349.71C75.6748 350.223 75.97 350.751 76.2659 351.269L77.9505 350.888C75.0808 348.933 75.3773 348.384 78.2597 346.724L77.1116 345.886C77.0118 343.877 77.9809 342.806 78.9 341.15C79.6346 339.828 79.8927 338.425 81.1251 337.471Z" fill="#8D9576"/>
<path d="M76.2757 351.295C76.4729 351.91 76.4959 352.06 76.5991 352.612C76.7548 353.452 76.1761 354.917 76.3519 355.377C75.2349 354.522 74.1432 353.636 73.076 352.722C74.2472 351.975 74.9565 351.706 76.2757 351.295Z" fill="#8D9576"/>
<path d="M82.0108 345.648C81.9713 346.502 81.9268 347.211 81.8297 348.058C80.2309 347.773 79.6443 347.525 78.2412 346.731C79.6034 346.226 80.6156 345.973 82.0108 345.648Z" fill="#8D9576"/>
<path d="M81.3589 351.192C81.1826 351.961 81.0137 352.738 80.8013 353.498C79.7809 352.582 79.1117 351.802 77.9795 350.875C79.4623 350.807 79.9197 350.84 81.3589 351.192Z" fill="#8D9576"/>
<path d="M76.6337 334.673C77.6621 335.538 78.727 337.065 76.6831 337.492C74.8664 336.848 75.9066 335.869 76.6337 334.673Z" fill="#8D9576"/>
<path d="M73.6623 334.687C74.6064 335.61 75.5695 337.138 73.5478 337.405C73.0486 337.238 72.8972 337.166 72.6389 336.774C72.5947 336.057 72.9711 334.965 73.6623 334.687Z" fill="#8D9576"/>
<path d="M58.1821 329.209C61.2167 331.573 64.3538 332.172 68.0941 332.615C67.6106 333.196 67.0157 333.956 66.4794 334.482C66.241 334.716 65.9691 334.385 65.6956 334.781C66.5339 337.329 71.9569 341.761 70.7452 344.37C70.0972 345.765 67.859 346.361 66.4619 346.788L66.312 346.834C63.6414 344.534 57.3422 338.429 55.4519 335.484C55.6865 335.608 55.8423 335.872 56.0346 335.913C56.6749 336.068 57.9052 335.616 58.4716 335.328C60.4236 334.331 57.7345 331.51 56.9564 330.478L58.1821 329.209Z" fill="#8D9576"/>
<path d="M71.0291 321.374C73.3125 323.288 74.6879 324.72 76.4698 327.203C77.4744 328.67 78.1057 329.711 78.9297 331.327C79.4367 332.462 79.8226 333.353 80.2453 334.53C77.8346 334.978 75.7634 334.765 73.6244 333.58L73.3931 332.587C71.515 332.706 70.1229 332.7 68.2173 332.597C69.4954 331.451 70.5425 329.935 68.8634 328.503C68.1732 327.923 67.2802 327.643 66.3819 327.726C64.1416 327.952 64.0091 329.803 64.212 331.592C63.6472 330.557 63.0955 329.489 62.3067 328.605C61.8301 328.071 61.6306 327.627 61.951 326.939C62.2529 326.759 62.0947 326.8 62.4436 326.81C62.6262 327.179 63.1734 329.187 63.7628 328.913C64.7239 328.466 65.6999 327.149 66.3419 326.287C66.706 325.798 66.6178 325.285 66.4998 324.736C67.3555 324.366 67.5412 324.265 68.4785 324.245C69.2703 323.176 70.368 322.34 71.0291 321.374Z" fill="#8D9576"/>
<path d="M76.4693 327.202C77.4739 328.669 78.1052 329.71 78.9292 331.326C77.6495 332.193 74.9503 332.41 73.3747 332.608C73.3585 332.357 73.3391 332.106 73.3163 331.855C73.1673 330.299 71.4174 330.444 71.3027 329.158C71.9163 328.513 73.7599 328.976 73.8745 328.918C74.7797 328.462 75.1263 327.621 76.4693 327.202Z" fill="#8D9576"/>
<path d="M72.8516 323.76C73.2502 324.152 73.5374 324.431 73.5335 325.051C73.5282 326.025 71.3266 328.621 70.418 328.482C70.0274 328.197 69.9122 327.85 69.6914 327.409C69.6647 327.334 69.6405 327.258 69.6171 327.181C69.3069 326.162 69.016 325.07 69.5818 324.088C70.3313 322.787 71.808 323.103 72.8516 323.76Z" fill="#8D9576"/>
<path d="M55.4424 317.371C54.3947 320.241 54.61 322.496 57.3097 324.286C57.3683 324.785 57.4245 325.284 57.4765 325.785C56.6648 326.095 55.8048 326.409 55.0171 326.766C53.5798 325.262 52.0046 324.079 49.8574 325.098C49.1836 320.844 51.8844 318.719 55.4424 317.371Z" fill="#8D9576"/>
<path d="M56.0336 317.212C57.472 316.842 58.1109 316.752 59.594 316.733C58.9689 317.54 58.6365 318.121 58.1573 319.034C57.3632 318.221 57.0039 317.827 56.0336 317.212Z" fill="#8D9576"/>
<path d="M50.2313 326.67C51.2366 327.387 51.6121 327.6 52.7651 328.005C52.1534 328.404 51.7657 328.646 51.2143 329.128C50.7988 328.216 50.5525 327.616 50.2313 326.67Z" fill="#8D9576"/>
<path d="M119.332 280.106C119.616 281.396 119.725 282.837 119.858 284.16C119.885 284.9 119.924 285.653 119.915 286.392C119.865 287.372 119.826 288.39 119.739 289.364C119.645 290.116 119.566 290.856 119.408 291.598C118.923 294.097 118.128 296.526 117.041 298.828C116.584 299.673 116.119 300.566 115.634 301.39C115.038 302.279 114.481 303.112 113.835 303.967C108.418 310.071 101.83 314.854 93.198 313.465C92.0605 313.191 91.2538 312.932 90.1864 312.413L89.461 312.014C86.3452 309.935 84.8902 307.781 86.0682 303.979C86.3461 303.344 86.5557 302.954 86.8922 302.355C87.2256 301.791 87.6842 301.171 88.0645 300.628C90.2687 298.192 91.2448 297.199 93.7932 295.117C97.6571 292.108 101.174 289.892 105.321 287.407L109.261 285.199L112.705 283.385C113.475 282.899 115.107 282.14 115.974 281.704L119.332 280.106Z" fill="#8D9576"/>
<path d="M119.331 280.106C119.615 281.396 119.724 282.836 119.857 284.159C119.884 284.899 119.923 285.653 119.914 286.392C119.863 287.372 119.825 288.39 119.738 289.364C119.644 290.116 119.565 290.855 119.407 291.597C118.922 294.097 118.126 296.526 117.04 298.828C116.583 299.673 116.118 300.566 115.633 301.39C115.037 302.278 114.48 303.112 113.834 303.967C112.993 303.292 109.955 301.88 108.962 301.825C107.215 301.322 106.031 301.08 104.197 300.778C103.432 299.666 103.66 299.17 102.439 298.269C102.859 297.179 107.781 293.751 108.563 292.246C109.902 289.67 107.29 288.467 105.32 287.407L109.26 285.198L112.704 283.385C113.474 282.899 115.106 282.14 115.973 281.703L119.331 280.106Z" fill="#8D9576"/>
<path d="M119.332 280.105C119.616 281.396 119.725 282.836 119.858 284.159C119.885 284.899 119.924 285.653 119.915 286.391C119.864 287.372 119.826 288.389 119.739 289.364C119.645 290.116 119.565 290.855 119.408 291.597C118.923 294.097 118.127 296.525 117.04 298.828C116.021 297.611 116.095 296.418 115.627 294.942C115.062 293.162 114.582 292.312 114.984 290.441L116.214 289.871C113.823 287.873 113.834 287.254 116.694 286.02L115.262 285.343C114.887 285.883 114.611 286.157 114.161 286.623C112.178 286.766 110.95 286.065 109.261 285.198L112.705 283.385C113.474 282.899 115.106 282.14 115.974 281.703L119.332 280.105Z" fill="#8D9576"/>
<path d="M112.704 283.385C113.474 282.899 115.106 282.14 115.973 281.704C116.246 283.168 116.119 284.056 115.257 285.345C114.182 284.654 113.629 284.274 112.704 283.385Z" fill="#8D9576"/>
<path d="M119.739 289.365C119.645 290.117 119.565 290.856 119.408 291.598C118.123 291.007 117.419 290.659 116.237 289.881C117.591 289.367 118.32 289.304 119.739 289.365Z" fill="#8D9576"/>
<path d="M119.858 284.159C119.885 284.899 119.923 285.653 119.914 286.392C118.45 286.508 118.175 286.453 116.764 286.022C118.06 285.428 118.692 284.784 119.858 284.159Z" fill="#8D9576"/>
<path d="M115.632 301.39C115.036 302.278 114.48 303.112 113.833 303.967C112.992 303.292 109.955 301.88 108.962 301.825C109.608 300.344 110.907 300.557 112.327 300.543C113.659 300.748 114.386 300.838 115.632 301.39Z" fill="#8D9576"/>
<path d="M112.931 297.99C113.38 298.177 113.456 298.178 113.753 298.54C113.971 299.542 113.117 300.1 112.328 300.542C112.141 299.935 111.773 299.041 111.886 298.47C112.23 298.016 112.376 298.048 112.931 297.99Z" fill="#8D9576"/>
<path d="M110.293 297.428C110.578 297.648 110.646 297.729 110.887 297.985C111.169 298.814 110.164 300.064 109.391 299.777C109.211 299.023 108.776 298.372 109.186 297.681C109.605 297.425 109.782 297.46 110.293 297.428Z" fill="#8D9576"/>
<path d="M105.319 287.406C107.289 288.467 109.901 289.67 108.562 292.246C107.781 293.751 102.858 297.179 102.438 298.268C103.66 299.169 103.432 299.666 104.196 300.778C101.565 300.026 96.9947 300.622 94.4306 301.815L93.6309 300.439C96.4114 298.029 98.1107 297.195 93.7916 295.116C97.6555 292.107 101.172 289.891 105.319 287.406Z" fill="#8D9576"/>
<path d="M91.1142 303.488C91.7726 303.937 92.4549 304.419 93.1254 304.844L92.733 306.17C89.3894 307.397 89.7742 309.127 89.4595 312.014C86.3437 309.935 84.8887 307.781 86.0667 303.979C87.9325 305.194 89.4055 304.691 91.1142 303.488Z" fill="#8D9576"/>
<path d="M92.46 311.082C92.6694 311.972 92.8912 312.599 93.1973 313.465C92.0598 313.191 91.2531 312.932 90.1857 312.413C91.0281 312.03 91.7087 311.614 92.46 311.082Z" fill="#8D9576"/>
<path d="M88.0637 300.627C88.473 301.03 88.9112 301.444 89.296 301.867C88.4022 302.012 87.765 302.128 86.8914 302.354C87.2247 301.791 87.6834 301.17 88.0637 300.627Z" fill="#8D9576"/>
<path d="M168.313 252.673C168.393 252.851 168.396 252.827 168.428 253.015C168.78 255.057 162.976 268.536 161.743 271.222C160.32 274.333 158.802 277.4 157.19 280.419C155.253 283.978 153.132 287.434 150.833 290.771C135.372 313.024 115.987 320.725 89.3649 317.442C80.1739 316.308 72.235 314.488 63.1943 312.492C50.3873 309.664 36.2389 306.584 23.1545 308.868C10.6652 311.048 0.733836 318.572 -6.39923 328.865L-8.04892 327.249L-9.28176 326.042C-7.11534 323.179 -5.5999 321.3 -3.08857 318.764C15.4103 299.659 41.5207 305.07 64.6722 310.365C82.0878 314.35 101.723 318.832 119.356 313.44C142.944 306.19 155.998 282.819 164.416 261.271C165.374 258.816 166.531 254.381 168.313 252.673Z" fill="#8D9576"/>
<path d="M111.836 323.2C113.776 324.757 115.175 326.14 116.614 328.209C117.288 329.241 117.771 330.083 118.365 331.154C118.705 331.941 119.078 332.767 119.368 333.568C119.587 334.262 119.859 335.056 120.004 335.756C120.575 338.21 120.706 339.504 120.688 341.983L120.559 343.861C120.462 344.645 120.386 345.368 120.204 346.137C120.052 346.756 119.906 347.375 119.731 347.986C119.405 349.159 119.097 349.976 118.664 351.102C118.211 350.753 117.423 350.181 117.03 349.815C116.042 349.125 114.832 348.099 113.883 347.324C113.103 346.664 112.331 345.998 111.566 345.323C110.472 344.445 109.802 343.736 108.807 342.87C106.864 341.408 102.41 336.569 100.92 334.712C99.4818 333.029 98.4782 331.447 97.4341 329.526C97.1989 329.005 96.9816 328.452 96.7653 327.921C96.5984 327.431 96.5196 326.993 96.415 326.489C95.9549 323.173 97.7757 321.752 100.569 320.636L101.121 320.465C102.104 320.236 102.771 320.194 103.774 320.136C106.968 320.266 109.258 321.424 111.836 323.2Z" fill="#8D9576"/>
<path d="M119.369 333.569C119.587 334.263 119.86 335.056 120.005 335.757C120.576 338.21 120.706 339.504 120.689 341.983L120.559 343.861C120.462 344.646 120.386 345.368 120.205 346.138C120.052 346.756 119.906 347.375 119.732 347.986C119.406 349.159 119.098 349.976 118.665 351.102C118.211 350.753 117.423 350.182 117.03 349.815C116.043 349.125 114.832 348.099 113.883 347.324C113.104 346.664 112.332 345.999 111.566 345.323C110.472 344.445 109.803 343.736 108.807 342.87C116.557 341.259 109.336 336.941 108.433 333.801C109.192 333.519 109.61 332.797 110.142 332.13L110.271 332.117C111.124 332.18 113.667 332.07 114.108 332.255C114.887 333.962 117.78 333.899 119.369 333.569Z" fill="#8D9576"/>
<path d="M120.005 335.756C120.576 338.21 120.706 339.504 120.689 341.983L120.559 343.861C120.463 344.645 120.386 345.368 120.205 346.137C120.052 346.755 119.906 347.375 119.732 347.986C119.406 349.159 119.098 349.976 118.665 351.102C118.212 350.753 117.424 350.181 117.03 349.815C116.043 349.124 114.832 348.098 113.883 347.323C113.104 346.664 112.332 345.998 111.566 345.323C113.162 344.825 113.954 344.693 115.618 344.983C115.869 345.368 116.12 345.801 116.359 346.2L117.558 345.975C116.94 345.493 116.124 345.057 116.165 344.21C116.485 343.487 117.17 343.217 117.867 342.815C115.851 341.466 117.834 339.952 118.49 338.215C118.779 337.453 119.447 336.314 120.005 335.756Z" fill="#8D9576"/>
<path d="M116.359 346.242C116.389 346.345 116.419 346.448 116.45 346.552L116.485 346.69C116.701 347.491 116.516 348.052 116.493 348.873C116.477 349.366 116.667 349.417 117.029 349.815C116.042 349.125 114.831 348.099 113.882 347.324C114.871 346.778 115.291 346.576 116.359 346.242Z" fill="#8D9576"/>
<path d="M120.688 341.983L120.559 343.861C119.339 343.532 118.977 343.397 117.858 342.839C118.87 342.422 119.608 342.18 120.688 341.983Z" fill="#8D9576"/>
<path d="M120.205 346.137C120.053 346.755 119.907 347.375 119.732 347.986C118.844 347.108 118.595 346.695 117.562 345.92C118.628 345.875 119.176 345.943 120.205 346.137Z" fill="#8D9576"/>
<path d="M114.554 333.862C115.012 334.394 115.408 334.857 114.997 335.525C114.623 335.761 114.537 335.736 114.102 335.745C113.831 335.565 113.557 335.474 113.567 335.187C113.588 334.547 113.869 334.211 114.258 333.789L114.554 333.862Z" fill="#8D9576"/>
<path d="M116.619 333.64C117.075 334.083 117.593 334.646 117.499 335.315C117.204 335.734 117.289 335.606 116.748 335.842C116.291 335.692 116.113 335.639 115.898 335.214C115.912 334.719 116.352 334.098 116.619 333.64Z" fill="#8D9576"/>
<path d="M100.921 334.713C105.746 334.363 102.178 331.903 101.973 330.494C102.08 330.126 102.237 330.043 102.527 329.791C103.16 329.685 104.488 330.833 105.457 331.146C107.244 331.723 108.285 331.915 110.142 332.13C109.61 332.798 109.193 333.519 108.433 333.802C109.336 336.941 116.557 341.259 108.807 342.871C106.865 341.408 102.41 336.569 100.921 334.713Z" fill="#8D9576"/>
<path d="M111.835 323.2C113.775 324.756 115.174 326.139 116.613 328.209C117.288 329.24 117.77 330.083 118.365 331.154C118.705 331.941 119.077 332.766 119.368 333.568C117.779 333.898 114.886 333.961 114.108 332.254C113.666 332.069 111.123 332.179 110.271 332.117C113.11 329.686 109.692 327.347 107.695 329.009C107.123 329.485 107.155 330.404 107.168 331.115C106.733 330.43 105.597 328.946 105.309 328.381C105.459 328.072 105.461 327.981 105.752 327.806C106.342 328.213 106.112 329.164 106.912 329.367C107.395 329.191 108.212 328.09 108.673 327.672C109.113 327.271 109.048 326.677 108.996 326.127C109.533 325.942 109.847 325.882 110.409 325.774C110.923 325.26 111.959 324.447 112.175 323.758C112.217 323.624 111.935 323.331 111.835 323.2Z" fill="#8D9576"/>
<path d="M116.614 328.209C117.288 329.24 117.771 330.083 118.365 331.154C117.396 331.824 115.317 331.996 114.13 332.129C114.087 330.031 113.122 331.035 112.62 329.638C112.967 328.984 114.365 329.492 114.725 329.277C115.351 328.903 115.593 328.091 116.614 328.209Z" fill="#8D9576"/>
<path d="M113.931 325.308C114.985 326.755 112.958 328.949 111.994 329.021C111.638 328.825 111.541 328.538 111.342 328.172C110.617 325.594 111.252 324.685 113.931 325.308Z" fill="#8D9576"/>
<path d="M100.569 320.636C99.154 325.344 102.061 324.405 102.155 326.962L100.298 327.718C99.1869 326.536 98.0669 325.711 96.4149 326.49C95.9548 323.173 97.7756 321.753 100.569 320.636Z" fill="#8D9576"/>
<path d="M103.774 320.136C103.223 320.824 103.078 321.09 102.658 321.87C102.17 321.392 101.668 320.869 101.121 320.466C102.104 320.236 102.771 320.194 103.774 320.136Z" fill="#8D9576"/>
<path d="M98.6059 328.646C98.1987 328.938 97.8169 329.202 97.4338 329.526C97.1986 329.005 96.9813 328.452 96.7649 327.921C97.3957 328.142 97.988 328.391 98.6059 328.646Z" fill="#8D9576"/>
<path d="M134.531 272.901C135.181 273.317 136.117 274.197 136.647 274.77C138.125 276.38 138.965 277.483 140.058 279.398L140.952 281.226C141.229 281.962 141.554 282.765 141.759 283.516C142.129 284.718 142.326 285.47 142.498 286.722C142.633 287.916 142.688 288.858 142.735 290.048L142.692 290.342C142.651 291.151 142.596 291.737 142.49 292.541C141.895 295.746 141.084 298.024 138.761 300.401C138.038 301.031 137.553 301.38 136.713 301.864L136.287 302.037C133.694 303.072 131.487 303.143 129.723 300.628C129.494 300.275 129.273 299.793 129.082 299.409L128.538 297.944C127.953 296.023 127.781 294.125 127.63 292.138C127.301 289.569 127.644 284.205 127.837 281.618C127.92 280.382 128.011 279.408 128.173 278.175L128.499 275.307C128.59 274.412 128.774 273.349 128.906 272.446L129.359 269.731C130.359 270.198 131.049 270.546 131.998 271.103C132.503 271.4 133.106 271.815 133.606 272.141C133.943 272.381 134.22 272.631 134.531 272.901Z" fill="#8D9576"/>
<path d="M134.531 272.901C135.181 273.317 136.117 274.197 136.647 274.77C138.125 276.38 138.965 277.483 140.058 279.398L140.952 281.226C139.78 281.978 137.606 283.938 138.199 285.468C137.97 285.908 136.154 287.495 135.622 288.038L135.563 288.08C134.857 287.985 134.169 287.898 133.453 287.933C133.4 287.936 133.218 287.682 133.22 287.687C132.091 284.18 133.933 278.175 127.837 281.618C127.92 280.382 128.011 279.408 128.173 278.175L128.499 275.307C128.59 274.412 128.774 273.349 128.906 272.446L129.359 269.731C130.359 270.198 131.049 270.546 131.998 271.103C132.503 271.4 133.106 271.815 133.606 272.141C133.943 272.381 134.22 272.631 134.531 272.901Z" fill="#8D9576"/>
<path d="M134.531 272.901C135.181 273.317 136.117 274.197 136.647 274.77C138.125 276.38 138.965 277.483 140.058 279.398C139.817 279.306 139.619 279.318 139.493 279.276C137.628 278.659 135.486 278.262 133.939 277.036C133.964 276.662 133.982 276.292 134.033 275.921C133.289 276.076 132.627 276.322 131.963 275.959C131.496 275.407 131.673 275.014 131.808 274.36L131.889 273.959L130.909 274.492C131.09 275.311 131.209 275.555 130.739 276.333C130.333 277.006 128.883 277.873 128.173 278.175L128.499 275.307C128.59 274.412 128.774 273.349 128.906 272.446L129.359 269.731C130.359 270.198 131.049 270.546 131.998 271.103C132.503 271.4 133.106 271.815 133.606 272.141C133.943 272.381 134.22 272.631 134.531 272.901Z" fill="#8D9576"/>
<path d="M128.906 272.446C131.369 273.878 131.231 274.654 128.499 275.307C128.589 274.412 128.774 273.349 128.906 272.446Z" fill="#8D9576"/>
<path d="M134.53 272.9C135.179 273.317 136.116 274.197 136.645 274.769C136.157 274.705 134.993 275.544 134.046 275.856L134.102 275.693C134.548 274.385 135.571 273.882 134.53 272.9Z" fill="#8D9576"/>
<path d="M131.998 271.102C132.503 271.4 133.105 271.814 133.606 272.141C132.978 272.896 132.679 273.263 131.943 273.894C132.002 273.297 132.202 271.618 131.998 271.102Z" fill="#8D9576"/>
<path d="M138.586 281.09C138.893 281.483 139.211 282.232 138.991 282.718C138.653 282.882 138.751 282.824 138.267 282.673C137.712 282.487 137.748 282.554 137.465 282.155C137.453 281.383 137.928 281.215 138.586 281.09Z" fill="#8D9576"/>
<path d="M136.97 282.614C137.312 283.011 137.636 283.75 137.421 284.265C137.093 284.437 137.276 284.385 136.793 284.252C136.383 284.12 136.231 284.111 135.947 283.786C135.734 282.965 136.292 282.788 136.97 282.614Z" fill="#8D9576"/>
<path d="M127.836 281.618C133.932 278.175 132.091 284.179 133.219 287.687C133.217 287.682 133.399 287.935 133.452 287.933C134.168 287.897 134.856 287.985 135.562 288.079C133.886 290.055 132.445 291.94 132.112 294.594C131.701 294.562 131.223 294.537 130.82 294.48C130.612 292.076 130.571 290.098 127.629 292.138C127.3 289.569 127.644 284.204 127.836 281.618Z" fill="#8D9576"/>
<path d="M140.95 281.226C141.227 281.962 141.552 282.765 141.757 283.516C142.128 284.718 142.324 285.47 142.496 286.722C142.631 287.916 142.686 288.858 142.733 290.048L142.69 290.342C142.65 291.151 142.595 291.737 142.488 292.541C141.728 292.201 140.81 292.375 139.874 292.218C139.467 292.48 139.282 292.658 138.818 292.7C137.056 292.08 137.384 291.928 135.481 292.075C136.513 291.736 137.272 291.47 137.758 290.406C138.625 288.508 137.244 287.902 135.62 288.038C136.153 287.495 137.968 285.908 138.198 285.468C137.605 283.938 139.778 281.978 140.95 281.226Z" fill="#8D9576"/>
<path d="M141.759 283.516C142.129 284.718 142.326 285.47 142.498 286.722C141.706 287.25 141.222 287.046 140.415 287.152C140.219 287.179 139.702 288.267 138.904 288.289C138.58 287.827 138.833 286.887 138.927 286.293C138.656 286.021 138.554 285.987 138.426 285.649C138.788 284.976 141.003 283.585 141.759 283.516Z" fill="#8D9576"/>
<path d="M142.691 290.341C142.341 290.771 141.886 291.312 141.408 291.603C139.982 292.466 138.346 289.983 138.868 288.902C138.977 288.873 139.174 288.817 139.284 288.828C141.43 289.04 141.38 288.632 142.734 290.048L142.691 290.341Z" fill="#8D9576"/>
<path d="M131.633 297.327C132.233 297.096 132.784 296.799 133.404 296.932C134.559 297.944 132.662 299.586 136.287 302.037C133.694 303.072 131.487 303.143 129.723 300.627C131.301 300.468 131.66 298.62 131.633 297.327Z" fill="#8D9576"/>
<path d="M137.011 299.854L138.761 300.401C138.038 301.031 137.553 301.38 136.713 301.865C136.947 301.183 136.949 300.575 137.011 299.854Z" fill="#8D9576"/>
<path d="M128.537 297.943L129.877 297.795L129.081 299.409L128.537 297.943Z" fill="#8D9576"/>
<path d="M135.324 291.767L135.434 291.779L135.516 291.882C135.213 291.986 135.208 291.964 134.989 292.19C134.9 292.816 135.334 293.042 135.391 293.739C135.087 293.908 135.049 293.813 134.601 293.725C134.555 292.522 134.403 291.815 134.125 290.648L135.324 291.767Z" fill="#8D9576"/>
<path d="M158.585 313.502C159.321 314.045 159.98 314.685 160.544 315.405C161.285 316.241 161.829 316.935 162.502 317.818L159.982 318.709L157.278 319.625C156.426 319.888 155.398 320.236 154.549 320.456C153.503 320.762 152.46 321.08 151.398 321.326C148.39 322.195 144.492 323.049 141.374 323.393C139.592 323.582 137.4 323.75 135.628 323.529C135.189 323.462 134.66 323.398 134.235 323.299C130.246 322.397 129.628 319.857 130.509 316.284C130.789 315.465 131.004 315.036 131.438 314.303C133.05 311.725 135.648 310.277 138.399 309.23C140.208 308.638 141.948 308.344 143.839 308.221C145.046 308.213 145.926 308.26 147.116 308.351C147.957 308.444 148.568 308.568 149.399 308.743C149.98 308.854 150.883 309.165 151.472 309.351C153.416 309.978 154.812 310.764 156.522 311.837L157.889 312.843L158.585 313.502Z" fill="#8D9576"/>
<path d="M158.584 313.502C159.321 314.045 159.98 314.685 160.544 315.405C161.285 316.241 161.829 316.935 162.501 317.818L159.982 318.709L157.278 319.625C156.426 319.888 155.398 320.236 154.549 320.456C153.502 320.762 152.46 321.08 151.397 321.326C152.787 316.697 151.102 316.908 147.102 317.219C146.296 317.282 145.129 317.505 144.401 317.144C144.315 316.976 144.033 315.638 143.827 315.095L143.9 314.967C144.382 314.324 145.474 312.393 145.864 312.106C146.044 312.137 146.462 312.217 146.611 312.143C147.875 311.514 148.989 310.036 149.399 308.743C149.979 308.854 150.883 309.165 151.472 309.351C153.416 309.978 154.811 310.764 156.522 311.837L157.889 312.843L158.584 313.502Z" fill="#8D9576"/>
<path d="M158.585 313.502C159.321 314.045 159.98 314.685 160.545 315.405C161.285 316.241 161.83 316.935 162.502 317.819L159.983 318.709L157.279 319.625C156.427 319.888 155.398 320.236 154.549 320.456C154.864 319.562 155.244 318.231 155.932 317.594C156.522 317.048 156.889 317.16 157.655 317.198L157.97 316.184C157.293 316.435 156.719 316.779 156.046 316.418C155.571 315.842 155.72 315.179 155.767 314.432C155.645 314.472 155.001 314.682 154.89 314.679C154.084 314.617 153.261 312.975 152.934 312.335C152.467 311.422 151.507 310.333 151.472 309.351C153.416 309.978 154.812 310.764 156.522 311.837L157.89 312.843L158.585 313.502Z" fill="#8D9576"/>
<path d="M157.649 317.221C158.839 317.562 159.173 317.841 159.982 318.708L157.278 319.625C157.304 318.739 157.443 318.074 157.649 317.221Z" fill="#8D9576"/>
<path d="M156.522 311.837L157.89 312.843L157.734 312.959C156.842 313.631 156.929 313.81 155.761 314.407C155.971 313.3 156.131 312.893 156.522 311.837Z" fill="#8D9576"/>
<path d="M158.585 313.502C159.321 314.045 159.98 314.685 160.545 315.405C159.774 315.663 158.808 315.876 158.01 316.071C158.447 315.295 158.962 314.978 159.168 314.402C159.093 313.916 158.984 313.947 158.585 313.502Z" fill="#8D9576"/>
<path d="M149.868 310.89C150.032 311.551 149.837 312.114 149.136 312.297C148.778 312.158 148.922 312.272 148.714 311.913C148.437 311.465 148.141 311.213 148.533 310.8C149.02 310.692 149.374 310.802 149.868 310.89Z" fill="#8D9576"/>
<path d="M148.676 312.6C148.88 313.234 148.792 313.681 148.166 314.008C147.716 313.98 147.91 314.062 147.576 313.729L146.91 312.552C147.641 312.516 147.957 312.537 148.676 312.6Z" fill="#8D9576"/>
<path d="M143.828 315.095C144.033 315.638 144.315 316.975 144.402 317.144C145.129 317.504 146.296 317.282 147.103 317.219C151.103 316.908 152.788 316.696 151.398 321.326C148.391 322.194 144.492 323.048 141.374 323.393C142.619 320.231 141.112 320.51 138.561 320.718C138.448 320.325 138.341 319.929 138.242 319.533C140.625 318.701 142.294 317.078 143.828 315.095Z" fill="#8D9576"/>
<path d="M149.399 308.742C148.99 310.036 147.875 311.513 146.611 312.143C146.463 312.217 146.044 312.136 145.864 312.105C145.474 312.392 144.382 314.324 143.9 314.967C143.461 311.714 140.013 312.994 140.237 315.341C140.304 316.049 141.002 316.477 141.56 316.864C141.153 316.858 138.684 316.946 138.549 316.87L138.461 316.381C138.747 316.203 139.195 316.391 139.758 316.396C140.575 315.892 139.961 314.458 139.512 313.842C139.102 313.279 138.742 313.251 138.887 312.458C139.092 311.344 138.898 310.232 138.399 309.23C140.208 308.638 141.948 308.344 143.839 308.22C145.046 308.213 145.926 308.259 147.116 308.35C147.957 308.444 148.568 308.568 149.399 308.742Z" fill="#8D9576"/>
<path d="M143.84 308.22C145.047 308.213 145.926 308.26 147.116 308.35C147.013 309.442 146.334 311.086 145.756 312.009L144.98 311.588C144.39 311.784 143.601 312.128 143.025 311.938C142.949 311.378 143.807 310.645 143.825 310.257C143.863 309.486 143.621 309.057 143.84 308.22Z" fill="#8D9576"/>
<path d="M141.232 308.949C142.01 309.561 142.904 311.348 142.162 312.212C141.756 312.345 141.46 312.236 141.034 312.153C138.345 311.134 139.196 308.928 141.232 308.949Z" fill="#8D9576"/>
<path d="M131.439 314.303C131.795 314.841 132.035 315.239 132.349 315.797C131.651 315.952 131.191 316.056 130.509 316.284C130.789 315.465 131.004 315.036 131.439 314.303Z" fill="#8D9576"/>
<path d="M135.508 322.241C135.528 322.676 135.58 323.095 135.629 323.529C135.189 323.461 134.66 323.397 134.235 323.299C134.623 322.946 135.098 322.576 135.508 322.241Z" fill="#8D9576"/>
<path d="M150.505 258.487C150.861 258.805 151.56 259.392 151.826 259.746L152.894 260.954C155.751 264.874 157.222 269.25 155.352 273.93C155.047 274.412 154.751 274.889 154.419 275.353L153.951 275.828C152.238 277.23 151.069 277.759 149.031 276.562C147.046 274.876 146.27 273.262 145.101 270.97C144.018 268.515 143.17 265.975 142.405 263.407C142.143 262.612 141.933 261.777 141.716 260.967C141.521 260.345 141.329 259.431 141.17 258.775C140.987 258.13 140.802 257.201 140.645 256.527C140.475 255.868 140.365 255.207 140.244 254.539C141.116 254.593 141.761 254.675 142.627 254.805L143.894 255.089C144.44 255.225 145.011 255.434 145.547 255.614L146.698 256.086C148.233 256.81 149.191 257.443 150.505 258.487Z" fill="#8D9576"/>
<path d="M150.505 258.487C150.861 258.805 151.56 259.392 151.826 259.746L152.894 260.954C152.239 261.416 151.334 262.706 150.967 263.42L150.96 263.509C150.457 264.202 150.062 265.12 149.756 265.921C149.209 266.071 148.503 266.243 147.978 266.423C146.388 263.833 145.603 259.732 142.405 263.407C142.143 262.612 141.933 261.777 141.716 260.967C141.521 260.345 141.329 259.431 141.17 258.775C140.987 258.13 140.802 257.201 140.645 256.527C140.475 255.868 140.365 255.207 140.244 254.539C141.116 254.593 141.761 254.675 142.627 254.805L143.894 255.089C144.44 255.225 145.011 255.434 145.547 255.614L146.698 256.086C148.233 256.81 149.191 257.443 150.505 258.487Z" fill="#8D9576"/>
<path d="M146.698 256.086C148.233 256.81 149.191 257.443 150.504 258.487C149.702 258.75 146.417 258.896 145.619 258.509C145.407 258.253 145.414 258.174 145.324 257.853L145.197 257.772C144.747 257.968 144.317 258.325 143.863 258.338C143.335 258.067 143.344 257.706 143.202 257.14L143.059 257.101C142.668 257.506 142.605 257.527 142.937 258.05C143.492 258.926 142.302 260.206 141.716 260.967C141.521 260.345 141.328 259.431 141.17 258.775C140.987 258.13 140.802 257.201 140.645 256.527C140.475 255.868 140.364 255.207 140.244 254.539C141.115 254.593 141.76 254.675 142.627 254.804L143.893 255.089C144.439 255.225 145.01 255.433 145.547 255.614L146.698 256.086Z" fill="#8D9576"/>
<path d="M140.645 256.527C141.238 256.714 142.014 256.861 142.319 257.394C142.289 258.125 141.732 258.358 141.17 258.776C140.987 258.131 140.802 257.202 140.645 256.527Z" fill="#8D9576"/>
<path d="M145.547 255.615L146.698 256.087C146.177 256.723 145.839 257.096 145.256 257.673C145.261 256.81 145.229 256.433 145.547 255.615Z" fill="#8D9576"/>
<path d="M142.626 254.805L143.893 255.089C143.681 255.915 143.587 256.095 143.208 256.843C143.032 256.036 142.789 255.476 142.626 254.805Z" fill="#8D9576"/>
<path d="M151.825 259.747L152.893 260.955C152.238 261.417 151.333 262.707 150.966 263.421C150.304 262.615 150.527 262.286 150.72 261.331C150.175 261.354 149.524 261.518 149.341 260.93C149.452 260.494 149.469 260.256 149.946 260.181C150.319 260.372 150.408 260.55 150.661 260.884L150.757 261.013L150.923 260.949C151.144 260.408 151.242 259.912 151.825 259.747Z" fill="#8D9576"/>
<path d="M149.225 261.584C149.537 261.878 149.935 262.226 149.962 262.653C149.687 262.936 149.737 262.842 149.209 262.877C148.819 262.872 148.983 262.934 148.69 262.712L148.656 262.44C148.812 261.954 148.839 261.943 149.225 261.584Z" fill="#8D9576"/>
<path d="M150.959 263.509C150.883 264.276 149.174 266.993 148.987 268.191C148.803 269.366 148.867 270.417 148.882 271.579C148.381 271.747 148.616 271.75 148.155 271.647C147.306 270.89 147.676 270.186 146.582 269.886C145.871 270.003 145.598 270.436 145.1 270.971C144.017 268.515 143.169 265.976 142.404 263.408C145.603 259.733 146.387 263.834 147.978 266.424C148.502 266.244 149.208 266.072 149.755 265.922C150.061 265.121 150.457 264.203 150.959 263.509Z" fill="#8D9576"/>
<path d="M153.951 275.828C152.238 277.231 151.068 277.76 149.031 276.563C150.008 275.583 149.956 274.8 149.409 273.586C151.214 272.125 150.743 272.963 151.589 274.387C152.02 275.111 153.179 275.465 153.951 275.828Z" fill="#8D9576"/>
<path d="M153.936 273.944L155.351 273.93C155.046 274.412 154.75 274.889 154.418 275.354C154.263 274.882 154.102 274.412 153.936 273.944Z" fill="#8D9576"/>
<path d="M150.59 268.628C150.392 269.176 150.695 269.514 150.945 270.022L150.88 270.182L150.641 270.206L150.502 269.997C150.214 269.404 149.833 268.827 149.483 268.264L150.59 268.628Z" fill="#8D9576"/>
<path d="M173.099 291.939C173.702 292.294 174.823 293.446 175.265 294.013C175.637 294.489 176.076 295.023 176.418 295.513L174.559 296.165C173.889 296.388 173.138 296.661 172.47 296.862C171.784 297.071 171.062 297.304 170.374 297.491L167.993 298.191C165.322 298.879 163.169 299.338 160.426 299.731C156.375 300.139 150.569 300.268 152.181 294.305C152.349 293.8 152.591 293.362 152.83 292.886C155.59 288.979 160.244 287.894 164.801 288.322C165.308 288.38 166.005 288.523 166.522 288.612C166.965 288.703 167.603 288.907 168.054 289.036C169.481 289.551 170.609 290.162 171.888 290.958C172.201 291.2 172.644 291.491 172.978 291.725L173.099 291.939Z" fill="#8D9576"/>
<path d="M173.098 291.94C173.701 292.294 174.823 293.447 175.264 294.014C175.636 294.49 176.076 295.024 176.418 295.513L174.559 296.165C173.889 296.389 173.137 296.661 172.47 296.863C171.784 297.071 171.062 297.304 170.374 297.492L167.992 298.191C169.496 293.627 165.657 295.158 162.655 295.098C162.639 294.43 162.549 294.109 162.253 293.496L162.341 293.29L162.261 292.853C162.657 292.165 162.975 292.461 163.441 291.197L163.122 290.83C163.319 290.877 163.5 290.947 163.687 291.026C164.195 290.744 164.729 288.9 164.801 288.323C165.307 288.38 166.005 288.523 166.522 288.613C166.964 288.704 167.603 288.908 168.054 289.037C169.48 289.552 170.608 290.163 171.888 290.959C172.2 291.201 172.644 291.492 172.977 291.726L173.098 291.94Z" fill="#8D9576"/>
<path d="M173.099 291.939C173.702 292.294 174.823 293.446 175.265 294.013C175.637 294.489 176.076 295.023 176.418 295.513L174.559 296.164C173.889 296.388 173.138 296.661 172.47 296.862C171.784 297.07 171.062 297.304 170.374 297.491C170.776 296.379 170.962 296 171.585 295.016C172.201 295.024 172.72 295.138 173 294.472L172.864 294.312C172.352 294.481 172.211 294.549 171.686 294.582C170.984 294.114 171.517 293.809 171.259 293.022C171.024 293.021 170.949 293.029 170.723 293.069L170.517 293.108C169.802 292.695 168.144 289.827 168.054 289.036C169.481 289.551 170.609 290.162 171.888 290.958C172.201 291.2 172.644 291.491 172.978 291.725L173.099 291.939Z" fill="#8D9576"/>
<path d="M172.47 296.862C172.504 296.183 172.414 295.55 173.035 295.195C173.684 295.232 174.087 295.722 174.559 296.164C173.889 296.387 173.138 296.66 172.47 296.862Z" fill="#8D9576"/>
<path d="M171.889 290.958C172.202 291.2 172.645 291.491 172.978 291.725C172.46 292.132 171.901 292.594 171.358 292.959C171.494 291.957 171.588 291.877 171.889 290.958Z" fill="#8D9576"/>
<path d="M173.099 291.939C173.702 292.293 174.823 293.445 175.265 294.013C174.591 293.543 173.677 293.957 172.911 294.165C173.239 293.781 173.632 293.477 173.838 293.024C173.76 292.522 173.48 292.345 173.099 291.939Z" fill="#8D9576"/>
<path d="M164.802 288.321C165.309 288.379 166.006 288.522 166.523 288.612C166.264 289.169 166.09 289.479 165.769 290.003C166.145 290.301 166.475 289.991 166.917 290.396C166.959 290.827 166.85 291.087 166.471 291.322C165.878 291.129 165.714 290.287 165.382 290.437C163.486 291.302 163.473 291.844 162.342 293.289L162.262 292.851C162.658 292.164 162.976 292.459 163.442 291.195L163.123 290.828C163.32 290.875 163.501 290.946 163.688 291.025C164.197 290.743 164.731 288.899 164.802 288.321Z" fill="#8D9576"/>
<path d="M165.793 291.518L165.979 291.768C166.039 292.198 166.063 291.992 165.889 292.406C165.475 292.641 165.688 292.594 165.23 292.578C164.985 292.14 164.81 291.996 164.856 291.574C165.162 291.393 165.424 291.475 165.793 291.518Z" fill="#8D9576"/>
<path d="M162.656 295.098C165.658 295.158 169.497 293.626 167.993 298.191C165.322 298.879 163.169 299.338 160.427 299.731C160.666 299.165 160.896 298.679 160.769 298.077C159.946 297.046 158.545 298.115 158.043 297.217C158.216 296.481 159.403 296.293 160.089 295.727C160.983 294.99 161.527 294.381 162.254 293.495C162.55 294.109 162.64 294.429 162.656 295.098Z" fill="#8D9576"/>
<path d="M152.83 292.885C153.175 293.342 153.31 293.364 153.378 293.85C153.107 294.134 152.585 294.203 152.181 294.304C152.349 293.799 152.591 293.361 152.83 292.885Z" fill="#8D9576"/>
<path d="M159.67 294.105C159.78 294.228 160.295 294.638 160.451 294.767C159.902 294.751 159.294 294.779 158.739 294.792C158.384 294.849 158.555 294.873 158.216 294.687L158.196 294.481L158.428 294.349C159.071 294.46 159.168 294.54 159.67 294.105Z" fill="#8D9576"/>
<path d="M180.465 274.179C180.825 274.523 181.194 274.856 181.517 275.235C181.961 275.778 182.475 276.38 182.886 276.941L181.235 277.535C180.631 277.733 179.878 278.005 179.279 278.175L177.49 278.713L175.309 279.365C172.783 279.979 171.057 280.361 168.508 280.736C166.604 280.921 164.57 281.048 162.735 280.369C160.921 279.421 160.771 278.299 161.061 276.402L161.165 275.905C161.308 275.494 161.604 274.929 161.799 274.523C163.141 272.735 164.472 271.853 166.563 271.12C167.131 270.944 167.444 270.835 168.045 270.76L168.083 270.727C168.79 270.526 169.472 270.489 170.202 270.42C170.948 270.388 171.616 270.463 172.359 270.527C172.89 270.589 173.468 270.701 174 270.791C174.197 270.821 175.06 271.081 175.302 271.148C176.804 271.691 177.492 272.047 178.853 272.892L179.687 273.517L180.465 274.179Z" fill="#8D9576"/>
<path d="M180.465 274.18C180.826 274.524 181.195 274.857 181.517 275.236C181.962 275.779 182.476 276.381 182.886 276.942L181.236 277.536C180.632 277.735 179.878 278.006 179.28 278.176L177.49 278.714L175.31 279.366C176.671 275.432 173.259 276.517 170.579 276.605C170.479 275.893 170.45 275.732 170.191 275.065L170.309 274.935C169.679 273.048 168.015 273.465 167.744 275.068L167.654 275.111C167.531 274.775 167.322 274.096 167.059 273.882C166.615 273.52 166.866 273.21 167.019 272.685C166.858 272.167 166.706 271.645 166.564 271.121C167.131 270.945 167.444 270.836 168.045 270.762L168.084 270.728C168.79 270.527 169.472 270.49 170.202 270.421C170.949 270.389 171.616 270.464 172.359 270.528C172.891 270.59 173.469 270.702 174 270.792C174.197 270.822 175.06 271.082 175.302 271.149C176.804 271.692 177.492 272.048 178.853 272.893L179.687 273.518L180.465 274.18Z" fill="#8D9576"/>
<path d="M172.36 270.527C172.891 270.589 173.469 270.701 174.001 270.791C173.784 271.242 173.595 271.607 173.349 272.043C173.73 272.317 173.953 272.022 174.358 272.385C174.397 272.795 174.407 272.587 174.191 273.034L173.951 273.196C173.386 273.006 173.428 272.426 173.035 272.373C171.195 273.501 171.414 273.159 170.31 274.934C169.68 273.047 168.016 273.464 167.744 275.067L167.654 275.11C167.532 274.774 167.323 274.095 167.06 273.881C166.616 273.519 166.867 273.209 167.02 272.684C166.858 272.166 166.707 271.645 166.564 271.12C167.132 270.944 167.445 270.835 168.046 270.761L168.084 270.727C168.791 270.526 169.473 270.489 170.203 270.42C170.949 270.388 171.617 270.463 172.36 270.527Z" fill="#8D9576"/>
<path d="M172.36 270.527C172.549 272.32 170.562 273.598 169.685 272.883C169.664 272.32 169.972 272.243 170.192 271.877C170.148 271.95 170.179 270.603 170.203 270.42C170.949 270.388 171.617 270.463 172.36 270.527Z" fill="#8D9576"/>
<path d="M168.084 270.726C168.837 271.155 169.546 272.153 169.122 272.996C168.124 273.604 166.081 272.435 168.045 270.76L168.084 270.726Z" fill="#8D9576"/>
<path d="M180.466 274.179C180.826 274.523 181.195 274.856 181.518 275.235C181.962 275.778 182.476 276.38 182.887 276.941L181.236 277.535C180.632 277.733 179.878 278.005 179.28 278.175L177.491 278.713C177.754 277.805 178.034 277.305 178.511 276.516C178.892 276.53 179.114 276.564 179.483 276.454C179.737 276.116 179.666 276.298 179.72 275.894C179.22 276.011 178.857 276.19 178.439 276.046C178.131 275.626 178.388 275.28 178.225 274.751C178.01 274.756 177.476 274.787 177.348 274.684C176.798 274.238 175.47 271.72 175.303 271.148C176.804 271.691 177.492 272.047 178.854 272.892L179.688 273.517L180.466 274.179Z" fill="#8D9576"/>
<path d="M179.279 278.174C179.358 277.578 179.299 276.835 179.934 276.667C180.47 276.835 180.796 277.173 181.235 277.535C180.631 277.733 179.878 278.005 179.279 278.174Z" fill="#8D9576"/>
<path d="M178.853 272.892L179.687 273.517C179.333 273.886 179.109 274.197 178.638 274.375L178.446 274.299C178.37 273.864 178.652 273.295 178.853 272.892Z" fill="#8D9576"/>
<path d="M180.465 274.18C180.825 274.524 181.194 274.857 181.517 275.236C180.939 275.457 180.777 275.535 180.168 275.588L180.091 275.46C180.311 275.132 180.459 274.919 180.636 274.559L180.465 274.18Z" fill="#8D9576"/>
<path d="M173.344 273.328C173.632 273.697 173.579 273.751 173.442 274.15C173.058 274.422 173.259 274.374 172.835 274.357C172.648 274.04 172.491 273.857 172.494 273.495C172.831 273.269 172.86 273.347 173.344 273.328Z" fill="#8D9576"/>
<path d="M170.579 276.604C173.259 276.516 176.671 275.431 175.309 279.365C172.783 279.98 171.057 280.361 168.508 280.736C168.817 280.109 169.088 279.576 168.617 279.003C167.796 278.66 166.938 279.119 166.393 278.525C166.517 277.843 168.124 277.286 168.807 276.623C169.49 275.96 169.603 275.826 170.191 275.064C170.449 275.732 170.479 275.892 170.579 276.604Z" fill="#8D9576"/>
<path d="M163.215 277.559C163.699 277.412 164.055 277.241 164.53 277.358C164.991 277.803 164.819 278.087 164.685 278.694C163.491 279.056 163.129 279.111 162.735 280.369C160.921 279.421 160.771 278.3 161.061 276.402C161.924 277.075 162.134 277.301 163.215 277.559Z" fill="#8D9576"/>
<path d="M161.8 274.523C162.033 274.848 162.263 275.071 162.262 275.454C161.936 275.772 161.649 275.769 161.166 275.905C161.309 275.495 161.604 274.929 161.8 274.523Z" fill="#8D9576"/>
<path d="M168.438 276.144C168.425 276.193 168.411 276.242 168.397 276.291C167.835 276.324 166.99 276.421 166.47 276.304L166.517 276.104C166.798 275.821 167.512 275.916 167.975 275.81L168.438 276.144Z" fill="#8D9576"/>
<path d="M188.061 259.56C188.503 260.006 189.011 260.473 189.355 260.989C189.622 261.321 189.884 261.655 190.141 261.995L188.52 262.562L186.564 263.221L184.728 263.79C184.124 263.962 183.211 264.253 182.624 264.383C180.257 264.997 178.27 265.463 175.832 265.767C173.843 265.953 171.963 266.114 170.035 265.414C168.204 264.465 168.09 263.3 168.331 261.412C169.042 258.618 171.181 257.157 173.716 256.193C174.338 255.998 174.663 255.889 175.321 255.794C175.989 255.58 176.848 255.536 177.553 255.481C178.324 255.45 178.938 255.503 179.707 255.559C180.195 255.614 180.806 255.747 181.299 255.839L182.598 256.193C183.972 256.635 184.938 257.179 186.144 257.945L186.978 258.588C187.318 258.843 187.739 259.26 188.061 259.56Z" fill="#8D9576"/>
<path d="M188.061 259.56C188.503 260.006 189.011 260.473 189.354 260.989C189.622 261.321 189.883 261.656 190.141 261.995L188.52 262.563L186.564 263.221L184.728 263.79C184.124 263.962 183.211 264.253 182.623 264.383C183.842 260.264 180.612 261.722 177.852 261.629C177.775 260.941 177.723 260.751 177.511 260.089L177.573 260.006C176.965 258.084 175.57 258.409 174.937 260.127L174.858 260.121C174.636 259.265 174.689 259.306 174.12 258.628C174.108 258.282 174.219 258.066 174.336 257.741C174.165 257.221 174.014 256.639 173.715 256.193C174.338 255.998 174.663 255.889 175.321 255.795C175.988 255.58 176.848 255.536 177.553 255.481C178.324 255.45 178.938 255.503 179.706 255.56C180.194 255.614 180.806 255.747 181.299 255.84L182.597 256.194C183.971 256.635 184.938 257.18 186.143 257.945L186.977 258.589C187.318 258.844 187.738 259.261 188.061 259.56Z" fill="#8D9576"/>
<path d="M179.707 255.559C180.194 255.614 180.806 255.747 181.299 255.839C181.044 256.462 180.903 256.664 180.542 257.218C181.032 257.197 181.455 257.177 181.732 257.67C181.609 258.03 181.638 257.922 181.241 258.185L180.974 258.175C180.704 257.872 180.659 257.721 180.494 257.358C179.773 257.569 180.272 258.051 178.836 258.156C178.297 258.806 178.078 259.372 177.573 260.006C176.965 258.084 175.57 258.408 174.937 260.127L174.858 260.12C174.636 259.265 174.689 259.306 174.12 258.628C174.108 258.282 174.219 258.066 174.337 257.741C174.165 257.221 174.014 256.639 173.715 256.193C174.338 255.998 174.663 255.889 175.321 255.794C175.988 255.58 176.848 255.536 177.553 255.481C178.324 255.45 178.938 255.503 179.707 255.559Z" fill="#8D9576"/>
<path d="M177.553 255.481C178.324 255.45 178.938 255.503 179.706 255.559C179.655 256.243 179.293 257.265 178.941 257.856L178.734 257.985C177.667 257.49 177.648 258.13 177.011 257.923C177.065 257.777 177.173 257.452 177.253 257.334C177.689 256.688 177.318 256.16 177.553 255.481Z" fill="#8D9576"/>
<path d="M175.321 255.795C176.151 256.175 176.864 257.327 176.511 258.162L176.177 258.282C174.462 257.9 173.763 257.167 175.321 255.795Z" fill="#8D9576"/>
<path d="M188.062 259.559C188.503 260.006 189.011 260.473 189.355 260.989C189.622 261.321 189.884 261.655 190.141 261.995L188.52 262.562L186.564 263.221L184.728 263.79C185.035 263.013 185.342 261.973 186.071 261.572C186.407 261.594 186.548 261.628 186.869 261.513C187.041 261.147 187.043 261.314 187.002 260.978C186.598 261.023 186.043 261.151 185.712 260.971C185.509 260.622 185.552 260.139 185.545 259.716C185.152 259.816 185.171 259.835 184.78 259.754C184.051 259.274 182.82 256.995 182.598 256.193C183.972 256.634 184.938 257.179 186.144 257.944L186.978 258.588C187.318 258.843 187.739 259.26 188.062 259.559Z" fill="#8D9576"/>
<path d="M186.565 263.221C186.666 262.579 186.6 261.808 187.322 261.724C187.857 261.944 188.083 262.188 188.52 262.563L186.565 263.221Z" fill="#8D9576"/>
<path d="M186.144 257.945L186.978 258.589C186.614 258.949 186.374 259.266 185.897 259.415L185.728 259.31C185.694 258.812 185.936 258.416 186.144 257.945Z" fill="#8D9576"/>
<path d="M188.062 259.56C188.503 260.006 189.011 260.473 189.355 260.989C188.477 260.132 188.664 260.659 187.396 260.566C187.436 260.202 187.805 259.859 188.062 259.56Z" fill="#8D9576"/>
<path d="M180.638 258.351C180.911 258.727 180.866 258.763 180.731 259.165C180.352 259.432 180.553 259.371 180.116 259.386C179.928 259.056 179.839 258.949 179.785 258.567C180.094 258.312 180.144 258.394 180.638 258.351Z" fill="#8D9576"/>
<path d="M177.851 261.629C180.612 261.722 183.841 260.263 182.623 264.383C180.256 264.997 178.269 265.463 175.831 265.767C176.92 262.946 174.524 264.37 173.767 263.656C173.758 263.48 173.695 263.163 173.911 263.078C175.371 262.496 176.472 261.464 177.424 260.204L177.511 260.088C177.723 260.751 177.775 260.941 177.851 261.629Z" fill="#8D9576"/>
<path d="M170.603 262.604C171.078 262.431 171.317 262.283 171.791 262.371C172.29 262.797 172.094 263.134 171.974 263.761C170.784 264.056 170.37 264.166 170.035 265.414C168.204 264.466 168.09 263.301 168.331 261.412C169.26 262.154 169.43 262.382 170.603 262.604Z" fill="#8D9576"/>
<path d="M175.778 261.206C175.754 261.252 175.73 261.298 175.706 261.344C175.149 261.367 174.254 261.455 173.75 261.317C173.907 260.757 174.688 260.971 175.279 260.831L175.778 261.206Z" fill="#8D9576"/>
<path d="M156.954 246.415C157.261 246.689 157.744 247.087 157.989 247.393L158.791 248.316C159.275 248.977 159.585 249.404 159.987 250.115C160.292 250.744 160.553 251.281 160.815 251.932L160.929 252.322L161.207 253.321C161.676 255.962 161.609 258.09 159.7 260.203C158.212 261.375 157.446 261.78 155.709 260.78C154.321 259.63 153.361 257.951 152.622 256.336C151.787 254.661 150.994 252.084 150.452 250.29C150.276 249.645 150.093 249.002 149.905 248.36L149.449 246.607L149.079 244.87L148.731 243.221C149.317 243.266 150.04 243.396 150.632 243.486L151.71 243.716L152.908 244.08L153.959 244.516C155.224 245.116 155.855 245.549 156.954 246.415Z" fill="#8D9576"/>
<path d="M161.206 253.322C161.675 255.963 161.608 258.091 159.699 260.203C158.211 261.376 157.445 261.78 155.708 260.78C154.32 259.631 153.36 257.952 152.621 256.336C153.117 255.798 153.237 255.451 153.999 255.549C154.436 255.84 154.627 256.347 154.991 256.841C155.349 256.965 155.166 256.963 155.554 256.793C155.988 255.879 155.081 251.599 157.481 252.13C158.359 252.715 158.24 253.459 157.653 254.202L157.671 254.317C159.229 254.433 159.607 253.676 161.206 253.322Z" fill="#8D9576"/>
<path d="M157.767 259.169C158.538 259.758 158.827 259.876 159.7 260.203C158.212 261.376 157.446 261.78 155.709 260.78C157.298 259.258 155.145 258.957 156.831 257.895C157.048 257.758 156.978 257.82 157.23 257.875C157.563 258.249 157.626 258.676 157.767 259.169Z" fill="#8D9576"/>
<path d="M156.713 254.241C156.841 254.442 157.279 255.472 157.296 255.687L157.002 255.816C156.755 255.334 156.287 254.739 156.343 254.282L156.713 254.241Z" fill="#8D9576"/>
<path d="M157.988 247.393L158.791 248.316C159.275 248.977 159.584 249.404 159.987 250.115C160.292 250.744 160.552 251.281 160.814 251.933L160.929 252.322L161.207 253.321C159.608 253.676 159.23 254.433 157.671 254.317L157.654 254.202C158.241 253.458 158.359 252.715 157.482 252.13C155.081 251.599 155.988 255.878 155.554 256.793C155.167 256.963 155.349 256.965 154.991 256.84C154.628 256.346 154.437 255.839 154 255.548C153.238 255.45 153.118 255.798 152.622 256.336C151.787 254.661 150.994 252.084 150.451 250.29C153.071 247.537 153.587 250.485 154.884 252.72L156.306 252.337C156.693 251.548 157.592 249.461 156.876 248.701C156.626 248.704 156.404 248.701 156.156 248.693C155.934 248.425 156.006 248.578 156.005 248.197C156.257 247.828 156.094 247.948 156.491 247.799C157.07 247.99 156.723 248.165 157.179 248.378C157.468 247.924 157.561 247.62 157.988 247.393Z" fill="#8D9576"/>
<path d="M158.79 248.316C159.274 248.977 159.583 249.404 159.986 250.115C159.536 250.537 158.916 250.533 158.621 251.172C158.543 251.339 158.381 251.536 158.24 251.659C158.008 251.458 157.908 250.974 157.809 250.654C157.47 250.418 157.546 250.542 157.382 250.212C157.601 249.66 158.357 248.724 158.79 248.316Z" fill="#8D9576"/>
<path d="M160.928 252.322C160.472 253.023 160.204 253.519 159.225 253.251C158.84 253.145 158.688 252.987 158.493 252.629C158.461 251.514 159.984 251.37 160.814 251.933L160.928 252.322Z" fill="#8D9576"/>
<path d="M153.959 244.517C155.224 245.117 155.855 245.55 156.954 246.416C156.137 246.575 154.133 246.687 153.307 246.556C152.935 246.293 152.906 246.232 152.623 245.861C152.193 246.105 151.941 246.326 151.499 246.233C151.233 245.903 151.209 245.731 151.084 245.331L150.927 245.353C150.665 245.803 151.237 246.554 150.549 247.553C150.355 247.838 150.14 248.109 149.904 248.361L149.449 246.608L149.078 244.871L148.731 243.222C149.316 243.267 150.04 243.397 150.632 243.487L151.71 243.717L152.908 244.081L153.959 244.517Z" fill="#8D9576"/>
<path d="M149.077 244.87C149.598 245.009 149.89 245.042 150.315 245.366C150.56 245.993 149.966 246.295 149.448 246.607L149.077 244.87Z" fill="#8D9576"/>
<path d="M153.957 244.517C153.491 244.944 153.139 245.346 152.716 245.813C152.739 245.062 152.747 244.824 152.907 244.08L153.957 244.517Z" fill="#8D9576"/>
<path d="M150.631 243.486L151.709 243.717C151.513 244.157 151.288 244.636 151.128 245.088C150.969 244.553 150.815 244.013 150.631 243.486Z" fill="#8D9576"/>
<path d="M156.011 248.903C156.264 249.232 156.311 249.266 156.479 249.655L156.348 249.857L155.786 249.957C155.457 249.698 155.555 249.86 155.464 249.47C155.633 249.088 155.659 249.108 156.011 248.903Z" fill="#8D9576"/>
<path d="M177.289 245.087C178.73 244.752 182.778 244.802 183.741 245.946C183.704 246.267 183.407 246.535 183.183 246.801C182.852 247.168 182.539 247.511 182.193 247.864L181.296 248.838C180.745 249.436 180.266 249.983 179.644 250.51C178.477 251.631 177.835 252.229 176.544 253.215C175.404 254.019 174.517 254.59 173.142 254.944C171.664 255.016 171.197 254.414 170.626 253.11C170.59 252.96 170.558 252.809 170.532 252.657C170.238 250.889 171.067 249.488 172.041 248.14C172.402 247.744 172.616 247.547 173.024 247.199C173.331 246.939 173.738 246.644 174.063 246.393L175.357 245.709L176.474 245.303L177.289 245.087Z" fill="#8D9576"/>
<path d="M175.357 245.71C175.722 246.34 175.734 246.75 175.765 247.477L175.745 247.477C175.798 248.18 175.77 248.39 175.688 249.073L175.704 249.171L175.684 249.323C175.515 250.544 175.153 251.166 174.634 252.306C174.651 252.362 174.668 252.419 174.685 252.474C175.423 252.662 175.995 251.749 176.532 252.405C176.587 252.805 176.634 252.836 176.544 253.216C175.404 254.019 174.517 254.591 173.142 254.945C171.664 255.016 171.197 254.415 170.626 253.111C170.59 252.961 170.558 252.81 170.532 252.658C170.238 250.89 171.067 249.489 172.041 248.14C172.402 247.745 172.616 247.548 173.024 247.2C173.331 246.94 173.738 246.645 174.063 246.393L175.357 245.71Z" fill="#8D9576"/>
<path d="M175.357 245.71C175.722 246.34 175.734 246.75 175.765 247.477L175.745 247.477C175.798 248.18 175.77 248.39 175.688 249.073C174.64 248.179 174.166 248.665 174.084 249.84C173.151 249.9 172.938 248.61 172.041 248.14C172.402 247.745 172.616 247.548 173.024 247.2C173.331 246.94 173.738 246.645 174.063 246.393L175.357 245.71Z" fill="#8D9576"/>
<path d="M175.357 245.71C175.722 246.34 175.733 246.751 175.764 247.477L175.744 247.478C175.255 247.474 175.159 247.59 174.745 247.854C174.766 247.884 174.114 246.512 174.062 246.394L175.357 245.71Z" fill="#8D9576"/>
<path d="M173.024 247.2C173.589 247.371 174.402 247.71 174.301 248.408C174.049 248.599 174.051 248.61 173.761 248.724C173.313 248.715 173.224 248.745 172.861 248.475C172.554 247.883 172.656 247.727 173.024 247.2Z" fill="#8D9576"/>
<path d="M170.626 253.11C172.111 253.476 172.776 252.403 173.529 252.848C173.837 253.935 172.713 253.395 173.142 254.945C171.664 255.016 171.197 254.415 170.626 253.11Z" fill="#8D9576"/>
<path d="M176.433 249.971C177.101 249.568 179.002 247.946 179.702 248.664C180.439 249.419 180.19 249.81 179.643 250.511C178.477 251.632 177.834 252.23 176.544 253.216C176.634 252.836 176.587 252.805 176.532 252.405C175.995 251.749 175.423 252.662 174.685 252.475C174.668 252.419 174.651 252.362 174.634 252.307C175.153 251.166 175.515 250.544 175.684 249.324L175.704 249.171C175.986 249.444 176.177 249.671 176.433 249.971Z" fill="#8D9576"/>
<path d="M177.288 245.088C178.73 244.753 182.778 244.802 183.741 245.946C183.704 246.268 183.407 246.536 183.183 246.802C182.852 247.169 182.539 247.512 182.193 247.865L181.296 248.839C181.106 247.645 181.053 247.728 181.677 246.662L181.62 246.494C181.233 246.736 181.199 246.855 180.828 246.837C180.244 246.357 179.513 246.27 178.845 245.95C178.319 245.697 177.794 245.38 177.288 245.088Z" fill="#8D9576"/>
<path d="M183.183 246.801C182.852 247.169 182.539 247.512 182.193 247.865C182.025 247.422 181.864 247.215 181.948 246.816C182.282 246.654 182.787 246.761 183.183 246.801Z" fill="#8D9576"/>
<path d="M176.474 245.303C176.562 246.046 176.611 247.16 175.765 247.476C175.734 246.75 175.722 246.339 175.357 245.709L176.474 245.303Z" fill="#8D9576"/>
<path d="M160.065 237.784C162.423 238.503 164.113 239.285 165.743 241.195C165.942 241.464 166.278 241.889 166.447 242.16L166.945 242.97C167.127 243.39 167.35 243.862 167.499 244.289L167.843 245.465C168.274 247.972 168.079 249.896 166.037 251.687C164.853 252.297 163.887 252.637 162.894 251.428C161.987 250.273 161.687 249.274 161.3 247.891C160.867 246.386 160.669 244.768 160.45 243.217C160.377 242.812 160.327 242.148 160.281 241.719L160.189 240.483L160.099 238.936L160.065 237.784Z" fill="#8D9576"/>
<path d="M160.065 237.784C162.423 238.503 164.113 239.285 165.743 241.195C165.942 241.464 166.278 241.889 166.447 242.16L166.134 242.119L165.651 242.589L165.567 242.488C165.448 242.349 165.344 242.239 165.217 242.107C164.884 242.188 165.041 242.12 164.779 242.398L164.812 242.578C165.05 242.696 165.269 242.801 165.511 242.91C165.28 244.37 165.41 244.257 164.543 245.369L164.487 245.458C164.136 245.5 163.766 245.538 163.418 245.589C163.195 244.918 162.883 243.756 162.561 243.154C161.996 242.103 161.169 242.721 160.45 243.217C160.377 242.812 160.327 242.148 160.281 241.719L160.189 240.483L160.099 238.936L160.065 237.784Z" fill="#8D9576"/>
<path d="M160.065 237.784C162.423 238.503 164.113 239.285 165.743 241.195C164.699 241.103 163.104 241.235 162.647 240.245C162.108 240.32 161.92 240.502 161.614 240.303C161.589 240.011 161.585 239.867 161.516 239.582L161.332 239.594C160.967 240.657 161.957 240.275 160.281 241.719L160.189 240.483L160.099 238.936L160.065 237.784Z" fill="#8D9576"/>
<path d="M160.1 238.936C160.426 239.161 160.803 239.36 160.965 239.705C160.865 240.127 160.589 240.234 160.19 240.482L160.1 238.936Z" fill="#8D9576"/>
<path d="M160.449 243.217C161.169 242.72 161.996 242.102 162.56 243.154C162.883 243.755 163.195 244.918 163.417 245.589C163.765 245.538 164.136 245.5 164.487 245.458C164.278 245.839 164.144 246.106 163.964 246.497C163.673 247.124 163.744 248.395 163.179 248.687C162.722 248.038 162.794 247.62 162.055 247.469C161.655 247.615 161.636 247.65 161.299 247.891C160.866 246.386 160.669 244.768 160.449 243.217Z" fill="#8D9576"/>
<path d="M166.446 242.16L166.944 242.97C167.127 243.389 167.35 243.862 167.498 244.289L167.842 245.464C167.276 245.198 166.829 245.275 166.241 245.48C165.857 246.055 166.681 246.426 166.85 246.997L166.729 247.173C166.257 247.225 166.272 247.239 165.82 247.122C165.211 246.55 165.925 246.288 165.619 245.604C165.253 245.302 165.004 245.32 164.542 245.369C165.409 244.257 165.279 244.37 165.51 242.909C165.268 242.801 165.049 242.696 164.812 242.578L164.779 242.398C165.041 242.12 164.883 242.188 165.217 242.107C165.343 242.238 165.448 242.349 165.566 242.488L165.651 242.589L166.134 242.119L166.446 242.16Z" fill="#8D9576"/>
<path d="M166.944 242.97C167.127 243.389 167.35 243.862 167.498 244.288C166.858 244.493 166.729 244.582 166.219 245.021L166.109 244.938L166.142 245.132C166.074 244.821 165.871 244.534 165.706 244.253C165.697 243.601 166.317 243.013 166.944 242.97Z" fill="#8D9576"/>
<path d="M162.894 251.427C163.209 251.493 163.047 251.487 163.389 251.344C163.923 250.738 163.392 249.994 164.12 249.624C164.841 249.77 164.606 251.079 166.036 251.686C164.853 252.297 163.887 252.636 162.894 251.427Z" fill="#8D9576"/>
<path d="M179.563 232.671L179.213 233.866L178.798 235.198L178.352 236.497L177.838 237.872C177.192 239.523 176.697 240.622 175.821 242.197C175.07 243.552 174.478 244.367 173.251 245.34C171.744 245.971 171.01 245.497 170.007 244.275C168.542 241.463 169.519 238.404 171.517 236.151C171.741 235.843 172.142 235.487 172.425 235.211L173.179 234.605C175.233 233.099 177.111 232.839 179.563 232.671Z" fill="#8D9576"/>
<path d="M171.517 236.15C172.132 236.12 172.538 236.759 172.635 237.314C172.444 237.789 172.295 237.72 172.038 238.418C172.497 238.188 172.235 237.793 172.649 237.728C172.749 237.962 172.987 238.6 173.134 238.749L173.409 238.996C173.559 239.832 173.742 240.603 173.681 241.445C173.652 241.843 173.591 242.1 173.761 242.384C174.273 242.088 174.563 241.69 175.052 241.55C175.452 241.672 175.525 241.79 175.821 242.196C175.07 243.552 174.478 244.367 173.251 245.34C171.744 245.971 171.01 245.497 170.008 244.275C168.542 241.463 169.519 238.404 171.517 236.15Z" fill="#8D9576"/>
<path d="M170.007 244.275C170.301 244.474 170.306 244.514 170.646 244.57C171.839 244.278 171.574 244.077 172.307 243.113L172.591 243.115C172.996 243.378 172.862 243.209 173.058 243.597C172.757 244.477 172.685 244.549 173.251 245.34C171.744 245.971 171.01 245.497 170.007 244.275Z" fill="#8D9576"/>
<path d="M173.147 240.352L173.166 240.627C172.906 241.154 172.817 241.195 172.367 241.601C172.573 240.989 172.65 240.698 173.147 240.352Z" fill="#8D9576"/>
<path d="M174.37 239.393C174.697 238.898 175.03 238.374 175.343 237.872C176.319 236.313 176.904 236.816 177.839 237.871C177.192 239.522 176.698 240.622 175.821 242.196C175.525 241.789 175.452 241.672 175.052 241.55C174.563 241.69 174.273 242.088 173.761 242.384C173.591 242.1 173.652 241.843 173.681 241.445C173.742 240.603 173.559 239.832 173.409 238.996L174.37 239.393Z" fill="#8D9576"/>
<path d="M179.563 232.67L179.214 233.866L178.798 235.197L178.353 236.496C178.182 236.218 177.882 235.759 177.775 235.459C177.585 234.928 178.1 234.536 177.728 234.152C177.382 234.59 177.437 234.688 177.031 234.759L176.538 234.44C176.072 234.598 176.252 234.745 176.039 234.829C175.519 235.037 173.683 234.678 173.179 234.605C175.234 233.098 177.111 232.839 179.563 232.67Z" fill="#8D9576"/>
<path d="M179.214 233.867L178.799 235.198C178.505 234.924 178.205 234.72 178.21 234.309C178.488 234.017 178.815 233.979 179.214 233.867Z" fill="#8D9576"/>
<path d="M172.425 235.211C172.748 235.462 172.784 235.589 172.975 235.945C173.151 235.823 173.33 235.706 173.511 235.592C173.835 235.777 173.7 235.648 173.872 236.044L173.758 236.207L173.072 236.269C173.043 236.695 172.946 237.106 172.836 237.517C172.931 237.933 173.222 238.397 173.135 238.749C172.987 238.6 172.749 237.962 172.649 237.728C172.236 237.793 172.498 238.188 172.038 238.418C172.295 237.719 172.444 237.788 172.636 237.314C172.538 236.759 172.132 236.119 171.517 236.15C171.742 235.843 172.143 235.486 172.425 235.211Z" fill="#8D9576"/>
<defs>
<linearGradient id="paint0_linear_74_1797" x1="595.733" y1="160.291" x2="-270.888" y2="406.208" gradientUnits="userSpaceOnUse">
<stop stop-color="#FAF2EF"/>
<stop offset="0.5" stop-color="#D5D0BC"/>
<stop offset="1" stop-color="#CFD0BA"/>
</linearGradient>
</defs>
</svg>
