<svg width="234" height="323" viewBox="0 0 234 323" fill="none" xmlns="http://www.w3.org/2000/svg">
<path d="M157.361 142.281C157.858 144.748 158.494 147.185 159.268 149.58C159.723 150.892 160.14 152.069 160.671 153.359C161.435 155.151 162.147 156.662 163.012 158.408C163.701 159.649 164.3 160.763 165.111 161.934C167.521 165.735 170.596 169.545 173.95 172.556C175.327 173.79 177.228 175.141 178.339 176.169C179.273 176.86 182.405 178.982 183.458 179.502C185.938 180.803 187.919 181.785 190.534 182.829C195.225 184.481 198.992 185.494 204.036 185.93C211.305 186.309 218.29 185.558 224.571 181.499C226.36 180.252 227.737 179.178 229.156 177.497C234.111 171.953 235.522 164.17 229.062 159.141C228.216 158.231 225.67 156.604 224.559 155.957C221.153 153.946 215.076 151.602 211.268 150.536C203.55 148.065 194.226 146.519 186.264 145.199C183.529 144.806 180.79 144.45 178.046 144.13C175.704 143.808 173.353 143.548 170.997 143.351C168.701 143.104 166.402 142.892 164.1 142.715C161.855 142.544 159.609 142.4 157.361 142.281Z" fill="#8D9576" fill-opacity="0.1"/>
<path d="M157.362 142.28C157.858 144.748 158.495 147.184 159.269 149.579C159.724 150.892 160.14 152.069 160.672 153.359C161.436 155.151 162.147 156.661 163.013 158.408C163.701 159.648 164.301 160.763 165.111 161.934C167.522 165.735 170.597 169.544 173.951 172.556C175.328 173.79 177.229 175.141 178.339 176.169C178.783 174.905 182.236 172.905 183.444 172.355C185.139 171.58 186.655 171.057 188.542 171.117L189.825 172.228C192.253 170.341 194.428 168.797 197.14 167.303L197.256 167.203C197.522 166.079 197.504 164.976 197.644 163.833C197.799 162.572 197.797 162.564 198.721 161.82C198.554 161.205 188.267 157.692 187.063 157.229C179.275 154.237 182.172 150.099 186.264 145.199C183.529 144.805 180.791 144.449 178.047 144.13C175.704 143.808 173.354 143.548 170.998 143.351C168.702 143.104 166.403 142.892 164.1 142.715C161.856 142.544 159.61 142.399 157.362 142.28Z" fill="#8D9576" fill-opacity="0.1"/>
<path d="M157.362 142.281C157.858 144.749 158.495 147.185 159.269 149.58C159.724 150.893 160.14 152.07 160.672 153.36C161.436 155.152 162.147 156.662 163.013 158.408C163.701 159.649 164.301 160.764 165.111 161.935C167.522 165.736 170.597 169.545 173.951 172.557C175.192 170.204 173.903 167.927 173.754 165.445C173.55 162.08 173.86 159.937 171.911 156.982C171.047 156.886 170.209 156.86 169.344 156.821C172.148 151.64 171.431 150.674 165.83 150.594C166.637 149.814 167.152 149.264 167.885 148.413C168.904 149.055 169.588 149.382 170.693 149.808C173.986 148.86 175.911 146.617 178.047 144.131C175.704 143.808 173.354 143.549 170.998 143.352C168.702 143.105 166.403 142.893 164.1 142.716C161.856 142.545 159.61 142.4 157.362 142.281Z" fill="#8D9576" fill-opacity="0.1"/>
<path d="M170.997 143.351C168.701 143.104 166.401 142.892 164.099 142.715C164.997 145.681 165.356 146.561 167.904 148.396C169.193 146.783 170.17 145.257 170.997 143.351Z" fill="#8D9576" fill-opacity="0.1"/>
<path d="M163.012 158.407C163.701 159.648 164.3 160.763 165.111 161.934C166.887 159.806 167.552 159.455 169.27 156.839C166.486 156.988 165.493 157.207 163.012 158.407Z" fill="#8D9576" fill-opacity="0.1"/>
<path d="M159.268 149.58C159.723 150.892 160.139 152.069 160.671 153.359C163.091 152.667 163.846 152.176 165.822 150.591C163.38 150.579 161.654 149.863 159.268 149.58Z" fill="#8D9576" fill-opacity="0.1"/>
<path d="M180.158 168.58C179.988 168.8 179.619 169.27 179.537 169.509C178.921 171.307 181.948 172.873 183.291 172.084C183.062 170.725 183.089 169.432 182.662 168.142C181.532 168.153 181.219 168.172 180.158 168.58Z" fill="#8D9576" fill-opacity="0.1"/>
<path d="M184.49 165.856C184.135 166.43 183.754 166.932 183.98 167.659C184.325 168.764 186.553 169.726 187.561 169.286L187.701 168.898C187.475 167.769 187.711 166.03 186.734 165.338C185.85 165.124 185.298 165.449 184.49 165.856Z" fill="#8D9576" fill-opacity="0.1"/>
<path d="M186.263 145.2C182.17 150.099 179.274 154.238 187.062 157.23C188.266 157.692 198.553 161.206 198.72 161.821C197.795 162.565 197.797 162.573 197.643 163.834C197.503 164.977 197.52 166.079 197.255 167.204C202.859 164.185 208.074 161.978 214.597 162.468C214.843 161.3 214.946 160.627 215.061 159.44C209.265 157.442 204.801 156.514 211.267 150.536C203.549 148.066 194.225 146.519 186.263 145.2Z" fill="#8D9576" fill-opacity="0.1"/>
<path d="M188.54 171.117C186.653 171.057 185.138 171.579 183.442 172.355C182.234 172.905 178.781 174.905 178.338 176.169C179.272 176.86 182.404 178.982 183.457 179.501C185.937 180.803 187.918 181.785 190.534 182.829C195.224 184.481 198.991 185.493 204.035 185.929C203.728 184.393 204.527 180.931 204.932 179.315C205.005 179.024 206.515 178.03 206.866 177.244C207.212 176.472 205.804 175.633 205.734 174.955C205.623 173.889 206.395 168.856 206.865 168.227C208.606 167.481 210.427 170.076 211.135 170.054C211.103 169.132 211.132 168.876 211.421 168.001C208.318 167.144 206.566 166.328 203.805 164.851C205.064 166.288 206.433 167.977 205.951 170.042C205.364 172.617 202.051 174.329 199.553 173.612C196.216 172.654 196.421 169.933 197.138 167.303C194.426 168.797 192.252 170.341 189.823 172.228L188.54 171.117Z" fill="#8D9576" fill-opacity="0.1"/>
<path d="M189.85 172.237C188.101 173.534 184.305 176.916 183.266 178.884C183.144 179.113 183.284 179.193 183.457 179.502C185.937 180.803 187.918 181.785 190.534 182.829C192.16 180.412 191.533 180.173 192.471 177.896C192.988 177.326 193.712 177.634 194.119 177.347C194.873 176.813 196.048 175.694 195.657 174.712C194.189 173.674 192.145 175.026 190.958 173.574L189.85 172.237Z" fill="#8D9576" fill-opacity="0.1"/>
<path d="M197.4 175.242C196.931 176.222 196.909 177.75 196.629 178.83C195.716 182.345 196.72 184.998 200.85 183.981C207.111 180.809 200.015 174.749 197.4 175.242Z" fill="#8D9576" fill-opacity="0.1"/>
<path d="M224.323 176.804C224.557 178.342 224.755 179.949 224.57 181.498C226.359 180.251 227.736 179.177 229.156 177.495C226.849 177.3 226.676 177.536 224.323 176.804Z" fill="#8D9576" fill-opacity="0.1"/>
<path d="M229.062 159.142C228.216 158.231 225.67 156.604 224.559 155.957C224.364 156.907 223.814 158.029 223.479 159.007C225.792 158.42 226.889 157.78 229.062 159.142Z" fill="#8D9576" fill-opacity="0.1"/>
<path d="M259.399 97.6504C258.017 99.7792 256.722 101.964 255.516 104.197C254.946 105.329 254.245 106.64 253.758 107.791C253.01 109.594 252.438 111.125 251.802 112.972C251.426 114.252 251.068 115.537 250.727 116.826C249.625 121.978 249.189 125.39 249.293 130.68C249.379 132.551 249.492 134.292 249.748 136.153C250.047 138.17 250.387 139.831 250.824 141.826C253.967 153.241 260.276 164.275 270.839 170.308C273.137 171.642 275.625 172.62 278.217 173.209C280.251 173.595 282.18 173.864 284.26 173.699L285.333 173.603C292.043 172.569 296.757 169.994 297.339 162.72C297.923 156.467 293.877 147.574 291.049 141.98C286.692 133.958 282.775 127.962 277.528 120.498C275.853 118.286 274.205 116.022 272.555 113.79C271.092 111.987 269.622 110.018 268.197 108.173C266.962 106.846 265.073 104.378 263.86 102.901C262.392 101.135 260.906 99.3848 259.399 97.6504Z" fill="#8D9576" fill-opacity="0.1"/>
<path d="M247.923 200.935C247.013 201.945 245.996 203.431 245.282 204.586C244.525 205.86 243.851 207.002 243.167 208.323C241.403 212.041 240.535 214.636 239.617 218.665C239.435 219.712 239.21 220.842 239.129 221.893C238.942 223.286 238.846 224.689 238.841 226.096C238.828 227.197 238.818 228.239 238.85 229.339C238.944 231.35 239.21 233.334 239.523 235.322C241.081 234.586 242.744 233.836 244.28 233.076C245.977 232.276 247.664 231.46 249.345 230.627L254.105 228.134C256.062 227.089 258.013 226.033 259.959 224.968C265.607 221.627 271.619 218.088 276.758 213.975C279.509 211.851 282.951 208.922 285.068 206.178C285.728 205.326 286.182 204.692 286.768 203.788C287.329 202.918 287.653 202.224 288.102 201.294C289.733 196.268 287.555 191.988 283.026 189.588L282.307 189.122C280.642 188.303 279.712 188.009 277.913 187.523C266.265 185.49 255.011 192.031 247.923 200.935Z" fill="#8D9576" fill-opacity="0.1"/>
<path d="M245.283 204.587C244.525 205.861 243.851 207.003 243.168 208.324C241.403 212.042 240.535 214.636 239.618 218.665C239.435 219.713 239.21 220.843 239.13 221.894C238.943 223.287 238.846 224.69 238.842 226.097C238.828 227.197 238.818 228.24 238.85 229.34C238.945 231.35 239.211 233.335 239.524 235.323C241.082 234.587 242.744 233.837 244.281 233.077C245.978 232.277 247.665 231.461 249.345 230.627L254.105 228.135C256.063 227.089 258.014 226.033 259.959 224.969C248.185 219.521 259.586 214.705 264.348 209.406L264.218 209.099C262.405 208.286 263.04 207.405 261.674 205.679L261.542 205.603C259.611 205.616 255.97 204.071 254.846 204.471C253.29 206.153 252.209 205.937 250.026 205.831C247.905 205.589 247.273 205.4 245.283 204.587Z" fill="#8D9576" fill-opacity="0.1"/>
<path d="M243.168 208.323C241.403 212.041 240.535 214.635 239.618 218.664C239.435 219.712 239.21 220.842 239.13 221.893C238.943 223.286 238.846 224.689 238.842 226.096C238.828 227.196 238.818 228.239 238.85 229.339C238.945 231.349 239.211 233.334 239.524 235.322C241.082 234.586 242.744 233.836 244.281 233.076C245.978 232.276 247.665 231.46 249.345 230.626L254.105 228.134C252.172 226.851 249.551 225.752 247.197 225.989C246.607 226.535 246.03 227.186 245.477 227.777C244.769 227.44 244.056 227.114 243.338 226.798C247.501 225.305 247.713 224.069 244.122 221.28C244.745 221.016 245.46 220.637 246.075 220.331C246.759 216.773 244.542 213.031 244.025 209.456C243.991 209.214 243.357 208.525 243.168 208.323Z" fill="#8D9576" fill-opacity="0.1"/>
<path d="M202.377 207.832C199.838 210.938 198.379 213.179 196.647 216.913C195.687 219.107 195.114 220.642 194.43 222.988C194.045 224.617 193.759 225.893 193.496 227.557C193.293 229.028 193.161 230.188 193.071 231.669C192.828 235.512 193.196 238.956 193.959 242.711C194.226 243.83 194.463 244.757 194.805 245.853C195.265 247.316 195.639 248.447 196.217 249.881C196.644 250.854 197.063 251.839 197.535 252.791C198.513 254.604 199.417 256.208 200.53 257.948C201.68 256.711 202.803 255.446 203.894 254.156C205.156 252.744 206.378 251.298 207.559 249.819C208.764 248.398 209.941 246.952 211.09 245.484C212.438 243.791 213.75 242.072 215.027 240.326C217.981 236.611 224.777 226.949 226.537 222.577C228.193 219.76 229.52 216.2 230.541 213.102C230.861 211.791 231.036 210.936 231.223 209.603C231.324 208.845 231.313 208.192 231.322 207.43C231.143 201.632 227.034 199.5 221.988 198.612L221.166 198.552C219.17 198.424 218.302 198.466 216.336 198.815C210.416 200.207 206.327 203.36 202.377 207.832Z" fill="#8D9576" fill-opacity="0.1"/>
<path d="M193.497 227.557C193.294 229.029 193.162 230.188 193.072 231.669C192.829 235.512 193.197 238.956 193.959 242.711C194.227 243.831 194.464 244.757 194.806 245.854C195.266 247.317 195.639 248.447 196.218 249.881C196.644 250.855 197.063 251.839 197.536 252.791C198.513 254.604 199.417 256.208 200.531 257.948C201.68 256.711 202.804 255.446 203.894 254.157C205.157 252.745 206.378 251.299 207.56 249.82C208.764 248.398 209.942 246.952 211.091 245.485C212.438 243.792 213.751 242.073 215.027 240.326L214.817 240.303C212.861 240.09 209.75 239.865 208.542 238.183C206.282 235.036 212.341 227.807 212.808 224.225C212.347 223.771 212.07 224.277 211.696 224.027C210.854 223.466 209.876 222.611 209.09 221.963L208.923 221.972C206.428 222.588 204.587 222.946 202.073 223.262L202.017 224.634C199.485 226.74 196.799 227.543 193.497 227.557Z" fill="#8D9576" fill-opacity="0.1"/>
<path d="M193.071 231.669C192.828 235.511 193.196 238.955 193.958 242.71C194.226 243.83 194.463 244.756 194.805 245.853C195.265 247.316 195.638 248.446 196.217 249.88C196.644 250.854 197.062 251.838 197.535 252.79C198.512 254.604 199.416 256.207 200.53 257.947C201.679 256.71 202.803 255.445 203.893 254.156C205.156 252.744 206.377 251.298 207.559 249.819C208.763 248.397 209.941 246.951 211.09 245.484C208.432 245.245 206.194 245.127 203.761 246.412C203.492 247.167 203.234 247.94 202.973 248.7L200.649 248.62C203.953 245.311 203.423 244.659 199.191 243.189L200.499 241.791C200.126 239.108 198.574 237.936 196.941 235.976C195.636 234.412 194.942 232.62 193.071 231.669Z" fill="#8D9576" fill-opacity="0.1"/>
<path d="M202.968 248.737C202.861 249.6 202.869 249.804 202.871 250.561C202.877 251.711 204.011 253.504 203.894 254.156C205.157 252.744 206.378 251.298 207.56 249.819C205.822 249.126 204.816 248.949 202.968 248.737Z" fill="#8D9576" fill-opacity="0.1"/>
<path d="M193.959 242.71C194.226 243.83 194.464 244.756 194.805 245.853C196.849 245.073 197.562 244.597 199.219 243.194C197.289 242.868 195.887 242.788 193.959 242.71Z" fill="#8D9576" fill-opacity="0.1"/>
<path d="M196.217 249.881C196.644 250.855 197.063 251.839 197.535 252.791C198.655 251.322 199.344 250.123 200.608 248.611C198.629 248.894 198.032 249.053 196.217 249.881Z" fill="#8D9576" fill-opacity="0.1"/>
<path d="M198.31 226.836C197.167 228.239 196.143 230.527 198.954 230.578C201.196 229.269 199.573 228.235 198.31 226.836Z" fill="#8D9576" fill-opacity="0.1"/>
<path d="M202.245 226.108C201.228 227.566 200.339 229.831 203.08 229.674C203.699 229.328 203.881 229.195 204.124 228.611C204.002 227.652 203.229 226.302 202.245 226.108Z" fill="#8D9576" fill-opacity="0.1"/>
<path d="M221.347 214.961C217.928 218.853 213.928 220.436 209.091 221.963C209.877 222.61 210.856 223.466 211.698 224.026C212.072 224.277 212.348 223.77 212.81 224.225C212.342 227.807 206.283 235.036 208.543 238.182C209.752 239.864 212.863 240.089 214.819 240.303L215.029 240.326C217.983 236.611 224.779 226.948 226.539 222.576C226.26 222.8 226.12 223.187 225.876 223.291C225.068 223.657 223.327 223.369 222.505 223.129C219.671 222.302 222.519 217.893 223.288 216.332L221.347 214.961Z" fill="#8D9576" fill-opacity="0.1"/>
<path d="M202.378 207.831C199.839 210.937 198.38 213.178 196.647 216.913C195.688 219.106 195.114 220.642 194.431 222.988C194.046 224.616 193.76 225.892 193.497 227.556C196.799 227.542 199.486 226.739 202.017 224.633L202.073 223.261C204.588 222.945 206.428 222.587 208.923 221.97C206.944 220.777 205.177 219.035 207.038 216.717C207.805 215.777 208.916 215.181 210.125 215.064C213.146 214.8 213.787 217.215 213.969 219.633C214.456 218.122 214.917 216.57 215.738 215.201C216.234 214.375 216.386 213.738 215.789 212.908C215.344 212.746 215.564 212.76 215.105 212.862C214.956 213.395 214.738 216.19 213.889 215.976C212.505 215.627 210.882 214.13 209.816 213.151C209.211 212.596 209.198 211.895 209.216 211.138C207.991 210.864 207.72 210.778 206.475 210.988C205.158 209.772 203.496 208.942 202.378 207.831Z" fill="#8D9576" fill-opacity="0.1"/>
<path d="M196.648 216.913C195.688 219.106 195.115 220.642 194.431 222.988C196.343 223.812 199.968 223.42 202.103 223.285C202.061 222.949 202.023 222.612 201.99 222.274C201.796 220.178 204.147 219.93 203.975 218.2C203.001 217.501 200.679 218.578 200.512 218.53C199.2 218.154 198.53 217.129 196.648 216.913Z" fill="#8D9576" fill-opacity="0.1"/>
<path d="M200.565 211.447C200.136 212.066 199.826 212.508 199.988 213.327C200.24 214.614 203.806 217.495 204.973 217.082C205.418 216.606 205.483 216.117 205.664 215.479C205.681 215.373 205.693 215.266 205.705 215.158C205.859 213.733 205.969 212.214 204.973 211.058C203.654 209.525 201.78 210.315 200.565 211.447Z" fill="#8D9576" fill-opacity="0.1"/>
<path d="M221.99 198.612C224.099 202.145 224.382 205.183 221.261 208.231C221.309 208.905 221.36 209.58 221.417 210.255C222.569 210.462 223.786 210.66 224.918 210.935C226.441 208.582 228.227 206.622 231.324 207.429C231.145 201.631 227.036 199.499 221.99 198.612Z" fill="#8D9576" fill-opacity="0.1"/>
<path d="M221.168 198.552C219.172 198.424 218.304 198.466 216.337 198.815C217.367 199.725 217.953 200.409 218.817 201.498C219.663 200.222 220.039 199.61 221.168 198.552Z" fill="#8D9576" fill-opacity="0.1"/>
<path d="M231.225 209.601C230.076 210.803 229.633 211.179 228.209 212.006C229.119 212.38 229.693 212.602 230.544 213.1C230.864 211.789 231.039 210.934 231.225 209.601Z" fill="#8D9576" fill-opacity="0.1"/>
<path d="M128.084 165.395C128.033 167.175 128.251 169.107 128.409 170.891C128.559 171.877 128.697 172.883 128.895 173.858C129.209 175.143 129.516 176.479 129.876 177.747C130.19 178.718 130.481 179.676 130.876 180.618C132.147 183.802 133.811 186.816 135.829 189.588C136.646 190.591 137.486 191.655 138.335 192.623C139.347 193.648 140.294 194.611 141.364 195.579C150.067 202.29 159.987 206.96 171.057 202.949C172.493 202.3 173.494 201.754 174.776 200.8L175.635 200.089C179.234 196.554 180.617 193.339 178.101 188.604C177.574 187.835 177.198 187.372 176.602 186.663C176.019 186.002 175.256 185.296 174.616 184.674C171.087 182.007 169.546 180.938 165.65 178.825C159.781 175.817 154.57 173.771 148.458 171.527L142.69 169.598L137.677 168.065C136.536 167.616 134.186 167.023 132.929 166.664L128.084 165.395Z" fill="#8D9576" fill-opacity="0.1"/>
<path d="M128.084 165.395C128.032 167.174 128.251 169.107 128.408 170.891C128.558 171.877 128.697 172.883 128.895 173.858C129.208 175.143 129.515 176.479 129.876 177.747C130.189 178.718 130.481 179.676 130.876 180.618C132.147 183.802 133.811 186.815 135.828 189.588C136.645 190.591 137.485 191.655 138.335 192.623C139.347 193.648 140.293 194.611 141.363 195.579C142.306 194.475 145.969 191.842 147.269 191.519C149.454 190.413 150.96 189.795 153.31 188.934C154.041 187.271 153.615 186.671 155.004 185.172C154.174 183.836 146.799 180.54 145.386 178.746C142.966 175.676 146.119 173.426 148.458 171.527L142.689 169.598L137.676 168.065C136.536 167.616 134.186 167.023 132.928 166.664L128.084 165.395Z" fill="#8D9576" fill-opacity="0.1"/>
<path d="M128.084 165.394C128.033 167.173 128.252 169.106 128.409 170.889C128.559 171.875 128.698 172.882 128.895 173.857C129.209 175.141 129.516 176.478 129.876 177.745C130.19 178.717 130.481 179.674 130.876 180.616C132.147 183.801 133.811 186.814 135.829 189.587C136.87 187.721 136.472 186.16 136.721 184.09C137.02 181.593 137.441 180.348 136.438 177.973L134.667 177.529C137.328 174.284 137.157 173.468 133.063 172.554L134.786 171.298C135.419 171.918 135.853 172.211 136.565 172.715C139.224 172.405 140.673 171.168 142.69 169.596L137.677 168.064C136.536 167.615 134.186 167.021 132.929 166.663L128.084 165.394Z" fill="#8D9576" fill-opacity="0.1"/>
<path d="M137.678 168.065C136.538 167.615 134.187 167.022 132.93 166.663C132.937 168.669 133.33 169.812 134.795 171.301C136.042 170.116 136.679 169.474 137.678 168.065Z" fill="#8D9576" fill-opacity="0.1"/>
<path d="M129.878 177.747C130.191 178.719 130.483 179.677 130.878 180.619C132.429 179.513 133.273 178.876 134.64 177.549C132.719 177.21 131.739 177.31 129.878 177.747Z" fill="#8D9576" fill-opacity="0.1"/>
<path d="M128.409 170.891C128.559 171.877 128.697 172.883 128.895 173.858C130.862 173.643 131.212 173.502 132.971 172.576C131.106 172.116 130.108 171.423 128.409 170.891Z" fill="#8D9576" fill-opacity="0.1"/>
<path d="M138.337 192.623C139.349 193.648 140.296 194.611 141.366 195.579C142.308 194.474 145.971 191.841 147.272 191.518C146.043 189.722 144.379 190.331 142.496 190.669C140.786 191.276 139.846 191.578 138.337 192.623Z" fill="#8D9576" fill-opacity="0.1"/>
<path d="M141.055 187.444C140.508 187.804 140.408 187.824 140.106 188.377C140.069 189.759 141.34 190.282 142.496 190.668C142.589 189.818 142.851 188.542 142.559 187.815C141.989 187.301 141.804 187.381 141.055 187.444Z" fill="#8D9576" fill-opacity="0.1"/>
<path d="M144.404 186.036C144.083 186.398 144.013 186.522 143.759 186.922C143.595 188.09 145.239 189.49 146.189 188.916C146.237 187.873 146.65 186.903 145.932 186.092C145.315 185.858 145.088 185.949 144.404 186.036Z" fill="#8D9576" fill-opacity="0.1"/>
<path d="M148.459 171.526C146.12 173.425 142.967 175.675 145.387 178.745C146.8 180.539 154.175 183.835 155.005 185.171C153.616 186.671 154.042 187.27 153.311 188.933C156.603 187.277 162.799 186.914 166.492 187.847L167.203 185.826C162.918 183.337 160.46 182.662 165.651 178.824C159.781 175.816 154.571 173.77 148.459 171.526Z" fill="#8D9576" fill-opacity="0.1"/>
<path d="M171.301 189.225C170.543 189.984 169.762 190.794 168.981 191.524L169.834 193.18C174.567 193.961 174.493 196.348 175.636 200.088C179.235 196.553 180.618 193.337 178.102 188.603C175.939 190.68 173.864 190.386 171.301 189.225Z" fill="#8D9576" fill-opacity="0.1"/>
<path d="M171.433 199.61C171.38 200.84 171.245 201.726 171.058 202.948C172.494 202.299 173.496 201.753 174.777 200.798C173.566 200.504 172.561 200.125 171.433 199.61Z" fill="#8D9576" fill-opacity="0.1"/>
<path d="M174.617 184.673C174.176 185.31 173.701 185.967 173.298 186.624C174.517 186.59 175.389 186.583 176.602 186.663C176.019 186.001 175.256 185.296 174.617 184.673Z" fill="#8D9576" fill-opacity="0.1"/>
<path d="M56.383 141.426C56.3217 141.682 56.3115 141.65 56.3162 141.908C56.3649 144.697 67.4363 161.068 69.7432 164.311C72.4094 168.069 75.1904 171.745 78.0827 175.332C81.5408 179.554 85.2174 183.592 89.099 187.428C115.155 212.975 142.739 218.284 177.133 207.238C189.007 203.424 199.052 199.017 210.51 194.101C226.742 187.136 244.684 179.5 262.569 179.227C279.641 178.966 294.674 186.42 306.702 198.241L308.478 195.689L309.805 193.781C306.218 190.539 303.74 188.435 299.779 185.712C270.496 165.094 237.315 178.826 208.02 191.659C185.982 201.315 161.134 212.188 136.449 209.494C103.417 205.841 80.2635 178.208 63.7026 151.819C61.8177 148.813 59.1697 143.237 56.383 141.426Z" fill="#8D9576" fill-opacity="0.1"/>
<path d="M148.85 220.522C146.675 223.069 145.173 225.252 143.79 228.351C143.157 229.886 142.731 231.122 142.214 232.689C141.962 233.815 141.678 235.001 141.495 236.135C141.381 237.108 141.22 238.227 141.204 239.19C141.066 242.579 141.22 244.325 141.867 247.6L142.511 250.051C142.836 251.065 143.12 252.002 143.553 252.974C143.91 253.753 144.259 254.536 144.644 255.3C145.371 256.77 145.984 257.773 146.84 259.154C147.352 258.579 148.25 257.624 148.679 257.04C149.811 255.878 151.154 254.216 152.215 252.951C153.08 251.883 153.934 250.808 154.776 249.722C156.003 248.285 156.71 247.178 157.809 245.782C160.011 243.358 164.686 235.835 166.189 233.004C167.668 230.414 168.598 228.069 169.495 225.265C169.675 224.516 169.824 223.73 169.976 222.974C170.074 222.283 170.067 221.683 170.079 220.991C169.853 216.487 167.086 215.067 163.11 214.293L162.336 214.207C160.978 214.15 160.085 214.262 158.744 214.438C154.551 215.415 151.813 217.523 148.85 220.522Z" fill="#8D9576" fill-opacity="0.1"/>
<path d="M141.494 236.134C141.38 237.107 141.219 238.226 141.203 239.189C141.066 242.579 141.219 244.324 141.866 247.599L142.511 250.051C142.836 251.064 143.119 252.001 143.552 252.973C143.91 253.752 144.259 254.535 144.644 255.3C145.37 256.77 145.983 257.772 146.839 259.153C147.351 258.578 148.25 257.623 148.678 257.039C149.81 255.877 151.154 254.215 152.214 252.951C153.079 251.882 153.933 250.807 154.776 249.721C156.002 248.284 156.709 247.177 157.808 245.781C147.15 245.6 155.616 238.07 156.02 233.689C154.944 233.506 154.21 232.657 153.339 231.908L153.164 231.924C152.052 232.221 148.66 232.716 148.123 233.072C147.522 235.527 143.679 236.172 141.494 236.134Z" fill="#8D9576" fill-opacity="0.1"/>
<path d="M141.204 239.189C141.066 242.579 141.219 244.324 141.866 247.599L142.511 250.051C142.836 251.064 143.119 252.001 143.553 252.973C143.91 253.752 144.259 254.536 144.644 255.3C145.37 256.77 145.984 257.773 146.84 259.153C147.352 258.578 148.25 257.623 148.679 257.039C149.811 255.877 151.154 254.215 152.214 252.951C153.079 251.882 153.933 250.807 154.776 249.721C152.54 249.465 151.459 249.489 149.331 250.292C149.095 250.864 148.873 251.5 148.656 252.088L147.014 252.092C147.709 251.299 148.679 250.517 148.412 249.407C147.807 248.531 146.833 248.346 145.809 247.989C148.137 245.697 145.131 244.193 143.827 242.061C143.253 241.125 142.083 239.787 141.204 239.189Z" fill="#8D9576" fill-opacity="0.1"/>
<path d="M148.666 252.142C148.652 252.286 148.638 252.43 148.624 252.575L148.612 252.766C148.528 253.88 148.914 254.577 149.152 255.657C149.296 256.304 149.058 256.419 148.679 257.038C149.811 255.876 151.155 254.214 152.215 252.949C150.77 252.476 150.164 252.315 148.666 252.142Z" fill="#8D9576" fill-opacity="0.1"/>
<path d="M141.867 247.598L142.511 250.049C144.041 249.307 144.487 249.037 145.827 248.018C144.383 247.72 143.346 247.585 141.867 247.598Z" fill="#8D9576" fill-opacity="0.1"/>
<path d="M143.553 252.972C143.91 253.752 144.259 254.535 144.644 255.299C145.598 253.913 145.823 253.305 146.995 252.019C145.574 252.228 144.865 252.456 143.553 252.972Z" fill="#8D9576" fill-opacity="0.1"/>
<path d="M147.938 235.31C147.466 236.13 147.058 236.841 147.77 237.622C148.325 237.841 148.432 237.785 149.009 237.687C149.323 237.381 149.663 237.192 149.578 236.815C149.388 235.974 148.932 235.6 148.311 235.14L147.938 235.31Z" fill="#8D9576" fill-opacity="0.1"/>
<path d="M145.151 235.538C144.658 236.239 144.115 237.114 144.408 237.976C144.903 238.455 144.759 238.307 145.533 238.483C146.1 238.169 146.323 238.055 146.501 237.439C146.358 236.786 145.619 236.076 145.151 235.538Z" fill="#8D9576" fill-opacity="0.1"/>
<path d="M166.19 233.002C159.718 233.755 163.819 229.601 163.735 227.686C163.502 227.225 163.273 227.155 162.826 226.895C161.962 226.915 160.493 228.767 159.29 229.425C157.072 230.638 155.743 231.155 153.34 231.907C154.211 232.657 154.946 233.506 156.021 233.688C155.617 238.069 147.151 245.6 157.81 245.781C160.012 243.357 164.686 235.834 166.19 233.002Z" fill="#8D9576" fill-opacity="0.1"/>
<path d="M148.851 220.52C146.677 223.067 145.174 225.249 143.791 228.349C143.158 229.884 142.732 231.12 142.216 232.687C141.964 233.813 141.679 234.999 141.496 236.133C143.681 236.17 147.524 235.525 148.125 233.071C148.662 232.714 152.054 232.22 153.166 231.923C148.798 229.422 152.731 225.467 155.792 227.164C156.668 227.649 156.857 228.872 157.019 229.817C157.422 228.801 158.551 226.552 158.789 225.732C158.513 225.361 158.487 225.241 158.059 225.083C157.381 225.77 157.925 226.97 156.917 227.439C156.234 227.328 154.875 226.077 154.161 225.64C153.477 225.221 153.414 224.418 153.344 223.678C152.587 223.568 152.156 223.568 151.386 223.567C150.578 223.016 149.002 222.201 148.542 221.344C148.453 221.178 148.752 220.719 148.851 220.52Z" fill="#8D9576" fill-opacity="0.1"/>
<path d="M143.791 228.349C143.158 229.883 142.732 231.119 142.215 232.686C143.667 233.329 146.459 233.033 148.064 232.91C147.593 230.124 149.121 231.208 149.435 229.234C148.81 228.457 147.088 229.48 146.558 229.286C145.636 228.949 145.112 227.935 143.791 228.349Z" fill="#8D9576" fill-opacity="0.1"/>
<path d="M146.609 223.836C145.579 226.016 148.813 228.409 150.106 228.261C150.528 227.912 150.584 227.509 150.755 226.974C151.066 223.38 149.996 222.338 146.609 223.836Z" fill="#8D9576" fill-opacity="0.1"/>
<path d="M163.111 214.292C166.168 220.164 162.086 219.654 162.605 223.059L165.251 223.593C166.424 221.749 167.698 220.375 170.08 220.99C169.854 216.486 167.087 215.066 163.111 214.292Z" fill="#8D9576" fill-opacity="0.1"/>
<path d="M158.744 214.438C159.646 215.209 159.904 215.525 160.656 216.451C161.181 215.697 161.715 214.878 162.336 214.207C160.978 214.15 160.085 214.262 158.744 214.438Z" fill="#8D9576" fill-opacity="0.1"/>
<path d="M167.724 224.394C168.336 224.676 168.908 224.929 169.496 225.263C169.676 224.513 169.825 223.727 169.977 222.971C169.198 223.421 168.477 223.901 167.724 224.394Z" fill="#8D9576" fill-opacity="0.1"/>
<path d="M106.163 159.689C105.408 160.403 104.391 161.803 103.835 162.694C102.284 165.196 101.45 166.867 100.486 169.676L99.7646 172.319C99.5827 173.362 99.3554 174.506 99.2726 175.552C99.0855 177.235 99.0144 178.279 99.1022 179.98C99.224 181.593 99.3889 182.853 99.6262 184.44L99.7574 184.817C100.014 185.878 100.235 186.639 100.578 187.676C102.172 191.766 103.818 194.575 107.49 197.135C108.605 197.787 109.334 198.126 110.568 198.556L111.174 198.678C114.866 199.393 117.804 198.932 119.504 195.16C119.718 194.635 119.89 193.942 120.045 193.386L120.396 191.311C120.687 188.622 120.436 186.068 120.135 183.401C119.925 179.92 118.119 172.91 117.214 169.536C116.793 167.921 116.427 166.656 115.903 165.066L114.749 161.354C114.404 160.192 113.892 158.833 113.49 157.671L112.207 154.193C111.002 155.062 110.177 155.696 109.061 156.672C108.468 157.193 107.775 157.893 107.195 158.45C106.81 158.853 106.507 159.253 106.163 159.689Z" fill="#8D9576" fill-opacity="0.1"/>
<path d="M106.163 159.689C105.408 160.403 104.391 161.803 103.835 162.694C102.284 165.196 101.45 166.867 100.486 169.676L99.7646 172.319C101.504 173.019 104.873 175.065 104.473 177.238C104.888 177.762 107.689 179.405 108.53 179.989L108.619 180.03C109.53 179.727 110.417 179.438 111.373 179.305C111.444 179.295 111.621 178.914 111.62 178.92C112.23 173.996 108.281 166.516 117.214 169.536C116.793 167.921 116.427 166.656 115.903 165.066L114.749 161.354C114.404 160.192 113.892 158.833 113.49 157.671L112.207 154.193C111.002 155.062 110.177 155.696 109.061 156.672C108.468 157.193 107.775 157.893 107.195 158.45C106.81 158.853 106.507 159.253 106.163 159.689Z" fill="#8D9576" fill-opacity="0.1"/>
<path d="M106.163 159.689C105.408 160.403 104.391 161.803 103.835 162.694C102.284 165.196 101.45 166.867 100.486 169.676C100.783 169.493 101.047 169.459 101.204 169.371C103.516 168.086 106.249 167.022 107.987 165.01C107.859 164.521 107.742 164.037 107.582 163.558C108.605 163.577 109.544 163.736 110.331 163.087C110.809 162.24 110.476 161.764 110.133 160.934L109.924 160.424L111.355 160.882C111.323 162.011 111.226 162.364 112.044 163.274C112.75 164.062 114.887 164.844 115.903 165.066L114.749 161.354C114.404 160.192 113.892 158.833 113.49 157.671L112.207 154.193C111.002 155.062 110.177 155.696 109.061 156.672C108.468 157.193 107.775 157.893 107.195 158.45C106.81 158.853 106.507 159.253 106.163 159.689Z" fill="#8D9576" fill-opacity="0.1"/>
<path d="M113.491 157.673C110.592 160.187 110.969 161.179 114.749 161.356C114.404 160.194 113.893 158.834 113.491 157.673Z" fill="#8D9576" fill-opacity="0.1"/>
<path d="M106.164 159.688C105.41 160.402 104.392 161.802 103.836 162.693C104.466 162.485 106.217 163.301 107.549 163.477L107.434 163.274C106.514 161.656 105.035 161.248 106.164 159.688Z" fill="#8D9576" fill-opacity="0.1"/>
<path d="M109.061 156.674C108.467 157.195 107.774 157.895 107.195 158.453C108.215 159.293 108.704 159.704 109.835 160.354C109.608 159.579 108.92 157.408 109.061 156.674Z" fill="#8D9576" fill-opacity="0.1"/>
<path d="M102.86 171.544C102.552 172.143 102.321 173.213 102.734 173.801C103.221 173.932 103.078 173.881 103.68 173.559C104.367 173.173 104.337 173.271 104.61 172.672C104.433 171.648 103.762 171.545 102.86 171.544Z" fill="#8D9576" fill-opacity="0.1"/>
<path d="M105.383 173.154C105.029 173.765 104.788 174.824 105.202 175.451C105.679 175.597 105.423 175.573 106.029 175.276C106.538 174.999 106.738 174.948 107.031 174.446C107.105 173.308 106.323 173.213 105.383 173.154Z" fill="#8D9576" fill-opacity="0.1"/>
<path d="M117.213 169.536C108.281 166.516 112.229 173.996 111.619 178.921C111.62 178.914 111.443 179.295 111.373 179.305C110.416 179.438 109.529 179.727 108.619 180.03C111.333 182.222 113.714 184.352 114.822 187.78C115.358 187.634 115.985 187.481 116.504 187.303C116.173 184.071 115.73 181.443 120.135 183.402C119.924 179.92 118.119 172.91 117.213 169.536Z" fill="#8D9576" fill-opacity="0.1"/>
<path d="M99.7647 172.32C99.5828 173.364 99.3555 174.507 99.2727 175.553C99.0856 177.236 99.0146 178.281 99.1023 179.981C99.2241 181.594 99.389 182.854 99.6263 184.441L99.7575 184.818C100.015 185.879 100.235 186.64 100.578 187.677C101.499 187.036 102.757 187.034 103.955 186.591C104.56 186.835 104.849 187.025 105.473 186.963C107.649 185.7 107.176 185.581 109.731 185.296C108.281 185.108 107.209 184.947 106.298 183.662C104.674 181.368 106.349 180.219 108.53 179.99C107.69 179.406 104.888 177.764 104.474 177.239C104.873 175.066 101.504 173.02 99.7647 172.32Z" fill="#8D9576" fill-opacity="0.1"/>
<path d="M99.2726 175.552C99.0854 177.236 99.0144 178.28 99.1022 179.98C100.283 180.48 100.871 180.088 101.966 180.026C102.231 180.011 103.19 181.32 104.251 181.149C104.564 180.455 103.993 179.276 103.718 178.514C104.008 178.086 104.135 178.015 104.219 177.536C103.571 176.737 100.29 175.454 99.2726 175.552Z" fill="#8D9576" fill-opacity="0.1"/>
<path d="M99.7582 184.816C100.33 185.297 101.067 185.898 101.773 186.162C103.876 186.946 105.416 183.248 104.454 181.949C104.302 181.938 104.027 181.914 103.884 181.956C101.099 182.777 101.062 182.226 99.6269 184.439L99.7582 184.816Z" fill="#8D9576" fill-opacity="0.1"/>
<path d="M116.145 191.276C115.294 191.12 114.49 190.867 113.704 191.198C112.43 192.829 115.354 194.522 111.174 198.678C114.865 199.394 117.803 198.932 119.503 195.161C117.375 195.347 116.436 192.992 116.145 191.276Z" fill="#8D9576" fill-opacity="0.1"/>
<path d="M109.666 195.973L107.489 197.137C108.604 197.788 109.334 198.127 110.567 198.557C110.085 197.715 109.929 196.911 109.666 195.973Z" fill="#8D9576" fill-opacity="0.1"/>
<path d="M120.397 191.311L118.587 191.452L120.046 193.386L120.397 191.311Z" fill="#8D9576" fill-opacity="0.1"/>
<path d="M109.862 184.848L109.72 184.891L109.637 185.048C110.064 185.11 110.066 185.079 110.412 185.323C110.687 186.13 110.171 186.537 110.271 187.473C110.715 187.621 110.741 187.486 111.311 187.256C111.07 185.653 111.093 184.68 111.167 183.066L109.862 184.848Z" fill="#8D9576" fill-opacity="0.1"/>
<path d="M84.5609 219.46C83.7234 220.363 83.0128 221.375 82.4471 222.47C81.6778 223.762 81.1323 224.818 80.4654 226.156L84.0226 226.699L87.8304 227.231C89.0237 227.364 90.472 227.566 91.6507 227.643C93.1118 227.785 94.5708 227.943 96.0387 228.001C100.236 228.393 105.609 228.541 109.82 228.213C112.225 228.014 115.167 227.684 117.455 226.946C118.02 226.746 118.704 226.529 119.241 226.291C124.29 224.093 124.469 220.578 122.404 216.072C121.828 215.058 121.435 214.545 120.676 213.685C117.894 210.68 114.094 209.419 110.19 208.726C107.647 208.399 105.272 208.447 102.739 208.76C101.14 209.054 99.9883 209.337 98.4366 209.757C97.3469 210.092 96.5707 210.41 95.5151 210.851C94.7747 211.144 93.6578 211.783 92.9258 212.177C90.5117 213.496 88.863 214.887 86.8703 216.738L85.3146 218.413L84.5609 219.46Z" fill="#8D9576" fill-opacity="0.1"/>
<path d="M84.562 219.46C83.7244 220.364 83.0139 221.376 82.4481 222.47C81.6789 223.763 81.1334 224.818 80.4665 226.156L84.0236 226.7L87.8315 227.232C89.0248 227.364 90.4731 227.566 91.6518 227.643C93.1128 227.786 94.5718 227.944 96.0398 228.002C93.0356 222.227 95.318 222.083 100.688 221.487C101.771 221.367 103.371 221.368 104.243 220.708C104.315 220.463 104.351 218.622 104.486 217.852L104.358 217.701C103.558 216.972 101.627 214.692 101.039 214.41C100.809 214.497 100.275 214.708 100.061 214.648C98.2299 214.133 96.3831 212.459 95.5161 210.851C94.7758 211.144 93.6589 211.783 92.9269 212.177C90.5127 213.496 88.8641 214.887 86.8713 216.738L85.3157 218.413L84.562 219.46Z" fill="#8D9576" fill-opacity="0.1"/>
<path d="M84.5632 219.459C83.7257 220.362 83.0151 221.374 82.4494 222.469C81.6802 223.761 81.1346 224.817 80.4677 226.155L84.0249 226.698L87.8327 227.23C89.026 227.363 90.4743 227.565 91.653 227.642C91.0114 226.538 90.1737 224.874 89.1035 224.203C88.1849 223.63 87.727 223.87 86.7237 224.113L86.0514 222.852C87.0106 223.013 87.8566 223.324 88.6559 222.677C89.1402 221.795 88.7748 220.956 88.5246 219.979C88.6972 220.001 89.6012 220.116 89.7476 220.084C90.799 219.8 91.4738 217.42 91.7459 216.491C92.1339 215.166 93.1294 213.483 92.9281 212.176C90.514 213.495 88.8653 214.886 86.8726 216.737L85.3169 218.412L84.5632 219.459Z" fill="#8D9576" fill-opacity="0.1"/>
<path d="M86.7351 224.145C85.2471 224.895 84.8751 225.348 84.0229 226.699L87.8307 227.231C87.5734 226.065 87.2225 225.22 86.7351 224.145Z" fill="#8D9576" fill-opacity="0.1"/>
<path d="M86.8712 216.737L85.3155 218.412L85.5505 218.527C86.9003 219.19 86.8301 219.449 88.5259 219.945C87.9694 218.533 87.6547 218.036 86.8712 216.737Z" fill="#8D9576" fill-opacity="0.1"/>
<path d="M84.562 219.459C83.7245 220.363 83.0139 221.375 82.4482 222.469C83.5331 222.617 84.8646 222.656 85.9689 222.713C85.1954 221.797 84.4348 221.507 84.0171 220.796C83.9939 220.135 84.1459 220.148 84.562 219.459Z" fill="#8D9576" fill-opacity="0.1"/>
<path d="M95.4356 213.809C95.386 214.725 95.7856 215.42 96.7583 215.486C97.1977 215.212 97.035 215.4 97.2204 214.872C97.4741 214.21 97.8013 213.802 97.1796 213.355C96.5075 213.334 96.067 213.568 95.4356 213.809Z" fill="#8D9576" fill-opacity="0.1"/>
<path d="M97.4444 215.773C97.3335 216.663 97.5627 217.233 98.4735 217.507C99.0609 217.357 98.8257 217.514 99.1828 216.989L99.7683 215.265C98.7925 215.402 98.3794 215.508 97.4444 215.773Z" fill="#8D9576" fill-opacity="0.1"/>
<path d="M104.486 217.851C104.351 218.621 104.315 220.462 104.243 220.707C103.371 221.367 101.771 221.366 100.688 221.486C95.3183 222.082 93.0359 222.226 96.04 228.001C100.237 228.393 105.61 228.541 109.822 228.212C107.379 224.342 109.442 224.332 112.87 223.965C112.92 223.416 112.961 222.866 112.993 222.317C109.631 221.816 107.014 220.089 104.486 217.851Z" fill="#8D9576" fill-opacity="0.1"/>
<path d="M95.5158 210.851C96.3828 212.459 98.2296 214.133 100.06 214.648C100.275 214.708 100.808 214.497 101.039 214.41C101.627 214.692 103.558 216.972 104.358 217.701C104.119 213.287 109.003 214.112 109.298 217.275C109.387 218.228 108.572 218.97 107.931 219.622C108.468 219.512 111.756 219.007 111.916 218.872L111.91 218.203C111.486 218.039 110.941 218.401 110.197 218.55C108.989 218.089 109.441 216.037 109.88 215.109C110.28 214.261 110.749 214.133 110.357 213.121C109.807 211.698 109.783 210.178 110.191 208.727C107.648 208.399 105.273 208.448 102.74 208.76C101.141 209.055 99.989 209.338 98.4373 209.757C97.3477 210.093 96.5715 210.411 95.5158 210.851Z" fill="#8D9576" fill-opacity="0.1"/>
<path d="M102.74 208.759C101.141 209.053 99.9893 209.337 98.4376 209.756C98.8486 211.174 100.162 213.179 101.159 214.254L102.079 213.502C102.909 213.613 104.04 213.869 104.753 213.472C104.713 212.712 103.393 211.959 103.272 211.45C103.027 210.439 103.239 209.811 102.74 208.759Z" fill="#8D9576" fill-opacity="0.1"/>
<path d="M106.372 209.067C105.498 210.073 104.764 212.661 105.964 213.618C106.534 213.692 106.898 213.474 107.441 213.256C110.742 211.231 109.06 208.527 106.372 209.067Z" fill="#8D9576" fill-opacity="0.1"/>
<path d="M120.677 213.684C120.341 214.485 120.124 215.072 119.848 215.89C120.811 215.919 121.447 215.941 122.405 216.071C121.829 215.058 121.437 214.545 120.677 213.684Z" fill="#8D9576" fill-opacity="0.1"/>
<path d="M117.291 225.212C117.374 225.793 117.411 226.361 117.456 226.946C118.021 226.747 118.705 226.529 119.242 226.291C118.641 225.923 117.919 225.553 117.291 225.212Z" fill="#8D9576" fill-opacity="0.1"/>
<path d="M81.4029 144.642C81.0123 145.153 80.2352 146.106 79.9721 146.64L78.8632 148.507C76.0708 154.414 75.2258 160.573 78.8782 166.293C79.4034 166.854 79.9149 167.411 80.4707 167.942L81.2086 168.451C83.8283 169.875 85.5087 170.281 87.9026 168.184C90.1052 165.453 90.7256 163.123 91.6946 159.797C92.5093 156.276 92.9919 152.702 93.3569 149.112C93.5038 147.995 93.5719 146.837 93.6544 145.711C93.7555 144.84 93.78 143.581 93.8246 142.674C93.9043 141.775 93.9153 140.499 93.9535 139.567C94.0124 138.653 93.992 137.751 93.9837 136.836C92.8442 137.128 92.0113 137.399 90.8976 137.788L89.2937 138.483C88.6057 138.8 87.9028 139.22 87.2384 139.594L85.8346 140.508C83.9857 141.852 82.8781 142.931 81.4029 144.642Z" fill="#8D9576" fill-opacity="0.1"/>
<path d="M81.4029 144.642C81.0123 145.153 80.2352 146.106 79.9721 146.64L78.8632 148.507C79.8459 148.954 81.3682 150.433 82.033 151.286L82.0649 151.401C82.9044 152.191 83.6592 153.307 84.2655 154.29C85.0263 154.35 86.0042 154.399 86.7431 154.506C88.1949 150.679 88.2009 145.056 93.3569 149.112C93.5038 147.995 93.5719 146.837 93.6544 145.711C93.7555 144.84 93.78 143.581 93.8246 142.674C93.9043 141.775 93.9153 140.499 93.9535 139.567C94.0124 138.653 93.992 137.751 93.9837 136.836C92.8442 137.128 92.0113 137.399 90.8976 137.788L89.2937 138.483C88.6057 138.8 87.9028 139.22 87.2384 139.594L85.8346 140.508C83.9857 141.852 82.8781 142.931 81.4029 144.642Z" fill="#8D9576" fill-opacity="0.1"/>
<path d="M85.8334 140.508C83.9845 141.852 82.8769 142.931 81.4018 144.642C82.53 144.789 86.9127 144.155 87.8706 143.442C88.0867 143.05 88.0578 142.947 88.0957 142.5L88.2433 142.361C88.8882 142.507 89.5469 142.871 90.1504 142.774C90.7812 142.282 90.678 141.807 90.7242 141.023L90.9033 140.935C91.5215 141.373 91.6105 141.384 91.3035 142.16C90.7895 143.459 92.686 144.852 93.6533 145.712C93.7543 144.84 93.7788 143.581 93.8234 142.674C93.9031 141.775 93.9142 140.499 93.9524 139.567C94.0112 138.653 93.9909 137.751 93.9826 136.836C92.843 137.128 92.0101 137.399 90.8964 137.788L89.2926 138.483C88.6045 138.801 87.9016 139.22 87.2372 139.594L85.8334 140.508Z" fill="#8D9576" fill-opacity="0.1"/>
<path d="M93.9518 139.567C93.2135 139.964 92.2238 140.353 91.9544 141.136C92.1785 142.095 92.9746 142.263 93.8229 142.674C93.9026 141.775 93.9136 140.499 93.9518 139.567Z" fill="#8D9576" fill-opacity="0.1"/>
<path d="M87.2368 139.596L85.833 140.51C86.6816 141.219 87.2224 141.628 88.1399 142.244C87.9153 141.105 87.8633 140.598 87.2368 139.596Z" fill="#8D9576" fill-opacity="0.1"/>
<path d="M90.8959 137.79L89.2921 138.485C89.7801 139.523 89.9495 139.738 90.6389 140.632C90.6698 139.521 90.8491 138.718 90.8959 137.79Z" fill="#8D9576" fill-opacity="0.1"/>
<path d="M79.9705 146.641L78.8617 148.508C79.8443 148.955 81.3667 150.434 82.0314 151.286C82.7043 150.053 82.3267 149.673 81.8308 148.459C82.5575 148.352 83.4604 148.406 83.5554 147.581C83.2988 147.033 83.216 146.721 82.5656 146.742C82.121 147.089 82.0472 147.348 81.7968 147.853L81.7019 148.048L81.467 148.005C81.0377 147.345 80.7839 146.713 79.9705 146.641Z" fill="#8D9576" fill-opacity="0.1"/>
<path d="M83.8749 148.416C83.5355 148.883 83.0965 149.444 83.1684 150.016C83.6033 150.321 83.5137 150.21 84.2207 150.124C84.735 150.018 84.534 150.142 84.8657 149.774L84.8424 149.405C84.514 148.801 84.4748 148.793 83.8749 148.416Z" fill="#8D9576" fill-opacity="0.1"/>
<path d="M82.0651 151.401C82.3591 152.397 85.3034 155.561 85.853 157.098C86.3925 158.607 86.5714 160.013 86.8449 161.554C87.5498 161.651 87.2394 161.714 87.8238 161.461C88.756 160.245 88.0899 159.407 89.4615 158.734C90.4314 158.711 90.9015 159.215 91.6948 159.798C92.5096 156.276 92.9921 152.703 93.3571 149.113C88.2011 145.056 88.1951 150.679 86.7433 154.506C86.0044 154.4 85.0265 154.351 84.2657 154.29C83.6594 153.307 82.9046 152.192 82.0651 151.401Z" fill="#8D9576" fill-opacity="0.1"/>
<path d="M81.2068 168.453C83.8264 169.877 85.5069 170.282 87.9008 168.186C86.3618 167.136 86.2335 166.087 86.6518 164.343C83.8962 162.865 84.7291 163.854 83.9681 165.951C83.5807 167.018 82.1367 167.778 81.2068 168.453Z" fill="#8D9576" fill-opacity="0.1"/>
<path d="M80.7518 165.956L78.8767 166.294C79.4019 166.855 79.9134 167.412 80.4692 167.942C80.5559 167.279 80.6501 166.617 80.7518 165.956Z" fill="#8D9576" fill-opacity="0.1"/>
<path d="M83.8403 158.079C84.2402 158.755 83.9247 159.278 83.7219 160.013L83.8478 160.208L84.1707 160.18L84.302 159.868C84.5336 159.012 84.8925 158.153 85.2131 157.32L83.8403 158.079Z" fill="#8D9576" fill-opacity="0.1"/>
<path d="M59.9309 194.588C59.2226 195.208 58.0291 197.015 57.5878 197.877C57.2154 198.599 56.7684 199.417 56.439 200.151L59.0628 200.545C60.0055 200.672 61.068 200.844 62.0021 200.942C62.962 201.045 63.9759 201.172 64.933 201.246L68.2598 201.572C71.967 201.811 74.931 201.876 78.6581 201.705C84.1199 201.226 91.8334 199.934 88.2002 192.451C87.8508 191.825 87.4204 191.306 86.9845 190.737C82.3492 186.263 75.9187 185.999 69.9977 187.713C69.3421 187.917 68.4556 188.282 67.7941 188.531C67.2317 188.762 66.4379 189.193 65.874 189.477C64.1166 190.517 62.7781 191.61 61.2853 192.985C60.9328 193.383 60.4194 193.88 60.0373 194.274L59.9309 194.588Z" fill="#8D9576" fill-opacity="0.1"/>
<path d="M59.9318 194.588C59.2234 195.209 58.03 197.015 57.5887 197.877C57.2163 198.6 56.7693 199.417 56.4399 200.151L59.0637 200.545C60.0063 200.672 61.0688 200.844 62.0029 200.943C62.9628 201.045 63.9768 201.172 64.9339 201.247L68.2607 201.573C65.1225 195.913 70.5871 196.972 74.5428 196.137C74.3959 195.248 74.4338 194.802 74.6714 193.916L74.5039 193.666L74.4993 193.067C73.8028 192.257 73.4566 192.729 72.5212 191.174L72.8509 190.607C72.6026 190.719 72.3805 190.858 72.1532 191.009C71.4094 190.765 70.2387 188.46 69.9985 187.714C69.343 187.917 68.4564 188.282 67.795 188.531C67.2325 188.762 66.4388 189.193 65.8748 189.477C64.1174 190.518 62.7789 191.61 61.2862 192.985C60.9336 193.384 60.4202 193.88 60.0382 194.274L59.9318 194.588Z" fill="#8D9576" fill-opacity="0.1"/>
<path d="M59.932 194.586C59.2236 195.206 58.0302 197.013 57.5889 197.875C57.2165 198.598 56.7695 199.415 56.4401 200.149L59.0639 200.543C60.0065 200.67 61.069 200.842 62.0031 200.94C62.963 201.043 63.977 201.17 64.9341 201.244C64.1231 199.874 63.7816 199.42 62.7098 198.274C61.8962 198.441 61.2379 198.723 60.7002 197.912L60.8403 197.665C61.56 197.76 61.7634 197.815 62.467 197.726C63.2775 196.931 62.495 196.661 62.6389 195.555C62.9498 195.494 63.0507 195.486 63.3599 195.482L63.6426 195.482C64.4843 194.755 65.9561 190.544 65.875 189.475C64.1176 190.516 62.7791 191.608 61.2863 192.983C60.9338 193.381 60.4204 193.878 60.0384 194.272L59.932 194.586Z" fill="#8D9576" fill-opacity="0.1"/>
<path d="M62.0019 200.94C61.7853 200.051 61.7457 199.191 60.8344 198.878C59.9852 199.091 59.5757 199.839 59.0626 200.543C60.0053 200.67 61.0678 200.842 62.0019 200.94Z" fill="#8D9576" fill-opacity="0.1"/>
<path d="M61.2851 192.983C60.9326 193.382 60.4192 193.879 60.0372 194.272C60.8256 194.681 61.6816 195.15 62.4911 195.497C62.0598 194.206 61.9152 194.123 61.2851 192.983Z" fill="#8D9576" fill-opacity="0.1"/>
<path d="M59.9315 194.587C59.2231 195.208 58.0297 197.015 57.5884 197.876C58.3613 197.086 59.6743 197.403 60.7401 197.486C60.2099 197.06 59.613 196.758 59.2269 196.209C59.2041 195.525 59.5292 195.221 59.9315 194.587Z" fill="#8D9576" fill-opacity="0.1"/>
<path d="M69.9976 187.712C69.342 187.916 68.4555 188.281 67.794 188.529C68.2766 189.201 68.585 189.567 69.1422 190.181C68.7196 190.67 68.2046 190.342 67.7226 190.989C67.7747 191.57 67.985 191.887 68.5453 192.102C69.281 191.698 69.2863 190.542 69.7635 190.658C72.4895 191.324 72.6429 192.039 74.5029 193.664L74.4984 193.065C73.8018 192.256 73.4556 192.727 72.5203 191.172L72.85 190.606C72.6016 190.718 72.3795 190.857 72.1522 191.008C71.4084 190.764 70.2377 188.458 69.9976 187.712Z" fill="#8D9576" fill-opacity="0.1"/>
<path d="M69.4915 192.189L69.3072 192.567C69.3367 193.151 69.2537 192.885 69.5878 193.388C70.1952 193.596 69.9006 193.587 70.5024 193.451C70.7167 192.809 70.9113 192.574 70.7444 192.029C70.2943 191.865 69.9679 192.041 69.4915 192.189Z" fill="#8D9576" fill-opacity="0.1"/>
<path d="M74.5406 196.136C70.5848 196.971 65.1202 195.911 68.2584 201.571C71.9656 201.81 74.9296 201.875 78.6567 201.704C78.1972 201.016 77.7708 200.43 77.787 199.603C78.6166 198.031 80.7396 199.092 81.1769 197.778C80.7627 196.848 79.1455 196.898 78.0951 196.323C76.727 195.572 75.8536 194.903 74.6691 193.915C74.4316 194.801 74.3937 195.247 74.5406 196.136Z" fill="#8D9576" fill-opacity="0.1"/>
<path d="M86.9849 190.735C86.643 191.426 86.471 191.489 86.5037 192.15C86.9337 192.457 87.6413 192.417 88.2006 192.449C87.8512 191.823 87.4208 191.304 86.9849 190.735Z" fill="#8D9576" fill-opacity="0.1"/>
<path d="M78.2428 194.071C78.1287 194.262 77.5504 194.934 77.3761 195.144C78.0993 194.984 78.9097 194.868 79.647 194.745C80.132 194.732 79.9117 194.806 80.3132 194.475L80.2879 194.198L79.9482 194.082C79.1246 194.389 79.0165 194.52 78.2428 194.071Z" fill="#8D9576" fill-opacity="0.1"/>
<path d="M45.7137 172.946C45.3238 173.492 44.9197 174.026 44.5878 174.608C44.1369 175.438 43.6085 176.364 43.2065 177.209L45.5398 177.58C46.3887 177.69 47.4543 177.86 48.2884 177.933L50.7908 178.195L53.8402 178.508C57.3369 178.686 59.7164 178.756 63.184 178.61C65.7496 178.376 68.4718 178.032 70.7284 176.672C72.8901 174.96 72.8056 173.439 71.9451 171.002L71.6818 170.371C71.3888 169.864 70.8558 169.189 70.4946 168.701C68.2698 166.674 66.2871 165.843 63.3352 165.399C62.54 165.309 62.0988 165.244 61.2846 165.297L61.2253 165.261C60.2401 165.173 59.3281 165.297 58.3456 165.389C57.3497 165.535 56.4854 165.802 55.5186 166.073C54.8311 166.289 54.0947 166.583 53.4142 166.836C53.1611 166.925 52.0848 167.486 51.7811 167.636C49.9317 168.733 49.1111 169.377 47.5226 170.838L46.5767 171.874L45.7137 172.946Z" fill="#8D9576" fill-opacity="0.1"/>
<path d="M45.714 172.946C45.3241 173.492 44.92 174.026 44.5881 174.608C44.1372 175.438 43.6087 176.364 43.2068 177.209L45.5401 177.58C46.389 177.69 47.4545 177.86 48.2887 177.933L50.7911 178.195L53.8405 178.508C51.0494 173.647 55.836 174.223 59.4038 173.665C59.3569 172.697 59.3555 172.478 59.5295 171.53L59.34 171.388C59.699 168.733 62.0051 168.865 62.768 170.918L62.8976 170.952C62.9753 170.476 63.0805 169.526 63.3748 169.176C63.8712 168.586 63.4607 168.239 63.1262 167.584C63.2094 166.857 63.2792 166.129 63.3355 165.399C62.5403 165.309 62.0991 165.244 61.2849 165.297L61.2255 165.262C60.2404 165.174 59.3284 165.297 58.3458 165.389C57.35 165.535 56.4857 165.802 55.5189 166.074C54.8314 166.289 54.095 166.583 53.4145 166.836C53.1614 166.925 52.085 167.486 51.7814 167.636C49.932 168.733 49.1113 169.377 47.5229 170.838L46.577 171.874L45.714 172.946Z" fill="#8D9576" fill-opacity="0.1"/>
<path d="M55.519 166.072C54.8315 166.287 54.0951 166.581 53.4146 166.834C53.8145 167.377 54.1567 167.812 54.5923 168.326C54.1566 168.785 53.7874 168.451 53.343 169.034C53.3947 169.585 53.3287 169.312 53.7277 169.849L54.0852 170.004C54.7857 169.609 54.5835 168.853 55.0906 168.684C57.8082 169.713 57.4331 169.316 59.3401 171.386C59.6991 168.731 62.0052 168.863 62.7681 170.916L62.8977 170.95C62.9754 170.475 63.0806 169.524 63.3749 169.174C63.8713 168.584 63.4608 168.237 63.1263 167.582C63.2095 166.855 63.2793 166.127 63.3356 165.397C62.5404 165.307 62.0992 165.242 61.285 165.295L61.2257 165.26C60.2405 165.172 59.3285 165.295 58.3459 165.388C57.3501 165.533 56.4858 165.8 55.519 166.072Z" fill="#8D9576" fill-opacity="0.1"/>
<path d="M55.52 166.072C55.721 168.491 58.6723 169.682 59.6512 168.515C59.5372 167.765 59.1109 167.741 58.7273 167.312C58.8039 167.397 58.4246 165.623 58.347 165.388C57.3511 165.533 56.4868 165.8 55.52 166.072Z" fill="#8D9576" fill-opacity="0.1"/>
<path d="M61.2249 165.26C60.337 166.017 59.6498 167.516 60.4221 168.524C61.8965 169.078 64.3051 167.017 61.2842 165.296L61.2249 165.26Z" fill="#8D9576" fill-opacity="0.1"/>
<path d="M45.7154 172.947C45.3254 173.492 44.9213 174.026 44.5894 174.608C44.1386 175.438 43.6101 176.365 43.2081 177.21L45.5414 177.581C46.3903 177.691 47.4559 177.861 48.29 177.934L50.7924 178.195C50.2163 177.061 49.72 176.47 48.8901 175.546C48.3898 175.661 48.1042 175.762 47.5891 175.709C47.1673 175.326 47.3066 175.549 47.1339 175.028C47.8244 175.057 48.3497 175.202 48.8671 174.906C49.1685 174.272 48.7419 173.88 48.8241 173.14C49.1104 173.092 49.8242 172.999 49.9673 172.83C50.5827 172.101 51.7059 168.436 51.7827 167.636C49.9333 168.734 49.1127 169.377 47.5243 170.838L46.5784 171.874L45.7154 172.947Z" fill="#8D9576" fill-opacity="0.1"/>
<path d="M48.289 177.933C48.0346 177.164 47.9259 176.166 47.0438 176.104C46.3763 176.46 46.0311 176.989 45.5404 177.58C46.3893 177.69 47.4549 177.859 48.289 177.933Z" fill="#8D9576" fill-opacity="0.1"/>
<path d="M47.5227 170.838L46.5768 171.874C47.1372 172.274 47.512 172.628 48.1807 172.745L48.4148 172.597C48.4059 172.003 47.8895 171.321 47.5227 170.838Z" fill="#8D9576" fill-opacity="0.1"/>
<path d="M45.714 172.946C45.3241 173.491 44.92 174.025 44.5881 174.607C45.4077 174.754 45.6421 174.817 46.4611 174.733L46.5312 174.544C46.1579 174.166 45.9074 173.921 45.5835 173.49L45.714 172.946Z" fill="#8D9576" fill-opacity="0.1"/>
<path d="M54.9232 170.026C54.6349 170.586 54.7178 170.643 55.0001 171.138C55.577 171.4 55.299 171.387 55.8557 171.258C56.0228 170.792 56.1838 170.51 56.0894 170.031C55.5866 169.818 55.568 169.929 54.9232 170.026Z" fill="#8D9576" fill-opacity="0.1"/>
<path d="M59.4043 173.664C55.8365 174.222 51.0499 173.646 53.8409 178.507C57.3376 178.685 59.7171 178.755 63.1847 178.609C62.617 177.858 62.125 177.221 62.6034 176.343C63.6031 175.684 64.8548 176.075 65.4261 175.151C65.0904 174.281 62.8235 173.948 61.7528 173.243C60.6825 172.538 60.4995 172.39 59.5299 171.529C59.3559 172.477 59.3573 172.696 59.4043 173.664Z" fill="#8D9576" fill-opacity="0.1"/>
<path d="M69.3866 173.073C68.7091 173.001 68.1955 172.864 67.596 173.138C67.0978 173.843 67.3973 174.176 67.728 174.945C69.3985 175.123 69.8906 175.105 70.7287 176.671C72.8905 174.96 72.806 173.438 71.9455 171.001C70.9727 172.108 70.7512 172.46 69.3866 173.073Z" fill="#8D9576" fill-opacity="0.1"/>
<path d="M70.4947 168.699C70.2682 169.189 70.0195 169.541 70.1181 170.047C70.6295 170.386 71.0076 170.311 71.6819 170.369C71.3889 169.861 70.8559 169.187 70.4947 168.699Z" fill="#8D9576" fill-opacity="0.1"/>
<path d="M62.1205 172.516C62.1505 172.578 62.1814 172.64 62.2122 172.701C62.9635 172.603 64.1067 172.519 64.7654 172.232L64.6526 171.98C64.2095 171.677 63.2887 171.982 62.6493 171.958L62.1205 172.516Z" fill="#8D9576" fill-opacity="0.1"/>
<path d="M31.9845 155.516C31.5127 156.218 30.9579 156.963 30.6336 157.733C30.363 158.239 30.1012 158.748 29.8465 159.261L32.1336 159.604L34.8869 159.983L37.4591 160.274C38.3017 160.349 39.5824 160.504 40.3929 160.529C43.6782 160.745 46.4245 160.861 49.7267 160.65C52.4049 160.395 54.9327 160.135 57.3062 158.723C59.4899 157.008 59.3482 155.437 58.553 153C56.9101 149.483 53.7124 148.088 50.1161 147.451C49.2436 147.35 48.7859 147.287 47.8913 147.328C46.9545 147.212 45.8063 147.371 44.8601 147.475C43.8318 147.628 43.0332 147.853 42.0304 148.121C41.3986 148.316 40.6233 148.646 39.9944 148.892L38.3653 149.687C36.6586 150.617 35.5174 151.581 34.1152 152.897L33.1736 153.959C32.7875 154.382 32.3363 155.039 31.9845 155.516Z" fill="#8D9576" fill-opacity="0.1"/>
<path d="M31.9852 155.518C31.5133 156.22 30.9586 156.965 30.6343 157.735C30.3637 158.241 30.1019 158.75 29.8472 159.263L32.1343 159.606L34.8876 159.985L37.4598 160.276C38.3024 160.351 39.5831 160.506 40.3936 160.531C37.7438 155.387 42.3837 156.503 46.0124 155.686C45.9406 154.756 45.9616 154.491 46.0754 153.562L45.9727 153.469C46.293 150.772 48.2207 150.851 49.4911 152.964L49.5934 152.936C49.6719 151.749 49.6126 151.816 50.1943 150.776C50.123 150.315 49.9222 150.058 49.6845 149.657C49.7808 148.926 49.8337 148.118 50.1168 147.453C49.2443 147.352 48.7866 147.289 47.892 147.33C46.9552 147.214 45.807 147.373 44.8608 147.476C43.8325 147.63 43.0339 147.855 42.0311 148.123C41.3993 148.318 40.624 148.648 39.9951 148.894L38.366 149.689C36.6593 150.619 35.5181 151.583 34.1159 152.899L33.1743 153.961C32.7882 154.384 32.337 155.041 31.9852 155.518Z" fill="#8D9576" fill-opacity="0.1"/>
<path d="M42.0316 148.119C41.3999 148.315 40.6246 148.644 39.9956 148.891C40.489 149.65 40.7264 149.882 41.3443 150.523C40.6903 150.62 40.1257 150.7 39.8834 151.421C40.1364 151.867 40.0714 151.731 40.6622 151.98L41.013 151.899C41.2943 151.43 41.3158 151.219 41.4419 150.697C42.4497 150.795 41.9104 151.558 43.8364 151.336C44.7142 152.06 45.1458 152.753 45.9732 153.465C46.2935 150.769 48.2213 150.847 49.4916 152.961L49.594 152.933C49.6725 151.746 49.6132 151.813 50.1948 150.773C50.1235 150.312 49.9227 150.054 49.685 149.653C49.7814 148.923 49.8342 148.115 50.1173 147.45C49.2448 147.348 48.7871 147.286 47.8925 147.326C46.9557 147.211 45.8076 147.369 44.8613 147.473C43.833 147.627 43.0345 147.851 42.0316 148.119Z" fill="#8D9576" fill-opacity="0.1"/>
<path d="M44.8617 147.475C43.8333 147.628 43.0348 147.853 42.032 148.121C42.2715 149.013 43.0078 150.273 43.6231 150.966L43.9292 151.086C45.2159 150.161 45.4026 151.003 46.1928 150.57C46.085 150.389 45.8597 149.988 45.7243 149.851C44.9853 149.107 45.3423 148.314 44.8617 147.475Z" fill="#8D9576" fill-opacity="0.1"/>
<path d="M47.8931 147.327C46.8905 148.04 46.2377 149.742 46.9146 150.759L47.3873 150.834C49.5594 149.896 50.2998 148.751 47.8931 147.327Z" fill="#8D9576" fill-opacity="0.1"/>
<path d="M31.986 155.516C31.5142 156.218 30.9594 156.963 30.6351 157.732C30.3645 158.239 30.1027 158.748 29.848 159.261L32.1351 159.604L34.8884 159.983L37.4606 160.274C36.8595 159.323 36.1917 158.024 35.1261 157.678C34.6866 157.791 34.5089 157.871 34.055 157.8C33.7355 157.36 33.7748 157.58 33.745 157.125C34.2911 157.084 35.0567 157.114 35.4491 156.792C35.6302 156.279 35.4519 155.651 35.355 155.089C35.9003 155.123 35.8801 155.153 36.3758 154.947C37.2205 154.128 38.2745 150.804 38.3668 149.687C36.6601 150.617 35.5189 151.581 34.1167 152.897L33.1751 153.958C32.789 154.381 32.3378 155.039 31.986 155.516Z" fill="#8D9576" fill-opacity="0.1"/>
<path d="M34.8881 159.982C34.5928 159.158 34.4857 158.121 33.5095 158.192C32.8568 158.618 32.6191 158.997 32.1348 159.603L34.8881 159.982Z" fill="#8D9576" fill-opacity="0.1"/>
<path d="M34.1161 152.896L33.1745 153.958C33.7463 154.342 34.1439 154.701 34.8122 154.778L35.0091 154.597C34.9287 153.93 34.5098 153.467 34.1161 152.896Z" fill="#8D9576" fill-opacity="0.1"/>
<path d="M31.9849 155.516C31.5131 156.218 30.9584 156.963 30.6341 157.733C31.5799 156.378 31.4643 157.122 33.1187 156.68C32.9745 156.209 32.4001 155.848 31.9849 155.516Z" fill="#8D9576" fill-opacity="0.1"/>
<path d="M41.5027 152.048C41.2362 152.614 41.3043 152.649 41.5846 153.148C42.1533 153.405 41.8714 153.376 42.4535 153.285C42.6187 152.801 42.7099 152.638 42.6851 152.118C42.2124 151.859 42.1673 151.98 41.5027 152.048Z" fill="#8D9576" fill-opacity="0.1"/>
<path d="M46.0117 155.685C42.383 156.502 37.7431 155.386 40.3929 160.529C43.6782 160.745 46.4246 160.862 49.7268 160.651C47.5757 157.192 51.1034 158.473 51.9256 157.338C51.8925 157.103 51.8968 156.668 51.5887 156.609C49.5117 156.208 47.7955 155.119 46.219 153.693L46.0747 153.561C45.9609 154.49 45.9399 154.755 46.0117 155.685Z" fill="#8D9576" fill-opacity="0.1"/>
<path d="M55.8491 155.147C55.1762 155.038 54.8235 154.902 54.2181 155.138C53.6653 155.827 54.009 156.224 54.3259 157.022C55.9742 157.113 56.5495 157.155 57.3068 158.722C59.4906 157.006 59.3489 155.436 58.5537 152.998C57.5124 154.213 57.345 154.558 55.8491 155.147Z" fill="#8D9576" fill-opacity="0.1"/>
<path d="M48.6505 154.601C48.6938 154.656 48.7372 154.71 48.7807 154.765C49.5225 154.655 50.729 154.546 51.3611 154.237C51.0125 153.536 50.0331 154.016 49.2164 153.979L48.6505 154.601Z" fill="#8D9576" fill-opacity="0.1"/>
<path d="M69.8315 130.296C69.4945 130.736 68.9553 131.384 68.7085 131.85L67.8792 133.273C67.4051 134.27 67.1031 134.912 66.7497 135.954C66.5044 136.863 66.2951 137.639 66.1128 138.567L66.0592 139.111L65.9426 140.503C65.987 144.115 66.6119 146.914 69.6694 149.227C71.933 150.404 73.0478 150.747 75.0942 148.986C76.642 147.116 77.489 144.653 78.0592 142.33C78.7428 139.904 79.1434 136.295 79.4089 133.785C79.4793 132.888 79.5592 131.99 79.647 131.094L79.8077 128.66L79.8612 126.27L79.9058 124C79.1424 124.207 78.218 124.561 77.4576 124.829L76.089 125.405L74.5954 126.188L73.3158 127.03C71.793 128.141 71.0675 128.873 69.8315 130.296Z" fill="#8D9576" fill-opacity="0.1"/>
<path d="M65.9423 140.503C65.9867 144.115 66.6116 146.914 69.6691 149.228C71.9328 150.405 73.0475 150.747 75.0939 148.986C76.6417 147.116 77.4888 144.653 78.0589 142.33C77.2676 141.743 77.0215 141.314 76.0382 141.635C75.533 142.13 75.4083 142.849 75.0515 143.594C74.6092 143.849 74.8497 143.801 74.2947 143.673C73.4905 142.572 73.6129 136.682 70.571 137.989C69.5571 138.984 69.9008 139.938 70.8646 140.774L70.8707 140.93C68.8383 141.476 68.1475 140.57 65.9423 140.503Z" fill="#8D9576" fill-opacity="0.1"/>
<path d="M71.9659 147.373C71.0942 148.346 70.7426 148.575 69.6693 149.227C71.9329 150.404 73.0477 150.746 75.0941 148.986C72.6096 147.372 75.3822 146.432 72.8843 145.451C72.5627 145.324 72.6702 145.389 72.3511 145.526C72.0049 146.104 72.0282 146.685 71.9659 147.373Z" fill="#8D9576" fill-opacity="0.1"/>
<path d="M72.1203 140.587C72.001 140.885 71.6814 142.357 71.7129 142.647L72.1339 142.743C72.3391 142.044 72.8089 141.139 72.6193 140.547L72.1203 140.587Z" fill="#8D9576" fill-opacity="0.1"/>
<path d="M68.7065 131.851L67.8772 133.275C67.4031 134.271 67.1011 134.914 66.7477 135.955C66.5023 136.864 66.2931 137.641 66.1108 138.568L66.0572 139.112L65.9406 140.505C68.1457 140.571 68.8365 141.477 70.8689 140.931L70.8628 140.775C69.899 139.939 69.5553 138.985 70.5693 137.99C73.6112 136.684 73.4887 142.574 74.293 143.674C74.848 143.802 74.6075 143.851 75.0497 143.595C75.4065 142.85 75.5313 142.131 76.0365 141.637C77.0197 141.315 77.2659 141.745 78.0571 142.331C78.7408 139.906 79.1413 136.297 79.4069 133.786C75.248 130.804 75.308 134.834 74.1548 138.117L72.1771 137.968C71.4666 137.022 69.7509 134.487 70.5079 133.302C70.8389 133.243 71.1312 133.183 71.4584 133.11C71.6844 132.7 71.6268 132.92 71.5326 132.415C71.1063 131.991 71.3518 132.109 70.7897 132.012C70.0717 132.41 70.5746 132.555 70.0248 132.951C69.529 132.423 69.3287 132.044 68.7065 131.851Z" fill="#8D9576" fill-opacity="0.1"/>
<path d="M67.8777 133.274C67.4035 134.27 67.1016 134.913 66.7481 135.954C67.4496 136.399 68.2695 136.239 68.8204 137.009C68.9655 137.211 69.2295 137.431 69.4467 137.558C69.703 137.233 69.7135 136.569 69.7638 136.119C70.1528 135.723 70.0835 135.905 70.2168 135.427C69.7884 134.753 68.5524 133.704 67.8777 133.274Z" fill="#8D9576" fill-opacity="0.1"/>
<path d="M66.0596 139.109C66.8394 139.921 67.3192 140.51 68.5467 139.908C69.0299 139.672 69.1908 139.424 69.3583 138.902C69.1195 137.418 67.0688 137.612 66.1132 138.565L66.0596 139.109Z" fill="#8D9576" fill-opacity="0.1"/>
<path d="M73.314 127.03C71.7912 128.141 71.0657 128.873 69.8296 130.296C70.9497 130.3 73.6301 129.944 74.6891 129.563C75.115 129.122 75.1376 129.033 75.4191 128.471C76.0495 128.685 76.4382 128.915 76.9996 128.681C77.2681 128.177 77.257 127.943 77.3222 127.383L77.5356 127.372C77.9953 127.901 77.4268 129.039 78.589 130.187C78.9175 130.515 79.2705 130.819 79.6452 131.094L79.8059 128.66L79.8594 126.269L79.9039 124C79.1406 124.207 78.2162 124.561 77.4558 124.829L76.0871 125.405L74.5936 126.187L73.314 127.03Z" fill="#8D9576" fill-opacity="0.1"/>
<path d="M79.8601 126.271C79.2057 126.585 78.828 126.703 78.3479 127.237C78.1813 128.129 79.0434 128.379 79.8066 128.661L79.8601 126.271Z" fill="#8D9576" fill-opacity="0.1"/>
<path d="M73.3158 127.03C74.0407 127.478 74.6077 127.921 75.2841 128.432C75.0649 127.445 74.9944 127.132 74.5954 126.188L73.3158 127.03Z" fill="#8D9576" fill-opacity="0.1"/>
<path d="M77.4579 124.83L76.0893 125.406C76.4593 125.939 76.8782 126.516 77.2027 127.074C77.2795 126.326 77.3468 125.573 77.4579 124.83Z" fill="#8D9576" fill-opacity="0.1"/>
<path d="M71.7033 133.351C71.4512 133.849 71.3981 133.906 71.274 134.464L71.4978 134.698L72.2671 134.688C72.6369 134.263 72.5477 134.502 72.5701 133.963C72.2503 133.5 72.2208 133.533 71.7033 133.351Z" fill="#8D9576" fill-opacity="0.1"/>
<path d="M42.5938 133.657C40.603 133.577 35.2593 134.662 34.2732 136.418C34.4036 136.834 34.864 137.113 35.2273 137.409C35.7575 137.812 36.2578 138.187 36.8044 138.567L38.2365 139.629C39.1164 140.282 39.8872 140.885 40.8434 141.425C42.6692 142.614 43.6695 143.244 45.6249 144.224C47.3359 144.999 48.6526 145.532 50.5616 145.654C52.5348 145.377 53.0006 144.464 53.4276 142.594C53.4381 142.387 53.4419 142.179 53.4382 141.972C53.3819 139.559 51.9326 137.914 50.3041 136.375C49.7281 135.942 49.395 135.736 48.7678 135.378C48.2958 135.112 47.6835 134.823 47.1901 134.573L45.3053 133.994L43.7255 133.738L42.5938 133.657Z" fill="#8D9576" fill-opacity="0.1"/>
<path d="M45.3048 133.996C44.9808 134.921 45.0686 135.467 45.2106 136.436L45.2375 136.432C45.3444 137.375 45.4343 137.645 45.7141 138.529L45.7175 138.662L45.7826 138.859C46.3136 140.431 46.9483 141.162 47.9223 142.541C47.9142 142.619 47.9053 142.698 47.8972 142.776C46.9678 143.21 45.9812 142.146 45.4362 143.148C45.4642 143.691 45.4095 143.745 45.6245 144.225C47.3354 145.001 48.6521 145.533 50.5611 145.656C52.5344 145.378 53.0001 144.465 53.4271 142.596C53.4377 142.389 53.4414 142.18 53.4378 141.973C53.3815 139.56 51.9321 137.915 50.3037 136.376C49.7276 135.944 49.3946 135.737 48.7673 135.379C48.2954 135.113 47.683 134.825 47.1897 134.574L45.3048 133.996Z" fill="#8D9576" fill-opacity="0.1"/>
<path d="M45.3048 133.996C44.9808 134.921 45.0686 135.467 45.2106 136.436L45.2375 136.432C45.3444 137.375 45.4343 137.645 45.7141 138.529C46.8755 137.081 47.6255 137.605 48.0298 139.14C49.2787 138.984 49.2351 137.224 50.3037 136.376C49.7276 135.944 49.3946 135.737 48.7673 135.379C48.2954 135.113 47.683 134.825 47.1897 134.574L45.3048 133.996Z" fill="#8D9576" fill-opacity="0.1"/>
<path d="M45.3052 133.996C44.9813 134.921 45.069 135.467 45.211 136.436L45.2379 136.432C45.8844 136.304 46.0396 136.433 46.6545 136.678C46.6345 136.723 47.1507 134.744 47.1901 134.574L45.3052 133.996Z" fill="#8D9576" fill-opacity="0.1"/>
<path d="M48.7681 135.378C48.0639 135.747 47.0736 136.4 47.3833 137.298C47.7636 137.488 47.7647 137.502 48.1766 137.58C48.7667 137.455 48.8921 137.473 49.3043 137.025C49.5613 136.163 49.3878 135.983 48.7681 135.378Z" fill="#8D9576" fill-opacity="0.1"/>
<path d="M53.4274 142.594C51.5546 143.451 50.4057 142.199 49.5215 142.978C49.3878 144.493 50.7379 143.496 50.5615 145.654C52.5347 145.377 53.0004 144.464 53.4274 142.594Z" fill="#8D9576" fill-opacity="0.1"/>
<path d="M44.9536 139.903C43.9685 139.538 41.0451 137.87 40.2992 138.997C39.5145 140.181 39.943 140.636 40.8424 141.426C42.6682 142.615 43.6685 143.244 45.6239 144.224C45.409 143.744 45.4636 143.691 45.4356 143.148C45.9806 142.145 46.9672 143.21 47.8967 142.775C47.9048 142.697 47.9136 142.618 47.9217 142.54C46.9477 141.162 46.3131 140.431 45.782 138.858L45.717 138.661C45.4128 139.093 45.2163 139.442 44.9536 139.903Z" fill="#8D9576" fill-opacity="0.1"/>
<path d="M42.5929 133.658C40.6021 133.578 35.2584 134.662 34.2723 136.418C34.4027 136.834 34.8631 137.113 35.2264 137.409C35.7565 137.812 36.2569 138.187 36.8035 138.567L38.2356 139.629C38.1863 138.003 38.2776 138.098 37.1832 136.845L37.2167 136.608C37.7889 136.831 37.8642 136.98 38.35 136.863C39.0018 136.082 39.9473 135.782 40.75 135.19C41.3824 134.724 41.9971 134.172 42.5929 133.658Z" fill="#8D9576" fill-opacity="0.1"/>
<path d="M35.2281 137.408C35.7583 137.811 36.2586 138.186 36.8052 138.566C36.9157 137.938 37.0765 137.623 36.866 137.116C36.3833 136.987 35.7415 137.255 35.2281 137.408Z" fill="#8D9576" fill-opacity="0.1"/>
<path d="M43.7246 133.738C43.7949 134.743 44.0109 136.23 45.2102 136.435C45.0681 135.466 44.9804 134.92 45.3044 133.995L43.7246 133.738Z" fill="#8D9576" fill-opacity="0.1"/>
<path d="M63.5424 119.659C60.6047 121.205 58.5649 122.664 56.8892 125.602C56.6939 126.007 56.3558 126.655 56.2016 127.055L55.7468 128.253C55.6104 128.853 55.4344 129.535 55.3458 130.136L55.1866 131.778C55.2468 135.204 55.99 137.701 59.1424 139.556C60.8614 140.066 62.2249 140.272 63.2348 138.422C64.1437 136.666 64.2895 135.269 64.4533 133.342C64.6478 131.242 64.5017 129.052 64.4016 126.944C64.3957 126.39 64.2943 125.498 64.2476 124.92L64.0575 123.261L63.7875 121.192L63.5424 119.659Z" fill="#8D9576" fill-opacity="0.1"/>
<path d="M63.5424 119.659C60.6047 121.205 58.5649 122.664 56.8892 125.602C56.6939 126.007 56.3558 126.655 56.2016 127.055L56.6041 126.922L57.3616 127.423L57.4479 127.268C57.5697 127.054 57.6807 126.882 57.8146 126.676C58.2762 126.699 58.0508 126.649 58.4674 126.951L58.469 127.197C58.1843 127.412 57.9211 127.607 57.6281 127.811C58.3016 129.685 58.1014 129.568 59.5283 130.822L59.6238 130.926C60.099 130.892 60.5988 130.849 61.0719 130.829C61.1973 129.885 61.3173 128.269 61.593 127.393C62.0751 125.859 63.3244 126.468 64.4016 126.944C64.3957 126.39 64.2943 125.498 64.2476 124.92L64.0575 123.261L63.7875 121.192L63.5424 119.659Z" fill="#8D9576" fill-opacity="0.1"/>
<path d="M63.5424 119.659C60.6047 121.205 58.5649 122.664 56.8892 125.602C58.2479 125.217 60.3913 124.99 60.7468 123.565C61.478 123.529 61.773 123.723 62.1272 123.382C62.0868 122.99 62.0567 122.798 62.076 122.404L62.3214 122.373C63.0721 123.687 61.6669 123.431 64.2476 124.92L64.0575 123.261L63.7875 121.192L63.5424 119.659Z" fill="#8D9576" fill-opacity="0.1"/>
<path d="M63.7852 121.193C63.4106 121.573 62.9619 121.932 62.8338 122.429C63.073 122.961 63.4651 123.034 64.0552 123.262L63.7852 121.193Z" fill="#8D9576" fill-opacity="0.1"/>
<path d="M64.3994 126.945C63.3222 126.469 62.0729 125.859 61.5908 127.393C61.3151 128.269 61.1951 129.885 61.0697 130.83C60.5966 130.849 60.0968 130.892 59.6216 130.926C59.9939 131.378 60.2386 131.696 60.5746 132.168C61.1176 132.926 61.3439 134.624 62.1645 134.868C62.6059 133.895 62.4063 133.359 63.3455 132.973C63.9114 133.067 63.9457 133.108 64.4511 133.342C64.6456 131.242 64.4995 129.052 64.3994 126.945Z" fill="#8D9576" fill-opacity="0.1"/>
<path d="M56.2012 127.056L55.7464 128.254C55.6099 128.855 55.4339 129.536 55.3454 130.138L55.1862 131.78C55.8685 131.285 56.4786 131.275 57.3079 131.398C57.961 132.062 56.9646 132.759 56.8843 133.558L57.089 133.76C57.726 133.711 57.7107 133.732 58.2781 133.464C58.9409 132.554 57.9293 132.387 58.1627 131.405C58.5702 130.914 58.9051 130.875 59.5278 130.823C58.101 129.57 58.3012 129.687 57.6277 127.813C57.9207 127.608 58.1839 127.414 58.4685 127.198L58.467 126.952C58.0504 126.65 58.2758 126.701 57.8142 126.677C57.6803 126.883 57.5693 127.055 57.4475 127.269L57.3611 127.424L56.6037 126.924L56.2012 127.056Z" fill="#8D9576" fill-opacity="0.1"/>
<path d="M55.7459 128.253C55.6095 128.853 55.4335 129.535 55.3449 130.136C56.2429 130.246 56.4361 130.332 57.2216 130.783L57.3458 130.647L57.3518 130.911C57.3632 130.482 57.5589 130.051 57.7069 129.639C57.5548 128.773 56.5859 128.152 55.7459 128.253Z" fill="#8D9576" fill-opacity="0.1"/>
<path d="M63.2331 138.421C62.8323 138.587 63.0458 138.539 62.557 138.436C61.6973 137.768 62.2135 136.651 61.1566 136.344C60.239 136.718 60.8802 138.392 59.1408 139.555C60.8598 140.065 62.2233 140.271 63.2331 138.421Z" fill="#8D9576" fill-opacity="0.1"/>
<path d="M36.4569 117.804L37.2204 119.297L38.1055 120.954L39.0217 122.561L40.0478 124.25C41.3189 126.272 42.25 127.601 43.8057 129.464C45.1402 131.068 46.129 131.997 47.9975 132.976C50.1495 133.431 51.0017 132.619 52.0204 130.751C53.2507 126.661 51.1885 122.86 47.9779 120.382C47.6037 120.031 46.9833 119.661 46.5403 119.367L45.3901 118.756C42.2928 117.28 39.7435 117.41 36.4569 117.804Z" fill="#8D9576" fill-opacity="0.1"/>
<path d="M47.9779 120.382C47.1566 120.496 46.7812 121.445 46.7913 122.203C47.1644 122.783 47.344 122.654 47.8596 123.514C47.1941 123.325 47.4411 122.736 46.878 122.754C46.8048 123.089 46.6506 123.993 46.4928 124.228L46.1912 124.623C46.2032 125.767 46.1559 126.833 46.4483 127.932C46.5868 128.45 46.7324 128.775 46.5784 129.194C45.8273 128.931 45.3425 128.478 44.6612 128.415C44.1627 128.678 44.0955 128.851 43.8057 129.464C45.1402 131.068 46.1289 131.997 47.9975 132.976C50.1494 133.431 51.0017 132.619 52.0204 130.751C53.2506 126.661 51.1885 122.86 47.9779 120.382Z" fill="#8D9576" fill-opacity="0.1"/>
<path d="M52.0219 130.751C51.6836 131.087 51.6863 131.142 51.2508 131.301C49.5994 131.216 49.8993 130.883 48.6862 129.792L48.3118 129.866C47.8424 130.316 47.9769 130.059 47.8148 130.621C48.4348 131.71 48.5482 131.787 47.999 132.976C50.151 133.431 51.0032 132.619 52.0219 130.751Z" fill="#8D9576" fill-opacity="0.1"/>
<path d="M46.882 126.349L46.9267 126.718C47.403 127.35 47.5302 127.382 48.2284 127.806C47.802 127.047 47.6269 126.682 46.882 126.349Z" fill="#8D9576" fill-opacity="0.1"/>
<path d="M45.0213 125.39C44.4648 124.817 43.8923 124.208 43.3512 123.623C41.6674 121.806 41.0209 122.619 40.0494 124.25C41.3206 126.272 42.2516 127.601 43.8074 129.464C44.0971 128.851 44.1644 128.677 44.6629 128.415C45.3442 128.478 45.829 128.931 46.5801 129.194C46.7341 128.774 46.5885 128.45 46.45 127.932C46.1576 126.833 46.2049 125.766 46.1929 124.623L45.0213 125.39Z" fill="#8D9576" fill-opacity="0.1"/>
<path d="M36.4593 117.803L37.2228 119.297L38.1079 120.954L39.0241 122.56C39.1803 122.15 39.461 121.466 39.5271 121.043C39.6448 120.293 38.8648 119.904 39.2607 119.301C39.828 119.794 39.7799 119.938 40.3359 119.93L40.9072 119.383C41.5635 119.475 41.3631 119.714 41.6652 119.772C42.4059 119.916 44.745 118.98 45.3925 118.755C42.2952 117.28 39.7459 117.409 36.4593 117.803Z" fill="#8D9576" fill-opacity="0.1"/>
<path d="M37.2221 119.298L38.1071 120.955C38.4268 120.518 38.7718 120.173 38.662 119.631C38.2211 119.314 37.7781 119.347 37.2221 119.298Z" fill="#8D9576" fill-opacity="0.1"/>
<path d="M46.5427 119.367C46.1794 119.782 46.1628 119.958 46.0008 120.477C45.7373 120.36 45.4703 120.25 45.2017 120.145C44.8199 120.472 44.9663 120.267 44.8389 120.834L45.0296 121.021L45.9536 120.93C46.0988 121.487 46.3309 122.006 46.5795 122.522C46.5585 123.096 46.2912 123.783 46.4952 124.227C46.653 123.993 46.8072 123.089 46.8804 122.754C47.4435 122.736 47.1965 123.325 47.862 123.514C47.3464 122.654 47.1668 122.782 46.7937 122.203C46.7836 121.444 47.159 120.496 47.9803 120.382C47.606 120.031 46.9856 119.661 46.5427 119.367Z" fill="#8D9576" fill-opacity="0.1"/>
</svg>
