<svg width="228" height="258" viewBox="0 0 228 258" fill="none" xmlns="http://www.w3.org/2000/svg">
<path d="M148.468 127.302C150.845 129.443 153.342 131.446 155.947 133.302C157.407 134.296 158.723 135.181 160.244 136.094C162.382 137.343 164.253 138.345 166.459 139.47C168.102 140.213 169.559 140.896 171.274 141.476C176.614 143.526 182.639 145.081 188.344 145.61C190.684 145.826 193.648 145.762 195.56 145.969C197.037 145.965 201.841 145.756 203.308 145.488C206.825 144.935 209.59 144.435 213.05 143.517C219.088 141.646 223.698 139.823 229.174 136.444C236.878 131.32 243.434 125.259 246.764 116.356C247.643 113.728 248.233 111.588 248.406 108.797C249.259 99.3852 244.797 90.3749 234.395 90.1433C232.842 89.856 229.011 90.1261 227.387 90.3087C222.388 90.8392 214.411 93.0554 209.718 94.8549C199.972 98.1865 189.288 103.677 180.165 108.368C177.076 110.039 174.013 111.753 170.971 113.507C168.338 114.954 165.743 116.471 163.19 118.056C160.661 119.545 158.154 121.072 155.672 122.637C153.253 124.164 150.851 125.719 148.468 127.302Z" fill="#8D9576" fill-opacity="0.1"/>
<path d="M148.469 127.302C150.846 129.442 153.343 131.445 155.948 133.302C157.408 134.296 158.724 135.18 160.245 136.094C162.383 137.342 164.254 138.344 166.46 139.469C168.103 140.213 169.56 140.896 171.275 141.476C176.615 143.525 182.64 145.08 188.345 145.609C190.685 145.825 193.649 145.761 195.561 145.969C195.055 144.343 197.061 139.686 197.877 138.209C199.018 136.132 200.168 134.45 202.138 133.08L204.289 133.241C205.336 129.474 206.384 126.251 208.018 122.671L208.061 122.481C207.479 121.132 206.626 120.021 205.902 118.749C205.104 117.345 205.095 117.339 205.474 115.879C204.838 115.378 191.68 119.593 190.101 120.034C179.888 122.886 179.706 116.468 180.166 108.367C177.077 110.039 174.014 111.752 170.972 113.506C168.338 114.954 165.744 116.471 163.191 118.056C160.662 119.544 158.155 121.071 155.673 122.636C153.253 124.164 150.852 125.719 148.469 127.302Z" fill="#8D9576" fill-opacity="0.1"/>
<path d="M148.47 127.302C150.847 129.443 153.344 131.446 155.949 133.302C157.409 134.296 158.725 135.181 160.246 136.094C162.384 137.343 164.255 138.345 166.461 139.47C168.104 140.213 169.561 140.896 171.276 141.476C176.616 143.526 182.641 145.081 188.346 145.61C187.828 142.269 184.787 140.924 182.753 138.504C179.994 135.226 178.686 132.806 174.457 131.269C173.503 131.825 172.628 132.434 171.716 133.051C170.649 125.64 169.185 125.197 163.41 129.362C163.643 127.955 163.751 127.004 163.853 125.58C165.379 125.462 166.326 125.277 167.776 124.874C170.416 121.41 170.68 117.662 170.973 113.507C168.34 114.954 165.745 116.471 163.192 118.056C160.663 119.545 158.156 121.072 155.674 122.637C153.254 124.164 150.853 125.719 148.47 127.302Z" fill="#8D9576" fill-opacity="0.1"/>
<path d="M163.19 118.057C160.661 119.546 158.155 121.072 155.672 122.637C158.837 124.982 159.87 125.607 163.861 125.549C163.953 122.926 163.792 120.628 163.19 118.057Z" fill="#8D9576" fill-opacity="0.1"/>
<path d="M166.46 139.469C168.102 140.213 169.559 140.896 171.274 141.476C171.473 137.958 171.885 137.096 171.654 133.125C168.927 135.388 168.08 136.365 166.46 139.469Z" fill="#8D9576" fill-opacity="0.1"/>
<path d="M155.948 133.302C157.407 134.296 158.724 135.181 160.245 136.094C162.189 133.553 162.587 132.479 163.401 129.365C160.901 131.203 158.597 131.782 155.948 133.302Z" fill="#8D9576" fill-opacity="0.1"/>
<path d="M191.664 136.847C191.657 137.201 191.637 137.959 191.736 138.266C192.469 140.567 196.744 139.87 197.517 138.047C196.252 136.834 195.299 135.495 193.886 134.502C192.742 135.37 192.437 135.626 191.664 136.847Z" fill="#8D9576" fill-opacity="0.1"/>
<path d="M194.017 130.784C194.09 131.639 194.081 132.441 194.863 133.011C196.054 133.876 199.056 133.169 199.75 131.956L199.598 131.454C198.513 130.474 197.434 128.52 195.913 128.556C194.85 129.007 194.533 129.756 194.017 130.784Z" fill="#8D9576" fill-opacity="0.1"/>
<path d="M180.165 108.368C179.705 116.47 179.888 122.887 190.101 120.035C191.679 119.594 204.837 115.38 205.474 115.88C205.095 117.34 205.103 117.347 205.902 118.75C206.625 120.022 207.479 121.134 208.06 122.482C211.489 115.154 215.135 108.949 222.161 104.503C221.527 103.125 221.122 102.361 220.339 101.062C212.911 103.419 207.654 105.856 209.719 94.8556C199.972 98.1872 189.288 103.678 180.165 108.368Z" fill="#8D9576" fill-opacity="0.1"/>
<path d="M202.137 133.081C200.167 134.451 199.017 136.132 197.875 138.21C197.06 139.686 195.053 144.344 195.56 145.969C197.037 145.966 201.84 145.756 203.308 145.488C206.825 144.935 209.59 144.436 213.05 143.517C219.087 141.647 223.698 139.824 229.174 136.444C227.696 135.11 225.886 130.972 225.074 129.017C224.928 128.665 225.715 126.506 225.477 125.438C225.244 124.388 223.172 124.599 222.587 123.961C221.666 122.958 218.637 117.239 218.639 116.24C219.85 114.16 223.675 115.426 224.381 114.868C223.65 113.951 223.484 113.667 223.116 112.556C219.301 114.035 216.895 114.53 212.958 115.116C215.332 115.628 218.009 116.313 219.083 118.785C220.437 121.857 218.354 126.115 215.263 127.277C211.132 128.83 209.279 125.898 208.017 122.672C206.383 126.252 205.335 129.475 204.288 133.242L202.137 133.081Z" fill="#8D9576" fill-opacity="0.1"/>
<path d="M204.323 133.23C203.522 135.879 202.214 142.207 202.646 145.003C202.695 145.329 202.899 145.304 203.309 145.488C206.826 144.935 209.591 144.435 213.051 143.517C212.878 139.819 212.057 140.05 211.287 137.016C211.383 136.042 212.355 135.808 212.552 135.207C212.917 134.09 213.267 132.057 212.124 131.353C209.839 131.407 208.778 134.335 206.467 133.755L204.323 133.23Z" fill="#8D9576" fill-opacity="0.1"/>
<path d="M214.303 130.572C214.567 131.927 215.704 133.502 216.236 134.817C217.97 139.094 221.006 141.04 224.448 136.872C228.429 128.889 216.597 128.086 214.303 130.572Z" fill="#8D9576" fill-opacity="0.1"/>
<path d="M234.396 90.1432C232.843 89.8559 229.012 90.126 227.388 90.3086C227.91 91.4254 228.199 92.9873 228.598 94.2387C230.513 91.8864 231.147 90.4018 234.396 90.1432Z" fill="#8D9576" fill-opacity="0.1"/>
<path d="M218.725 4.41507C218.929 7.63459 219.264 10.8448 219.728 14.0372C220.004 15.6247 220.282 17.4928 220.658 19.0366C221.262 21.4431 221.839 23.4383 222.591 25.8044C223.177 27.3951 223.787 28.9774 224.417 30.5513C227.198 36.6418 229.34 40.4538 233.457 45.7711C234.963 47.6144 236.398 49.3053 238.07 51.0098C239.904 52.8399 241.511 54.2774 243.469 55.9813C255.329 65.2428 270.131 71.7161 285.479 69.8621C288.835 69.4804 292.115 68.5923 295.205 67.2279C297.573 66.08 299.745 64.8918 301.741 63.1469L302.764 62.2349C308.824 56.0934 311.681 49.8927 306.761 42.0313C302.615 35.2088 291.745 29.2045 284.62 25.6419C274.093 20.762 265.552 17.6152 254.541 13.9781C251.156 12.9919 247.757 11.932 244.382 10.9052C241.523 10.1749 238.53 9.28141 235.678 8.47887C233.412 8.06186 229.613 6.97668 227.256 6.38903C224.42 5.70042 221.577 5.04228 218.725 4.41507Z" fill="#8D9576" fill-opacity="0.1"/>
<path d="M218.725 4.41507C218.929 7.63459 219.264 10.8448 219.728 14.0372C220.004 15.6247 220.282 17.4928 220.658 19.0366C221.262 21.4431 221.839 23.4383 222.591 25.8044C223.177 27.3951 223.787 28.9774 224.417 30.5513C227.198 36.6418 229.34 40.4538 233.457 45.7711C234.963 47.6144 236.398 49.3053 238.07 51.0098C239.904 52.8399 241.511 54.2774 243.469 55.9813C246.679 51.4477 257.212 46.8463 262.592 44.705C262.721 44.6534 262.957 44.6725 263.11 44.6791C263.527 44.292 263.402 44.4562 263.636 43.9398L263.754 43.7983C264.496 42.0615 264.707 40.2482 265.341 38.5316C265.509 38.0722 266.249 38.0894 266.695 37.3253C265.53 35.1992 251.286 29.3813 249.05 26.0101C245.751 21.0386 250.51 17.0217 254.541 13.9781C251.156 12.9919 247.757 11.932 244.382 10.9052C241.523 10.1749 238.53 9.28141 235.678 8.47887C233.412 8.06186 229.613 6.97668 227.256 6.38903C224.42 5.70042 221.577 5.04228 218.725 4.41507Z" fill="#8D9576" fill-opacity="0.1"/>
<path d="M218.725 4.41507C218.929 7.63459 219.264 10.8448 219.728 14.0372C220.004 15.6247 220.282 17.4928 220.658 19.0366C221.262 21.4431 221.839 23.4383 222.591 25.8044C223.177 27.3951 223.787 28.9774 224.417 30.5513C227.198 36.6418 229.34 40.4538 233.457 45.7711C235.34 43.4051 234.437 39.8439 234.644 36.9723C234.933 32.9401 236.012 29.5224 233.925 25.8027C232.884 25.5511 231.842 25.2713 230.785 25.1193C235.481 19.144 234.687 17.8364 227.702 16.563C228.727 15.8121 229.77 15.0875 230.701 14.2253C231.91 15.2319 232.66 15.7793 234.016 16.6121C238.638 15.657 240.824 14.0052 244.382 10.9052C241.523 10.1749 238.53 9.28141 235.678 8.47887C233.412 8.06186 229.613 6.97668 227.256 6.38903C224.42 5.70042 221.577 5.04228 218.725 4.41507Z" fill="#8D9576" fill-opacity="0.1"/>
<path d="M227.257 6.38819C227.345 9.47672 228.046 11.7057 230.389 13.9241C230.498 14.0275 230.609 14.1292 230.722 14.2295C232.842 12.4335 234.113 10.7894 235.679 8.47803C233.413 8.06102 229.615 6.97584 227.257 6.38819Z" fill="#8D9576" fill-opacity="0.1"/>
<path d="M222.592 25.8054C223.178 27.3961 223.788 28.9784 224.418 30.5523C224.701 30.3033 225.708 29.6561 226.133 29.3373C228.04 27.9078 229.286 26.7927 230.856 25.0297C227.439 24.8273 225.87 24.8658 222.592 25.8054Z" fill="#8D9576" fill-opacity="0.1"/>
<path d="M219.728 14.0381C220.004 15.6256 220.283 17.4937 220.659 19.0375C221.017 18.8741 220.888 18.8968 221.267 18.8593C223.773 18.6105 225.469 17.8592 227.603 16.6098C224.629 15.9093 222.565 14.7886 219.728 14.0381Z" fill="#8D9576" fill-opacity="0.1"/>
<path d="M136.127 173.078C137.424 174.932 139.112 176.738 140.625 178.438C141.525 179.33 142.43 180.252 143.371 181.096C144.664 182.169 145.991 183.3 147.319 184.319C148.376 185.072 149.399 185.829 150.516 186.49C154.227 188.775 158.209 190.587 162.369 191.886C163.963 192.29 165.626 192.738 167.227 193.082C169.037 193.361 170.732 193.625 172.558 193.802C186.524 194.05 200.183 191.293 208.436 178.809C209.408 177.058 210.016 175.742 210.6 173.796L210.938 172.42C211.929 166.086 210.902 161.757 204.746 158.835C203.625 158.45 202.891 158.262 201.745 157.991C200.65 157.758 199.336 157.617 198.212 157.467C192.59 157.422 190.207 157.5 184.631 158.298C176.363 159.679 169.496 161.542 161.56 163.887L154.213 166.292L147.937 168.529C146.433 168.936 143.586 170.112 142.031 170.699L136.127 173.078Z" fill="#8D9576" fill-opacity="0.1"/>
<path d="M136.127 173.078C137.423 174.932 139.111 176.738 140.624 178.438C141.525 179.33 142.429 180.252 143.371 181.096C144.664 182.169 145.99 183.3 147.319 184.319C148.375 185.072 149.399 185.829 150.516 186.49C154.227 188.775 158.209 190.587 162.369 191.886C163.962 192.29 165.626 192.738 167.227 193.082C169.036 193.36 170.732 193.625 172.558 193.802C172.682 191.96 174.422 186.497 175.504 185.182C176.894 182.398 177.961 180.626 179.706 177.966C179.191 175.714 178.302 175.426 178.582 172.844C176.723 172.11 166.7 174.339 163.899 173.58C159.103 172.282 160.613 167.597 161.56 163.887L154.212 166.292L147.937 168.529C146.433 168.936 143.586 170.112 142.031 170.699L136.127 173.078Z" fill="#8D9576" fill-opacity="0.1"/>
<path d="M136.126 173.076C137.422 174.93 139.11 176.735 140.623 178.436C141.524 179.328 142.428 180.25 143.369 181.094C144.663 182.167 145.989 183.298 147.318 184.317C148.374 185.07 149.398 185.826 150.515 186.488C154.225 188.773 158.207 190.585 162.368 191.884C162.015 189.191 160.426 187.9 159.11 185.6C157.522 182.827 157.008 181.237 154.184 179.576L152.041 180.464C152.295 175.137 151.502 174.434 146.633 176.606L147.439 174.018C148.554 174.171 149.219 174.141 150.327 174.115C152.805 171.782 153.346 169.423 154.211 166.29L147.936 168.527C146.432 168.933 143.584 170.11 142.03 170.697L136.126 173.076Z" fill="#8D9576" fill-opacity="0.1"/>
<path d="M147.938 168.527C146.434 168.934 143.587 170.11 142.032 170.697C143.56 172.738 144.827 173.606 147.45 174.014C147.825 171.86 147.987 170.722 147.938 168.527Z" fill="#8D9576" fill-opacity="0.1"/>
<path d="M147.32 184.319C148.376 185.072 149.4 185.828 150.517 186.489C151.261 184.186 151.639 182.896 152.028 180.506C149.812 181.616 148.887 182.461 147.32 184.319Z" fill="#8D9576" fill-opacity="0.1"/>
<path d="M140.624 178.437C141.525 179.329 142.429 180.251 143.371 181.096C145.214 179.385 145.463 178.976 146.556 176.698C144.305 177.642 142.762 177.692 140.624 178.437Z" fill="#8D9576" fill-opacity="0.1"/>
<path d="M167.228 193.08C169.038 193.358 170.733 193.623 172.559 193.799C172.683 191.958 174.424 186.495 175.505 185.179C172.89 184.278 171.654 186.162 169.99 187.934C168.705 189.849 167.976 190.87 167.228 193.08Z" fill="#8D9576" fill-opacity="0.1"/>
<path d="M166.074 185.737C165.789 186.519 165.702 186.615 165.813 187.408C166.823 188.845 168.517 188.416 169.988 187.933C169.439 186.995 168.739 185.495 167.889 184.975C166.918 184.883 166.79 185.105 166.074 185.737Z" fill="#8D9576" fill-opacity="0.1"/>
<path d="M168.423 181.762C168.37 182.374 168.393 182.554 168.436 183.155C169.155 184.471 171.893 184.652 172.427 183.346C171.685 182.246 171.37 180.943 170.024 180.66C169.217 180.89 169.054 181.154 168.423 181.762Z" fill="#8D9576" fill-opacity="0.1"/>
<path d="M161.56 163.885C160.613 167.596 159.103 172.281 163.899 173.578C166.701 174.338 176.723 172.108 178.583 172.842C178.302 175.425 179.192 175.713 179.706 177.964C181.809 173.779 187.855 168.711 192.329 166.863L191.523 164.262C185.264 164.972 182.245 166.147 184.631 158.297C176.363 159.678 169.496 161.54 161.56 163.885Z" fill="#8D9576" fill-opacity="0.1"/>
<path d="M198.28 164.623C198.082 165.972 197.899 167.39 197.657 168.727L199.782 169.769C205.202 166.979 206.936 169.469 210.938 172.417C211.929 166.083 210.902 161.754 204.746 158.832C204.115 162.59 201.775 163.864 198.28 164.623Z" fill="#8D9576" fill-opacity="0.1"/>
<path d="M206.288 175.117C207.166 176.411 207.699 177.418 208.436 178.807C209.408 177.056 210.016 175.74 210.6 173.794C209.141 174.412 207.829 174.787 206.288 175.117Z" fill="#8D9576" fill-opacity="0.1"/>
<path d="M198.211 157.466C198.245 158.448 198.258 159.48 198.345 160.455C199.563 159.496 200.447 158.828 201.745 157.99C200.649 157.757 199.336 157.616 198.211 157.466Z" fill="#8D9576" fill-opacity="0.1"/>
<path d="M44.8111 202.985C44.9425 203.292 44.908 203.268 45.108 203.527C47.2724 206.335 70.9781 214.642 75.7901 216.202C81.3592 218.014 86.9829 219.656 92.653 221.122C99.3813 222.807 106.193 224.139 113.061 225.109C159.01 231.417 191.174 215.92 217.886 178.577C227.108 165.684 234.013 153.573 241.975 139.871C253.253 120.46 265.767 99.0675 283.805 85.2299C301.023 72.0217 322.009 68.2284 343.241 71.1687L343.118 67.219L343.025 64.2664C336.909 63.6785 332.785 63.4104 326.68 63.6352C281.177 64.8029 257.739 103.967 237.583 139.269C222.423 165.826 205.317 195.756 178.093 211.721C141.626 233.038 97.0577 222.402 60.1573 208.038C55.9558 206.401 49.0264 202.719 44.8111 202.985Z" fill="#8D9576" fill-opacity="0.1"/>
<path d="M199.104 213.571C198.817 217.818 198.939 221.183 199.878 225.394C200.396 227.439 200.898 229.023 201.559 231.013C202.156 232.353 202.764 233.778 203.437 235.074C204.059 236.153 204.743 237.417 205.457 238.411C207.886 241.973 209.366 243.637 212.509 246.488L215.025 248.5C216.125 249.287 217.124 250.028 218.303 250.691C219.259 251.216 220.208 251.75 221.18 252.237C223.036 253.186 224.422 253.744 226.342 254.504C226.428 253.529 226.621 251.874 226.615 250.953C226.889 248.909 227 246.196 227.123 244.102C227.195 242.356 227.251 240.612 227.287 238.865C227.449 236.469 227.331 234.804 227.394 232.547C227.803 228.405 226.868 217.186 226.255 213.158C225.801 209.395 224.971 206.298 223.761 202.757C223.377 201.857 222.932 200.942 222.514 200.055C222.09 199.277 221.629 198.669 221.116 197.954C217.471 193.532 213.572 194.18 208.929 196.405L208.074 196.904C206.646 197.876 205.82 198.667 204.584 199.863C201.048 204.039 199.853 208.265 199.104 213.571Z" fill="#8D9576" fill-opacity="0.1"/>
<path d="M203.436 235.074C204.057 236.153 204.741 237.416 205.455 238.41C207.885 241.972 209.364 243.637 212.507 246.487L215.023 248.499C216.124 249.287 217.123 250.028 218.302 250.691C219.257 251.215 220.207 251.749 221.179 252.237C223.034 253.186 224.42 253.744 226.34 254.504C226.426 253.528 226.619 251.873 226.613 250.953C226.887 248.909 226.998 246.195 227.121 244.101C227.193 242.355 227.249 240.611 227.285 238.865C227.447 236.469 227.329 234.803 227.393 232.547C216.382 240.442 219.309 226.342 216.401 221.566C215.165 222.196 213.772 221.886 212.315 221.782L212.149 221.931C211.24 223.077 208.155 226.153 207.877 226.925C209.125 229.884 205.693 233.455 203.436 235.074Z" fill="#8D9576" fill-opacity="0.1"/>
<path d="M205.456 238.41C207.885 241.973 209.365 243.637 212.508 246.487L215.024 248.5C216.124 249.287 217.123 250.028 218.302 250.691C219.258 251.215 220.207 251.749 221.179 252.237C223.035 253.186 224.421 253.744 226.341 254.504C226.427 253.528 226.619 251.873 226.614 250.953C226.888 248.909 226.998 246.195 227.121 244.101C227.193 242.355 227.25 240.612 227.286 238.865C224.811 240.298 223.726 241.143 222.164 243.575C222.357 244.337 222.613 245.155 222.837 245.918L221.165 247.168C221.273 245.832 221.669 244.299 220.556 243.369C219.274 242.934 218.141 243.484 216.826 243.895C217.462 239.793 213.257 240.537 210.309 239.352C209.014 238.832 206.806 238.353 205.456 238.41Z" fill="#8D9576" fill-opacity="0.1"/>
<path d="M222.889 245.966C222.984 246.124 223.079 246.281 223.174 246.441L223.307 246.645C224.066 247.844 224.988 248.262 226.049 249.184C226.687 249.735 226.531 250.033 226.614 250.95C226.888 248.907 226.999 246.193 227.122 244.099C225.289 244.712 224.548 245.007 222.889 245.966Z" fill="#8D9576" fill-opacity="0.1"/>
<path d="M212.508 246.485L215.024 248.498C216.022 246.581 216.273 245.967 216.866 243.912C215.167 244.703 214.008 245.351 212.508 246.485Z" fill="#8D9576" fill-opacity="0.1"/>
<path d="M218.301 250.691C219.257 251.215 220.207 251.749 221.178 252.237C221.101 250.101 220.87 249.31 221.09 247.109C219.799 248.4 219.248 249.17 218.301 250.691Z" fill="#8D9576" fill-opacity="0.1"/>
<path d="M209.385 229.347C209.526 230.541 209.649 231.576 210.966 231.833C211.699 231.635 211.765 231.498 212.28 230.96C212.368 230.41 212.572 229.959 212.199 229.639C211.368 228.925 210.619 228.889 209.637 228.891L209.385 229.347Z" fill="#8D9576" fill-opacity="0.1"/>
<path d="M206.714 231.693C206.744 232.782 206.853 234.086 207.805 234.743C208.674 234.857 208.414 234.815 209.338 234.408C209.678 233.658 209.819 233.372 209.533 232.609C208.893 232.052 207.6 231.888 206.714 231.693Z" fill="#8D9576" fill-opacity="0.1"/>
<path d="M226.254 213.156C220.223 218.83 221.257 211.484 219.72 209.594C219.133 209.301 218.846 209.403 218.193 209.476C217.326 210.152 217.232 213.155 216.504 214.738C215.161 217.657 214.196 219.191 212.316 221.78C213.773 221.885 215.166 222.194 216.401 221.565C219.31 226.34 216.383 240.441 227.393 232.545C227.802 228.403 226.867 217.184 226.254 213.156Z" fill="#8D9576" fill-opacity="0.1"/>
<path d="M199.104 213.567C198.817 217.815 198.939 221.18 199.878 225.391C200.396 227.435 200.898 229.02 201.559 231.01C202.156 232.35 202.764 233.775 203.437 235.071C205.695 233.453 209.126 229.881 207.878 226.922C208.156 226.151 211.242 223.075 212.151 221.928C205.798 222.689 206.813 215.672 211.221 215.083C212.483 214.914 213.603 216.019 214.484 216.86C214.125 215.517 213.572 212.368 213.193 211.35C212.631 211.181 212.513 211.078 211.957 211.241C211.786 212.456 213.251 213.268 212.578 214.511C211.797 214.915 209.463 214.67 208.402 214.766C207.388 214.856 206.714 214.085 206.082 213.382C205.226 213.845 204.786 214.171 204 214.754C202.758 214.805 200.532 215.168 199.414 214.642C199.197 214.54 199.154 213.846 199.104 213.567Z" fill="#8D9576" fill-opacity="0.1"/>
<path d="M199.876 225.39C200.394 227.435 200.897 229.019 201.557 231.009C203.525 230.564 206.149 228.145 207.693 226.803C205.1 224.318 207.482 224.266 206.305 222.014C205.079 221.695 204.098 224.045 203.41 224.248C202.214 224.604 200.91 223.967 199.876 225.39Z" fill="#8D9576" fill-opacity="0.1"/>
<path d="M199.331 218.651C199.932 221.655 205.045 221.645 206.253 220.514C206.419 219.838 206.17 219.384 205.939 218.708C203.531 214.807 201.65 214.555 199.331 218.651Z" fill="#8D9576" fill-opacity="0.1"/>
<path d="M208.929 196.404C216.499 200.076 211.948 202.65 215.06 205.731L218.164 204.268C217.962 201.498 218.22 199.131 221.116 197.953C217.471 193.53 213.572 194.178 208.929 196.404Z" fill="#8D9576" fill-opacity="0.1"/>
<path d="M204.585 199.863C206.089 199.966 206.593 200.093 208.062 200.467C208.025 199.299 207.949 198.059 208.074 196.904C206.646 197.876 205.82 198.667 204.585 199.863Z" fill="#8D9576" fill-opacity="0.1"/>
<path d="M221.293 203.211C222.132 203.035 222.907 202.86 223.76 202.754C223.375 201.853 222.931 200.939 222.513 200.051C222.06 201.102 221.688 202.137 221.293 203.211Z" fill="#8D9576" fill-opacity="0.1"/>
<path d="M109.438 183.875C109.21 185.175 109.233 187.375 109.341 188.706C109.657 192.434 110.073 194.771 111.219 198.367L112.486 201.61C113.092 202.813 113.727 204.151 114.435 205.281C115.521 207.14 116.24 208.259 117.618 209.927C118.966 211.481 120.089 212.641 121.534 214.08L121.954 214.365C123.021 215.253 123.822 215.862 124.958 216.66C129.685 219.624 133.495 221.241 139.181 221.069C140.812 220.889 141.814 220.682 143.398 220.185L144.109 219.849C148.417 217.781 151.064 215.082 149.939 209.946C149.76 209.249 149.409 208.411 149.147 207.726L147.932 205.343C146.19 202.38 143.997 199.964 141.669 197.472C138.815 194.08 131.658 188.297 128.177 185.543C126.523 184.215 125.191 183.201 123.45 181.976L119.459 179.065C118.226 178.141 116.674 177.142 115.383 176.262L111.437 173.687C110.867 175.487 110.506 176.759 110.108 178.6C109.897 179.582 109.721 180.821 109.552 181.829C109.464 182.532 109.458 183.17 109.438 183.875Z" fill="#8D9576" fill-opacity="0.1"/>
<path d="M109.438 183.875C109.21 185.175 109.233 187.375 109.341 188.706C109.657 192.434 110.073 194.771 111.219 198.367L112.486 201.61C114.791 201.006 119.779 200.539 121.019 203.058C121.839 203.279 125.943 202.831 127.243 202.789L127.365 202.763C128.064 201.764 128.75 200.796 129.625 199.936C129.689 199.872 129.581 199.349 129.585 199.357C126.474 193.871 116.775 189.234 128.177 185.543C126.523 184.215 125.191 183.201 123.45 181.976L119.459 179.065C118.226 178.141 116.674 177.142 115.383 176.262L111.437 173.687C110.867 175.487 110.506 176.759 110.108 178.6C109.897 179.582 109.721 180.821 109.552 181.829C109.464 182.532 109.458 183.17 109.438 183.875Z" fill="#8D9576" fill-opacity="0.1"/>
<path d="M109.438 183.875C109.21 185.175 109.233 187.375 109.341 188.706C109.657 192.434 110.073 194.771 111.219 198.367C111.383 197.956 111.626 197.72 111.72 197.512C113.104 194.448 115.085 191.291 115.333 187.92C114.832 187.519 114.346 187.113 113.82 186.746C114.877 185.99 115.955 185.44 116.266 184.182C116.112 182.955 115.412 182.722 114.432 182.135L113.832 181.773L115.639 181.155C116.462 182.332 116.63 182.766 118.156 183.074C119.474 183.343 122.246 182.521 123.45 181.976L119.459 179.065C118.226 178.141 116.674 177.142 115.383 176.262L111.437 173.687C110.867 175.487 110.506 176.759 110.108 178.6C109.897 179.582 109.721 180.821 109.552 181.829C109.464 182.532 109.458 183.17 109.438 183.875Z" fill="#8D9576" fill-opacity="0.1"/>
<path d="M115.384 176.264C114.333 181.026 115.471 181.752 119.46 179.067C118.227 178.143 116.675 177.144 115.384 176.264Z" fill="#8D9576" fill-opacity="0.1"/>
<path d="M109.439 183.874C109.211 185.174 109.234 187.374 109.342 188.704C109.828 188.015 112.232 187.52 113.724 186.689L113.453 186.569C111.289 185.616 109.47 186.322 109.439 183.874Z" fill="#8D9576" fill-opacity="0.1"/>
<path d="M110.109 178.603C109.898 179.584 109.722 180.823 109.553 181.832C111.231 181.916 112.041 181.964 113.688 181.769C112.868 181.151 110.521 179.459 110.109 178.603Z" fill="#8D9576" fill-opacity="0.1"/>
<path d="M115.056 198.474C115.196 199.318 115.771 200.585 116.639 200.872C117.235 200.636 117.05 200.692 117.42 199.907C117.829 198.992 117.873 199.116 117.697 198.297C116.739 197.387 115.977 197.791 115.056 198.474Z" fill="#8D9576" fill-opacity="0.1"/>
<path d="M118.851 198.203C118.953 199.094 119.51 200.358 120.408 200.683C121.005 200.471 120.726 200.64 121.119 199.878C121.428 199.209 121.593 199.006 121.512 198.271C120.725 197.053 119.855 197.55 118.851 198.203Z" fill="#8D9576" fill-opacity="0.1"/>
<path d="M128.177 185.544C116.775 189.235 126.474 193.872 129.585 199.358C129.581 199.35 129.689 199.873 129.625 199.937C128.75 200.798 128.064 201.765 127.365 202.764C131.796 202.942 135.84 203.31 139.569 205.967C140.005 205.412 140.528 204.781 140.923 204.206C138.135 201.16 135.691 198.815 141.669 197.473C138.815 194.081 131.658 188.298 128.177 185.544Z" fill="#8D9576" fill-opacity="0.1"/>
<path d="M112.487 201.612C113.093 202.814 113.728 204.153 114.436 205.283C115.522 207.142 116.241 208.261 117.619 209.929C118.967 211.483 120.09 212.643 121.535 214.082L121.955 214.367C123.022 215.254 123.823 215.864 124.959 216.661C125.413 215.309 126.695 214.354 127.581 212.994C128.383 212.784 128.821 212.758 129.412 212.222C130.674 209.284 130.101 209.521 132.492 207.293C130.87 208.201 129.655 208.849 127.751 208.228C124.355 207.121 125.192 204.679 127.244 202.791C125.944 202.832 121.84 203.281 121.02 203.06C119.78 200.541 114.792 201.007 112.487 201.612Z" fill="#8D9576" fill-opacity="0.1"/>
<path d="M114.436 205.282C115.522 207.142 116.241 208.261 117.619 209.929C119.203 209.543 119.506 208.697 120.575 207.804C120.835 207.587 122.806 208.196 123.757 207.217C123.551 206.272 122.075 205.503 121.217 204.933C121.188 204.276 121.263 204.109 120.986 203.556C119.719 203.232 115.399 204.41 114.436 205.282Z" fill="#8D9576" fill-opacity="0.1"/>
<path d="M121.954 214.364C122.901 214.421 124.109 214.475 125.03 214.209C127.769 213.414 126.537 208.475 124.57 207.88C124.407 207.983 124.108 208.167 123.995 208.318C121.775 211.267 121.319 210.733 121.534 214.079L121.954 214.364Z" fill="#8D9576" fill-opacity="0.1"/>
<path d="M143.568 208.53C142.582 209.017 141.57 209.368 141.019 210.302C140.956 212.931 145.222 212.442 144.109 219.85C148.417 217.782 151.064 215.084 149.939 209.947C147.91 211.751 145.166 210.061 143.568 208.53Z" fill="#8D9576" fill-opacity="0.1"/>
<path d="M140.52 218.234L139.182 221.071C140.813 220.891 141.815 220.684 143.398 220.187C142.268 219.693 141.5 218.991 140.52 218.234Z" fill="#8D9576" fill-opacity="0.1"/>
<path d="M147.932 205.343L146.193 206.859L149.147 207.726L147.932 205.343Z" fill="#8D9576" fill-opacity="0.1"/>
<path d="M132.286 206.736L132.174 206.888L132.208 207.111C132.691 206.851 132.669 206.818 133.207 206.804C134.099 207.418 133.881 208.225 134.693 209.105C135.258 208.919 135.183 208.761 135.59 208.094C134.129 206.642 133.415 205.632 132.266 203.93L132.286 206.736Z" fill="#8D9576" fill-opacity="0.1"/>
<path d="M132.716 261.227C132.546 262.784 132.589 264.355 132.841 265.9C133.037 267.802 133.28 269.292 133.614 271.163L137.655 269.02L141.943 266.676C143.261 265.907 144.891 265.015 146.152 264.2C147.751 263.237 149.359 262.292 150.9 261.239C155.478 258.457 161.072 254.534 165.119 251.006C167.421 248.98 170.173 246.414 171.948 243.926C172.372 243.294 172.905 242.553 173.273 241.904C176.757 235.833 174.275 232.112 168.752 229.081C167.396 228.484 166.606 228.258 165.179 227.956C160.064 227 155.231 228.594 150.723 230.847C147.881 232.441 145.495 234.291 143.148 236.531C141.74 238.043 140.78 239.205 139.515 240.809C138.657 241.978 138.106 242.89 137.363 244.14C136.83 245 136.176 246.499 135.727 247.456C134.265 250.632 133.638 253.301 133.008 256.699L132.691 259.588L132.716 261.227Z" fill="#8D9576" fill-opacity="0.1"/>
<path d="M132.718 261.226C132.548 262.783 132.591 264.354 132.843 265.899C133.038 267.801 133.282 269.291 133.616 271.162L137.657 269.019L141.945 266.675C143.263 265.906 144.893 265.014 146.154 264.199C147.752 263.236 149.361 262.291 150.902 261.237C143.459 257.624 145.678 255.746 150.705 251.067C151.719 250.124 153.351 248.912 153.74 247.578C153.628 247.274 152.269 245.369 151.824 244.48L151.579 244.423C150.21 244.286 146.511 243.424 145.698 243.583C145.528 243.845 145.145 244.465 144.88 244.566C142.622 245.429 139.469 245.122 137.365 244.139C136.832 244.999 136.178 246.498 135.729 247.454C134.267 250.631 133.64 253.299 133.01 256.698L132.693 259.586L132.718 261.226Z" fill="#8D9576" fill-opacity="0.1"/>
<path d="M132.716 261.223C132.547 262.78 132.589 264.351 132.842 265.897C133.037 267.798 133.281 269.289 133.615 271.159L137.656 269.017L141.943 266.673C143.261 265.903 144.892 265.011 146.153 264.196C144.661 263.556 142.545 262.494 140.945 262.621C139.573 262.733 139.288 263.325 138.449 264.334L136.807 263.556C137.907 262.994 139.006 262.67 139.331 261.403C139.157 260.137 138.147 259.558 137.152 258.751C137.344 258.642 138.354 258.075 138.479 257.931C139.337 256.844 138.22 253.905 137.794 252.751C137.185 251.105 136.925 248.633 135.728 247.452C134.266 250.628 133.638 253.297 133.008 256.696L132.691 259.584L132.716 261.223Z" fill="#8D9576" fill-opacity="0.1"/>
<path d="M133.009 256.698L132.692 259.586L133.018 259.525C134.898 259.179 135.023 259.496 137.129 258.716C135.491 257.698 134.792 257.429 133.009 256.698Z" fill="#8D9576" fill-opacity="0.1"/>
<path d="M139.525 247.218C140.17 248.19 141.104 248.596 142.146 247.926C142.386 247.313 142.363 247.628 142.152 246.95C141.909 246.082 141.933 245.417 140.96 245.432C140.259 245.921 139.987 246.493 139.525 247.218Z" fill="#8D9576" fill-opacity="0.1"/>
<path d="M143.063 247.699C143.624 248.69 144.29 249.098 145.427 248.687C145.913 248.089 145.792 248.427 145.758 247.621L145.048 245.418C144.156 246.297 143.816 246.719 143.063 247.699Z" fill="#8D9576" fill-opacity="0.1"/>
<path d="M151.822 244.48C152.268 245.368 153.627 247.273 153.739 247.577C153.35 248.912 151.717 250.124 150.704 251.067C145.677 255.746 143.458 257.624 150.901 261.237C155.479 258.455 161.073 254.533 165.12 251.004C159.695 248.909 161.791 247.334 165.01 244.36C164.645 243.763 164.27 243.17 163.886 242.586C160.077 244.624 156.098 244.846 151.822 244.48Z" fill="#8D9576" fill-opacity="0.1"/>
<path d="M137.364 244.139C139.468 245.123 142.621 245.43 144.879 244.567C145.143 244.466 145.527 243.846 145.696 243.583C146.51 243.425 150.208 244.287 151.578 244.424C147.987 240.103 153.595 237.242 156.294 240.243C157.107 241.148 156.838 242.524 156.679 243.675C157.143 243.155 160.115 240.147 160.175 239.888L159.662 239.211C159.106 239.364 158.824 240.148 158.178 240.863C156.596 241.308 155.501 238.872 155.245 237.593C155.011 236.425 155.392 235.938 154.225 235.203C152.585 234.169 151.409 232.637 150.724 230.846C147.882 232.44 145.496 234.29 143.149 236.53C141.74 238.042 140.78 239.204 139.515 240.809C138.658 241.977 138.107 242.89 137.364 244.139Z" fill="#8D9576" fill-opacity="0.1"/>
<path d="M143.148 236.53C141.74 238.042 140.78 239.204 139.515 240.808C141.009 241.943 143.869 242.993 145.701 243.334L146.069 241.869C147.001 241.352 148.348 240.757 148.775 239.811C148.158 239.066 146.24 239.298 145.73 238.872C144.715 238.026 144.454 237.224 143.148 236.53Z" fill="#8D9576" fill-opacity="0.1"/>
<path d="M147.086 234.09C146.957 235.778 148.171 238.975 150.12 239.042C150.758 238.684 150.964 238.186 151.353 237.552C153.185 232.984 149.419 231.5 147.086 234.09Z" fill="#8D9576" fill-opacity="0.1"/>
<path d="M165.179 227.954C165.444 229.026 165.667 229.789 166.006 230.832C167.01 230.132 167.675 229.672 168.752 229.079C167.396 228.482 166.607 228.256 165.179 227.954Z" fill="#8D9576" fill-opacity="0.1"/>
<path d="M170.466 242.281C170.991 242.811 171.459 243.362 171.949 243.925C172.373 243.293 172.906 242.552 173.274 241.903C172.381 241.983 171.364 242.153 170.466 242.281Z" fill="#8D9576" fill-opacity="0.1"/>
<path d="M72.7724 187.297C72.7614 188.115 72.6911 189.676 72.8278 190.421L73.1121 193.166C74.741 201.308 78.5485 208.232 86.611 211.298C87.572 211.472 88.5161 211.652 89.4855 211.772L90.6248 211.733C94.3768 211.2 96.3983 210.339 97.2511 206.386C97.4276 201.93 96.2937 199.082 94.7607 194.955C92.9222 190.745 90.7052 186.734 88.356 182.795C87.6589 181.544 86.8502 180.311 86.0811 179.1C85.5233 178.134 84.5942 176.832 83.9521 175.873C83.3513 174.894 82.3957 173.585 81.728 172.605C81.095 171.628 80.3903 170.723 79.6884 169.796C78.7469 170.958 78.1028 171.866 77.2616 173.107L76.1523 175.032C75.6913 175.877 75.2923 176.838 74.8979 177.723L74.159 179.72C73.292 182.493 72.9797 184.433 72.7724 187.297Z" fill="#8D9576" fill-opacity="0.1"/>
<path d="M72.7724 187.297C72.7614 188.115 72.6911 189.676 72.8278 190.421L73.1121 193.166C74.4533 192.877 77.1274 193.231 78.4518 193.597L78.5715 193.69C80.0272 193.86 81.6429 194.426 83.0067 194.969C83.8289 194.454 84.8635 193.762 85.6979 193.311C84.2777 188.306 80.021 182.566 88.356 182.795C87.6589 181.544 86.8502 180.311 86.0811 179.1C85.5233 178.134 84.5942 176.832 83.9521 175.873C83.3513 174.894 82.3957 173.585 81.728 172.605C81.095 171.628 80.3903 170.723 79.6884 169.796C78.7469 170.958 78.1028 171.866 77.2616 173.107L76.1523 175.032C75.6913 175.877 75.2923 176.838 74.8979 177.723L74.159 179.72C73.292 182.493 72.9797 184.433 72.7724 187.297Z" fill="#8D9576" fill-opacity="0.1"/>
<path d="M74.1584 179.721C73.2914 182.494 72.9791 184.434 72.7718 187.299C74.034 186.593 78.0242 182.623 78.461 181.17C78.3842 180.606 78.2763 180.523 77.9765 180.039L78.0214 179.784C78.79 179.444 79.7381 179.317 80.2802 178.76C80.5509 177.78 80.0853 177.374 79.5377 176.539L79.6542 176.314C80.6163 176.291 80.716 176.235 80.9909 177.259C81.4514 178.974 84.4421 178.958 86.0805 179.101C85.5227 178.135 84.5936 176.833 83.9515 175.874C83.3507 174.896 82.3951 173.586 81.7274 172.606C81.0944 171.629 80.3897 170.724 79.6878 169.797C78.7463 170.959 78.1022 171.867 77.261 173.108L76.1517 175.033C75.6907 175.879 75.2917 176.839 74.8973 177.724L74.1584 179.721Z" fill="#8D9576" fill-opacity="0.1"/>
<path d="M81.726 172.606C81.2738 173.571 80.5591 174.718 80.8775 175.72C81.833 176.529 82.7729 176.097 83.9501 175.874C83.3493 174.895 82.3937 173.586 81.726 172.606Z" fill="#8D9576" fill-opacity="0.1"/>
<path d="M74.8987 177.726L74.1598 179.723C75.5634 179.803 76.4247 179.81 77.828 179.743C76.7349 178.751 76.2979 178.274 74.8987 177.726Z" fill="#8D9576" fill-opacity="0.1"/>
<path d="M77.2611 173.11L76.1519 175.035C77.4369 175.724 77.7728 175.815 79.1539 176.204C78.3426 175.047 77.917 174.092 77.2611 173.11Z" fill="#8D9576" fill-opacity="0.1"/>
<path d="M72.8261 190.422L73.1104 193.168C74.4517 192.879 77.1258 193.233 78.4502 193.599C78.2015 191.83 77.5286 191.729 76.1019 190.867C76.7621 190.206 77.7243 189.577 77.196 188.664C76.5183 188.299 76.1978 188.044 75.5502 188.558C75.3597 189.249 75.4804 189.569 75.6079 190.274L75.6587 190.545L75.387 190.68C74.4487 190.332 73.7107 189.879 72.8261 190.422Z" fill="#8D9576" fill-opacity="0.1"/>
<path d="M78.1559 189.273C78.1635 190.006 78.1412 190.912 78.6477 191.44C79.3227 191.421 79.1472 191.376 79.8029 190.752C80.2477 190.255 80.1363 190.533 80.196 189.907L79.8925 189.548C79.0997 189.181 79.0538 189.203 78.1559 189.273Z" fill="#8D9576" fill-opacity="0.1"/>
<path d="M78.5715 193.691C79.6262 194.484 85.0284 195.479 86.755 196.631C88.4488 197.761 89.6974 199.06 91.1451 200.425C91.937 199.989 91.6684 200.289 92.0733 199.588C92.1022 197.641 90.7873 197.291 91.6765 195.565C92.6485 194.806 93.5101 194.963 94.7607 194.956C92.9222 190.746 90.7052 186.735 88.356 182.796C80.0209 182.567 84.2777 188.307 85.6978 193.312C84.8635 193.763 83.8289 194.455 83.0067 194.97C81.6429 194.427 80.0271 193.861 78.5715 193.691Z" fill="#8D9576" fill-opacity="0.1"/>
<path d="M90.6235 211.736C94.3755 211.203 96.397 210.342 97.2498 206.389C94.8838 206.484 93.9579 205.512 93.062 203.415C89.1306 203.997 90.7302 204.374 91.5437 207.09C91.9577 208.473 91.0604 210.343 90.6235 211.736Z" fill="#8D9576" fill-opacity="0.1"/>
<path d="M88.2672 209.534L86.6102 211.299C87.5712 211.473 88.5154 211.654 89.4847 211.774C89.0702 211.031 88.6644 210.285 88.2672 209.534Z" fill="#8D9576" fill-opacity="0.1"/>
<path d="M85.4461 199.157C86.3665 199.543 86.441 200.316 86.7916 201.22L87.0677 201.323L87.3757 201.049L87.2733 200.632C86.8606 199.583 86.5753 198.434 86.2711 197.342L85.4461 199.157Z" fill="#8D9576" fill-opacity="0.1"/>
<path d="M88.7331 254.527C88.481 255.697 88.6333 258.445 88.8363 259.658C89.0044 260.678 89.1684 261.851 89.3884 262.849L92.364 261.262C93.422 260.677 94.636 260.047 95.6635 259.439C96.7207 258.816 97.8512 258.177 98.884 257.527L102.525 255.338C106.488 252.771 109.561 250.59 113.233 247.59C118.442 242.96 125.331 235.794 115.951 230.915C115.12 230.541 114.288 230.339 113.412 230.088C105.291 229.038 98.5317 233.645 93.7908 239.882C93.2763 240.587 92.6487 241.631 92.1625 242.386C91.7642 243.049 91.2812 244.09 90.9209 244.807C89.9172 247.201 89.3798 249.33 88.8993 251.865C88.842 252.539 88.6949 253.435 88.6036 254.126L88.7331 254.527Z" fill="#8D9576" fill-opacity="0.1"/>
<path d="M88.7337 254.527C88.4817 255.697 88.634 258.445 88.837 259.658C89.0051 260.678 89.169 261.851 89.3891 262.849L92.3647 261.262C93.4227 260.677 94.6366 260.047 95.6642 259.439C96.7214 258.816 97.8519 258.177 98.8847 257.527L102.526 255.338C95.0332 251.943 101.411 248.881 104.813 245.03C103.99 244.235 103.69 243.751 103.261 242.667L102.9 242.539L102.441 241.931C101.117 241.633 101.121 242.376 98.988 241.499L98.8951 240.672C98.7265 240.974 98.6055 241.284 98.4881 241.611C97.544 241.925 94.6021 240.461 93.7914 239.882C93.277 240.587 92.6494 241.631 92.1632 242.386C91.7649 243.049 91.2819 244.09 90.9215 244.807C89.9179 247.201 89.3805 249.33 88.9 251.865C88.8427 252.539 88.6956 253.435 88.6043 254.126L88.7337 254.527Z" fill="#8D9576" fill-opacity="0.1"/>
<path d="M88.7333 254.524C88.4812 255.694 88.6336 258.442 88.8365 259.655C89.0047 260.675 89.1686 261.848 89.3886 262.846L92.3642 261.259C93.4222 260.674 94.6362 260.044 95.6637 259.436C96.7209 258.813 97.8515 258.174 98.8842 257.524C97.0179 256.741 96.3258 256.537 94.3636 256.181C93.66 256.968 93.2018 257.754 92.0387 257.335L91.9943 256.977C92.8005 256.528 93.0495 256.429 93.7001 255.805C93.924 254.38 92.9216 254.698 92.2299 253.461C92.5006 253.163 92.5973 253.078 92.91 252.84L93.1978 252.625C93.5058 251.246 91.8144 245.834 90.9211 244.804C89.9175 247.199 89.38 249.327 88.8996 251.862C88.8422 252.536 88.6952 253.432 88.6039 254.123L88.7333 254.524Z" fill="#8D9576" fill-opacity="0.1"/>
<path d="M95.6621 259.437C94.767 258.694 94.0742 257.846 92.9078 258.218C92.2025 259.079 92.3523 260.153 92.3626 261.26C93.4205 260.675 94.6345 260.045 95.6621 259.437Z" fill="#8D9576" fill-opacity="0.1"/>
<path d="M88.8993 251.863C88.8419 252.537 88.6949 253.433 88.6036 254.125C89.7173 253.943 90.9466 253.773 92.0352 253.513C90.6162 252.523 90.4062 252.548 88.8993 251.863Z" fill="#8D9576" fill-opacity="0.1"/>
<path d="M88.7344 254.526C88.4823 255.696 88.6347 258.444 88.8377 259.658C89.0266 258.265 90.6069 257.594 91.7569 256.87C90.8933 256.838 90.0547 256.981 89.245 256.714C88.7033 256.034 88.8046 255.478 88.7344 254.526Z" fill="#8D9576" fill-opacity="0.1"/>
<path d="M93.7906 239.881C93.2762 240.586 92.6486 241.63 92.1624 242.386C93.164 242.705 93.7562 242.845 94.7896 243.048C94.7292 243.867 93.9552 243.923 93.9544 244.949C94.4476 245.502 94.9028 245.666 95.6374 245.461C96.0812 244.49 95.2103 243.307 95.785 243.064C99.0708 241.676 99.7692 242.289 102.899 242.538L102.441 241.93C101.116 241.632 101.12 242.375 98.9872 241.498L98.8943 240.671C98.7257 240.973 98.6047 241.284 98.4873 241.61C97.5432 241.924 94.6013 240.46 93.7906 239.881Z" fill="#8D9576" fill-opacity="0.1"/>
<path d="M96.6674 244.832L96.7659 245.357C97.2388 245.931 96.9525 245.722 97.6749 245.982C98.4518 245.734 98.1442 245.947 98.6551 245.352C98.3869 244.535 98.4079 244.149 97.8239 243.718C97.2406 243.893 97.0409 244.319 96.6674 244.832Z" fill="#8D9576" fill-opacity="0.1"/>
<path d="M104.811 245.03C101.409 248.881 95.0312 251.943 102.524 255.338C106.486 252.771 109.559 250.59 113.232 247.59C112.241 247.236 111.362 246.962 110.751 246.105C110.406 243.873 113.376 243.346 112.826 241.674C111.698 241.039 110.087 242.316 108.579 242.526C106.615 242.798 105.216 242.777 103.259 242.667C103.688 243.75 103.988 244.235 104.811 245.03Z" fill="#8D9576" fill-opacity="0.1"/>
<path d="M113.411 230.086C113.586 231.05 113.459 231.246 113.992 231.894C114.664 231.882 115.355 231.304 115.95 230.913C115.119 230.54 114.287 230.337 113.411 230.086Z" fill="#8D9576" fill-opacity="0.1"/>
<path d="M107.023 240.117C107.051 240.398 106.971 241.522 106.952 241.869C107.568 241.157 108.307 240.424 108.967 239.74C109.451 239.359 109.283 239.601 109.441 238.96L109.205 238.696L108.771 238.835C108.164 239.773 108.152 239.988 107.023 240.117Z" fill="#8D9576" fill-opacity="0.1"/>
<path d="M57.8231 243.228C57.8391 244.08 57.8317 244.931 57.9343 245.776C58.1037 246.965 58.2672 248.311 58.4977 249.478L61.1591 248.087C62.1085 247.556 63.3243 246.921 64.2308 246.364L66.9818 244.733L70.3302 242.741C74.0317 240.271 76.5126 238.539 79.9392 235.761C82.3791 233.577 84.8949 231.162 86.1661 228.064C87.0738 224.68 85.8342 223.192 83.1088 221.358L82.3616 220.914C81.6782 220.618 80.6232 220.334 79.8848 220.111C76.0785 219.73 73.4254 220.384 70.0776 222.169C69.1981 222.68 68.6991 222.949 67.9082 223.62L67.8211 223.629C66.7494 224.286 65.9128 225.104 64.9803 225.942C64.0748 226.846 63.3953 227.773 62.6151 228.784C62.0773 229.525 61.5489 230.383 61.0463 231.157C60.856 231.44 60.1831 232.828 59.9868 233.211C58.932 235.732 58.583 237.011 58.0702 239.706L57.8907 241.48L57.8231 243.228Z" fill="#8D9576" fill-opacity="0.1"/>
<path d="M57.8231 243.228C57.8391 244.08 57.8317 244.931 57.9343 245.776C58.1038 246.965 58.2672 248.311 58.4977 249.478L61.1591 248.087C62.1085 247.556 63.3243 246.921 64.2308 246.363L66.9818 244.733L70.3302 242.741C63.7976 239.898 69.117 236.856 72.334 233.583C71.5522 232.631 71.3847 232.408 70.8429 231.309L70.542 231.308C68.8958 228.327 71.3483 226.714 73.683 228.23L73.8411 228.166C73.5596 227.622 72.9462 226.572 72.9813 225.993C73.0403 225.014 72.3584 224.971 71.5204 224.556C71.0545 223.752 70.5736 222.956 70.0777 222.169C69.1981 222.68 68.6991 222.949 67.9082 223.62L67.8211 223.629C66.7494 224.286 65.9128 225.103 64.9803 225.942C64.0748 226.846 63.3953 227.773 62.6151 228.783C62.0773 229.525 61.5489 230.383 61.0463 231.156C60.856 231.44 60.1831 232.828 59.9869 233.211C58.932 235.732 58.583 237.011 58.0702 239.706L57.8907 241.48L57.8231 243.228Z" fill="#8D9576" fill-opacity="0.1"/>
<path d="M62.614 228.782C62.0763 229.523 61.5479 230.381 61.0452 231.155C61.8647 231.405 62.5435 231.59 63.3778 231.784C63.2815 232.583 62.6516 232.522 62.6398 233.453C63.1108 233.977 62.8364 233.748 63.6502 233.993L64.1324 233.88C64.5479 232.946 63.7685 232.329 64.1577 231.772C67.7096 230.76 67.0261 230.64 70.541 231.306C68.8947 228.326 71.3473 226.712 73.6819 228.228L73.84 228.165C73.5585 227.62 72.9452 226.571 72.9802 225.991C73.0393 225.013 72.3574 224.97 71.5193 224.555C71.0534 223.751 70.5725 222.955 70.0766 222.168C69.197 222.679 68.698 222.947 67.9072 223.618L67.82 223.627C66.7483 224.284 65.9117 225.102 64.9793 225.941C64.0738 226.844 63.3942 227.771 62.614 228.782Z" fill="#8D9576" fill-opacity="0.1"/>
<path d="M62.615 228.781C64.6543 231.097 68.5681 230.074 68.682 228.142C67.9968 227.463 67.5438 227.761 66.8271 227.614C66.9697 227.643 65.2381 226.121 64.9802 225.94C64.0747 226.843 63.3951 227.77 62.615 228.781Z" fill="#8D9576" fill-opacity="0.1"/>
<path d="M67.8203 223.628C67.4885 225.073 67.9238 227.123 69.4758 227.566C71.3998 227.013 72.2939 223.084 67.9074 223.619L67.8203 223.628Z" fill="#8D9576" fill-opacity="0.1"/>
<path d="M57.8249 243.228C57.8408 244.08 57.8335 244.931 57.936 245.777C58.1055 246.965 58.2689 248.311 58.4994 249.478L61.1609 248.087C62.1103 247.556 63.3261 246.922 64.2326 246.364L66.9835 244.733C65.5354 244.013 64.5816 243.787 63.0343 243.473C62.6109 243.969 62.3964 244.289 61.8308 244.626C61.11 244.554 61.4211 244.676 60.8498 244.276C61.5764 243.782 62.2225 243.532 62.5254 242.837C62.3527 241.963 61.6201 241.886 61.1426 241.068C61.3984 240.802 62.0561 240.166 62.0738 239.885C62.1495 238.676 60.5161 234.085 59.9886 233.211C58.9337 235.732 58.5848 237.011 58.072 239.706L57.8924 241.48L57.8249 243.228Z" fill="#8D9576" fill-opacity="0.1"/>
<path d="M64.2304 246.363C63.3877 245.771 62.5208 244.836 61.5735 245.441C61.1629 246.311 61.2117 247.112 61.1587 248.086C62.1081 247.555 63.3239 246.921 64.2304 246.363Z" fill="#8D9576" fill-opacity="0.1"/>
<path d="M58.0713 239.706L57.8918 241.48C58.7661 241.462 59.4174 241.54 60.1881 241.152L60.3146 240.824C59.8549 240.224 58.8111 239.92 58.0713 239.706Z" fill="#8D9576" fill-opacity="0.1"/>
<path d="M57.824 243.227C57.84 244.079 57.8326 244.93 57.9352 245.775C58.8825 245.304 59.1693 245.19 59.9415 244.484L59.8698 244.238C59.2021 244.135 58.7611 244.076 58.1034 243.881L57.824 243.227Z" fill="#8D9576" fill-opacity="0.1"/>
<path d="M65.0036 233.267C65.1346 234.058 65.2624 234.053 65.925 234.343C66.7126 234.173 66.4191 234.371 66.8891 233.817C66.7065 233.215 66.6569 232.806 66.1977 232.389C65.523 232.552 65.5879 232.679 65.0036 233.267Z" fill="#8D9576" fill-opacity="0.1"/>
<path d="M72.333 233.582C69.1161 236.856 63.7966 239.897 70.3293 242.74C74.0308 240.27 76.5117 238.538 79.9382 235.76C78.7895 235.424 77.8049 235.148 77.6275 233.89C78.1475 232.459 79.7209 231.909 79.6033 230.534C78.6009 229.9 76.036 231.279 74.4093 231.372C72.7834 231.464 72.4839 231.451 70.8419 231.308C71.3837 232.408 71.5512 232.63 72.333 233.582Z" fill="#8D9576" fill-opacity="0.1"/>
<path d="M82.0691 225.41C81.3236 225.85 80.6956 226.1 80.292 226.834C80.318 227.931 80.8761 228.044 81.7963 228.577C83.6356 227.492 84.124 227.101 86.166 228.063C87.0737 224.678 85.8342 223.19 83.1087 221.356C82.9554 223.223 82.9965 223.75 82.0691 225.41Z" fill="#8D9576" fill-opacity="0.1"/>
<path d="M79.8835 220.108C80.0235 220.779 80.037 221.327 80.5214 221.769C81.3 221.727 81.6284 221.363 82.3604 220.911C81.6769 220.616 80.6219 220.332 79.8835 220.108Z" fill="#8D9576" fill-opacity="0.1"/>
<path d="M74.2335 230.351C74.3114 230.392 74.3893 230.431 74.4671 230.47C75.1593 229.801 76.2619 228.848 76.7165 228.056L76.4101 227.884C75.7283 227.911 75.0205 228.921 74.3497 229.381L74.2335 230.351Z" fill="#8D9576" fill-opacity="0.1"/>
<path d="M30.6035 235.855C30.6543 236.929 30.6535 238.11 30.9059 239.141C31.0138 239.863 31.1324 240.58 31.2619 241.297L33.855 239.913L36.9512 238.212L39.7953 236.559C40.712 235.997 42.1359 235.184 42.9813 234.594C46.4964 232.324 49.3863 230.36 52.5951 227.642C55.1337 225.351 57.5152 223.169 58.866 219.93C59.7932 216.524 58.4582 215.03 55.7989 213.146C51.4568 210.804 47.1373 211.805 42.9857 213.882C42.0186 214.44 41.5042 214.723 40.6225 215.443C39.5793 216.035 38.5282 217.067 37.6416 217.891C36.7091 218.827 36.0648 219.661 35.2449 220.695C34.7484 221.373 34.2074 222.297 33.7527 223.026L32.6937 225.072C31.6576 227.314 31.2243 229.163 30.7915 231.568L30.6358 233.365C30.5626 234.09 30.6007 235.102 30.6035 235.855Z" fill="#8D9576" fill-opacity="0.1"/>
<path d="M30.605 235.857C30.6558 236.931 30.655 238.112 30.9075 239.143C31.0153 239.865 31.1339 240.582 31.2634 241.299L33.8565 239.915L36.9527 238.214L39.7969 236.561C40.7135 235.999 42.1374 235.186 42.9829 234.596C36.3802 231.358 41.9599 228.979 45.0419 225.394C44.2636 224.5 44.0844 224.214 43.4959 223.18L43.3203 223.162C41.6028 220.169 43.6288 218.787 46.5273 219.981L46.6103 219.874C45.7903 218.604 45.7809 218.717 45.5858 217.215C45.1636 216.799 44.7633 216.689 44.2169 216.46C43.7612 215.641 43.2025 214.777 42.9872 213.884C42.0201 214.442 41.5057 214.725 40.624 215.445C39.5808 216.037 38.5297 217.069 37.6432 217.893C36.7107 218.829 36.0663 219.663 35.2464 220.697C34.7499 221.375 34.209 222.299 33.7542 223.028L32.6953 225.074C31.6591 227.316 31.2258 229.165 30.793 231.57L30.6374 233.367C30.5642 234.092 30.6022 235.104 30.605 235.857Z" fill="#8D9576" fill-opacity="0.1"/>
<path d="M35.245 220.693C34.7485 221.372 34.2075 222.296 33.7528 223.024C34.8315 223.424 35.2495 223.481 36.3664 223.667C35.7721 224.261 35.257 224.771 35.5567 225.69C36.1525 225.953 35.9832 225.864 36.7749 225.67L37.0712 225.321C37.0028 224.63 36.8648 224.398 36.5973 223.77C37.6997 223.106 37.7284 224.294 39.5244 222.606C40.9687 222.679 41.935 223.06 43.3189 223.159C41.6013 220.165 43.6273 218.784 46.5258 219.977L46.6089 219.871C45.7889 218.6 45.7795 218.714 45.5844 217.212C45.1622 216.796 44.7619 216.685 44.2155 216.456C43.7598 215.638 43.201 214.773 42.9858 213.88C42.0187 214.438 41.5043 214.721 40.6226 215.441C39.5794 216.034 38.5283 217.066 37.6417 217.889C36.7092 218.825 36.0649 219.66 35.245 220.693Z" fill="#8D9576" fill-opacity="0.1"/>
<path d="M37.6432 217.89C36.7107 218.826 36.0663 219.661 35.2464 220.694C36.1668 221.422 37.8735 222.15 39.0266 222.39L39.4296 222.28C40.0413 220.362 40.87 221.079 41.3477 220.038C41.1008 219.936 40.5663 219.696 40.3244 219.659C39.0064 219.461 38.77 218.382 37.6432 217.89Z" fill="#8D9576" fill-opacity="0.1"/>
<path d="M40.6239 215.441C40.1411 216.928 40.7661 219.16 42.2272 219.684L42.7661 219.402C44.2711 216.798 44.1582 215.069 40.6239 215.441Z" fill="#8D9576" fill-opacity="0.1"/>
<path d="M30.6046 235.854C30.6554 236.928 30.6546 238.109 30.907 239.139C31.0149 239.861 31.1335 240.579 31.263 241.296L33.8561 239.911L36.9523 238.211L39.7964 236.557C38.4623 236.043 36.7967 235.224 35.4469 235.679C35.0842 236.127 34.9642 236.344 34.447 236.616C33.7874 236.409 33.9947 236.604 33.6192 236.163C34.1449 235.706 34.9484 235.156 35.1047 234.53C34.9005 233.87 34.2428 233.365 33.7179 232.865C34.2999 232.486 34.3017 232.531 34.6517 231.946C34.8925 230.47 33.4474 226.28 32.6948 225.071C31.6587 227.313 31.2254 229.162 30.7926 231.567L30.6369 233.364C30.5638 234.088 30.6018 235.101 30.6046 235.854Z" fill="#8D9576" fill-opacity="0.1"/>
<path d="M36.9513 238.211C36.0253 237.594 35.1293 236.616 34.188 237.43C33.8446 238.359 33.8896 238.926 33.8551 239.911L36.9513 238.211Z" fill="#8D9576" fill-opacity="0.1"/>
<path d="M30.7924 231.567L30.6368 233.364C31.5112 233.323 32.1891 233.388 32.9291 232.959L32.9924 232.625C32.4051 232.006 31.6268 231.851 30.7924 231.567Z" fill="#8D9576" fill-opacity="0.1"/>
<path d="M30.6033 235.856C30.6541 236.93 30.6533 238.111 30.9057 239.141C30.8434 237.042 31.2896 237.889 32.6422 236.184C32.1379 235.812 31.2781 235.879 30.6033 235.856Z" fill="#8D9576" fill-opacity="0.1"/>
<path d="M37.6832 225.102C37.8406 225.881 37.9369 225.866 38.6009 226.162C39.3757 225.993 39.0661 226.177 39.5911 225.643C39.3927 225.024 39.3622 224.788 38.9426 224.277C38.2639 224.371 38.3096 224.528 37.6832 225.102Z" fill="#8D9576" fill-opacity="0.1"/>
<path d="M45.0408 225.394C41.9587 228.978 36.3791 231.357 42.9817 234.596C46.4968 232.325 49.3867 230.362 52.5955 227.643C47.7792 225.746 52.3487 224.378 52.3274 222.597C52.1152 222.382 51.7894 221.935 51.4309 222.109C49.0078 223.274 46.4318 223.464 43.7418 223.204L43.4948 223.179C44.0833 224.214 44.2625 224.499 45.0408 225.394Z" fill="#8D9576" fill-opacity="0.1"/>
<path d="M54.6691 217.386C53.9005 217.786 53.4371 217.914 52.9986 218.614C52.9575 219.736 53.6085 219.88 54.5374 220.455C56.2879 219.298 56.906 218.904 58.8666 219.928C59.7938 216.523 58.4588 215.028 55.7995 213.144C55.6584 215.173 55.7485 215.651 54.6691 217.386Z" fill="#8D9576" fill-opacity="0.1"/>
<path d="M46.9115 222.287C46.997 222.31 47.0827 222.333 47.1684 222.355C47.8418 221.681 48.9902 220.655 49.4008 219.861C48.5137 219.41 47.8782 220.642 47.0173 221.224L46.9115 222.287Z" fill="#8D9576" fill-opacity="0.1"/>
<path d="M50.0916 181.436C50.0813 182.14 50.0224 183.21 50.1239 183.872L50.3573 185.953C50.629 187.329 50.8079 188.213 51.237 189.543C51.6759 190.657 52.0511 191.607 52.5685 192.692L52.926 193.288L53.8628 194.796C56.6463 198.447 59.4055 200.828 64.2787 200.871C67.4801 200.355 68.8769 199.859 69.6297 196.512C69.7908 193.431 68.7877 190.276 67.6079 187.474C66.4666 184.481 64.139 180.496 62.5068 177.734C61.8987 176.766 61.2998 175.789 60.71 174.809L59.0284 172.203L57.2706 169.724L55.5955 167.375C54.9738 168.165 54.2993 169.227 53.7267 170.077L52.7672 171.702L51.8366 173.633L51.1698 175.462C50.459 177.75 50.2739 179.047 50.0916 181.436Z" fill="#8D9576" fill-opacity="0.1"/>
<path d="M53.8635 194.796C56.647 198.447 59.4062 200.828 64.2794 200.871C67.4808 200.355 68.8776 199.859 69.6304 196.512C69.7915 193.43 68.7884 190.276 67.6086 187.474C66.3568 187.475 65.7801 187.224 65.0207 188.297C64.8804 189.185 65.2981 190.012 65.499 191.043C65.2414 191.639 65.4497 191.407 64.7867 191.697C63.1321 191.184 58.7915 185.083 56.679 188.722C56.3989 190.506 57.4728 191.218 59.09 191.341L59.2145 191.495C57.5552 193.593 56.1633 193.192 53.8635 194.796Z" fill="#8D9576" fill-opacity="0.1"/>
<path d="M65.2154 197.238C65.0639 198.892 64.8786 199.392 64.2781 200.871C67.4796 200.355 68.8763 199.859 69.6292 196.512C65.8713 196.749 67.9872 193.689 64.695 194.581C64.2711 194.696 64.4296 194.68 64.208 195.062C64.2929 195.914 64.7575 196.49 65.2154 197.238Z" fill="#8D9576" fill-opacity="0.1"/>
<path d="M60.2291 190.199C60.3328 190.593 61.1234 192.338 61.3748 192.609L61.8774 192.388C61.5564 191.519 61.3499 190.24 60.708 189.78L60.2291 190.199Z" fill="#8D9576" fill-opacity="0.1"/>
<path d="M50.1245 183.874L50.3579 185.955C50.6295 187.331 50.8085 188.215 51.2376 189.545C51.6765 190.659 52.0516 191.609 52.569 192.694L52.9266 193.289L53.8633 194.798C56.1632 193.194 57.555 193.595 59.2143 191.497L59.0898 191.343C57.4727 191.22 56.3987 190.508 56.6789 188.724C58.7914 185.085 63.132 191.186 64.7865 191.699C65.4496 191.409 65.2413 191.641 65.4989 191.045C65.2979 190.015 64.8803 189.187 65.0205 188.299C65.7799 187.226 66.3566 187.477 67.6085 187.476C66.4671 184.483 64.1395 180.498 62.5073 177.736C56.0034 177.846 59.1203 181.912 60.4326 186.135L58.3022 187.482C56.8599 187.055 53.1882 185.771 53.0621 183.988C53.3552 183.677 53.6074 183.394 53.8862 183.072C53.8058 182.482 53.9141 182.75 53.435 182.307C52.6784 182.197 53.0181 182.131 52.3715 182.458C51.9405 183.408 52.5635 183.175 52.3027 183.996C51.3972 183.834 50.9056 183.599 50.1245 183.874Z" fill="#8D9576" fill-opacity="0.1"/>
<path d="M50.3573 185.954C50.629 187.33 50.8079 188.214 51.237 189.544C52.2899 189.466 53.0046 188.681 54.1505 189.049C54.4521 189.146 54.8879 189.17 55.2055 189.134C55.2209 188.609 54.7279 187.923 54.4385 187.426C54.5347 186.727 54.602 186.965 54.3759 186.377C53.4275 186.014 51.3718 185.881 50.3573 185.954Z" fill="#8D9576" fill-opacity="0.1"/>
<path d="M52.9251 193.285C54.3363 193.522 55.272 193.759 56.0684 192.215C56.382 191.607 56.3581 191.232 56.133 190.572C54.7647 189.24 52.8197 190.992 52.5676 192.689L52.9251 193.285Z" fill="#8D9576" fill-opacity="0.1"/>
<path d="M51.1679 175.463C50.4571 177.751 50.272 179.048 50.0897 181.437C51.2357 180.592 53.6999 178.197 54.4914 177.005C54.5912 176.232 54.547 176.124 54.4084 175.338C55.2137 175.078 55.7843 175.018 56.1795 174.353C56.0713 173.636 55.883 173.406 55.5245 172.785L55.7342 172.612C56.6042 172.803 56.8872 174.395 58.9427 174.685C59.5269 174.771 60.1173 174.813 60.7081 174.81L59.0265 172.205L57.2687 169.725L55.5936 167.376C54.9719 168.166 54.2974 169.229 53.7248 170.078L52.7653 171.704L51.8347 173.634L51.1679 175.463Z" fill="#8D9576" fill-opacity="0.1"/>
<path d="M57.2712 169.725C56.8419 170.542 56.5459 170.948 56.4615 171.858C56.9672 172.893 58.0363 172.495 59.029 172.204L57.2712 169.725Z" fill="#8D9576" fill-opacity="0.1"/>
<path d="M51.1705 175.462C52.2495 175.369 53.1642 175.391 54.2417 175.4C53.2693 174.559 52.9604 174.293 51.8373 173.632L51.1705 175.462Z" fill="#8D9576" fill-opacity="0.1"/>
<path d="M53.7277 170.076L52.7682 171.701C53.5503 171.965 54.415 172.236 55.1687 172.559C54.6799 171.737 54.1779 170.919 53.7277 170.076Z" fill="#8D9576" fill-opacity="0.1"/>
<path d="M54.3179 183.132C54.4385 183.832 54.4271 183.93 54.7235 184.593L55.1291 184.662L55.9067 184.069C55.962 183.355 56.0518 183.666 55.666 183.099C54.9887 182.869 54.9836 182.925 54.3179 183.132Z" fill="#8D9576" fill-opacity="0.1"/>
<path d="M24.8555 205.514C22.764 206.941 18.1351 212.099 18.4604 214.638C18.9089 214.964 19.5901 214.899 20.1849 214.925C21.0312 214.935 21.8258 214.938 22.6715 214.911L24.9375 214.909C26.3303 214.908 27.5736 214.938 28.959 214.765C31.7226 214.593 33.2206 214.478 35.9583 213.995C38.2917 213.489 40.0387 213.034 42.079 211.711C43.8816 209.932 43.6645 208.648 42.6828 206.417C42.5364 206.198 42.3825 205.983 42.2215 205.774C40.3347 203.355 37.6091 202.776 34.7814 202.441C33.8657 202.436 33.3694 202.478 32.4583 202.588C31.7751 202.675 30.9315 202.844 30.2384 202.963L27.8771 203.802L26.0712 204.738L24.8555 205.514Z" fill="#8D9576" fill-opacity="0.1"/>
<path d="M27.8765 203.804C28.2474 204.993 28.7511 205.484 29.6305 206.365L29.6546 206.34C30.4786 207.221 30.7754 207.429 31.7305 208.118L31.8352 208.251L32.0506 208.402C33.7846 209.604 34.9862 209.869 37.0249 210.536C37.0758 210.622 37.1268 210.71 37.1777 210.795C36.5588 211.943 34.7453 211.605 34.9494 213.041C35.3897 213.574 35.3745 213.67 35.9577 213.997C38.2912 213.491 40.0381 213.036 42.0784 211.713C43.881 209.934 43.664 208.65 42.6822 206.419C42.5359 206.2 42.382 205.985 42.2209 205.776C40.3341 203.357 37.6085 202.778 34.7808 202.443C33.8652 202.438 33.3688 202.48 32.4577 202.59C31.7745 202.677 30.931 202.846 30.2378 202.965L27.8765 203.804Z" fill="#8D9576" fill-opacity="0.1"/>
<path d="M27.8765 203.804C28.2474 204.993 28.7511 205.484 29.6305 206.365L29.6546 206.34C30.4786 207.221 30.7754 207.429 31.7305 208.118C31.818 205.761 32.9804 205.726 34.5562 206.986C35.7124 205.88 34.3329 204.117 34.7808 202.443C33.8652 202.438 33.3688 202.48 32.4577 202.59C31.7745 202.677 30.931 202.846 30.2378 202.965L27.8765 203.804Z" fill="#8D9576" fill-opacity="0.1"/>
<path d="M27.8766 203.804C28.2475 204.993 28.7512 205.484 29.6306 206.365L29.6547 206.34C30.2172 205.719 30.4737 205.734 31.2868 205.517C31.3005 205.579 30.3268 203.168 30.2379 202.965L27.8766 203.804Z" fill="#8D9576" fill-opacity="0.1"/>
<path d="M32.4579 202.588C32.0195 203.499 31.5038 204.915 32.5008 205.597C33.0326 205.502 33.0444 205.515 33.5241 205.283C34.0313 204.708 34.1729 204.632 34.2531 203.861C33.8624 202.788 33.5488 202.736 32.4579 202.588Z" fill="#8D9576" fill-opacity="0.1"/>
<path d="M42.682 206.417C41.4213 208.711 39.3 208.305 38.9882 209.769C40.0007 211.417 40.6223 209.376 42.0782 211.711C43.8809 209.932 43.6638 208.648 42.682 206.417Z" fill="#8D9576" fill-opacity="0.1"/>
<path d="M31.9971 210.096C30.7154 210.47 26.4692 210.986 26.5621 212.7C26.66 214.504 27.4415 214.643 28.958 214.767C31.7216 214.595 33.2196 214.479 35.9573 213.996C35.3741 213.67 35.3893 213.574 34.9489 213.041C34.7448 211.605 36.5583 211.943 37.1772 210.795C37.1264 210.709 37.0753 210.622 37.0245 210.536C34.9858 209.868 33.7841 209.604 32.0501 208.402L31.8347 208.251C31.8521 208.922 31.9159 209.427 31.9971 210.096Z" fill="#8D9576" fill-opacity="0.1"/>
<path d="M24.8544 205.514C22.7629 206.942 18.134 212.1 18.4593 214.639C18.9079 214.964 19.589 214.9 20.1838 214.926C21.0301 214.935 21.8247 214.938 22.6704 214.912L24.9364 214.909C23.6532 213.288 23.8185 213.316 21.7525 212.867L21.607 212.6C22.3598 212.394 22.5493 212.489 22.9561 212.001C23.0289 210.71 23.766 209.687 24.1363 208.475C24.428 207.52 24.6364 206.491 24.8544 205.514Z" fill="#8D9576" fill-opacity="0.1"/>
<path d="M20.1844 214.924C21.0306 214.933 21.8252 214.936 22.671 214.91C22.3076 214.185 22.2333 213.743 21.6338 213.385C21.0435 213.619 20.5919 214.379 20.1844 214.924Z" fill="#8D9576" fill-opacity="0.1"/>
<path d="M26.0693 204.739C26.9029 205.711 28.2503 207.064 29.6292 206.364C28.7498 205.483 28.2461 204.992 27.8752 203.803L26.0693 204.739Z" fill="#8D9576" fill-opacity="0.1"/>
<path d="M35.6116 175.353C33.7864 179.156 32.8122 182.192 33.3301 186.459C33.4377 187.02 33.5838 187.937 33.7302 188.463L34.1742 190.029C34.4904 190.745 34.8276 191.574 35.1932 192.255L36.2757 194.051C38.934 197.499 41.5849 199.483 46.2074 198.986C48.3475 198.202 49.8946 197.379 49.5225 194.726C49.1184 192.246 48.2081 190.71 46.9139 188.62C45.5203 186.33 43.711 184.207 42.0112 182.133C41.585 181.572 40.8055 180.739 40.3192 180.184L38.8677 178.636L37.0241 176.731L35.6116 175.353Z" fill="#8D9576" fill-opacity="0.1"/>
<path d="M35.6116 175.353C33.7864 179.156 32.8122 182.192 33.3301 186.459C33.4377 187.02 33.5838 187.937 33.7302 188.463L34.0401 188.022L35.1923 187.959L35.163 187.735C35.1249 187.424 35.1075 187.164 35.0881 186.853C35.5769 186.527 35.3085 186.646 35.9625 186.638L36.1504 186.888C36.0237 187.324 35.9027 187.722 35.7588 188.153C37.8664 189.554 37.5736 189.586 39.9796 189.783L40.1557 189.817C40.615 189.422 41.0924 188.999 41.56 188.621C40.9721 187.562 39.8694 185.823 39.4859 184.72C38.8151 182.79 40.5516 182.464 42.0112 182.133C41.585 181.572 40.8055 180.739 40.3192 180.184L38.8677 178.636L37.0241 176.731L35.6116 175.353Z" fill="#8D9576" fill-opacity="0.1"/>
<path d="M35.6116 175.353C33.7864 179.156 32.8122 182.192 33.3301 186.459C34.4239 185.036 36.4387 183.18 35.7206 181.456C36.4396 180.866 36.8874 180.839 36.9903 180.223C36.6519 179.854 36.4759 179.681 36.1963 179.264L36.4237 179.047C38.1856 179.818 36.5582 180.623 40.3192 180.184L38.8677 178.636L37.0241 176.731L35.6116 175.353Z" fill="#8D9576" fill-opacity="0.1"/>
<path d="M37.0232 176.733C36.929 177.404 36.7434 178.111 36.9891 178.714C37.637 179.077 38.092 178.853 38.8667 178.638L37.0232 176.733Z" fill="#8D9576" fill-opacity="0.1"/>
<path d="M42.01 182.134C40.5504 182.465 38.8139 182.79 39.4847 184.72C39.8682 185.824 40.971 187.563 41.5588 188.621C41.0912 189 40.6138 189.423 40.1545 189.817C40.8767 189.996 41.3678 190.135 42.0687 190.363C43.1967 190.723 44.7153 192.285 45.7376 191.912C45.45 190.584 44.84 190.189 45.5056 189.083C46.1538 188.749 46.2197 188.765 46.9127 188.621C45.5191 186.331 43.7098 184.208 42.01 182.134Z" fill="#8D9576" fill-opacity="0.1"/>
<path d="M33.7309 188.464L34.1749 190.031C34.4911 190.747 34.8283 191.576 35.1939 192.256L36.2764 194.052C36.5976 193.031 37.2119 192.557 38.1512 192.054C39.3208 192.236 38.8332 193.703 39.3569 194.579L39.7186 194.63C40.3311 194.096 40.332 194.13 40.7077 193.427C40.6939 191.996 39.5353 192.592 39.029 191.414C39.0719 190.603 39.3839 190.31 39.9802 189.785C37.5742 189.588 37.8671 189.555 35.7595 188.154C35.9034 187.724 36.0243 187.326 36.1511 186.89L35.9631 186.64C35.3091 186.648 35.5776 186.529 35.0888 186.855C35.1082 187.166 35.1256 187.426 35.1637 187.737L35.193 187.96L34.0408 188.024L33.7309 188.464Z" fill="#8D9576" fill-opacity="0.1"/>
<path d="M34.1738 190.029C34.49 190.745 34.8272 191.574 35.1928 192.255C36.1919 191.686 36.454 191.627 37.5976 191.492L37.6208 191.258L37.8272 191.523C37.5138 191.077 37.3868 190.489 37.2251 189.957C36.4136 189.189 34.954 189.289 34.1738 190.029Z" fill="#8D9576" fill-opacity="0.1"/>
<path d="M49.5209 194.727C49.238 195.2 49.4191 194.989 48.8424 195.254C47.459 195.225 47.1385 193.694 45.8282 194.182C45.1757 195.26 47.0983 196.48 46.2058 198.986C48.3459 198.203 49.8931 197.379 49.5209 194.727Z" fill="#8D9576" fill-opacity="0.1"/>
<path d="M6.57557 193.993L8.48674 194.938L10.6457 195.957L12.7982 196.901L15.1258 197.847C17.955 198.945 19.913 199.596 22.9121 200.317C25.4894 200.941 27.2026 201.139 29.851 200.722C32.3911 199.554 32.6449 198.08 32.2676 195.401C30.4224 190.297 25.4367 187.982 20.2829 187.889C19.6353 187.815 18.7217 187.907 18.0473 187.944L16.4103 188.192C12.1318 189.035 9.62933 191.099 6.57557 193.993Z" fill="#8D9576" fill-opacity="0.1"/>
<path d="M20.2824 187.89C19.531 188.629 19.8672 189.881 20.4526 190.647C21.2725 190.955 21.358 190.688 22.5359 191.174C21.714 191.486 21.5192 190.698 20.9588 191.144C21.138 191.541 21.6657 192.579 21.6829 192.938L21.6753 193.571C22.5542 194.728 23.3144 195.852 24.4458 196.751C24.9802 197.175 25.3745 197.395 25.5356 197.94C24.5701 198.242 23.7319 198.147 22.9892 198.599C22.6795 199.244 22.7427 199.473 22.9116 200.318C25.4889 200.942 27.2021 201.14 29.8505 200.722C32.3906 199.555 32.6443 198.081 32.2671 195.402C30.4218 190.298 25.4362 187.983 20.2824 187.89Z" fill="#8D9576" fill-opacity="0.1"/>
<path d="M32.2687 195.401C32.1786 196.001 32.2231 196.055 31.8998 196.548C30.1503 197.713 30.2041 197.146 28.1392 196.952L27.8137 197.312C27.6754 198.126 27.6181 197.763 27.8789 198.459C29.3371 199.1 29.5105 199.092 29.852 200.721C32.3921 199.554 32.6459 198.08 32.2687 195.401Z" fill="#8D9576" fill-opacity="0.1"/>
<path d="M23.6876 194.808L24.0127 195.15C24.9774 195.433 25.1318 195.37 26.1653 195.273C25.1553 194.822 24.6997 194.582 23.6876 194.808Z" fill="#8D9576" fill-opacity="0.1"/>
<path d="M21.0624 195.24C20.0603 195.078 19.015 194.891 18.0193 194.704C14.9236 194.127 14.8805 195.446 15.1263 197.847C17.9555 198.945 19.9135 199.596 22.9126 200.317C22.7437 199.472 22.6805 199.243 22.9902 198.598C23.7329 198.146 24.5711 198.241 25.5366 197.939C25.3755 197.394 24.9812 197.174 24.4468 196.75C23.3154 195.851 22.5552 194.727 21.6763 193.57L21.0624 195.24Z" fill="#8D9576" fill-opacity="0.1"/>
<path d="M6.57649 193.992L8.48766 194.936L10.6467 195.956L12.7992 196.9C12.6471 196.362 12.4154 195.452 12.1619 194.97C11.7131 194.116 10.6225 194.31 10.5697 193.396C11.5223 193.469 11.582 193.651 12.143 193.221L12.3117 192.231C13.0503 191.827 13.0277 192.223 13.3798 192.053C14.2443 191.638 15.9206 188.91 16.4112 188.19C12.1327 189.033 9.63025 191.098 6.57649 193.992Z" fill="#8D9576" fill-opacity="0.1"/>
<path d="M8.48858 194.938L10.6476 195.957C10.6428 195.27 10.7331 194.656 10.2097 194.186C9.51982 194.197 9.09282 194.566 8.48858 194.938Z" fill="#8D9576" fill-opacity="0.1"/>
<path d="M18.0488 187.942C17.9921 188.64 18.109 188.833 18.3368 189.485C17.9795 189.565 17.6239 189.655 17.2701 189.752C17.1289 190.375 17.1229 190.055 17.4228 190.73L17.7587 190.776L18.6324 189.983C19.2031 190.441 19.833 190.794 20.4782 191.133C20.8918 191.734 21.1401 192.638 21.6849 192.936C21.6677 192.577 21.14 191.538 20.9608 191.141C21.5213 190.695 21.716 191.484 22.5379 191.171C21.3601 190.685 21.2745 190.953 20.4546 190.645C19.8692 189.878 19.533 188.626 20.2844 187.887C19.6368 187.813 18.7232 187.906 18.0488 187.942Z" fill="#8D9576" fill-opacity="0.1"/>
</svg>
