<svg width="375" height="221" viewBox="0 0 375 221" fill="none" xmlns="http://www.w3.org/2000/svg">
<path d="M181.613 97.7744C65.8375 88.7952 12.2979 28.8501 0 0V214.006L420.801 221C426.774 185.997 297.388 106.754 181.613 97.7744Z" fill="url(#paint0_linear_95_1244)"/>
<path d="M6.8587 90.4521C6.85464 90.8359 6.82872 91.2192 6.78105 91.6001C6.75029 91.8097 6.72149 91.9979 6.6786 92.2063C6.61522 92.4966 6.55172 92.7432 6.47181 93.0295C6.40404 93.235 6.34603 93.4191 6.25796 93.6177C6.00511 94.2558 5.65307 94.9143 5.23635 95.4611C5.06531 95.6853 4.81893 95.9419 4.6819 96.1276C4.56158 96.2577 4.15285 96.6649 4.00999 96.7728C3.67549 97.0385 3.40672 97.2421 3.04455 97.4731C2.38887 97.8544 1.85338 98.1134 1.11008 98.3226C0.0317838 98.5867 -1.03614 98.6733 -2.09289 98.2442C-2.39644 98.1083 -2.63338 97.9867 -2.89398 97.7752C-3.79442 97.086 -4.22777 95.96 -3.40323 95.0225C-3.30243 94.862 -2.96735 94.5456 -2.81933 94.417C-2.36641 94.0186 -1.52264 93.4941 -0.98253 93.2258C0.103439 92.6357 1.45629 92.1381 2.61159 91.7134C3.01015 91.5764 3.4103 91.4451 3.81233 91.3189C4.15408 91.2039 4.49882 91.098 4.84621 91.0012C5.18314 90.8988 5.5216 90.8015 5.86148 90.7093C6.19289 90.6198 6.52529 90.534 6.8587 90.4521Z" fill="#8D9576"/>
<path d="M6.85845 90.4521C6.85438 90.8359 6.82847 91.2192 6.7808 91.6C6.75004 91.8097 6.72123 91.9978 6.67835 92.2063C6.61496 92.4966 6.55147 92.7432 6.47156 93.0295C6.40379 93.235 6.34578 93.4191 6.2577 93.6177C6.00485 94.2558 5.65282 94.9142 5.2361 95.4611C5.06506 95.6852 4.81868 95.9418 4.68164 96.1275C4.57917 95.9508 4.00487 95.7497 3.8082 95.7017C3.53202 95.6338 3.29008 95.5987 3.00906 95.6615L2.84853 95.8645C2.43087 95.651 2.06104 95.4818 1.61208 95.3352L1.59186 95.3236C1.51998 95.1626 1.49116 94.997 1.43765 94.8297C1.37852 94.6452 1.37858 94.6439 1.21891 94.5588C1.2264 94.4619 2.66749 93.6422 2.83463 93.5386C3.91617 92.8683 3.36422 92.3308 2.61134 91.7134C3.00989 91.5764 3.41005 91.445 3.81207 91.3189C4.15382 91.2038 4.49857 91.0979 4.84595 91.0012C5.18288 90.8988 5.52134 90.8015 5.86123 90.7093C6.19264 90.6197 6.52504 90.534 6.85845 90.4521Z" fill="#8D9576"/>
<path d="M6.85853 90.452C6.85447 90.8358 6.82856 91.219 6.78088 91.5999C6.75012 91.8095 6.72132 91.9977 6.67843 92.2062C6.61505 92.4964 6.55155 92.7431 6.47164 93.0293C6.40387 93.2348 6.34586 93.419 6.25779 93.6175C6.00494 94.2557 5.6529 94.9141 5.23619 95.461C4.98323 95.1437 5.11143 94.7659 5.06297 94.3897C4.99758 93.8798 4.89007 93.5676 5.09783 93.0693C5.22447 93.0302 5.34929 93.0024 5.4779 92.972C4.91007 92.2757 4.98984 92.1105 5.82681 91.9388C5.68358 91.845 5.59084 91.7773 5.45677 91.6707C5.32239 91.7959 5.22921 91.8644 5.07584 91.9597C4.55534 91.9115 4.20295 91.6304 3.81216 91.3188C4.15391 91.2037 4.49866 91.0978 4.84604 91.0011C5.18297 90.8987 5.52143 90.8013 5.86132 90.7092C6.19272 90.6196 6.52513 90.5339 6.85853 90.452Z" fill="#8D9576"/>
<path d="M4.84623 91.0013C5.18316 90.8988 5.52162 90.8015 5.8615 90.7094C5.81148 91.1793 5.78284 91.3213 5.45343 91.669C5.21428 91.4641 5.02443 91.2633 4.84623 91.0013Z" fill="#8D9576"/>
<path d="M6.47171 93.0294C6.40394 93.2349 6.34593 93.419 6.25786 93.6176C5.93099 93.3493 5.8214 93.3157 5.48946 92.9727C5.91079 92.9157 6.06591 92.9203 6.47171 93.0294Z" fill="#8D9576"/>
<path d="M6.78101 91.5999C6.75025 91.8095 6.72144 91.9977 6.67856 92.2062C6.29615 92.1714 6.16898 92.1194 5.82776 91.9383C6.19327 91.8668 6.43154 91.7103 6.78101 91.5999Z" fill="#8D9576"/>
<path d="M4.19218 95.0412C4.22403 95.0694 4.29264 95.1292 4.31171 95.1628C4.4554 95.4145 4.04652 95.7354 3.8227 95.6556C3.81833 95.4454 3.77747 95.2524 3.80464 95.0469C3.97423 95.0165 4.02157 95.0103 4.19218 95.0412Z" fill="#8D9576"/>
<path d="M3.46618 94.7576C3.53576 94.8334 3.60726 94.8978 3.59408 95.0132C3.57382 95.1886 3.26748 95.3963 3.10398 95.359L3.07196 95.3049C3.07352 95.1294 2.98864 94.8755 3.11535 94.7439C3.24159 94.6867 3.33351 94.7196 3.46618 94.7576Z" fill="#8D9576"/>
<path d="M2.61175 91.7134C3.36463 92.3308 3.91659 92.8683 2.83505 93.5386C2.6679 93.6422 1.22681 94.4619 1.21933 94.5588C1.379 94.6439 1.37894 94.6452 1.43806 94.8297C1.49158 94.997 1.5204 95.1626 1.59227 95.3236C0.666503 95.0311 -0.177695 94.849 -1.14111 95.1084C-1.21124 94.9405 -1.24581 94.8426 -1.29697 94.668C-0.485441 94.2034 0.15694 93.937 -0.982367 93.2258C0.103602 92.6357 1.45645 92.1381 2.61175 91.7134Z" fill="#8D9576"/>
<path d="M3.00948 95.6614C3.29049 95.5986 3.53243 95.6337 3.80861 95.7016C4.00528 95.7496 4.57959 95.9507 4.68206 96.1275C4.56174 96.2576 4.15301 96.6648 4.01015 96.7727C3.67565 97.0384 3.40688 97.242 3.04471 97.473C2.38903 97.8543 1.85354 98.1133 1.11024 98.3225C1.11245 98.0836 0.893979 97.5876 0.787277 97.357C0.768097 97.3155 0.513538 97.2097 0.438473 97.1019C0.364633 96.996 0.551627 96.8302 0.542839 96.7266C0.529084 96.5638 0.269913 95.8318 0.18163 95.7508C-0.100503 95.6888 -0.299414 96.1295 -0.406033 96.1464C-0.427612 96.0074 -0.439236 95.9697 -0.50749 95.8469C-0.0669462 95.6301 0.172189 95.4578 0.543824 95.1578C0.396132 95.409 0.23921 95.7012 0.370281 95.9967C0.531619 96.3658 1.07686 96.5278 1.43061 96.3492C1.90333 96.1106 1.79495 95.7087 1.6125 95.3351C2.06146 95.4817 2.43128 95.6509 2.84894 95.8644L3.00948 95.6614Z" fill="#8D9576"/>
<path d="M2.84516 95.8666C3.14419 96.011 3.80928 96.4096 4.02115 96.6747C4.04594 96.7056 4.02715 96.7216 4.01007 96.7728C3.67557 97.0385 3.4068 97.2421 3.04463 97.473C2.73217 97.1573 2.81919 97.1036 2.61379 96.7891C2.52 96.7185 2.4204 96.7853 2.35128 96.7539C2.223 96.6954 2.01506 96.5612 2.04569 96.403C2.23599 96.2056 2.58082 96.3498 2.71732 96.0986L2.84516 95.8666Z" fill="#8D9576"/>
<path d="M1.79973 96.5318C1.89797 96.6652 1.94476 96.8935 2.0176 97.0474C2.25456 97.5479 2.17973 97.9742 1.53201 97.9395C0.503532 97.6427 1.39386 96.5325 1.79973 96.5318Z" fill="#8D9576"/>
<path d="M1.98192 101.556C2.45092 101.949 2.73342 102.243 3.09939 102.753C3.30573 103.054 3.43539 103.268 3.60464 103.6C3.70878 103.833 3.78802 104.016 3.87484 104.258C3.94719 104.472 4.00006 104.642 4.05574 104.862C4.2017 105.431 4.24476 105.957 4.23757 106.541C4.22945 106.717 4.22031 106.862 4.20038 107.036C4.17319 107.269 4.14941 107.449 4.10367 107.68C4.06746 107.838 4.03278 107.998 3.98915 108.154C3.89439 108.453 3.80467 108.719 3.68745 109.012C3.47992 108.859 3.27556 108.702 3.07539 108.539C2.84598 108.364 2.62176 108.182 2.40257 107.994C2.18157 107.816 1.96392 107.632 1.74995 107.445C1.49976 107.23 1.25408 107.01 1.0131 106.785C0.464593 106.312 -0.8292 105.058 -1.21745 104.454C-1.54592 104.079 -1.84623 103.583 -2.08754 103.148C-2.17288 102.961 -2.22347 102.838 -2.28946 102.643C-2.32615 102.533 -2.34322 102.435 -2.36628 102.321C-2.50467 101.447 -1.94995 101.01 -1.21917 100.733L-1.0978 100.701C-0.802361 100.625 -0.671138 100.606 -0.366531 100.603C0.560054 100.642 1.26267 100.998 1.98192 101.556Z" fill="#8D9576"/>
<path d="M3.87492 104.258C3.94726 104.472 4.00014 104.642 4.05581 104.862C4.20178 105.431 4.24484 105.957 4.23765 106.541C4.22952 106.717 4.22039 106.862 4.20046 107.036C4.17326 107.269 4.14949 107.449 4.10374 107.68C4.06754 107.838 4.03286 107.998 3.98922 108.154C3.89447 108.453 3.80475 108.719 3.68753 109.012C3.48 108.859 3.27564 108.702 3.07547 108.539C2.84606 108.364 2.62184 108.182 2.40264 107.994C2.18165 107.815 1.96399 107.632 1.75003 107.445C1.49983 107.23 1.25416 107.01 1.01318 106.785L1.04398 106.775C1.33092 106.688 1.79063 106.565 1.92373 106.279C2.1726 105.743 1.05875 104.832 0.886576 104.309C0.942766 104.228 0.998608 104.296 1.04757 104.248C1.15772 104.14 1.27992 103.984 1.37922 103.864L1.40449 103.861C1.79588 103.882 2.08181 103.883 2.46756 103.859L2.51506 104.063C2.95439 104.306 3.3798 104.35 3.87492 104.258Z" fill="#8D9576"/>
<path d="M4.05585 104.862C4.20182 105.431 4.24488 105.957 4.23769 106.541C4.22956 106.717 4.22043 106.862 4.2005 107.036C4.1733 107.269 4.14953 107.449 4.10378 107.68C4.06758 107.838 4.0329 107.998 3.98926 108.154C3.89451 108.453 3.80479 108.719 3.68757 109.012C3.48003 108.859 3.27567 108.702 3.07551 108.539C2.8461 108.364 2.62188 108.182 2.40268 107.994C2.18168 107.816 1.96403 107.632 1.75007 107.445C2.1414 107.334 2.47339 107.252 2.87463 107.376C2.93642 107.481 2.99704 107.589 3.05781 107.696L3.40382 107.618C2.8144 107.216 2.87531 107.103 3.46732 106.762L3.23152 106.59C3.21101 106.178 3.41006 105.958 3.59883 105.618C3.74971 105.346 3.80272 105.058 4.05585 104.862Z" fill="#8D9576"/>
<path d="M3.05982 107.701C3.10031 107.827 3.10503 107.858 3.12623 107.972C3.15821 108.144 3.03936 108.445 3.07545 108.539C2.84604 108.364 2.62183 108.182 2.40263 107.994C2.64318 107.841 2.78887 107.786 3.05982 107.701Z" fill="#8D9576"/>
<path d="M4.23773 106.541C4.22961 106.717 4.22048 106.862 4.20054 107.036C3.87215 106.978 3.75167 106.927 3.4635 106.764C3.74327 106.66 3.95118 106.608 4.23773 106.541Z" fill="#8D9576"/>
<path d="M4.10367 107.68C4.06746 107.838 4.03278 107.998 3.98914 108.154C3.77956 107.965 3.64211 107.805 3.40958 107.615C3.71413 107.601 3.80807 107.608 4.10367 107.68Z" fill="#8D9576"/>
<path d="M3.13336 104.287C3.34457 104.465 3.56329 104.778 3.1435 104.866C2.77036 104.734 2.98401 104.533 3.13336 104.287Z" fill="#8D9576"/>
<path d="M2.52287 104.29C2.71679 104.48 2.91461 104.793 2.49936 104.848C2.39683 104.814 2.36573 104.799 2.31268 104.719C2.3036 104.572 2.38091 104.347 2.52287 104.29Z" fill="#8D9576"/>
<path d="M-0.656554 103.165C-0.0332904 103.65 0.611046 103.774 1.37928 103.864C1.27998 103.984 1.15778 104.14 1.04763 104.248C0.998668 104.296 0.942826 104.228 0.886635 104.309C1.05881 104.833 2.17266 105.743 1.92379 106.279C1.79069 106.565 1.33098 106.688 1.04404 106.775L1.01324 106.785C0.464729 106.313 -0.829064 105.059 -1.21731 104.454C-1.16913 104.479 -1.13713 104.533 -1.09763 104.542C-0.96613 104.574 -0.713437 104.481 -0.597109 104.422C-0.196182 104.217 -0.74849 103.637 -0.90831 103.425L-0.656554 103.165Z" fill="#8D9576"/>
<path d="M1.9821 101.556C2.4511 101.949 2.7336 102.243 3.09957 102.753C3.30591 103.054 3.43557 103.268 3.60482 103.6C3.70896 103.833 3.7882 104.016 3.87502 104.258C3.37991 104.35 2.9545 104.306 2.51516 104.063L2.46766 103.859C2.08191 103.883 1.79599 103.882 1.40459 103.861C1.66711 103.625 1.88217 103.314 1.53729 103.02C1.39552 102.901 1.21212 102.843 1.02762 102.86C0.567477 102.907 0.540265 103.287 0.581933 103.654C0.465941 103.442 0.352609 103.222 0.190598 103.041C0.0927144 102.931 0.0517483 102.84 0.117549 102.699C0.17955 102.662 0.14706 102.67 0.21872 102.672C0.256231 102.748 0.368617 103.16 0.489682 103.104C0.687086 103.012 0.887537 102.742 1.01939 102.565C1.09419 102.464 1.07607 102.359 1.05183 102.246C1.22758 102.17 1.26573 102.15 1.45823 102.145C1.62087 101.926 1.84631 101.754 1.9821 101.556Z" fill="#8D9576"/>
<path d="M3.09958 102.753C3.30592 103.054 3.43558 103.268 3.60483 103.6C3.34199 103.778 2.78761 103.822 2.46399 103.863C2.46066 103.811 2.45667 103.76 2.452 103.708C2.42138 103.389 2.06196 103.419 2.03841 103.154C2.16444 103.022 2.5431 103.117 2.56664 103.105C2.75257 103.011 2.82375 102.839 3.09958 102.753Z" fill="#8D9576"/>
<path d="M2.3564 102.046C2.43828 102.126 2.49726 102.184 2.49646 102.311C2.49538 102.511 2.04319 103.044 1.85657 103.016C1.77634 102.957 1.75268 102.886 1.70733 102.795C1.70185 102.78 1.69687 102.764 1.69206 102.748C1.62835 102.539 1.5686 102.315 1.68481 102.113C1.83875 101.846 2.14205 101.911 2.3564 102.046Z" fill="#8D9576"/>
<path d="M11.9031 93.0795C11.9615 93.3446 11.9838 93.6404 12.0112 93.9121C12.0168 94.0641 12.0247 94.2189 12.0228 94.3706C12.0125 94.572 12.0046 94.781 11.9867 94.9811C11.9674 95.1356 11.9511 95.2874 11.9188 95.4398C11.8191 95.9532 11.6557 96.4521 11.4325 96.925C11.3387 97.0985 11.2432 97.2819 11.1435 97.4512C11.0211 97.6336 10.9067 97.8049 10.774 97.9804C9.66142 99.234 8.3083 100.216 6.53541 99.9312C6.30177 99.8748 6.1361 99.8216 5.91685 99.7151L5.76787 99.6332C5.12791 99.2062 4.82907 98.7638 5.07101 97.9828C5.12811 97.8525 5.17115 97.7723 5.24026 97.6492C5.30873 97.5335 5.40293 97.4061 5.48104 97.2945C5.93376 96.7943 6.13424 96.5902 6.65767 96.1627C7.45127 95.5446 8.17361 95.0895 9.02537 94.5791L9.83465 94.1255L10.542 93.753C10.7001 93.6532 11.0353 93.4973 11.2134 93.4077L11.9031 93.0795Z" fill="#8D9576"/>
<path d="M11.9032 93.0797C11.9616 93.3448 11.9839 93.6406 12.0113 93.9123C12.0169 94.0643 12.0248 94.2191 12.0229 94.3708C12.0126 94.5722 12.0047 94.7812 11.9868 94.9813C11.9675 95.1358 11.9512 95.2876 11.9188 95.44C11.8192 95.9534 11.6558 96.4522 11.4326 96.9252C11.3388 97.0987 11.2433 97.282 11.1436 97.4514C11.0212 97.6338 10.9068 97.805 10.7741 97.9806C10.6013 97.842 9.97749 97.552 9.77344 97.5406C9.41463 97.4373 9.17142 97.3876 8.7948 97.3256C8.63775 97.0972 8.68456 96.9953 8.43369 96.8102C8.51993 96.5864 9.531 95.8823 9.6915 95.5732C9.96649 95.0442 9.43005 94.797 9.02546 94.5793L9.83474 94.1257L10.5421 93.7532C10.7002 93.6534 11.0354 93.4975 11.2135 93.4079L11.9032 93.0797Z" fill="#8D9576"/>
<path d="M11.9029 93.0794C11.9613 93.3445 11.9837 93.6403 12.011 93.912C12.0166 94.064 12.0245 94.2188 12.0227 94.3705C12.0123 94.5719 12.0045 94.7809 11.9866 94.981C11.9673 95.1355 11.9509 95.2873 11.9186 95.4397C11.819 95.9531 11.6555 96.452 11.4323 96.9249C11.2231 96.675 11.2382 96.4298 11.1419 96.1267C11.026 95.7612 10.9273 95.5866 11.01 95.2023L11.2626 95.0852C10.7714 94.6749 10.7738 94.5477 11.3612 94.2942L11.0672 94.1551C10.99 94.266 10.9333 94.3223 10.841 94.4181C10.4337 94.4475 10.1814 94.3035 9.83447 94.1255L10.5418 93.7529C10.6999 93.6531 11.0351 93.4973 11.2132 93.4076L11.9029 93.0794Z" fill="#8D9576"/>
<path d="M10.5418 93.7531C10.6998 93.6532 11.035 93.4974 11.2132 93.4078C11.2693 93.7084 11.2431 93.8908 11.066 94.1557C10.8453 94.0137 10.7317 93.9357 10.5418 93.7531Z" fill="#8D9576"/>
<path d="M11.9866 94.9814C11.9673 95.1359 11.9509 95.2877 11.9186 95.4401C11.6547 95.3187 11.5101 95.2473 11.2674 95.0875C11.5455 94.982 11.6952 94.9689 11.9866 94.9814Z" fill="#8D9576"/>
<path d="M12.0111 93.9121C12.0167 94.0641 12.0246 94.2189 12.0228 94.3706C11.7219 94.3944 11.6656 94.3833 11.3756 94.2947C11.6419 94.1726 11.7716 94.0404 12.0111 93.9121Z" fill="#8D9576"/>
<path d="M11.1432 97.4511C11.0208 97.6336 10.9065 97.8048 10.7737 97.9804C10.601 97.8418 9.97716 97.5518 9.77311 97.5404C9.90594 97.2363 10.1727 97.2801 10.4644 97.2771C10.738 97.3192 10.8873 97.3377 11.1432 97.4511Z" fill="#8D9576"/>
<path d="M10.5885 96.7529C10.6807 96.7912 10.6962 96.7914 10.7573 96.8657C10.8021 97.0716 10.6267 97.1863 10.4645 97.277C10.4262 97.1523 10.3506 96.9687 10.3737 96.8514C10.4445 96.7581 10.4744 96.7648 10.5885 96.7529Z" fill="#8D9576"/>
<path d="M10.0469 96.6377C10.1054 96.6827 10.1194 96.6993 10.1689 96.752C10.2268 96.9224 10.0203 97.179 9.86166 97.12C9.82472 96.9651 9.73525 96.8315 9.81957 96.6896C9.90548 96.637 9.94203 96.6441 10.0469 96.6377Z" fill="#8D9576"/>
<path d="M9.02513 94.579C9.42972 94.7968 9.96616 95.044 9.69117 95.573C9.53067 95.8821 8.5196 96.5861 8.43335 96.81C8.68423 96.9951 8.63742 97.097 8.79447 97.3254C8.25397 97.1711 7.31531 97.2933 6.78868 97.5384L6.62442 97.2559C7.19551 96.7608 7.54453 96.5896 6.65743 96.1626C7.45104 95.5445 8.17337 95.0894 9.02513 94.579Z" fill="#8D9576"/>
<path d="M6.10774 97.882C6.24295 97.9741 6.38309 98.0731 6.5208 98.1604L6.44022 98.4327C5.75347 98.6847 5.8325 99.0402 5.76787 99.6331C5.12791 99.2061 4.82907 98.7637 5.07101 97.9827C5.45424 98.2322 5.75678 98.1291 6.10774 97.882Z" fill="#8D9576"/>
<path d="M6.38393 99.4418C6.42693 99.6245 6.47249 99.7534 6.53535 99.9312C6.30172 99.8749 6.13604 99.8217 5.9168 99.7152C6.08983 99.6365 6.22961 99.5511 6.38393 99.4418Z" fill="#8D9576"/>
<path d="M5.48084 97.2944C5.56492 97.3772 5.65491 97.4622 5.73395 97.5491C5.55036 97.5788 5.41951 97.6026 5.24006 97.6491C5.30853 97.5334 5.40273 97.406 5.48084 97.2944Z" fill="#8D9576"/>
<path d="M21.9632 87.4452C21.9797 87.4817 21.9803 87.4767 21.9869 87.5154C22.0591 87.9347 20.8671 90.7032 20.614 91.2548C20.3216 91.8939 20.0098 92.5239 19.6787 93.1438C19.2809 93.8749 18.8452 94.5848 18.373 95.2701C15.1975 99.8406 11.2161 101.422 5.74805 100.748C3.86031 100.515 2.22972 100.141 0.37285 99.7314C-2.2576 99.1506 -5.16354 98.518 -7.85096 98.9871C-10.4162 99.4348 -12.456 100.98 -13.921 103.094L-14.2599 102.762L-14.5131 102.514C-14.0681 101.926 -13.7569 101.54 -13.2411 101.02C-9.44154 97.0956 -4.07872 98.207 0.676389 99.2946C4.25339 100.113 8.28631 101.033 11.9079 99.9261C16.7528 98.437 19.4339 93.6368 21.1628 89.211C21.3595 88.7069 21.5973 87.7958 21.9632 87.4452Z" fill="#8D9576"/>
<path d="M10.3635 101.931C10.7619 102.25 11.0493 102.535 11.3448 102.96C11.4834 103.171 11.5825 103.345 11.7046 103.565C11.7744 103.726 11.8509 103.896 11.9106 104.06C11.9554 104.203 12.0115 104.366 12.0413 104.51C12.1585 105.014 12.1853 105.28 12.1818 105.789L12.1551 106.174C12.1352 106.335 12.1195 106.484 12.0823 106.642C12.051 106.769 12.021 106.896 11.9852 107.022C11.9182 107.263 11.8549 107.43 11.766 107.662C11.6729 107.59 11.5111 107.473 11.4303 107.397C11.2275 107.255 10.9788 107.045 10.7839 106.886C10.6239 106.75 10.4653 106.613 10.3081 106.475C10.0834 106.294 9.94583 106.149 9.74136 105.971C9.34233 105.67 8.42745 104.677 8.12153 104.295C7.8261 103.949 7.61996 103.625 7.40552 103.23C7.35721 103.123 7.31258 103.009 7.26814 102.9C7.23386 102.8 7.21767 102.71 7.19619 102.606C7.10169 101.925 7.47567 101.633 8.04942 101.404L8.16285 101.369C8.36472 101.322 8.50173 101.313 8.70767 101.301C9.36378 101.328 9.8341 101.566 10.3635 101.931Z" fill="#8D9576"/>
<path d="M11.9108 104.06C11.9556 104.203 12.0116 104.366 12.0414 104.51C12.1587 105.014 12.1855 105.279 12.1819 105.789L12.1552 106.174C12.1354 106.335 12.1197 106.484 12.0825 106.642C12.0512 106.769 12.0212 106.896 11.9853 107.022C11.9184 107.262 11.8551 107.43 11.7662 107.662C11.6731 107.59 11.5112 107.472 11.4304 107.397C11.2276 107.255 10.979 107.045 10.7841 106.885C10.624 106.75 10.4654 106.613 10.3082 106.475C10.0835 106.294 9.94597 106.149 9.7415 105.971C11.3333 105.64 9.85018 104.753 9.66468 104.108C9.82063 104.05 9.90645 103.902 10.0156 103.765L10.0422 103.762C10.2173 103.775 10.7396 103.752 10.8303 103.791C10.9903 104.141 11.5844 104.128 11.9108 104.06Z" fill="#8D9576"/>
<path d="M12.0413 104.51C12.1585 105.014 12.1853 105.279 12.1818 105.789L12.1551 106.174C12.1352 106.335 12.1196 106.484 12.0823 106.642C12.051 106.769 12.021 106.896 11.9852 107.021C11.9182 107.262 11.8549 107.43 11.766 107.661C11.6729 107.59 11.5111 107.472 11.4303 107.397C11.2275 107.255 10.9789 107.045 10.7839 106.885C10.6239 106.75 10.4653 106.613 10.3081 106.474C10.6357 106.372 10.7984 106.345 11.1402 106.405C11.1918 106.484 11.2433 106.573 11.2924 106.655L11.5386 106.608C11.4118 106.509 11.2443 106.42 11.2526 106.246C11.3183 106.097 11.4589 106.042 11.6021 105.959C11.188 105.682 11.5955 105.371 11.7302 105.015C11.7895 104.858 11.9266 104.624 12.0413 104.51Z" fill="#8D9576"/>
<path d="M11.2924 106.664C11.2986 106.685 11.3047 106.706 11.3111 106.727L11.3183 106.756C11.3626 106.92 11.3246 107.035 11.3198 107.204C11.3167 107.305 11.3557 107.316 11.43 107.397C11.2272 107.256 10.9786 107.045 10.7836 106.886C10.9867 106.774 11.0729 106.732 11.2924 106.664Z" fill="#8D9576"/>
<path d="M12.1818 105.789L12.1551 106.174C11.9047 106.107 11.8302 106.079 11.6005 105.964C11.8084 105.879 11.9598 105.829 12.1818 105.789Z" fill="#8D9576"/>
<path d="M12.0827 106.642C12.0514 106.769 12.0214 106.896 11.9855 107.021C11.8031 106.841 11.7521 106.756 11.5398 106.597C11.7587 106.588 11.8714 106.602 12.0827 106.642Z" fill="#8D9576"/>
<path d="M10.9217 104.121C11.0157 104.23 11.0971 104.325 11.0128 104.462C10.9358 104.511 10.9183 104.506 10.8289 104.507C10.7733 104.471 10.7169 104.452 10.7189 104.393C10.7234 104.262 10.781 104.192 10.8609 104.106L10.9217 104.121Z" fill="#8D9576"/>
<path d="M11.3459 104.075C11.4396 104.166 11.546 104.282 11.5267 104.419C11.4661 104.505 11.4835 104.479 11.3725 104.527C11.2786 104.496 11.242 104.486 11.1978 104.398C11.2006 104.297 11.2911 104.169 11.3459 104.075Z" fill="#8D9576"/>
<path d="M8.12172 104.295C9.11275 104.224 8.37997 103.718 8.33789 103.429C8.35972 103.353 8.39199 103.336 8.45155 103.284C8.58158 103.263 8.85448 103.498 9.05343 103.563C9.42042 103.681 9.63424 103.721 10.0156 103.765C9.9065 103.902 9.82067 104.05 9.66472 104.108C9.85022 104.753 11.3333 105.64 9.74154 105.971C9.34252 105.671 8.42763 104.677 8.12172 104.295Z" fill="#8D9576"/>
<path d="M10.3634 101.931C10.7618 102.25 11.0492 102.534 11.3447 102.959C11.4833 103.171 11.5824 103.344 11.7045 103.564C11.7743 103.726 11.8508 103.895 11.9105 104.06C11.5842 104.128 10.99 104.141 10.8301 103.79C10.7394 103.752 10.2171 103.775 10.042 103.762C10.6252 103.263 9.92307 102.782 9.51296 103.124C9.3955 103.222 9.40211 103.41 9.40478 103.556C9.31532 103.416 9.08216 103.111 9.02301 102.995C9.05385 102.931 9.05425 102.913 9.11389 102.877C9.23507 102.96 9.18777 103.156 9.3522 103.197C9.4513 103.161 9.61929 102.935 9.71389 102.849C9.8043 102.767 9.79097 102.645 9.78023 102.532C9.89061 102.494 9.9551 102.482 10.0705 102.459C10.1759 102.354 10.3887 102.187 10.4331 102.045C10.4417 102.018 10.3839 101.958 10.3634 101.931Z" fill="#8D9576"/>
<path d="M11.3448 102.959C11.4834 103.171 11.5825 103.344 11.7046 103.564C11.5054 103.702 11.0786 103.737 10.8346 103.765C10.8258 103.334 10.6277 103.54 10.5244 103.253C10.5958 103.119 10.883 103.223 10.9569 103.179C11.0855 103.102 11.1351 102.935 11.3448 102.959Z" fill="#8D9576"/>
<path d="M10.7941 102.363C11.0105 102.661 10.5943 103.111 10.3963 103.126C10.3231 103.086 10.3032 103.027 10.2623 102.952C10.1133 102.422 10.244 102.235 10.7941 102.363Z" fill="#8D9576"/>
<path d="M8.04947 101.404C7.75883 102.371 8.35589 102.178 8.37517 102.703L7.99387 102.859C7.7656 102.616 7.53555 102.446 7.19624 102.606C7.10174 101.925 7.47571 101.633 8.04947 101.404Z" fill="#8D9576"/>
<path d="M8.70763 101.301C8.59445 101.443 8.56475 101.497 8.47849 101.658C8.37831 101.559 8.27504 101.452 8.16281 101.369C8.36468 101.322 8.50169 101.313 8.70763 101.301Z" fill="#8D9576"/>
<path d="M7.64625 103.049C7.56263 103.109 7.4842 103.163 7.40551 103.23C7.3572 103.123 7.31257 103.009 7.26813 102.9C7.39769 102.946 7.51935 102.997 7.64625 103.049Z" fill="#8D9576"/>
<path d="M15.0248 91.5997C15.1582 91.6852 15.3506 91.8659 15.4593 91.9835C15.7629 92.3143 15.9355 92.5409 16.16 92.9343L16.3435 93.3096C16.4005 93.4608 16.4672 93.6256 16.5094 93.7799C16.5854 94.0268 16.6258 94.1813 16.6611 94.4385C16.6889 94.6837 16.7001 94.8772 16.7098 95.1217L16.7009 95.1819C16.6926 95.3482 16.6813 95.4685 16.6595 95.6337C16.5373 96.2919 16.3707 96.7598 15.8936 97.248C15.7452 97.3774 15.6455 97.4491 15.473 97.5486L15.3855 97.5841C14.8529 97.7965 14.3995 97.8112 14.0373 97.2946C13.9903 97.2221 13.9447 97.123 13.9056 97.0443L13.7938 96.7433C13.6736 96.3488 13.6384 95.9589 13.6074 95.5508C13.5397 95.0232 13.6103 93.9214 13.6498 93.3902C13.6669 93.1362 13.6856 92.9363 13.7188 92.683L13.7859 92.094C13.8045 91.9101 13.8423 91.6918 13.8694 91.5064L13.9626 90.9487C14.1679 91.0445 14.3095 91.116 14.5045 91.2304C14.6083 91.2915 14.7321 91.3766 14.8348 91.4436C14.904 91.4929 14.9609 91.5443 15.0248 91.5997Z" fill="#8D9576"/>
<path d="M15.0248 91.5997C15.1582 91.6852 15.3506 91.8659 15.4593 91.9835C15.7629 92.3143 15.9355 92.5409 16.16 92.9343L16.3435 93.3096C16.1029 93.464 15.6564 93.8667 15.7782 94.1809C15.7311 94.2713 15.3582 94.5972 15.2489 94.7087L15.2367 94.7173C15.0916 94.6979 14.9505 94.6799 14.8034 94.6873C14.7925 94.6877 14.7551 94.6357 14.7555 94.6367C14.5237 93.9163 14.902 92.683 13.6498 93.3902C13.6669 93.1362 13.6856 92.9363 13.7188 92.683L13.7859 92.094C13.8045 91.9101 13.8423 91.6918 13.8694 91.5064L13.9626 90.9487C14.1679 91.0445 14.3095 91.116 14.5045 91.2304C14.6083 91.2915 14.7321 91.3766 14.8348 91.4436C14.904 91.4929 14.9609 91.5443 15.0248 91.5997Z" fill="#8D9576"/>
<path d="M15.0248 91.5997C15.1582 91.6852 15.3506 91.8659 15.4593 91.9835C15.7629 92.3143 15.9355 92.5409 16.16 92.9343C16.1104 92.9153 16.0698 92.9177 16.0438 92.909C15.6608 92.7824 15.221 92.7009 14.9032 92.4489C14.9084 92.3721 14.9121 92.2962 14.9224 92.2199C14.7698 92.2519 14.6336 92.3024 14.4972 92.2278C14.4014 92.1145 14.4377 92.0337 14.4655 91.8995L14.4822 91.8171L14.2808 91.9265C14.3179 92.0948 14.3425 92.1448 14.2458 92.3046C14.1625 92.4428 13.8647 92.6209 13.7188 92.683L13.7859 92.094C13.8045 91.9101 13.8423 91.6918 13.8694 91.5064L13.9626 90.9487C14.1679 91.0445 14.3095 91.116 14.5045 91.2304C14.6083 91.2915 14.7321 91.3766 14.8348 91.4436C14.904 91.4929 14.9609 91.5443 15.0248 91.5997Z" fill="#8D9576"/>
<path d="M13.8695 91.5063C14.3755 91.8003 14.3472 91.9598 13.786 92.094C13.8046 91.9101 13.8424 91.6918 13.8695 91.5063Z" fill="#8D9576"/>
<path d="M15.0246 91.5996C15.158 91.6851 15.3504 91.8658 15.4591 91.9835C15.3588 91.9703 15.1197 92.1425 14.9251 92.2067L14.9366 92.1731C15.0282 91.9045 15.2383 91.8012 15.0246 91.5996Z" fill="#8D9576"/>
<path d="M14.5046 91.2303C14.6084 91.2915 14.7322 91.3766 14.8349 91.4436C14.706 91.5986 14.6445 91.6741 14.4935 91.8037C14.5055 91.6811 14.5467 91.3363 14.5046 91.2303Z" fill="#8D9576"/>
<path d="M15.858 93.2814C15.9212 93.3623 15.9864 93.5161 15.9412 93.6159C15.8719 93.6495 15.892 93.6377 15.7926 93.6066C15.6785 93.5683 15.6859 93.5823 15.6279 93.5002C15.6253 93.3418 15.7228 93.3072 15.858 93.2814Z" fill="#8D9576"/>
<path d="M15.5258 93.5948C15.5962 93.6762 15.6626 93.828 15.6184 93.9338C15.5512 93.9692 15.5887 93.9584 15.4896 93.9312C15.4054 93.9041 15.374 93.9022 15.3158 93.8353C15.2721 93.6669 15.3866 93.6305 15.5258 93.5948Z" fill="#8D9576"/>
<path d="M13.6496 93.3901C14.9018 92.683 14.5235 93.9162 14.7553 94.6366C14.755 94.6356 14.7923 94.6877 14.8032 94.6872C14.9503 94.6798 15.0914 94.6978 15.2365 94.7173C14.8923 95.123 14.5963 95.5101 14.528 96.0552C14.4436 96.0487 14.3453 96.0436 14.2625 96.0318C14.2199 95.5382 14.2113 95.1318 13.6072 95.5508C13.5395 95.0232 13.6101 93.9214 13.6496 93.3901Z" fill="#8D9576"/>
<path d="M16.3435 93.3097C16.4005 93.4609 16.4672 93.6258 16.5094 93.7801C16.5854 94.027 16.6258 94.1814 16.6612 94.4387C16.6889 94.6839 16.7001 94.8773 16.7098 95.1218L16.7009 95.182C16.6927 95.3484 16.6814 95.4687 16.6595 95.6338C16.5033 95.564 16.3147 95.5997 16.1226 95.5674C16.0389 95.6212 16.0011 95.6578 15.9057 95.6664C15.5437 95.5392 15.6112 95.5079 15.2203 95.538C15.4322 95.4685 15.5881 95.4139 15.688 95.1953C15.866 94.8054 15.5823 94.681 15.2489 94.7089C15.3582 94.5974 15.7311 94.2714 15.7783 94.1811C15.6565 93.8668 16.1029 93.4642 16.3435 93.3097Z" fill="#8D9576"/>
<path d="M16.5093 93.7801C16.5854 94.027 16.6258 94.1814 16.6611 94.4386C16.4985 94.5472 16.3991 94.5052 16.2334 94.5271C16.1931 94.5325 16.0868 94.7559 15.9231 94.7605C15.8564 94.6655 15.9083 94.4726 15.9277 94.3506C15.872 94.2947 15.8511 94.2877 15.8249 94.2183C15.8991 94.0801 16.3541 93.7943 16.5093 93.7801Z" fill="#8D9576"/>
<path d="M16.7007 95.1819C16.6288 95.2702 16.5355 95.3812 16.4372 95.441C16.1444 95.6183 15.8083 95.1083 15.9155 94.8862C15.9379 94.8802 15.9784 94.8688 16.001 94.871C16.4418 94.9145 16.4316 94.8309 16.7097 95.1217L16.7007 95.1819Z" fill="#8D9576"/>
<path d="M14.4296 96.6167C14.5528 96.5691 14.666 96.5082 14.7933 96.5355C15.0305 96.7434 14.6408 97.0805 15.3855 97.584C14.8529 97.7965 14.3995 97.8111 14.0373 97.2945C14.3614 97.2617 14.4351 96.8821 14.4296 96.6167Z" fill="#8D9576"/>
<path d="M15.5342 97.1357L15.8936 97.248C15.7452 97.3774 15.6455 97.4491 15.473 97.5486C15.5211 97.4087 15.5216 97.2838 15.5342 97.1357Z" fill="#8D9576"/>
<path d="M13.7938 96.7431L14.069 96.7128L13.9056 97.0441L13.7938 96.7431Z" fill="#8D9576"/>
<path d="M15.1877 95.4746L15.2102 95.477L15.2271 95.4982C15.1649 95.5197 15.1638 95.5151 15.1189 95.5615C15.1006 95.6902 15.1896 95.7365 15.2013 95.8796C15.139 95.9144 15.1312 95.8949 15.0392 95.8767C15.0296 95.6297 14.9985 95.4846 14.9415 95.2449L15.1877 95.4746Z" fill="#8D9576"/>
<path d="M19.9653 99.9389C20.1165 100.05 20.2518 100.182 20.3678 100.33C20.5199 100.501 20.6317 100.644 20.7698 100.825L20.2523 101.008L19.697 101.196C19.522 101.25 19.3107 101.322 19.1363 101.367C18.9215 101.43 18.7074 101.495 18.4891 101.546C17.8715 101.724 17.0707 101.9 16.4303 101.97C16.0644 102.009 15.6142 102.044 15.2503 101.998C15.1601 101.985 15.0513 101.971 14.9641 101.951C14.1449 101.766 14.0179 101.244 14.1989 100.51C14.2563 100.342 14.3004 100.254 14.3897 100.103C14.7208 99.5738 15.2542 99.2765 15.8193 99.0614C16.191 98.9399 16.5482 98.8794 16.9367 98.8541C17.1846 98.8525 17.3653 98.8621 17.6097 98.8808C17.7825 98.8999 17.9079 98.9254 18.0786 98.9613C18.1979 98.9841 18.3834 99.048 18.5043 99.0862C18.9037 99.215 19.1903 99.3764 19.5417 99.5969L19.8225 99.8035L19.9653 99.9389Z" fill="#8D9576"/>
<path d="M19.9652 99.9389C20.1164 100.05 20.2517 100.182 20.3677 100.33C20.5198 100.501 20.6316 100.644 20.7697 100.825L20.2522 101.008L19.6969 101.196C19.5219 101.25 19.3107 101.322 19.1363 101.367C18.9214 101.43 18.7073 101.495 18.489 101.546C18.7745 100.595 18.4284 100.638 17.6069 100.702C17.4412 100.715 17.2015 100.761 17.0521 100.687C17.0343 100.652 16.9765 100.378 16.9342 100.266L16.9491 100.24C17.0482 100.108 17.2724 99.711 17.3525 99.652C17.3895 99.6584 17.4755 99.6749 17.5059 99.6597C17.7655 99.5304 17.9945 99.227 18.0785 98.9613C18.1978 98.9841 18.3834 99.0481 18.5043 99.0862C18.9036 99.215 19.1902 99.3764 19.5416 99.5969L19.8224 99.8035L19.9652 99.9389Z" fill="#8D9576"/>
<path d="M19.9654 99.9389C20.1166 100.05 20.2519 100.182 20.3679 100.33C20.52 100.501 20.6318 100.644 20.7699 100.825L20.2524 101.008L19.6971 101.197C19.5221 101.25 19.3108 101.322 19.1364 101.367C19.2011 101.183 19.2792 100.91 19.4204 100.779C19.5417 100.667 19.6171 100.69 19.7744 100.698L19.8391 100.49C19.7 100.541 19.5821 100.612 19.4439 100.538C19.3462 100.42 19.377 100.283 19.3867 100.13C19.3614 100.138 19.2293 100.181 19.2064 100.18C19.0408 100.168 18.8719 99.8305 18.8046 99.6991C18.7087 99.5117 18.5116 99.2879 18.5044 99.0862C18.9038 99.2151 19.1904 99.3765 19.5418 99.5969L19.8226 99.8036L19.9654 99.9389Z" fill="#8D9576"/>
<path d="M19.773 100.703C20.0173 100.773 20.086 100.83 20.2522 101.008L19.6969 101.196C19.7022 101.014 19.7307 100.878 19.773 100.703Z" fill="#8D9576"/>
<path d="M19.5416 99.5969L19.8224 99.8035L19.7905 99.8274C19.6072 99.9653 19.6251 100.002 19.3851 100.125C19.4283 99.8973 19.4612 99.8138 19.5416 99.5969Z" fill="#8D9576"/>
<path d="M19.9652 99.9388C20.1165 100.05 20.2518 100.182 20.3678 100.33C20.2094 100.383 20.011 100.426 19.8472 100.466C19.937 100.307 20.0427 100.242 20.085 100.124C20.0696 100.024 20.0472 100.03 19.9652 99.9388Z" fill="#8D9576"/>
<path d="M18.1749 99.4025C18.2085 99.5385 18.1684 99.6539 18.0246 99.6915C17.9509 99.663 17.9806 99.6865 17.9378 99.6128C17.8809 99.5208 17.8203 99.4689 17.9007 99.3842C18.0008 99.362 18.0734 99.3844 18.1749 99.4025Z" fill="#8D9576"/>
<path d="M17.93 99.7536C17.972 99.8838 17.9539 99.9756 17.8253 100.043C17.733 100.037 17.7727 100.054 17.7042 99.9853L17.5674 99.7437C17.7175 99.7363 17.7824 99.7405 17.93 99.7536Z" fill="#8D9576"/>
<path d="M16.9347 100.266C16.9769 100.377 17.0348 100.652 17.0525 100.687C17.202 100.761 17.4417 100.715 17.6073 100.702C18.4289 100.638 18.775 100.595 18.4895 101.546C17.8719 101.724 17.0711 101.899 16.4307 101.97C16.6863 101.321 16.377 101.378 15.8529 101.421C15.8298 101.34 15.8079 101.259 15.7874 101.177C16.2769 101.007 16.6197 100.673 16.9347 100.266Z" fill="#8D9576"/>
<path d="M18.0785 98.9612C17.9945 99.2269 17.7655 99.5303 17.5059 99.6596C17.4755 99.6748 17.3895 99.6583 17.3526 99.6519C17.2725 99.7109 17.0482 100.108 16.9491 100.24C16.8591 99.5715 16.1508 99.8343 16.1967 100.317C16.2106 100.462 16.3539 100.55 16.4685 100.629C16.3849 100.628 15.8778 100.646 15.8501 100.63L15.832 100.53C15.8907 100.493 15.9828 100.532 16.0984 100.533C16.2662 100.43 16.1401 100.135 16.0479 100.009C15.9637 99.8931 15.8897 99.8872 15.9196 99.7244C15.9615 99.4955 15.9218 99.2672 15.8192 99.0613C16.1909 98.9398 16.5481 98.8793 16.9366 98.8539C17.1846 98.8524 17.3652 98.862 17.6096 98.8806C17.7825 98.8998 17.9078 98.9253 18.0785 98.9612Z" fill="#8D9576"/>
<path d="M16.9367 98.8542C17.1846 98.8527 17.3653 98.8623 17.6097 98.8809C17.5886 99.1051 17.449 99.4429 17.3303 99.6325L17.171 99.546C17.0497 99.5863 16.8876 99.6569 16.7694 99.6177C16.7537 99.5027 16.93 99.3523 16.9338 99.2726C16.9415 99.1142 16.8919 99.026 16.9367 98.8542Z" fill="#8D9576"/>
<path d="M16.4012 99.0035C16.5608 99.1293 16.7445 99.4962 16.5921 99.6737C16.5087 99.701 16.448 99.6787 16.3603 99.6615C15.8081 99.4524 15.983 98.9992 16.4012 99.0035Z" fill="#8D9576"/>
<path d="M14.3896 100.103C14.4629 100.214 14.5121 100.295 14.5768 100.41C14.4333 100.442 14.3387 100.463 14.1988 100.51C14.2562 100.342 14.3004 100.254 14.3896 100.103Z" fill="#8D9576"/>
<path d="M15.2257 101.734C15.2298 101.823 15.2405 101.909 15.2505 101.998C15.1602 101.984 15.0515 101.971 14.9642 101.951C15.0438 101.879 15.1414 101.803 15.2257 101.734Z" fill="#8D9576"/>
<path d="M18.3056 88.6392C18.3787 88.7046 18.5223 88.8252 18.577 88.8978L18.7963 89.1459C19.3831 89.9512 19.6853 90.8499 19.3012 91.811C19.2385 91.91 19.1777 92.0081 19.1096 92.1034L19.0136 92.2009C18.6617 92.4889 18.4214 92.5976 18.003 92.3517C17.5951 92.0053 17.4358 91.6739 17.1958 91.2032C16.9733 90.6988 16.7991 90.1772 16.6421 89.6498C16.5882 89.4865 16.545 89.3149 16.5005 89.1487C16.4605 89.0209 16.421 88.8331 16.3885 88.6985C16.3509 88.566 16.3128 88.3752 16.2805 88.2366C16.2457 88.1014 16.223 87.9656 16.1982 87.8283C16.3772 87.8395 16.5097 87.8564 16.6877 87.8829L16.9478 87.9413C17.0599 87.9693 17.1772 88.0121 17.2874 88.0492L17.5238 88.1461C17.8391 88.2948 18.0358 88.4248 18.3056 88.6392Z" fill="#8D9576"/>
<path d="M18.3056 88.6392C18.3787 88.7046 18.5223 88.8252 18.577 88.8978L18.7963 89.1459C18.6619 89.2409 18.4759 89.5058 18.4006 89.6525L18.3991 89.6706C18.2959 89.813 18.2146 90.0017 18.1518 90.1662C18.0395 90.197 17.8944 90.2322 17.7867 90.2692C17.4601 89.7373 17.2989 88.895 16.6421 89.6498C16.5882 89.4865 16.545 89.3149 16.5005 89.1487C16.4605 89.0209 16.421 88.8331 16.3885 88.6985C16.3509 88.566 16.3128 88.3752 16.2805 88.2366C16.2457 88.1014 16.223 87.9656 16.1982 87.8283C16.3772 87.8395 16.5097 87.8564 16.6877 87.8829L16.9478 87.9413C17.0599 87.9693 17.1772 88.0121 17.2874 88.0492L17.5238 88.1461C17.8391 88.2948 18.0358 88.4248 18.3056 88.6392Z" fill="#8D9576"/>
<path d="M17.5238 88.1461C17.8391 88.2948 18.0358 88.4248 18.3056 88.6392C18.1408 88.6933 17.4661 88.7232 17.3022 88.6438C17.2587 88.5912 17.26 88.5749 17.2416 88.5091L17.2155 88.4924C17.1231 88.5327 17.0348 88.606 16.9416 88.6087C16.8331 88.553 16.835 88.4788 16.8057 88.3626L16.7764 88.3547C16.6962 88.4378 16.6832 88.4421 16.7513 88.5495C16.8654 88.7295 16.6209 88.9923 16.5005 89.1486C16.4605 89.0209 16.421 88.8331 16.3885 88.6985C16.3509 88.5659 16.3128 88.3752 16.2805 88.2366C16.2457 88.1013 16.223 87.9656 16.1982 87.8283C16.3772 87.8395 16.5097 87.8563 16.6877 87.8829L16.9478 87.9413C17.0599 87.9693 17.1772 88.0121 17.2874 88.0491L17.5238 88.1461Z" fill="#8D9576"/>
<path d="M16.2805 88.2367C16.4024 88.2752 16.5618 88.3052 16.6245 88.4148C16.6182 88.5648 16.5038 88.6128 16.3884 88.6986C16.3508 88.566 16.3128 88.3753 16.2805 88.2367Z" fill="#8D9576"/>
<path d="M17.2873 88.0496L17.5237 88.1466C17.4168 88.2771 17.3474 88.3537 17.2275 88.4722C17.2287 88.2951 17.222 88.2177 17.2873 88.0496Z" fill="#8D9576"/>
<path d="M16.6875 87.8832L16.9476 87.9416C16.904 88.1111 16.8848 88.1482 16.807 88.3018C16.7707 88.1361 16.7209 88.021 16.6875 87.8832Z" fill="#8D9576"/>
<path d="M18.5768 88.898L18.7962 89.1461C18.6617 89.241 18.4758 89.506 18.4005 89.6527C18.2645 89.4871 18.3103 89.4194 18.3499 89.2233C18.238 89.228 18.1043 89.2619 18.0665 89.141C18.0893 89.0515 18.0929 89.0025 18.1909 88.9871C18.2674 89.0264 18.2858 89.063 18.3377 89.1316L18.3575 89.158L18.3915 89.145C18.437 89.0339 18.457 88.932 18.5768 88.898Z" fill="#8D9576"/>
<path d="M18.0428 89.2754C18.107 89.3356 18.1888 89.4072 18.1943 89.4948C18.1378 89.553 18.1481 89.5338 18.0397 89.541C17.9596 89.5399 17.9933 89.5527 17.9331 89.507L17.9261 89.4511C17.9581 89.3513 17.9637 89.349 18.0428 89.2754Z" fill="#8D9576"/>
<path d="M18.399 89.6709C18.3833 89.8285 18.0324 90.3864 17.9939 90.6325C17.956 90.8739 17.9693 91.0897 17.9723 91.3284C17.8694 91.3629 17.9177 91.3636 17.823 91.3424C17.6486 91.1868 17.7245 91.0422 17.4999 90.9805C17.3539 91.0047 17.2978 91.0936 17.1956 91.2035C16.9731 90.6991 16.7989 90.1775 16.6419 89.65C17.2987 88.8953 17.4599 89.7376 17.7866 90.2695C17.8942 90.2325 18.0394 90.1973 18.1516 90.1665C18.2144 90.002 18.2957 89.8133 18.399 89.6709Z" fill="#8D9576"/>
<path d="M19.0135 92.201C18.6616 92.489 18.4214 92.5976 18.003 92.3518C18.2036 92.1506 18.1929 91.9898 18.0805 91.7404C18.4512 91.4404 18.3546 91.6124 18.5285 91.9048C18.6169 92.0537 18.8549 92.1263 19.0135 92.201Z" fill="#8D9576"/>
<path d="M19.0109 91.8142L19.3015 91.8113C19.2388 91.9103 19.178 92.0084 19.1099 92.1037C19.078 92.0068 19.045 91.9103 19.0109 91.8142Z" fill="#8D9576"/>
<path d="M18.3231 90.7221C18.2825 90.8347 18.3447 90.9041 18.396 91.0085L18.3827 91.0412L18.3335 91.0462L18.3049 91.0032C18.2458 90.8816 18.1676 90.7631 18.0958 90.6475L18.3231 90.7221Z" fill="#8D9576"/>
<path d="M22.9464 95.51C23.0702 95.5828 23.3006 95.8195 23.3912 95.936C23.4676 96.0337 23.5579 96.1435 23.6282 96.244L23.2463 96.3779C23.1087 96.4238 22.9544 96.4798 22.8173 96.5212C22.6764 96.5639 22.5281 96.6119 22.3868 96.6503L21.8977 96.794C21.3491 96.9355 20.9068 97.0297 20.3435 97.1104C19.5115 97.1943 18.319 97.2206 18.65 95.9958C18.6845 95.8921 18.7342 95.8022 18.7833 95.7044C19.3502 94.9019 20.3062 94.6791 21.2422 94.7671C21.3462 94.7789 21.4894 94.8083 21.5956 94.8267C21.6865 94.8454 21.8177 94.8873 21.9103 94.9137C22.2033 95.0196 22.4349 95.145 22.6978 95.3085C22.762 95.3582 22.8531 95.418 22.9215 95.466L22.9464 95.51Z" fill="#8D9576"/>
<path d="M22.9462 95.5102C23.07 95.583 23.3004 95.8197 23.391 95.9362C23.4674 96.0338 23.5577 96.1436 23.628 96.2441L23.2461 96.378C23.1085 96.4239 22.9542 96.4799 22.8171 96.5213C22.6762 96.5641 22.5279 96.612 22.3866 96.6504L21.8975 96.7941C22.2063 95.8566 21.4177 96.1712 20.8013 96.1589C20.7979 96.0215 20.7795 95.9557 20.7187 95.8297L20.7367 95.7875L20.7203 95.6976C20.8015 95.5564 20.8668 95.6172 20.9626 95.3576L20.8971 95.2821C20.9375 95.2918 20.9748 95.3063 21.0131 95.3225C21.1176 95.2646 21.2273 94.8859 21.242 94.7672C21.346 94.779 21.4892 94.8085 21.5954 94.8269C21.6863 94.8455 21.8175 94.8875 21.9101 94.9139C22.203 95.0197 22.4347 95.1452 22.6976 95.3086C22.7618 95.3583 22.8528 95.4181 22.9213 95.4662L22.9462 95.5102Z" fill="#8D9576"/>
<path d="M22.9463 95.51C23.0701 95.5828 23.3004 95.8195 23.3911 95.936C23.4675 96.0337 23.5578 96.1435 23.628 96.244L23.2462 96.3779C23.1086 96.4238 22.9543 96.4798 22.8171 96.5212C22.6762 96.5639 22.5279 96.6119 22.3867 96.6503C22.4691 96.4218 22.5073 96.3442 22.6352 96.1419C22.7619 96.1437 22.8685 96.1671 22.926 96.0303L22.898 95.9973C22.7928 96.032 22.7639 96.046 22.656 96.0528C22.5119 95.9568 22.6214 95.8941 22.5683 95.7325C22.52 95.7322 22.5047 95.7338 22.4582 95.7421L22.4158 95.7501C22.269 95.6652 21.9285 95.0762 21.9101 94.9137C22.2031 95.0196 22.4348 95.145 22.6976 95.3085C22.7618 95.3582 22.8529 95.418 22.9214 95.466L22.9463 95.51Z" fill="#8D9576"/>
<path d="M22.8172 96.521C22.8242 96.3816 22.8057 96.2516 22.9333 96.1788C23.0666 96.1864 23.1493 96.2869 23.2462 96.3777C23.1086 96.4237 22.9543 96.4797 22.8172 96.521Z" fill="#8D9576"/>
<path d="M22.6979 95.3084C22.7621 95.3581 22.8532 95.4179 22.9216 95.466C22.8151 95.5496 22.7003 95.6444 22.5889 95.7194C22.6167 95.5137 22.636 95.4972 22.6979 95.3084Z" fill="#8D9576"/>
<path d="M22.9463 95.5099C23.0701 95.5827 23.3004 95.8194 23.3911 95.9359C23.2528 95.8395 23.0651 95.9245 22.9078 95.9673C22.9751 95.8884 23.0559 95.826 23.0981 95.7328C23.082 95.6297 23.0246 95.5934 22.9463 95.5099Z" fill="#8D9576"/>
<path d="M21.2425 94.7672C21.3465 94.779 21.4898 94.8084 21.596 94.8268C21.5428 94.9412 21.507 95.0049 21.441 95.1126C21.5183 95.1739 21.5861 95.11 21.6768 95.1933C21.6855 95.2818 21.6631 95.3353 21.5853 95.3835C21.4635 95.3439 21.4298 95.1708 21.3616 95.2018C20.9721 95.3793 20.9695 95.4908 20.7372 95.7874L20.7208 95.6975C20.8021 95.5564 20.8674 95.6171 20.9632 95.3575L20.8977 95.282C20.938 95.2917 20.9753 95.3063 21.0137 95.3224C21.1181 95.2646 21.2278 94.8858 21.2425 94.7672Z" fill="#8D9576"/>
<path d="M21.4456 95.4235L21.484 95.4749C21.4962 95.5632 21.5011 95.521 21.4654 95.6059C21.3803 95.6543 21.4242 95.6445 21.3301 95.6413C21.2797 95.5512 21.2439 95.5217 21.2533 95.4352C21.3161 95.3978 21.37 95.4148 21.4456 95.4235Z" fill="#8D9576"/>
<path d="M20.8014 96.1587C21.4179 96.1711 22.2064 95.8565 21.8976 96.794C21.349 96.9355 20.9068 97.0297 20.3435 97.1104C20.3927 96.9942 20.4399 96.8942 20.4139 96.7707C20.2448 96.5589 19.957 96.7784 19.854 96.594C19.8895 96.4428 20.1332 96.4042 20.2742 96.2881C20.4578 96.1367 20.5696 96.0114 20.7188 95.8296C20.7797 95.9556 20.7981 96.0214 20.8014 96.1587Z" fill="#8D9576"/>
<path d="M18.7834 95.7043C18.8544 95.798 18.882 95.8027 18.8959 95.9025C18.8402 95.9608 18.7331 95.975 18.6502 95.9957C18.6847 95.892 18.7344 95.802 18.7834 95.7043Z" fill="#8D9576"/>
<path d="M20.1881 95.9548C20.2106 95.9802 20.3165 96.0644 20.3486 96.0909C20.2356 96.0875 20.1109 96.0932 19.9969 96.0959C19.9239 96.1077 19.959 96.1126 19.8894 96.0744L19.8853 96.0322L19.9329 96.0051C20.0651 96.0277 20.085 96.0442 20.1881 95.9548Z" fill="#8D9576"/>
<path d="M24.4592 91.8621C24.5332 91.9327 24.609 92.0012 24.6753 92.0789C24.7665 92.1904 24.8721 92.3142 24.9564 92.4293L24.6174 92.5514C24.4933 92.5921 24.3385 92.648 24.2157 92.6827L23.8482 92.7932L23.4003 92.9271C22.8814 93.0534 22.5269 93.1318 22.0032 93.2088C21.6121 93.2469 21.1945 93.2729 20.8176 93.1335C20.4449 92.9387 20.4142 92.7084 20.4737 92.3187L20.4951 92.2166C20.5246 92.1323 20.5852 92.016 20.6254 91.9326C20.901 91.5655 21.1743 91.3844 21.6039 91.2337C21.7205 91.1976 21.7847 91.1753 21.9082 91.1599L21.9161 91.153C22.0612 91.1117 22.2014 91.1042 22.3512 91.09C22.5046 91.0835 22.6417 91.0988 22.7943 91.1119C22.9034 91.1247 23.0221 91.1477 23.1313 91.1661C23.1718 91.1723 23.349 91.2257 23.3988 91.2395C23.7071 91.3511 23.8485 91.4242 24.1281 91.5978L24.2993 91.726L24.4592 91.8621Z" fill="#8D9576"/>
<path d="M24.4594 91.8624C24.5333 91.9331 24.6091 92.0016 24.6754 92.0793C24.7667 92.1908 24.8723 92.3146 24.9566 92.4297L24.6176 92.5518C24.4935 92.5925 24.3387 92.6483 24.2158 92.6831L23.8483 92.7936L23.4004 92.9275C23.68 92.1196 22.9792 92.3423 22.4288 92.3605C22.4082 92.2142 22.4022 92.1813 22.3491 92.0441L22.3734 92.0174C22.244 91.63 21.9022 91.7155 21.8464 92.0448L21.828 92.0536C21.8028 91.9845 21.7599 91.8451 21.7059 91.8011C21.6147 91.7269 21.6663 91.6632 21.6977 91.5554C21.6645 91.4489 21.6333 91.3418 21.6041 91.2341C21.7206 91.1979 21.7849 91.1757 21.9084 91.1603L21.9163 91.1533C22.0614 91.1121 22.2015 91.1046 22.3514 91.0904C22.5047 91.0838 22.6418 91.0991 22.7944 91.1123C22.9036 91.125 23.0223 91.148 23.1314 91.1665C23.1719 91.1727 23.3492 91.226 23.3989 91.2398C23.7073 91.3515 23.8486 91.4245 24.1282 91.5981L24.2995 91.7264L24.4594 91.8624Z" fill="#8D9576"/>
<path d="M22.7945 91.1121C22.9036 91.1248 23.0223 91.1479 23.1315 91.1663C23.0871 91.2591 23.0482 91.334 22.9976 91.4234C23.076 91.4798 23.1218 91.4193 23.2049 91.4938C23.2129 91.578 23.215 91.5352 23.1705 91.6269L23.1214 91.6604C23.0052 91.6212 23.0139 91.5022 22.9331 91.4913C22.5553 91.7229 22.6002 91.6527 22.3735 92.0173C22.244 91.6298 21.9023 91.7153 21.8465 92.0446L21.8281 92.0534C21.8028 91.9843 21.76 91.8449 21.7059 91.8009C21.6147 91.7267 21.6663 91.663 21.6978 91.5552C21.6646 91.4488 21.6334 91.3416 21.6041 91.2339C21.7207 91.1977 21.785 91.1755 21.9084 91.1601L21.9163 91.1532C22.0614 91.1119 22.2016 91.1044 22.3514 91.0902C22.5048 91.0836 22.6419 91.0989 22.7945 91.1121Z" fill="#8D9576"/>
<path d="M22.7945 91.1121C22.8334 91.4803 22.4252 91.7429 22.2452 91.596C22.2409 91.4803 22.3041 91.4646 22.3493 91.3894C22.3403 91.4043 22.3466 91.1277 22.3515 91.0902C22.5048 91.0836 22.6419 91.0989 22.7945 91.1121Z" fill="#8D9576"/>
<path d="M21.9163 91.1531C22.0709 91.2412 22.2166 91.4461 22.1296 91.6192C21.9245 91.7442 21.5048 91.504 21.9084 91.16L21.9163 91.1531Z" fill="#8D9576"/>
<path d="M24.4595 91.8625C24.5334 91.9331 24.6092 92.0016 24.6755 92.0793C24.7667 92.1909 24.8723 92.3146 24.9567 92.4298L24.6176 92.5519C24.4936 92.5925 24.3388 92.6484 24.2159 92.6831L23.8484 92.7937C23.9024 92.6072 23.9599 92.5046 24.0579 92.3425C24.1361 92.3454 24.1818 92.3524 24.2575 92.3298C24.3097 92.2604 24.2952 92.2978 24.3063 92.2147C24.2036 92.2388 24.1291 92.2756 24.0431 92.2459C23.9799 92.1596 24.0326 92.0886 23.9992 91.98C23.9549 91.981 23.8453 91.9875 23.8191 91.9662C23.7061 91.8746 23.4333 91.3574 23.399 91.2399C23.7074 91.3515 23.8487 91.4246 24.1283 91.5982L24.2996 91.7265L24.4595 91.8625Z" fill="#8D9576"/>
<path d="M24.2158 92.6828C24.2319 92.5603 24.2198 92.4078 24.3502 92.3733C24.4603 92.4077 24.5272 92.4771 24.6175 92.5515C24.4934 92.5922 24.3386 92.6481 24.2158 92.6828Z" fill="#8D9576"/>
<path d="M24.1281 91.598L24.2994 91.7262C24.2268 91.802 24.1808 91.8659 24.0839 91.9024L24.0446 91.8869C24.029 91.7976 24.0869 91.6807 24.1281 91.598Z" fill="#8D9576"/>
<path d="M24.4592 91.8624C24.5332 91.9331 24.609 92.0016 24.6753 92.0793C24.5567 92.1246 24.5233 92.1407 24.3982 92.1516L24.3823 92.1253C24.4275 92.0579 24.458 92.0141 24.4943 91.9402L24.4592 91.8624Z" fill="#8D9576"/>
<path d="M22.9967 91.6875C23.0559 91.7633 23.0451 91.7742 23.0169 91.8563C22.938 91.9121 22.9792 91.9022 22.8921 91.8987C22.8538 91.8337 22.8217 91.7961 22.8222 91.7217C22.8914 91.6754 22.8974 91.6914 22.9967 91.6875Z" fill="#8D9576"/>
<path d="M22.4289 92.3604C22.9793 92.3422 23.68 92.1195 23.4005 92.9274C22.8816 93.0536 22.5271 93.132 22.0034 93.209C22.0671 93.0802 22.1226 92.9708 22.0259 92.853C21.8573 92.7827 21.681 92.877 21.569 92.7548C21.5945 92.6148 21.9247 92.5003 22.065 92.3642C22.2052 92.2281 22.2284 92.2006 22.3491 92.044C22.4023 92.1811 22.4083 92.214 22.4289 92.3604Z" fill="#8D9576"/>
<path d="M20.9162 92.5563C21.0157 92.5263 21.0887 92.4911 21.1864 92.5151C21.2811 92.6064 21.2458 92.6649 21.2181 92.7895C20.9729 92.8639 20.8987 92.8752 20.8177 93.1337C20.4451 92.9389 20.4143 92.7085 20.4738 92.3189C20.6511 92.4569 20.6943 92.5034 20.9162 92.5563Z" fill="#8D9576"/>
<path d="M20.6257 91.9328C20.6736 91.9997 20.7209 92.0454 20.7206 92.124C20.6536 92.1894 20.5948 92.1888 20.4955 92.2168C20.5249 92.1324 20.5855 92.0162 20.6257 91.9328Z" fill="#8D9576"/>
<path d="M21.989 92.2657C21.9863 92.2759 21.9834 92.286 21.9805 92.296C21.8652 92.3028 21.6915 92.3228 21.5846 92.2986L21.5943 92.2576C21.6521 92.1995 21.7988 92.2191 21.8938 92.1972L21.989 92.2657Z" fill="#8D9576"/>
<path d="M26.0195 88.8595C26.1102 88.9512 26.2146 89.0471 26.2851 89.1531C26.3401 89.2213 26.3938 89.29 26.4466 89.3597L26.1137 89.4763L25.712 89.6116L25.3349 89.7285C25.2108 89.7638 25.0234 89.8235 24.9026 89.8503C24.4166 89.9763 24.0084 90.072 23.5076 90.1346C23.0991 90.1727 22.713 90.2058 22.3171 90.0619C21.941 89.8672 21.9175 89.6279 21.9671 89.24C22.113 88.6662 22.5523 88.3661 23.073 88.1681C23.2008 88.128 23.2676 88.1056 23.4028 88.0862C23.5399 88.0422 23.7164 88.0332 23.8612 88.0218C24.0196 88.0155 24.1456 88.0264 24.3035 88.0379C24.4038 88.0492 24.5293 88.0765 24.6306 88.0954L24.8973 88.1681C25.1795 88.2588 25.378 88.3707 25.6256 88.5279L25.7969 88.6601C25.8669 88.7125 25.9532 88.7981 26.0195 88.8595Z" fill="#8D9576"/>
<path d="M26.0195 88.8596C26.1102 88.9513 26.2145 89.0471 26.285 89.1531C26.34 89.2213 26.3938 89.29 26.4466 89.3597L26.1137 89.4763L25.712 89.6116L25.3349 89.7285C25.2108 89.7638 25.0233 89.8235 24.9026 89.8503C25.1529 89.0041 24.4896 89.3036 23.9226 89.2846C23.9069 89.1433 23.8962 89.1042 23.8526 88.9682L23.8653 88.9513C23.7405 88.5564 23.4539 88.6231 23.3238 88.9761L23.3077 88.9747C23.2621 88.7991 23.2729 88.8075 23.1561 88.6683C23.1536 88.5972 23.1764 88.5528 23.2006 88.486C23.1653 88.3793 23.1343 88.2597 23.073 88.1682C23.2008 88.1281 23.2676 88.1056 23.4028 88.0862C23.5398 88.0422 23.7164 88.0332 23.8611 88.0218C24.0196 88.0155 24.1456 88.0264 24.3035 88.038C24.4037 88.0492 24.5293 88.0765 24.6305 88.0955L24.8973 88.1682C25.1795 88.2588 25.378 88.3707 25.6256 88.5279L25.7969 88.6601C25.8668 88.7125 25.9531 88.7981 26.0195 88.8596Z" fill="#8D9576"/>
<path d="M24.3035 88.0379C24.4037 88.0492 24.5293 88.0765 24.6305 88.0955C24.5783 88.2232 24.5493 88.2647 24.475 88.3785C24.5757 88.3743 24.6626 88.3702 24.7195 88.4714C24.6943 88.5453 24.7002 88.5231 24.6187 88.5773L24.5639 88.5752C24.5084 88.513 24.4991 88.482 24.4653 88.4073C24.3171 88.4507 24.4197 88.5497 24.1248 88.5713C24.0139 88.7048 23.969 88.821 23.8654 88.9513C23.7405 88.5564 23.4539 88.6231 23.3238 88.976L23.3077 88.9747C23.2621 88.7991 23.2729 88.8075 23.1561 88.6683C23.1536 88.5972 23.1764 88.5528 23.2006 88.486C23.1653 88.3793 23.1343 88.2597 23.073 88.1681C23.2008 88.1281 23.2676 88.1056 23.4028 88.0862C23.5398 88.0422 23.7164 88.0332 23.8611 88.0218C24.0196 88.0155 24.1456 88.0264 24.3035 88.0379Z" fill="#8D9576"/>
<path d="M23.8614 88.0216C24.0198 88.0153 24.1459 88.0262 24.3038 88.0378C24.2933 88.1782 24.2189 88.388 24.1465 88.5094L24.104 88.5361C23.8849 88.4342 23.8809 88.5657 23.7502 88.5233C23.7612 88.4932 23.7835 88.4265 23.7999 88.4022C23.8894 88.2696 23.8133 88.1611 23.8614 88.0216Z" fill="#8D9576"/>
<path d="M23.4031 88.0861C23.5736 88.1642 23.7199 88.4007 23.6475 88.5723L23.5788 88.597C23.2267 88.5185 23.0831 88.368 23.4031 88.0861Z" fill="#8D9576"/>
<path d="M26.0195 88.8595C26.1102 88.9512 26.2145 89.0471 26.2851 89.1531C26.34 89.2212 26.3938 89.29 26.4466 89.3597L26.1137 89.4762L25.712 89.6116L25.3349 89.7284C25.3978 89.5688 25.4609 89.3552 25.6106 89.2729C25.6797 89.2773 25.7086 89.2844 25.7746 89.2607C25.8099 89.1857 25.8103 89.2198 25.8018 89.1508C25.7188 89.1601 25.605 89.1864 25.537 89.1494C25.4952 89.0777 25.5041 88.9786 25.5025 88.8916C25.4218 88.9122 25.4257 88.9161 25.3456 88.8995C25.1957 88.8008 24.943 88.3328 24.8973 88.1681C25.1795 88.2588 25.378 88.3707 25.6256 88.5278L25.7969 88.6601C25.8668 88.7124 25.9532 88.798 26.0195 88.8595Z" fill="#8D9576"/>
<path d="M25.7121 89.6116C25.7329 89.4798 25.7193 89.3212 25.8676 89.3041C25.9776 89.3493 26.024 89.3993 26.1138 89.4763L25.7121 89.6116Z" fill="#8D9576"/>
<path d="M25.6257 88.528L25.797 88.6602C25.7223 88.734 25.673 88.7992 25.575 88.8297L25.5404 88.8082C25.5334 88.706 25.583 88.6247 25.6257 88.528Z" fill="#8D9576"/>
<path d="M26.0195 88.8596C26.1102 88.9513 26.2146 89.0471 26.2851 89.1531C26.1048 88.9771 26.1433 89.0853 25.8829 89.0663C25.891 88.9916 25.9668 88.921 26.0195 88.8596Z" fill="#8D9576"/>
<path d="M24.4949 88.6114C24.551 88.6886 24.5418 88.6959 24.514 88.7785C24.4361 88.8332 24.4775 88.8208 24.3877 88.8238C24.3492 88.756 24.3309 88.7342 24.3198 88.6556C24.3832 88.6033 24.3934 88.6201 24.4949 88.6114Z" fill="#8D9576"/>
<path d="M23.9224 89.2846C24.4894 89.3036 25.1527 89.004 24.9024 89.8502C24.4163 89.9762 24.0082 90.072 23.5074 90.1345C23.7311 89.555 23.239 89.8474 23.0835 89.7009C23.0818 89.6647 23.0687 89.5996 23.1132 89.5821C23.413 89.4627 23.639 89.2507 23.8346 88.992L23.8524 88.9681C23.896 89.1041 23.9067 89.1432 23.9224 89.2846Z" fill="#8D9576"/>
<path d="M22.4339 89.4849C22.5317 89.4495 22.5806 89.419 22.6781 89.4371C22.7806 89.5247 22.7403 89.5938 22.7156 89.7226C22.4713 89.7832 22.3863 89.8057 22.3175 90.0621C21.9414 89.8674 21.9179 89.6281 21.9675 89.2402C22.1582 89.3925 22.193 89.4393 22.4339 89.4849Z" fill="#8D9576"/>
<path d="M23.4965 89.1977C23.4916 89.2071 23.4866 89.2165 23.4817 89.226C23.3674 89.2306 23.1835 89.2487 23.08 89.2205C23.1123 89.1055 23.2727 89.1494 23.394 89.1207L23.4965 89.1977Z" fill="#8D9576"/>
<path d="M19.6303 86.1598C19.6933 86.2161 19.7926 86.2978 19.8428 86.3606L20.0077 86.5503C20.1071 86.686 20.1707 86.7736 20.2533 86.9196C20.316 87.0488 20.3695 87.1592 20.4232 87.293L20.4468 87.3729L20.5039 87.5782C20.6003 88.1206 20.5864 88.5578 20.1943 88.9916C19.8887 89.2325 19.7314 89.3155 19.3747 89.1101C19.0894 88.874 18.8923 88.5292 18.7406 88.1973C18.5691 87.8534 18.4062 87.3241 18.2948 86.9556C18.2587 86.8233 18.2211 86.6911 18.1824 86.5593L18.0889 86.1992L18.0128 85.8425L17.9414 85.5038C18.0617 85.513 18.2103 85.5397 18.3318 85.5582L18.5533 85.6055L18.7994 85.6801L19.0151 85.7698C19.275 85.8929 19.4045 85.9819 19.6303 86.1598Z" fill="#8D9576"/>
<path d="M20.5038 87.5783C20.6001 88.1207 20.5863 88.5578 20.1942 88.9917C19.8886 89.2325 19.7313 89.3156 19.3745 89.1102C19.0893 88.8741 18.8922 88.5293 18.7405 88.1974C18.8424 88.087 18.867 88.0156 19.0235 88.0357C19.1133 88.0955 19.1525 88.1996 19.2272 88.3011C19.3007 88.3267 19.2633 88.3262 19.3428 88.2913C19.4319 88.1035 19.2456 87.2245 19.7386 87.3336C19.9189 87.4537 19.8946 87.6064 19.7741 87.7592L19.7776 87.7827C20.0977 87.8066 20.1753 87.6511 20.5038 87.5783Z" fill="#8D9576"/>
<path d="M19.7974 88.7794C19.9558 88.9003 20.015 88.9245 20.1944 88.9916C19.8888 89.2325 19.7315 89.3156 19.3747 89.1102C19.701 88.7976 19.2588 88.7358 19.605 88.5175C19.6496 88.4894 19.6353 88.5022 19.687 88.5136C19.7554 88.5903 19.7685 88.6781 19.7974 88.7794Z" fill="#8D9576"/>
<path d="M19.5809 87.7672C19.6072 87.8084 19.6971 88.0199 19.7006 88.0641L19.6403 88.0906C19.5896 87.9916 19.4934 87.8695 19.505 87.7755L19.5809 87.7672Z" fill="#8D9576"/>
<path d="M19.8431 86.3609L20.0079 86.5505C20.1073 86.6863 20.1709 86.7739 20.2535 86.9199C20.3162 87.0491 20.3697 87.1595 20.4235 87.2933L20.447 87.3732L20.5042 87.5785C20.1757 87.6513 20.098 87.8068 19.778 87.7829L19.7744 87.7594C19.895 87.6066 19.9193 87.4539 19.739 87.3337C19.246 87.2247 19.4323 88.1037 19.3431 88.2915C19.2636 88.3264 19.3011 88.3269 19.2275 88.3013C19.1528 88.1998 19.1136 88.0957 19.0238 88.0359C18.8674 88.0158 18.8427 88.0872 18.7409 88.1976C18.5693 87.8537 18.4064 87.3244 18.2951 86.9559C18.8331 86.3904 18.939 86.996 19.2054 87.4549L19.4975 87.3762C19.5769 87.2142 19.7617 86.7856 19.6145 86.6296C19.5633 86.6302 19.5177 86.6295 19.4666 86.6279C19.4211 86.5729 19.436 86.6043 19.4357 86.5259C19.4875 86.4502 19.4541 86.4748 19.5355 86.4443C19.6544 86.4835 19.5832 86.5195 19.6769 86.5631C19.7361 86.47 19.7553 86.4075 19.8431 86.3609Z" fill="#8D9576"/>
<path d="M20.0074 86.5503C20.1069 86.686 20.1704 86.7737 20.2531 86.9196C20.1607 87.0063 20.0332 87.0056 19.9727 87.1367C19.9567 87.1712 19.9234 87.2116 19.8945 87.2368C19.8468 87.1955 19.8263 87.0962 19.8059 87.0303C19.7364 86.982 19.7519 87.0073 19.7183 86.9395C19.7633 86.8263 19.9186 86.634 20.0074 86.5503Z" fill="#8D9576"/>
<path d="M20.4465 87.3731C20.3528 87.517 20.2977 87.6188 20.0967 87.5637C20.0175 87.5421 19.9864 87.5095 19.9464 87.436C19.9399 87.207 20.2526 87.1775 20.423 87.2931L20.4465 87.3731Z" fill="#8D9576"/>
<path d="M19.0152 85.77C19.275 85.8931 19.4046 85.9821 19.6304 86.16C19.4627 86.1926 19.0509 86.2157 18.8814 86.1888C18.805 86.1348 18.7991 86.1221 18.7409 86.046C18.6526 86.0961 18.6009 86.1415 18.5101 86.1225C18.4555 86.0546 18.4505 86.0193 18.4247 85.9372L18.3925 85.9417C18.3387 86.034 18.4563 86.1884 18.3149 86.3934C18.275 86.452 18.2308 86.5076 18.1825 86.5595L18.089 86.1994L18.0129 85.8427L17.9415 85.504C18.0618 85.5132 18.2104 85.5399 18.3319 85.5584L18.5534 85.6057L18.7995 85.6803L19.0152 85.77Z" fill="#8D9576"/>
<path d="M18.0129 85.8427C18.1199 85.8711 18.1798 85.878 18.267 85.9444C18.3174 86.0732 18.1953 86.1353 18.089 86.1993L18.0129 85.8427Z" fill="#8D9576"/>
<path d="M19.0148 85.7699C18.9189 85.8576 18.8466 85.9403 18.7599 86.0361C18.7645 85.8819 18.7662 85.8331 18.799 85.6802L19.0148 85.7699Z" fill="#8D9576"/>
<path d="M18.3319 85.5585L18.5533 85.6058C18.5131 85.6963 18.4668 85.7947 18.4341 85.8874C18.4012 85.7776 18.3697 85.6667 18.3319 85.5585Z" fill="#8D9576"/>
<path d="M19.4367 86.6708C19.4887 86.7383 19.4982 86.7452 19.5327 86.8253L19.5058 86.8667L19.3903 86.8872C19.3228 86.8341 19.343 86.8673 19.3243 86.7872C19.359 86.7087 19.3643 86.7128 19.4367 86.6708Z" fill="#8D9576"/>
<path d="M23.807 85.887C24.103 85.8182 24.9345 85.8284 25.1323 86.0634C25.1246 86.1294 25.0636 86.1844 25.0176 86.239C24.9497 86.3145 24.8854 86.3849 24.8143 86.4575L24.63 86.6574C24.5168 86.7803 24.4185 86.8926 24.2907 87.0009C24.051 87.231 23.9191 87.3539 23.6541 87.5565C23.4198 87.7215 23.2378 87.8388 22.9552 87.9116C22.6517 87.9263 22.5559 87.8028 22.4386 87.5348C22.4311 87.5041 22.4246 87.473 22.4192 87.4418C22.3589 87.0787 22.5291 86.7909 22.7292 86.514C22.8032 86.4327 22.8472 86.3923 22.931 86.3208C22.9941 86.2675 23.0776 86.2068 23.1444 86.1552L23.4103 86.0148L23.6397 85.9313L23.807 85.887Z" fill="#8D9576"/>
<path d="M23.4102 86.0149C23.4851 86.1443 23.4876 86.2287 23.4939 86.3779L23.4898 86.378C23.5006 86.5223 23.4949 86.5654 23.4781 86.7057L23.4814 86.7258L23.4773 86.7571C23.4426 87.0079 23.3683 87.1355 23.2617 87.3698C23.2651 87.3813 23.2687 87.3929 23.2721 87.4043C23.4238 87.4429 23.5412 87.2553 23.6515 87.39C23.6628 87.4721 23.6725 87.4786 23.654 87.5566C23.4197 87.7216 23.2376 87.839 22.9551 87.9117C22.6516 87.9264 22.5558 87.8029 22.4385 87.535C22.431 87.5042 22.4245 87.4732 22.4191 87.442C22.3588 87.0789 22.529 86.7911 22.7291 86.5141C22.8031 86.4329 22.8471 86.3924 22.9309 86.321C22.994 86.2676 23.0775 86.2069 23.1443 86.1553L23.4102 86.0149Z" fill="#8D9576"/>
<path d="M23.4102 86.0149C23.4851 86.1443 23.4876 86.2287 23.4939 86.3779L23.4898 86.378C23.5006 86.5223 23.4949 86.5654 23.4781 86.7057C23.2629 86.522 23.1654 86.6219 23.1486 86.8633C22.9571 86.8756 22.9134 86.6106 22.7291 86.5141C22.8031 86.4329 22.8471 86.3924 22.9309 86.321C22.994 86.2676 23.0775 86.2069 23.1443 86.1553L23.4102 86.0149Z" fill="#8D9576"/>
<path d="M23.4102 86.0149C23.4851 86.1443 23.4875 86.2287 23.4939 86.3779L23.4897 86.378C23.3892 86.3773 23.3697 86.4011 23.2845 86.4553C23.2888 86.4615 23.155 86.1797 23.1443 86.1553L23.4102 86.0149Z" fill="#8D9576"/>
<path d="M22.9312 86.3211C23.0472 86.3563 23.2142 86.4258 23.1934 86.5692C23.1419 86.6085 23.1421 86.6106 23.0826 86.6341C22.9906 86.6322 22.9724 86.6385 22.8978 86.583C22.8348 86.4613 22.8556 86.4294 22.9312 86.3211Z" fill="#8D9576"/>
<path d="M22.4388 87.5348C22.7438 87.6098 22.8803 87.3894 23.0349 87.4809C23.0982 87.7041 22.8675 87.5933 22.9554 87.9115C22.6519 87.9262 22.5561 87.8027 22.4388 87.5348Z" fill="#8D9576"/>
<path d="M23.631 86.8901C23.7682 86.8073 24.1587 86.4741 24.3025 86.6216C24.4539 86.7768 24.4027 86.8571 24.2904 87.0011C24.0508 87.2312 23.9188 87.3541 23.6538 87.5567C23.6723 87.4786 23.6626 87.4722 23.6513 87.39C23.5411 87.2553 23.4236 87.4429 23.272 87.4044C23.2686 87.3929 23.265 87.3813 23.2615 87.3698C23.3682 87.1355 23.4424 87.0079 23.4771 86.7571L23.4813 86.7258C23.5392 86.7819 23.5785 86.8285 23.631 86.8901Z" fill="#8D9576"/>
<path d="M23.8067 85.8871C24.1027 85.8184 24.9343 85.8285 25.1321 86.0635C25.1244 86.1296 25.0634 86.1845 25.0174 86.2392C24.9494 86.3147 24.8852 86.3851 24.8141 86.4576L24.6298 86.6575C24.5908 86.4125 24.5799 86.4293 24.7081 86.2105L24.6963 86.1759C24.617 86.2257 24.6099 86.2501 24.5338 86.2464C24.4139 86.1479 24.2637 86.13 24.1265 86.0642C24.0185 86.0124 23.9107 85.9472 23.8067 85.8871Z" fill="#8D9576"/>
<path d="M25.0174 86.2391C24.9495 86.3146 24.8852 86.385 24.8142 86.4575C24.7797 86.3666 24.7466 86.3241 24.7637 86.2421C24.8323 86.2089 24.9361 86.2308 25.0174 86.2391Z" fill="#8D9576"/>
<path d="M23.6394 85.9314C23.6575 86.084 23.6676 86.3129 23.4937 86.3778C23.4874 86.2286 23.485 86.1442 23.4101 86.0148L23.6394 85.9314Z" fill="#8D9576"/>
<path d="M20.2693 84.387C20.7535 84.5348 21.1007 84.6953 21.4356 85.0877C21.4764 85.1427 21.5455 85.2302 21.58 85.2858L21.6823 85.4522C21.7199 85.5384 21.7657 85.6355 21.7961 85.723L21.8667 85.9645C21.9554 86.4794 21.9152 86.8747 21.4958 87.2425C21.2528 87.3679 21.0544 87.4377 20.8503 87.1893C20.6641 86.9521 20.6024 86.747 20.5229 86.4629C20.4339 86.1538 20.3934 85.8215 20.3483 85.503C20.3334 85.4197 20.3231 85.2833 20.3136 85.1952L20.2948 84.9413L20.2763 84.6237L20.2693 84.387Z" fill="#8D9576"/>
<path d="M20.2693 84.387C20.7535 84.5348 21.1007 84.6953 21.4356 85.0877C21.4764 85.1427 21.5455 85.2302 21.58 85.2858L21.5159 85.2774L21.4167 85.374L21.3993 85.3532C21.375 85.3246 21.3535 85.302 21.3275 85.2749C21.259 85.2916 21.2914 85.2776 21.2376 85.3347L21.2443 85.3716C21.2931 85.3958 21.3381 85.4175 21.3878 85.4398C21.3404 85.7397 21.367 85.7165 21.189 85.945L21.1776 85.9633C21.1055 85.9718 21.0294 85.9796 20.9579 85.9901C20.9122 85.8522 20.8482 85.6136 20.7819 85.49C20.6659 85.274 20.4961 85.401 20.3483 85.503C20.3334 85.4197 20.3231 85.2833 20.3136 85.1952L20.2948 84.9413L20.2763 84.6237L20.2693 84.387Z" fill="#8D9576"/>
<path d="M20.2693 84.387C20.7535 84.5348 21.1007 84.6953 21.4356 85.0877C21.221 85.0687 20.8934 85.0958 20.7995 84.8924C20.6889 84.9079 20.6503 84.9453 20.5875 84.9044C20.5824 84.8445 20.5814 84.8149 20.5673 84.7563L20.5296 84.7588C20.4546 84.9771 20.6579 84.8987 20.3136 85.1952L20.2948 84.9413L20.2763 84.6237L20.2693 84.387Z" fill="#8D9576"/>
<path d="M20.2765 84.6236C20.3434 84.6698 20.4209 84.7108 20.4542 84.7815C20.4336 84.8682 20.3769 84.8902 20.295 84.9412L20.2765 84.6236Z" fill="#8D9576"/>
<path d="M20.3483 85.5029C20.4961 85.4009 20.6659 85.2739 20.7818 85.49C20.8481 85.6135 20.9122 85.8522 20.9579 85.99C21.0293 85.9795 21.1055 85.9717 21.1776 85.9632C21.1347 86.0415 21.1071 86.0962 21.0702 86.1765C21.0105 86.3054 21.025 86.5664 20.909 86.6264C20.8151 86.4931 20.8298 86.4071 20.6781 86.3761C20.5959 86.4063 20.592 86.4133 20.5229 86.4628C20.4339 86.1538 20.3933 85.8215 20.3483 85.5029Z" fill="#8D9576"/>
<path d="M21.5798 85.2857L21.6821 85.4522C21.7197 85.5383 21.7655 85.6354 21.7959 85.723L21.8666 85.9645C21.7503 85.9099 21.6585 85.9256 21.5378 85.9677C21.4589 86.0858 21.6281 86.1619 21.6629 86.2793L21.6379 86.3154C21.5411 86.3262 21.544 86.329 21.4514 86.305C21.3261 86.1876 21.4729 86.1337 21.4099 85.9933C21.3349 85.9312 21.2836 85.9349 21.1888 85.9449C21.3668 85.7164 21.3402 85.7397 21.3877 85.4397C21.338 85.4174 21.293 85.3958 21.2442 85.3716L21.2374 85.3347C21.2912 85.2776 21.2589 85.2916 21.3274 85.2749C21.3533 85.3019 21.3748 85.3245 21.3992 85.3532L21.4165 85.3739L21.5157 85.2773L21.5798 85.2857Z" fill="#8D9576"/>
<path d="M21.6826 85.4524C21.7202 85.5385 21.766 85.6356 21.7964 85.7232C21.665 85.7652 21.6385 85.7835 21.5337 85.8736L21.5112 85.8566L21.5178 85.8964C21.5039 85.8325 21.4623 85.7735 21.4283 85.716C21.4264 85.5819 21.5539 85.4612 21.6826 85.4524Z" fill="#8D9576"/>
<path d="M20.8503 87.1892C20.9151 87.2027 20.8817 87.2015 20.952 87.1722C21.0618 87.0476 20.9526 86.8949 21.1022 86.8189C21.2503 86.8488 21.202 87.1177 21.4957 87.2424C21.2527 87.3678 21.0543 87.4376 20.8503 87.1892Z" fill="#8D9576"/>
<path d="M24.2741 83.3368L24.2023 83.5824L24.117 83.8559L24.0255 84.1226L23.9199 84.405C23.7871 84.7441 23.6855 84.9699 23.5055 85.2933C23.3513 85.5717 23.2297 85.7391 22.9776 85.939C22.6682 86.0685 22.5174 85.9712 22.3115 85.7203C22.0106 85.1427 22.2111 84.5143 22.6215 84.0515C22.6676 83.9883 22.75 83.9152 22.808 83.8586L22.9629 83.7342C23.3849 83.4247 23.7705 83.3715 24.2741 83.3368Z" fill="#8D9576"/>
<path d="M22.6214 84.0517C22.7477 84.0454 22.8309 84.1768 22.8511 84.2907C22.8117 84.3882 22.7811 84.374 22.7284 84.5175C22.8227 84.4703 22.7689 84.3891 22.8538 84.3758C22.8743 84.4239 22.9232 84.5548 22.9535 84.5855L23.01 84.6362C23.0408 84.8078 23.0782 84.9663 23.0658 85.1392C23.0598 85.2209 23.0472 85.2736 23.0823 85.3321C23.1873 85.2713 23.247 85.1896 23.3473 85.1607C23.4295 85.1858 23.4445 85.2099 23.5054 85.2935C23.3512 85.5718 23.2295 85.7392 22.9775 85.9392C22.668 86.0687 22.5172 85.9713 22.3113 85.7204C22.0104 85.1428 22.211 84.5145 22.6214 84.0517Z" fill="#8D9576"/>
<path d="M22.3114 85.7203C22.3716 85.7611 22.3728 85.7694 22.4426 85.7809C22.6876 85.721 22.6332 85.6797 22.7838 85.4816L22.842 85.4821C22.9251 85.536 22.8977 85.5014 22.938 85.581C22.8762 85.7618 22.8613 85.7765 22.9775 85.939C22.6681 86.0685 22.5172 85.9712 22.3114 85.7203Z" fill="#8D9576"/>
<path d="M22.9562 84.9145L22.96 84.971C22.9067 85.0792 22.8886 85.0877 22.796 85.1711C22.8383 85.0453 22.8541 84.9856 22.9562 84.9145Z" fill="#8D9576"/>
<path d="M23.2075 84.7175C23.2746 84.6157 23.343 84.5082 23.4074 84.4052C23.6078 84.0848 23.7279 84.1882 23.9199 84.4049C23.7871 84.744 23.6855 84.9698 23.5055 85.2932C23.4447 85.2097 23.4296 85.1855 23.3475 85.1605C23.2472 85.1893 23.1875 85.2711 23.0824 85.3318C23.0474 85.2734 23.06 85.2206 23.0659 85.139C23.0784 84.966 23.0409 84.8076 23.0101 84.636L23.2075 84.7175Z" fill="#8D9576"/>
<path d="M24.2741 83.3367L24.2023 83.5823L24.117 83.8557L24.0255 84.1225C23.9904 84.0655 23.9288 83.9711 23.9068 83.9095C23.8678 83.8005 23.9736 83.72 23.8971 83.641C23.8262 83.731 23.8375 83.7512 23.7539 83.7658L23.6528 83.7002C23.557 83.7326 23.5939 83.7628 23.5503 83.7801C23.4434 83.8228 23.0663 83.7492 22.9628 83.734C23.3848 83.4246 23.7705 83.3713 24.2741 83.3367Z" fill="#8D9576"/>
<path d="M24.2024 83.5824L24.1171 83.8559C24.0567 83.7996 23.9952 83.7578 23.9962 83.6733C24.0532 83.6133 24.1205 83.6056 24.2024 83.5824Z" fill="#8D9576"/>
<path d="M22.8081 83.8585C22.8743 83.9102 22.8818 83.9361 22.9209 84.0092C22.957 83.9842 22.9939 83.9601 23.0311 83.9367C23.0977 83.9749 23.0699 83.9483 23.1051 84.0297L23.0819 84.063L22.9409 84.0758C22.935 84.1634 22.915 84.2477 22.8925 84.3322C22.912 84.4176 22.9716 84.5129 22.9537 84.5853C22.9234 84.5546 22.8745 84.4236 22.854 84.3755C22.7691 84.3888 22.8229 84.47 22.7286 84.5173C22.7813 84.3737 22.8119 84.3879 22.8513 84.2905C22.8312 84.1765 22.7479 84.0451 22.6216 84.0514C22.6677 83.9882 22.7501 83.9151 22.8081 83.8585Z" fill="#8D9576"/>
<defs>
<linearGradient id="paint0_linear_95_1244" x1="375.757" y1="93.7152" x2="-131.566" y2="237.892" gradientUnits="userSpaceOnUse">
<stop stop-color="#FAF2EF"/>
<stop offset="0.5" stop-color="#D5D0BC"/>
<stop offset="1" stop-color="#CFD0BA"/>
</linearGradient>
</defs>
</svg>
