<svg width="195" height="320" viewBox="0 0 195 320" fill="none" xmlns="http://www.w3.org/2000/svg">
<path d="M172.119 147.581C174.875 150.063 177.769 152.385 180.789 154.537C182.481 155.69 184.008 156.715 185.771 157.774C188.249 159.221 190.418 160.383 192.976 161.687C194.881 162.549 196.569 163.341 198.557 164.013C204.749 166.389 211.733 168.192 218.347 168.806C221.06 169.055 224.496 168.982 226.712 169.222C228.425 169.218 233.994 168.974 235.695 168.664C239.772 168.023 242.978 167.444 246.989 166.379C253.988 164.21 259.333 162.097 265.681 158.18C274.612 152.239 282.212 145.212 286.073 134.892C287.092 131.844 287.776 129.364 287.977 126.128C288.965 115.217 283.793 104.772 271.734 104.503C269.933 104.17 265.492 104.483 263.609 104.695C257.814 105.31 248.566 107.879 243.126 109.965C231.827 113.828 219.441 120.193 208.865 125.631C205.284 127.569 201.733 129.555 198.206 131.588C195.153 133.266 192.145 135.025 189.186 136.862C186.254 138.588 183.348 140.359 180.47 142.173C177.665 143.943 174.882 145.746 172.119 147.581Z" fill="#8D9576" fill-opacity="0.1"/>
<path d="M172.12 147.58C174.875 150.062 177.77 152.384 180.79 154.536C182.482 155.689 184.008 156.714 185.771 157.773C188.25 159.22 190.419 160.382 192.977 161.686C194.882 162.548 196.57 163.34 198.558 164.012C204.75 166.388 211.734 168.191 218.348 168.805C221.061 169.054 224.497 168.981 226.713 169.221C226.127 167.336 228.453 161.937 229.398 160.225C230.721 157.817 232.054 155.867 234.339 154.279L236.832 154.466C238.045 150.099 239.261 146.363 241.155 142.212L241.205 141.992C240.53 140.428 239.541 139.14 238.702 137.666C237.776 136.038 237.767 136.03 238.206 134.338C237.468 133.758 222.214 138.644 220.384 139.155C208.544 142.461 208.332 135.021 208.866 125.63C205.285 127.568 201.734 129.554 198.207 131.587C195.154 133.265 192.146 135.024 189.187 136.861C186.255 138.587 183.349 140.358 180.471 142.172C177.666 143.942 174.883 145.745 172.12 147.58Z" fill="#8D9576" fill-opacity="0.1"/>
<path d="M172.121 147.581C174.877 150.063 177.771 152.385 180.791 154.537C182.483 155.69 184.01 156.715 185.773 157.774C188.251 159.222 190.42 160.383 192.978 161.687C194.883 162.549 196.571 163.341 198.56 164.014C204.751 166.389 211.735 168.192 218.349 168.806C217.748 164.932 214.223 163.373 211.865 160.568C208.667 156.768 207.15 153.962 202.248 152.18C201.142 152.825 200.128 153.531 199.07 154.246C197.833 145.654 196.136 145.141 189.441 149.969C189.711 148.338 189.836 147.235 189.955 145.585C191.724 145.448 192.821 145.234 194.502 144.767C197.563 140.75 197.869 136.406 198.209 131.589C195.156 133.266 192.148 135.025 189.188 136.863C186.256 138.589 183.35 140.359 180.472 142.173C177.668 143.943 174.884 145.746 172.121 147.581Z" fill="#8D9576" fill-opacity="0.1"/>
<path d="M189.185 136.863C186.254 138.589 183.348 140.359 180.47 142.173C184.139 144.89 185.336 145.615 189.963 145.547C190.07 142.507 189.883 139.844 189.185 136.863Z" fill="#8D9576" fill-opacity="0.1"/>
<path d="M192.976 161.686C194.881 162.548 196.569 163.34 198.557 164.012C198.787 159.934 199.265 158.935 198.997 154.332C195.837 156.955 194.854 158.087 192.976 161.686Z" fill="#8D9576" fill-opacity="0.1"/>
<path d="M180.79 154.537C182.482 155.689 184.008 156.715 185.771 157.773C188.024 154.827 188.486 153.582 189.43 149.972C186.532 152.103 183.861 152.774 180.79 154.537Z" fill="#8D9576" fill-opacity="0.1"/>
<path d="M157.812 200.649C159.315 202.798 161.272 204.892 163.026 206.863C164.07 207.897 165.119 208.966 166.21 209.945C167.709 211.188 169.247 212.499 170.787 213.681C172.012 214.554 173.198 215.431 174.493 216.198C178.795 218.847 183.411 220.948 188.234 222.453C190.081 222.921 192.01 223.441 193.866 223.84C195.964 224.163 197.93 224.469 200.046 224.674C216.236 224.961 232.072 221.765 241.639 207.293C242.766 205.263 243.472 203.737 244.148 201.482L244.54 199.886C245.689 192.543 244.498 187.525 237.362 184.137C236.062 183.691 235.211 183.473 233.883 183.159C232.613 182.889 231.09 182.725 229.786 182.551C223.269 182.499 220.506 182.59 214.042 183.515C204.457 185.116 196.496 187.276 187.296 189.994L178.778 192.782L171.503 195.376C169.76 195.847 166.459 197.211 164.657 197.892L157.812 200.649Z" fill="#8D9576" fill-opacity="0.1"/>
<path d="M157.811 200.649C159.315 202.798 161.271 204.891 163.025 206.863C164.069 207.897 165.118 208.965 166.209 209.945C167.709 211.188 169.246 212.499 170.786 213.681C172.011 214.554 173.198 215.431 174.492 216.197C178.794 218.847 183.411 220.947 188.234 222.453C190.081 222.921 192.009 223.441 193.865 223.839C195.963 224.162 197.929 224.469 200.046 224.674C200.189 222.539 202.207 216.206 203.461 214.681C205.073 211.453 206.31 209.399 208.333 206.316C207.736 203.705 206.705 203.371 207.03 200.377C204.874 199.526 193.255 202.111 190.007 201.231C184.447 199.726 186.198 194.295 187.296 189.994L178.778 192.782L171.503 195.376C169.759 195.847 166.458 197.211 164.656 197.891L157.811 200.649Z" fill="#8D9576" fill-opacity="0.1"/>
<path d="M157.81 200.647C159.313 202.796 161.27 204.889 163.024 206.861C164.068 207.895 165.117 208.963 166.208 209.942C167.707 211.186 169.245 212.497 170.785 213.679C172.01 214.552 173.196 215.428 174.491 216.195C178.793 218.844 183.409 220.945 188.232 222.451C187.824 219.329 185.982 217.833 184.456 215.166C182.615 211.951 182.019 210.108 178.745 208.182L176.261 209.212C176.556 203.036 175.636 202.221 169.991 204.74L170.925 201.739C172.218 201.916 172.99 201.881 174.274 201.851C177.147 199.147 177.773 196.412 178.776 192.78L171.501 195.373C169.758 195.844 166.457 197.209 164.655 197.889L157.81 200.647Z" fill="#8D9576" fill-opacity="0.1"/>
<path d="M171.504 195.374C169.76 195.845 166.46 197.209 164.658 197.889C166.429 200.254 167.897 201.261 170.938 201.734C171.372 199.236 171.561 197.918 171.504 195.374Z" fill="#8D9576" fill-opacity="0.1"/>
<path d="M170.788 213.68C172.012 214.553 173.199 215.429 174.493 216.196C175.356 213.526 175.794 212.03 176.245 209.26C173.676 210.547 172.604 211.526 170.788 213.68Z" fill="#8D9576" fill-opacity="0.1"/>
<path d="M163.025 206.862C164.069 207.896 165.118 208.964 166.209 209.944C168.346 207.96 168.635 207.487 169.901 204.846C167.292 205.94 165.503 205.998 163.025 206.862Z" fill="#8D9576" fill-opacity="0.1"/>
<path d="M193.867 223.836C195.965 224.159 197.93 224.465 200.047 224.67C200.191 222.535 202.208 216.203 203.462 214.678C200.431 213.633 198.998 215.817 197.069 217.871C195.579 220.091 194.734 221.274 193.867 223.836Z" fill="#8D9576" fill-opacity="0.1"/>
<path d="M192.529 215.324C192.198 216.231 192.098 216.342 192.227 217.262C193.398 218.927 195.36 218.43 197.066 217.87C196.43 216.783 195.618 215.044 194.633 214.442C193.508 214.335 193.359 214.591 192.529 215.324Z" fill="#8D9576" fill-opacity="0.1"/>
<path d="M187.296 189.992C186.199 194.293 184.448 199.725 190.008 201.229C193.256 202.109 204.875 199.524 207.03 200.375C206.705 203.369 207.736 203.703 208.333 206.314C210.771 201.461 217.78 195.586 222.966 193.444L222.032 190.429C214.776 191.251 211.276 192.613 214.042 183.513C204.457 185.114 196.496 187.273 187.296 189.992Z" fill="#8D9576" fill-opacity="0.1"/>
<path d="M51.9493 235.32C52.1017 235.676 52.0617 235.648 52.2936 235.948C54.8027 239.204 82.2846 248.834 87.8632 250.642C94.3194 252.743 100.839 254.646 107.412 256.347C115.212 258.3 123.11 259.844 131.071 260.969C184.339 268.281 221.627 250.316 252.595 207.023C263.285 192.077 271.291 178.037 280.521 162.152C293.595 139.649 308.103 114.849 329.014 98.8067C348.975 83.4945 373.305 79.097 397.919 82.5056L397.776 77.9268L397.668 74.5039C390.577 73.8222 385.797 73.5115 378.719 73.7721C325.968 75.1258 298.796 120.529 275.429 161.454C257.854 192.241 238.023 226.939 206.463 245.448C164.187 270.16 112.519 257.83 69.7402 241.178C64.8694 239.28 56.8361 235.012 51.9493 235.32Z" fill="#8D9576" fill-opacity="0.1"/>
<path d="M126.871 213.166C126.606 214.674 126.633 217.224 126.758 218.766C127.125 223.088 127.607 225.797 128.936 229.967L130.405 233.726C131.107 235.12 131.843 236.672 132.664 237.982C133.923 240.137 134.756 241.435 136.355 243.368C137.917 245.169 139.219 246.514 140.894 248.182L141.381 248.513C142.617 249.542 143.547 250.248 144.864 251.173C150.344 254.609 154.76 256.485 161.352 256.285C163.243 256.076 164.405 255.836 166.24 255.26L167.065 254.871C172.059 252.473 175.128 249.345 173.824 243.39C173.616 242.582 173.21 241.61 172.906 240.817L171.497 238.054C169.477 234.619 166.935 231.818 164.237 228.929C160.928 224.997 152.631 218.293 148.595 215.099C146.678 213.56 145.133 212.385 143.115 210.964L138.488 207.589C137.06 206.519 135.26 205.36 133.764 204.34L129.189 201.355C128.527 203.442 128.109 204.916 127.647 207.051C127.403 208.189 127.199 209.625 127.003 210.794C126.902 211.609 126.895 212.349 126.871 213.166Z" fill="#8D9576" fill-opacity="0.1"/>
<path d="M126.871 213.166C126.606 214.674 126.633 217.224 126.758 218.766C127.125 223.088 127.607 225.797 128.936 229.967L130.405 233.726C133.077 233.025 138.86 232.484 140.297 235.405C141.248 235.661 146.005 235.141 147.513 235.093L147.654 235.063C148.464 233.904 149.26 232.783 150.274 231.785C150.348 231.711 150.223 231.105 150.227 231.114C146.621 224.754 135.377 219.378 148.595 215.099C146.678 213.56 145.133 212.385 143.115 210.964L138.488 207.589C137.06 206.519 135.26 205.36 133.764 204.34L129.189 201.355C128.527 203.442 128.109 204.916 127.647 207.051C127.403 208.189 127.199 209.625 127.003 210.794C126.902 211.609 126.895 212.349 126.871 213.166Z" fill="#8D9576" fill-opacity="0.1"/>
<path d="M126.871 213.166C126.606 214.674 126.633 217.224 126.758 218.766C127.125 223.088 127.607 225.797 128.936 229.967C129.126 229.49 129.407 229.217 129.516 228.976C131.121 225.423 133.418 221.763 133.705 217.855C133.125 217.39 132.56 216.92 131.951 216.494C133.176 215.618 134.426 214.98 134.787 213.522C134.608 212.1 133.797 211.83 132.66 211.149L131.965 210.73L134.06 210.013C135.014 211.378 135.209 211.88 136.978 212.238C138.505 212.549 141.72 211.596 143.115 210.964L138.488 207.589C137.06 206.519 135.26 205.36 133.764 204.34L129.189 201.355C128.527 203.442 128.109 204.916 127.647 207.051C127.403 208.189 127.199 209.625 127.003 210.794C126.902 211.609 126.895 212.349 126.871 213.166Z" fill="#8D9576" fill-opacity="0.1"/>
<path d="M133.765 204.342C132.546 209.862 133.865 210.704 138.489 207.591C137.06 206.521 135.261 205.362 133.765 204.342Z" fill="#8D9576" fill-opacity="0.1"/>
<path d="M126.873 213.164C126.608 214.672 126.635 217.222 126.76 218.764C127.323 217.965 130.11 217.391 131.839 216.428L131.526 216.289C129.016 215.184 126.908 216.002 126.873 213.164Z" fill="#8D9576" fill-opacity="0.1"/>
<path d="M127.649 207.054C127.404 208.192 127.2 209.628 127.005 210.797C128.95 210.894 129.889 210.95 131.798 210.724C130.848 210.008 128.127 208.046 127.649 207.054Z" fill="#8D9576" fill-opacity="0.1"/>
<path d="M133.385 230.09C133.546 231.069 134.214 232.538 135.219 232.87C135.91 232.596 135.695 232.662 136.124 231.752C136.598 230.691 136.649 230.834 136.445 229.885C135.335 228.831 134.452 229.298 133.385 230.09Z" fill="#8D9576" fill-opacity="0.1"/>
<path d="M137.784 229.776C137.902 230.809 138.548 232.274 139.588 232.652C140.28 232.405 139.958 232.601 140.412 231.718C140.77 230.943 140.963 230.707 140.868 229.856C139.956 228.444 138.948 229.02 137.784 229.776Z" fill="#8D9576" fill-opacity="0.1"/>
<path d="M148.595 215.1C135.377 219.379 146.621 224.755 150.227 231.115C150.223 231.106 150.348 231.712 150.274 231.786C149.26 232.784 148.464 233.905 147.654 235.064C152.791 235.27 157.479 235.697 161.802 238.777C162.307 238.134 162.914 237.402 163.372 236.735C160.14 233.204 157.306 230.485 164.237 228.93C160.928 224.998 152.631 218.294 148.595 215.1Z" fill="#8D9576" fill-opacity="0.1"/>
<path d="M130.406 233.728C131.108 235.122 131.845 236.675 132.666 237.984C133.924 240.139 134.758 241.437 136.356 243.37C137.918 245.171 139.22 246.516 140.895 248.184L141.382 248.515C142.619 249.544 143.548 250.25 144.865 251.175C145.391 249.607 146.877 248.5 147.905 246.924C148.835 246.68 149.342 246.65 150.027 246.028C151.49 242.622 150.826 242.897 153.597 240.315C151.717 241.367 150.309 242.119 148.101 241.399C144.165 240.114 145.135 237.284 147.514 235.096C146.006 235.143 141.249 235.663 140.299 235.407C138.861 232.486 133.078 233.027 130.406 233.728Z" fill="#8D9576" fill-opacity="0.1"/>
<path d="M132.666 237.983C133.924 240.139 134.758 241.436 136.356 243.369C138.191 242.923 138.542 241.942 139.782 240.906C140.083 240.655 142.368 241.361 143.471 240.226C143.231 239.131 141.52 238.239 140.526 237.579C140.493 236.817 140.58 236.623 140.258 235.982C138.789 235.607 133.782 236.973 132.666 237.983Z" fill="#8D9576" fill-opacity="0.1"/>
<path d="M141.381 248.511C142.479 248.578 143.879 248.64 144.946 248.332C148.122 247.41 146.694 241.684 144.414 240.995C144.225 241.114 143.878 241.327 143.747 241.503C141.173 244.921 140.645 244.302 140.894 248.181L141.381 248.511Z" fill="#8D9576" fill-opacity="0.1"/>
<path d="M166.439 241.748C165.295 242.313 164.121 242.72 163.483 243.803C163.41 246.85 168.356 246.284 167.066 254.872C172.06 252.474 175.129 249.346 173.824 243.392C171.471 245.482 168.29 243.523 166.439 241.748Z" fill="#8D9576" fill-opacity="0.1"/>
<path d="M162.905 252.998L161.353 256.288C163.244 256.079 164.405 255.838 166.241 255.263C164.931 254.69 164.04 253.876 162.905 252.998Z" fill="#8D9576" fill-opacity="0.1"/>
<path d="M171.497 238.054L169.481 239.811L172.905 240.816L171.497 238.054Z" fill="#8D9576" fill-opacity="0.1"/>
<path d="M153.359 239.669L153.229 239.844L153.269 240.103C153.829 239.801 153.803 239.763 154.426 239.747C155.461 240.459 155.208 241.395 156.149 242.414C156.804 242.199 156.717 242.015 157.189 241.242C155.495 239.559 154.667 238.388 153.336 236.415L153.359 239.669Z" fill="#8D9576" fill-opacity="0.1"/>
<path d="M153.857 302.84C153.661 304.644 153.71 306.466 154.003 308.258C154.229 310.462 154.511 312.19 154.899 314.358L159.583 311.875L164.554 309.157C166.082 308.265 167.972 307.231 169.434 306.286C171.287 305.17 173.151 304.075 174.938 302.853C180.246 299.628 186.73 295.081 191.423 290.991C194.091 288.642 197.281 285.667 199.339 282.782C199.83 282.05 200.448 281.191 200.875 280.438C204.914 273.401 202.036 269.086 195.633 265.573C194.061 264.881 193.146 264.619 191.492 264.268C185.562 263.16 179.958 265.009 174.733 267.62C171.438 269.468 168.672 271.612 165.951 274.209C164.318 275.963 163.205 277.31 161.739 279.17C160.745 280.524 160.106 281.582 159.245 283.031C158.627 284.028 157.868 285.766 157.348 286.875C155.653 290.557 154.926 293.651 154.196 297.591L153.828 300.939L153.857 302.84Z" fill="#8D9576" fill-opacity="0.1"/>
<path d="M153.859 302.838C153.663 304.643 153.712 306.464 154.005 308.256C154.231 310.461 154.514 312.188 154.901 314.357L159.586 311.873L164.556 309.156C166.084 308.264 167.975 307.23 169.436 306.285C171.289 305.169 173.154 304.074 174.94 302.852C166.312 298.663 168.885 296.486 174.712 291.062C175.887 289.968 177.78 288.563 178.231 287.016C178.101 286.664 176.525 284.455 176.009 283.425L175.725 283.359C174.138 283.2 169.85 282.201 168.907 282.385C168.711 282.689 168.266 283.408 167.959 283.525C165.342 284.526 161.686 284.169 159.247 283.029C158.629 284.027 157.87 285.764 157.351 286.873C155.655 290.555 154.928 293.649 154.198 297.589L153.831 300.938L153.859 302.838Z" fill="#8D9576" fill-opacity="0.1"/>
<path d="M153.858 302.836C153.661 304.64 153.71 306.462 154.003 308.253C154.23 310.458 154.512 312.186 154.899 314.354L159.584 311.871L164.555 309.153C166.083 308.261 167.973 307.227 169.435 306.282C167.705 305.54 165.252 304.308 163.397 304.456C161.807 304.585 161.477 305.273 160.504 306.442L158.6 305.54C159.876 304.888 161.15 304.512 161.526 303.044C161.324 301.577 160.154 300.904 159 299.969C159.223 299.843 160.394 299.186 160.539 299.019C161.533 297.759 160.239 294.351 159.744 293.014C159.039 291.106 158.736 288.24 157.349 286.871C155.654 290.553 154.927 293.647 154.196 297.587L153.829 300.935L153.858 302.836Z" fill="#8D9576" fill-opacity="0.1"/>
<path d="M160.546 306.469C159.445 308.664 159.404 309.527 159.584 311.874L164.554 309.156C163.225 308.004 162.067 307.313 160.546 306.469Z" fill="#8D9576" fill-opacity="0.1"/>
<path d="M154.196 297.59L153.829 300.938L154.207 300.866C156.387 300.465 156.531 300.833 158.972 299.929C157.073 298.748 156.264 298.437 154.196 297.59Z" fill="#8D9576" fill-opacity="0.1"/>
<path d="M153.858 302.838C153.662 304.643 153.711 306.464 154.004 308.255C155.416 307.476 157.025 306.353 158.381 305.449C156.661 305.046 155.507 305.371 154.388 304.897C153.78 304.136 153.971 304.018 153.858 302.838Z" fill="#8D9576" fill-opacity="0.1"/>
<path d="M161.751 286.599C162.498 287.727 163.581 288.197 164.79 287.42C165.068 286.709 165.041 287.075 164.797 286.288C164.515 285.282 164.542 284.511 163.415 284.529C162.602 285.096 162.286 285.759 161.751 286.599Z" fill="#8D9576" fill-opacity="0.1"/>
<path d="M165.853 287.156C166.503 288.306 167.275 288.778 168.593 288.302C169.156 287.608 169.016 288.001 168.977 287.066L168.154 284.513C167.12 285.532 166.725 286.021 165.853 287.156Z" fill="#8D9576" fill-opacity="0.1"/>
<path d="M176.007 283.425C176.524 284.455 178.1 286.663 178.23 287.016C177.779 288.563 175.886 289.968 174.71 291.061C168.883 296.486 166.311 298.662 174.939 302.851C180.247 299.626 186.732 295.079 191.424 290.989C185.134 288.559 187.564 286.733 191.295 283.286C190.872 282.594 190.438 281.907 189.993 281.229C185.576 283.592 180.964 283.849 176.007 283.425Z" fill="#8D9576" fill-opacity="0.1"/>
<path d="M159.246 283.03C161.685 284.171 165.34 284.527 167.958 283.526C168.264 283.409 168.709 282.69 168.906 282.386C169.849 282.202 174.136 283.201 175.724 283.361C171.562 278.351 178.063 275.034 181.192 278.514C182.134 279.563 181.822 281.158 181.638 282.492C182.175 281.889 185.621 278.402 185.691 278.102L185.096 277.317C184.451 277.495 184.124 278.403 183.375 279.232C181.542 279.748 180.272 276.925 179.975 275.442C179.704 274.087 180.146 273.523 178.793 272.67C176.891 271.472 175.528 269.696 174.734 267.62C171.439 269.468 168.673 271.612 165.952 274.209C164.319 275.962 163.206 277.309 161.74 279.17C160.746 280.524 160.107 281.582 159.246 283.03Z" fill="#8D9576" fill-opacity="0.1"/>
<path d="M165.951 274.208C164.318 275.961 163.205 277.308 161.739 279.168C163.471 280.484 166.786 281.7 168.91 282.096L169.337 280.398C170.417 279.799 171.979 279.109 172.473 278.012C171.758 277.148 169.535 277.418 168.944 276.923C167.767 275.942 167.465 275.013 165.951 274.208Z" fill="#8D9576" fill-opacity="0.1"/>
<path d="M170.516 271.38C170.367 273.337 171.774 277.043 174.033 277.12C174.773 276.706 175.011 276.128 175.462 275.393C177.587 270.098 173.221 268.378 170.516 271.38Z" fill="#8D9576" fill-opacity="0.1"/>
<path d="M191.492 264.266C191.799 265.509 192.058 266.394 192.45 267.603C193.614 266.791 194.385 266.259 195.634 265.571C194.061 264.879 193.147 264.617 191.492 264.266Z" fill="#8D9576" fill-opacity="0.1"/>
<path d="M84.3649 217.134C84.3522 218.081 84.2707 219.891 84.4291 220.755L84.7587 223.937C86.6471 233.376 91.0612 241.403 100.408 244.958C101.522 245.159 102.617 245.369 103.74 245.508L105.061 245.462C109.411 244.844 111.754 243.846 112.743 239.263C112.948 234.097 111.633 230.796 109.856 226.011C107.725 221.131 105.154 216.48 102.431 211.914C101.623 210.464 100.685 209.034 99.7937 207.63C99.147 206.511 98.0699 205.001 97.3255 203.889C96.629 202.755 95.5212 201.237 94.7472 200.101C94.0133 198.968 93.1963 197.919 92.3826 196.845C91.2911 198.191 90.5444 199.244 89.5693 200.683L88.2833 202.914C87.7488 203.895 87.2862 205.008 86.829 206.034L85.9724 208.35C84.9672 211.564 84.6052 213.813 84.3649 217.134Z" fill="#8D9576" fill-opacity="0.1"/>
<path d="M84.3649 217.134C84.3522 218.081 84.2707 219.891 84.4291 220.755L84.7587 223.937C86.3136 223.602 89.4137 224.013 90.949 224.437L91.0878 224.545C92.7753 224.742 94.6485 225.398 96.2296 226.027C97.1827 225.43 98.3821 224.629 99.3494 224.105C97.703 218.304 92.7681 211.648 102.431 211.914C101.623 210.464 100.685 209.034 99.7937 207.63C99.147 206.511 98.0699 205.001 97.3255 203.889C96.629 202.755 95.5212 201.237 94.7472 200.101C94.0133 198.968 93.1963 197.919 92.3826 196.845C91.2911 198.191 90.5444 199.244 89.5693 200.683L88.2833 202.914C87.7488 203.895 87.2862 205.008 86.8289 206.034L85.9724 208.35C84.9672 211.564 84.6052 213.813 84.3649 217.134Z" fill="#8D9576" fill-opacity="0.1"/>
<path d="M85.9715 208.351C84.9664 211.566 84.6043 213.814 84.3641 217.135C85.8273 216.317 90.4531 211.715 90.9596 210.03C90.8704 209.377 90.7455 209.28 90.3979 208.718L90.4499 208.424C91.341 208.03 92.4401 207.882 93.0685 207.237C93.3823 206.101 92.8425 205.629 92.2078 204.661L92.3429 204.4C93.4581 204.374 93.5738 204.31 93.8924 205.497C94.4263 207.485 97.8934 207.465 99.7928 207.632C99.1461 206.512 98.069 205.002 97.3247 203.89C96.6282 202.756 95.5204 201.238 94.7463 200.102C94.0125 198.97 93.1955 197.921 92.3817 196.846C91.2903 198.192 90.5436 199.245 89.5684 200.684L88.2824 202.915C87.7479 203.896 87.2853 205.01 86.8281 206.036L85.9715 208.351Z" fill="#8D9576" fill-opacity="0.1"/>
<path d="M94.7448 200.102C94.2206 201.22 93.3921 202.55 93.7612 203.712C94.8688 204.649 95.9583 204.149 97.3229 203.89C96.6264 202.756 95.5188 201.238 94.7448 200.102Z" fill="#8D9576" fill-opacity="0.1"/>
<path d="M86.8299 206.038L85.9734 208.352C87.6004 208.446 88.5988 208.453 90.2256 208.376C88.9584 207.226 88.4518 206.673 86.8299 206.038Z" fill="#8D9576" fill-opacity="0.1"/>
<path d="M89.5685 200.686L88.2826 202.917C89.7722 203.716 90.1616 203.822 91.7625 204.273C90.8221 202.931 90.3287 201.824 89.5685 200.686Z" fill="#8D9576" fill-opacity="0.1"/>
<path d="M84.4272 220.756L84.7567 223.938C86.3115 223.603 89.4113 224.014 90.9465 224.438C90.6582 222.388 89.8782 222.271 88.2244 221.271C88.9898 220.506 90.1051 219.776 89.4927 218.717C88.7071 218.294 88.3356 217.999 87.5849 218.595C87.364 219.396 87.504 219.767 87.6518 220.584L87.7106 220.898L87.3957 221.054C86.3081 220.651 85.4525 220.127 84.4272 220.756Z" fill="#8D9576" fill-opacity="0.1"/>
<path d="M90.6059 219.423C90.6148 220.274 90.5889 221.323 91.1759 221.936C91.9585 221.914 91.755 221.862 92.5151 221.138C93.0307 220.562 92.9016 220.884 92.9707 220.158L92.619 219.742C91.7 219.317 91.6467 219.342 90.6059 219.423Z" fill="#8D9576" fill-opacity="0.1"/>
<path d="M91.0877 224.545C92.3105 225.464 98.5731 226.618 100.575 227.954C102.538 229.264 103.986 230.769 105.664 232.352C106.582 231.846 106.271 232.194 106.74 231.382C106.774 229.124 105.249 228.718 106.28 226.717C107.407 225.838 108.406 226.02 109.856 226.012C107.724 221.131 105.154 216.481 102.431 211.915C92.768 211.649 97.7029 218.304 99.3493 224.106C98.382 224.629 97.1826 225.431 96.2295 226.028C94.6484 225.398 92.7753 224.742 91.0877 224.545Z" fill="#8D9576" fill-opacity="0.1"/>
<path d="M105.06 245.464C109.409 244.846 111.752 243.848 112.741 239.266C109.998 239.376 108.925 238.249 107.886 235.819C103.329 236.493 105.183 236.93 106.126 240.079C106.606 241.682 105.566 243.849 105.06 245.464Z" fill="#8D9576" fill-opacity="0.1"/>
<path d="M102.328 242.912L100.407 244.959C101.521 245.161 102.615 245.37 103.739 245.509C103.258 244.648 102.788 243.783 102.328 242.912Z" fill="#8D9576" fill-opacity="0.1"/>
<path d="M99.0575 230.882C100.124 231.33 100.211 232.225 100.617 233.273L100.937 233.393L101.294 233.076L101.176 232.591C100.697 231.376 100.366 230.044 100.014 228.778L99.0575 230.882Z" fill="#8D9576" fill-opacity="0.1"/>
<path d="M102.868 295.072C102.576 296.429 102.752 299.614 102.988 301.021C103.183 302.203 103.373 303.563 103.628 304.72L107.077 302.881C108.304 302.202 109.711 301.472 110.902 300.767C112.128 300.045 113.439 299.304 114.636 298.551L118.857 296.012C123.451 293.036 127.014 290.508 131.271 287.03C137.309 281.663 145.296 273.355 134.422 267.699C133.459 267.266 132.494 267.031 131.478 266.741C122.064 265.523 114.228 270.864 108.731 278.095C108.135 278.911 107.407 280.122 106.844 280.998C106.382 281.766 105.822 282.973 105.404 283.804C104.241 286.58 103.618 289.048 103.061 291.986C102.994 292.767 102.824 293.806 102.718 294.607L102.868 295.072Z" fill="#8D9576" fill-opacity="0.1"/>
<path d="M102.869 295.073C102.576 296.429 102.753 299.615 102.988 301.022C103.183 302.204 103.373 303.564 103.628 304.721L107.078 302.881C108.305 302.203 109.712 301.472 110.903 300.767C112.129 300.045 113.439 299.304 114.637 298.551L118.858 296.013C110.172 292.077 117.566 288.527 121.51 284.063C120.555 283.141 120.207 282.58 119.71 281.323L119.292 281.175L118.76 280.47C117.224 280.125 117.229 280.987 114.757 279.97L114.649 279.01C114.453 279.361 114.313 279.721 114.177 280.099C113.082 280.464 109.672 278.766 108.732 278.095C108.136 278.912 107.408 280.123 106.844 280.998C106.383 281.766 105.823 282.974 105.405 283.805C104.242 286.58 103.618 289.048 103.061 291.986C102.995 292.768 102.825 293.807 102.719 294.608L102.869 295.073Z" fill="#8D9576" fill-opacity="0.1"/>
<path d="M102.868 295.069C102.576 296.426 102.753 299.612 102.988 301.018C103.183 302.201 103.373 303.56 103.628 304.717L107.078 302.878C108.304 302.2 109.712 301.469 110.903 300.764C112.128 300.042 113.439 299.301 114.636 298.548C112.473 297.64 111.67 297.404 109.396 296.99C108.58 297.903 108.049 298.814 106.7 298.328L106.649 297.913C107.583 297.392 107.872 297.278 108.626 296.555C108.886 294.902 107.724 295.272 106.922 293.837C107.236 293.491 107.348 293.393 107.71 293.117L108.044 292.868C108.401 291.269 106.44 284.995 105.405 283.801C104.241 286.577 103.618 289.045 103.061 291.983C102.995 292.765 102.824 293.803 102.718 294.605L102.868 295.069Z" fill="#8D9576" fill-opacity="0.1"/>
<path d="M110.9 300.765C109.863 299.903 109.06 298.921 107.708 299.352C106.89 300.35 107.064 301.595 107.076 302.878C108.302 302.2 109.709 301.469 110.9 300.765Z" fill="#8D9576" fill-opacity="0.1"/>
<path d="M103.061 291.984C102.994 292.766 102.824 293.804 102.718 294.606C104.009 294.395 105.434 294.199 106.696 293.897C105.051 292.749 104.807 292.779 103.061 291.984Z" fill="#8D9576" fill-opacity="0.1"/>
<path d="M102.87 295.072C102.577 296.428 102.754 299.613 102.989 301.02C103.208 299.406 105.04 298.627 106.373 297.789C105.372 297.751 104.4 297.918 103.462 297.608C102.834 296.82 102.951 296.175 102.87 295.072Z" fill="#8D9576" fill-opacity="0.1"/>
<path d="M108.731 278.094C108.135 278.911 107.407 280.122 106.844 280.997C108.005 281.368 108.691 281.529 109.889 281.765C109.819 282.715 108.922 282.779 108.921 283.969C109.493 284.61 110.021 284.8 110.872 284.562C111.387 283.437 110.377 282.065 111.043 281.783C114.853 280.175 115.662 280.885 119.291 281.173L118.759 280.469C117.224 280.123 117.229 280.985 114.756 279.968L114.648 279.009C114.453 279.359 114.312 279.719 114.176 280.098C113.082 280.462 109.671 278.765 108.731 278.094Z" fill="#8D9576" fill-opacity="0.1"/>
<path d="M112.066 283.833L112.181 284.442C112.729 285.107 112.397 284.865 113.234 285.167C114.135 284.878 113.778 285.126 114.37 284.436C114.06 283.489 114.084 283.041 113.407 282.542C112.731 282.744 112.499 283.239 112.066 283.833Z" fill="#8D9576" fill-opacity="0.1"/>
<path d="M121.508 284.063C117.563 288.527 110.169 292.077 118.855 296.012C123.449 293.036 127.012 290.508 131.27 287.031C130.121 286.62 129.102 286.302 128.394 285.309C127.994 282.722 131.437 282.111 130.799 280.172C129.492 279.436 127.623 280.917 125.875 281.16C123.598 281.475 121.977 281.45 119.707 281.323C120.205 282.579 120.553 283.141 121.508 284.063Z" fill="#8D9576" fill-opacity="0.1"/>
<path d="M131.477 266.739C131.68 267.856 131.532 268.082 132.151 268.834C132.93 268.82 133.731 268.15 134.421 267.697C133.458 267.264 132.493 267.029 131.477 266.739Z" fill="#8D9576" fill-opacity="0.1"/>
<path d="M124.071 278.367C124.104 278.693 124.011 279.996 123.99 280.398C124.704 279.572 125.56 278.723 126.325 277.93C126.886 277.488 126.691 277.769 126.875 277.025L126.601 276.719L126.097 276.881C125.394 277.968 125.381 278.218 124.071 278.367Z" fill="#8D9576" fill-opacity="0.1"/>
<path d="M67.0341 281.973C67.0526 282.961 67.0441 283.948 67.163 284.928C67.3594 286.306 67.5489 287.866 67.8161 289.219L70.9015 287.607C72.0021 286.991 73.4116 286.255 74.4625 285.609L77.6517 283.719L81.5335 281.409C85.8247 278.546 88.7008 276.538 92.6732 273.317C95.5017 270.786 98.4183 267.986 99.892 264.394C100.944 260.47 99.5073 258.745 96.3477 256.619L95.4815 256.105C94.6892 255.762 93.4661 255.433 92.6102 255.174C88.1975 254.732 85.1218 255.491 81.2407 257.56C80.2211 258.153 79.6426 258.464 78.7257 259.242L78.6247 259.252C77.3823 260.014 76.4124 260.962 75.3314 261.935C74.2817 262.982 73.4939 264.057 72.5894 265.228C71.966 266.087 71.3534 267.082 70.7707 267.979C70.5501 268.308 69.77 269.917 69.5425 270.361C68.3196 273.284 67.9151 274.766 67.3205 277.89L67.1124 279.947L67.0341 281.973Z" fill="#8D9576" fill-opacity="0.1"/>
<path d="M67.0342 281.973C67.0527 282.961 67.0442 283.948 67.1631 284.928C67.3595 286.306 67.549 287.866 67.8162 289.219L70.9016 287.607C72.0022 286.991 73.4117 286.255 74.4626 285.609L77.6518 283.718L81.5336 281.409C73.9604 278.113 80.1272 274.587 83.8566 270.792C82.9503 269.689 82.7561 269.43 82.128 268.156L81.7792 268.154C79.8707 264.699 82.7139 262.829 85.4205 264.586L85.6038 264.513C85.2774 263.881 84.5664 262.665 84.607 261.993C84.6755 260.859 83.885 260.809 82.9134 260.328C82.3732 259.395 81.8157 258.473 81.2408 257.56C80.2212 258.153 79.6427 258.464 78.7258 259.242L78.6248 259.252C77.3824 260.014 76.4125 260.962 75.3315 261.934C74.2818 262.982 73.494 264.057 72.5895 265.228C71.9661 266.087 71.3535 267.082 70.7708 267.979C70.5502 268.307 69.7702 269.917 69.5426 270.361C68.3197 273.283 67.9152 274.766 67.3206 277.89L67.1125 279.947L67.0342 281.973Z" fill="#8D9576" fill-opacity="0.1"/>
<path d="M72.5884 265.226C71.9649 266.085 71.3524 267.08 70.7697 267.977C71.7196 268.268 72.5066 268.481 73.4738 268.707C73.3621 269.633 72.6319 269.562 72.6182 270.641C73.1643 271.249 72.8461 270.983 73.7896 271.267L74.3486 271.137C74.8303 270.054 73.9267 269.338 74.3779 268.692C78.4957 267.52 77.7033 267.38 81.778 268.153C79.8695 264.698 82.7128 262.827 85.4193 264.584L85.6027 264.511C85.2763 263.88 84.5652 262.663 84.6059 261.991C84.6743 260.857 83.8838 260.807 82.9122 260.326C82.3721 259.393 81.8146 258.471 81.2397 257.558C80.22 258.151 79.6415 258.462 78.7247 259.24L78.6236 259.25C77.3813 260.012 76.4114 260.96 75.3304 261.932C74.2806 262.98 73.4928 264.055 72.5884 265.226Z" fill="#8D9576" fill-opacity="0.1"/>
<path d="M72.5893 265.225C74.9533 267.91 79.4901 266.724 79.6222 264.484C78.8279 263.697 78.3028 264.043 77.472 263.873C77.6373 263.906 75.63 262.142 75.3311 261.932C74.2814 262.979 73.4937 264.054 72.5893 265.225Z" fill="#8D9576" fill-opacity="0.1"/>
<path d="M78.6238 259.251C78.2392 260.927 78.7437 263.303 80.5428 263.817C82.7731 263.176 83.8096 258.621 78.7248 259.241L78.6238 259.251Z" fill="#8D9576" fill-opacity="0.1"/>
<path d="M67.0363 281.974C67.0547 282.962 67.0462 283.949 67.1651 284.928C67.3616 286.307 67.551 287.867 67.8183 289.219L70.9037 287.607C72.0043 286.991 73.4138 286.256 74.4647 285.609L77.6539 283.719C75.975 282.883 74.8693 282.621 73.0755 282.258C72.5846 282.833 72.336 283.204 71.6803 283.594C70.8446 283.511 71.2054 283.653 70.543 283.188C71.3854 282.616 72.1344 282.326 72.4855 281.521C72.2854 280.507 71.4361 280.418 70.8825 279.47C71.179 279.162 71.9415 278.424 71.962 278.099C72.0497 276.696 70.1561 271.374 69.5446 270.361C68.3217 273.284 67.9172 274.767 67.3227 277.891L67.1146 279.947L67.0363 281.974Z" fill="#8D9576" fill-opacity="0.1"/>
<path d="M74.4618 285.608C73.485 284.922 72.4801 283.838 71.382 284.539C70.906 285.547 70.9626 286.476 70.9012 287.606C72.0017 286.99 73.4111 286.254 74.4618 285.608Z" fill="#8D9576" fill-opacity="0.1"/>
<path d="M67.322 277.891L67.1139 279.947C68.1274 279.927 68.8824 280.017 69.7757 279.567L69.9224 279.187C69.3895 278.491 68.1795 278.139 67.322 277.891Z" fill="#8D9576" fill-opacity="0.1"/>
<path d="M67.0353 281.972C67.0538 282.96 67.0452 283.947 67.1641 284.927C68.2623 284.38 68.5947 284.248 69.4899 283.43L69.4068 283.145C68.6327 283.025 68.1216 282.956 67.3591 282.73L67.0353 281.972Z" fill="#8D9576" fill-opacity="0.1"/>
<path d="M75.3585 270.426C75.5103 271.342 75.6586 271.337 76.4266 271.673C77.3395 271.477 76.9993 271.706 77.5442 271.064C77.3325 270.366 77.275 269.891 76.7426 269.408C75.9606 269.598 76.0358 269.745 75.3585 270.426Z" fill="#8D9576" fill-opacity="0.1"/>
<path d="M83.8555 270.791C80.1261 274.586 73.9592 278.112 81.5325 281.408C85.8237 278.545 88.6998 276.537 92.6722 273.316C91.3404 272.926 90.199 272.606 89.9934 271.148C90.5962 269.489 92.4202 268.852 92.2839 267.257C91.1218 266.522 88.1483 268.121 86.2625 268.229C84.3776 268.336 84.0304 268.321 82.1269 268.155C82.755 269.43 82.9491 269.688 83.8555 270.791Z" fill="#8D9576" fill-opacity="0.1"/>
<path d="M95.1423 261.317C94.2781 261.828 93.5502 262.117 93.0822 262.968C93.1124 264.239 93.7594 264.37 94.826 264.988C96.9581 263.731 97.5243 263.277 99.8914 264.392C100.944 260.469 99.5067 258.744 96.3473 256.618C96.1696 258.782 96.2173 259.393 95.1423 261.317Z" fill="#8D9576" fill-opacity="0.1"/>
<path d="M92.6089 255.171C92.7712 255.948 92.7868 256.584 93.3483 257.096C94.2509 257.047 94.6315 256.625 95.48 256.102C94.6877 255.759 93.4648 255.43 92.6089 255.171Z" fill="#8D9576" fill-opacity="0.1"/>
<path d="M86.0588 267.045C86.149 267.093 86.2394 267.138 86.3295 267.183C87.132 266.407 88.41 265.303 88.9371 264.385L88.5818 264.186C87.7916 264.217 86.9711 265.387 86.1935 265.92L86.0588 267.045Z" fill="#8D9576" fill-opacity="0.1"/>
<path d="M35.4787 273.427C35.5375 274.672 35.5366 276.041 35.8293 277.236C35.9543 278.072 36.0918 278.904 36.2419 279.735L39.2481 278.131L42.8375 276.159L46.1347 274.242C47.1974 273.59 48.8481 272.648 49.8283 271.965C53.9033 269.333 57.2535 267.056 60.9735 263.905C63.9165 261.249 66.6773 258.72 68.2433 254.964C69.3182 251.016 67.7705 249.284 64.6876 247.1C59.6538 244.385 54.6462 245.546 49.8333 247.953C48.7122 248.6 48.1158 248.928 47.0936 249.762C45.8843 250.449 44.6657 251.646 43.638 252.6C42.5569 253.686 41.8099 254.653 40.8594 255.852C40.2838 256.638 39.6567 257.709 39.1295 258.553L37.9019 260.925C36.7007 263.525 36.1983 265.668 35.6966 268.457L35.5161 270.54C35.4313 271.38 35.4754 272.554 35.4787 273.427Z" fill="#8D9576" fill-opacity="0.1"/>
<path d="M35.4804 273.429C35.5393 274.674 35.5384 276.043 35.831 277.238C35.9561 278.075 36.0936 278.906 36.2437 279.737L39.2499 278.133L42.8393 276.161L46.1365 274.244C47.1992 273.593 48.8499 272.65 49.8301 271.967C42.1756 268.213 48.6441 265.455 52.2171 261.299C51.3148 260.263 51.1071 259.931 50.4248 258.732L50.2212 258.712C48.2301 255.241 50.5788 253.64 53.9391 255.023L54.0353 254.9C53.0848 253.427 53.0738 253.559 52.8476 251.818C52.3582 251.335 51.8942 251.207 51.2606 250.941C50.7324 249.993 50.0846 248.99 49.8351 247.955C48.714 248.602 48.1176 248.93 47.0954 249.765C45.8861 250.452 44.6675 251.648 43.6398 252.603C42.5587 253.688 41.8117 254.655 40.8612 255.854C40.2856 256.64 39.6585 257.711 39.1313 258.555L37.9036 260.928C36.7024 263.527 36.2001 265.67 35.6984 268.459L35.5179 270.542C35.4331 271.382 35.4772 272.556 35.4804 273.429Z" fill="#8D9576" fill-opacity="0.1"/>
<path d="M40.8594 255.849C40.2837 256.636 39.6566 257.707 39.1294 258.551C40.38 259.015 40.8645 259.081 42.1594 259.297C41.4705 259.985 40.8733 260.576 41.2207 261.642C41.9114 261.947 41.7152 261.843 42.6329 261.619L42.9765 261.214C42.8972 260.413 42.7372 260.145 42.4271 259.416C43.7051 258.646 43.7384 260.023 45.8205 258.067C47.4948 258.152 48.615 258.593 50.2194 258.707C48.2283 255.237 50.577 253.635 53.9372 255.019L54.0335 254.896C53.0829 253.423 53.072 253.554 52.8458 251.813C52.3563 251.331 51.8923 251.202 51.2588 250.937C50.7305 249.988 50.0828 248.986 49.8333 247.951C48.7121 248.598 48.1157 248.926 47.0936 249.76C45.8842 250.447 44.6656 251.644 43.6379 252.598C42.5568 253.684 41.8098 254.651 40.8594 255.849Z" fill="#8D9576" fill-opacity="0.1"/>
<path d="M43.6395 252.599C42.5585 253.685 41.8116 254.652 40.8612 255.85C41.9281 256.694 43.9065 257.538 45.2431 257.816L45.7103 257.689C46.4193 255.465 47.38 256.296 47.9337 255.089C47.6475 254.971 47.0279 254.694 46.7475 254.651C45.2198 254.42 44.9456 253.17 43.6395 252.599Z" fill="#8D9576" fill-opacity="0.1"/>
<path d="M47.0952 249.761C46.5356 251.484 47.26 254.072 48.9538 254.679L49.5785 254.352C51.3231 251.334 51.1922 249.329 47.0952 249.761Z" fill="#8D9576" fill-opacity="0.1"/>
<path d="M35.4798 273.425C35.5386 274.67 35.5377 276.039 35.8303 277.234C35.9554 278.071 36.0929 278.902 36.243 279.733L39.2492 278.129L42.8386 276.157L46.1358 274.24C44.5891 273.644 42.6582 272.695 41.0934 273.222C40.6729 273.742 40.5338 273.994 39.9342 274.308C39.1695 274.068 39.4098 274.295 38.9746 273.783C39.5839 273.253 40.5155 272.616 40.6967 271.89C40.4599 271.124 39.6975 270.539 39.089 269.959C39.7636 269.52 39.7658 269.573 40.1715 268.895C40.4507 267.184 38.7754 262.326 37.903 260.924C36.7017 263.523 36.1994 265.666 35.6977 268.455L35.5172 270.538C35.4324 271.378 35.4765 272.552 35.4798 273.425Z" fill="#8D9576" fill-opacity="0.1"/>
<path d="M42.8372 276.157C41.7639 275.442 40.7252 274.309 39.634 275.252C39.236 276.329 39.2881 276.986 39.2481 278.128L42.8372 276.157Z" fill="#8D9576" fill-opacity="0.1"/>
<path d="M35.6976 268.455L35.5172 270.538C36.5309 270.49 37.3167 270.565 38.1745 270.069L38.2478 269.681C37.5671 268.964 36.6648 268.785 35.6976 268.455Z" fill="#8D9576" fill-opacity="0.1"/>
<path d="M35.4783 273.428C35.5372 274.672 35.5362 276.041 35.8288 277.236C35.7567 274.803 36.2738 275.784 37.8418 273.808C37.2572 273.377 36.2605 273.455 35.4783 273.428Z" fill="#8D9576" fill-opacity="0.1"/>
<path d="M43.686 260.96C43.8685 261.863 43.9801 261.845 44.7498 262.189C45.6479 261.993 45.289 262.206 45.8976 261.587C45.6677 260.869 45.6322 260.597 45.1459 260.003C44.3591 260.113 44.4121 260.295 43.686 260.96Z" fill="#8D9576" fill-opacity="0.1"/>
<path d="M52.2158 261.298C48.6428 265.454 42.1743 268.212 49.8287 271.966C53.9038 269.334 57.254 267.058 60.9739 263.906C55.3904 261.707 60.6878 260.121 60.6631 258.056C60.4171 257.807 60.0395 257.288 59.6239 257.49C56.8148 258.841 53.8284 259.062 50.7099 258.76L50.4235 258.731C51.1058 259.93 51.3135 260.262 52.2158 261.298Z" fill="#8D9576" fill-opacity="0.1"/>
<path d="M63.3777 252.015C62.4867 252.478 61.9496 252.627 61.4413 253.438C61.3936 254.739 62.1482 254.906 63.2251 255.572C65.2541 254.231 65.9707 253.774 68.2434 254.962C69.3182 251.014 67.7707 249.282 64.688 247.098C64.5245 249.45 64.6289 250.004 63.3777 252.015Z" fill="#8D9576" fill-opacity="0.1"/>
<path d="M54.3843 257.697C54.4834 257.723 54.5828 257.75 54.6822 257.776C55.4628 256.994 56.794 255.805 57.27 254.885C56.2416 254.362 55.5049 255.79 54.507 256.464L54.3843 257.697Z" fill="#8D9576" fill-opacity="0.1"/>
<path d="M58.0712 210.338C58.0592 211.154 57.991 212.394 58.1086 213.162L58.3792 215.575C58.6942 217.17 58.9016 218.195 59.399 219.737C59.9079 221.028 60.3428 222.13 60.9426 223.387L61.3571 224.078L62.4431 225.827C65.67 230.059 68.8687 232.82 74.5182 232.869C78.2297 232.271 79.849 231.696 80.7217 227.816C80.9084 224.244 79.7455 220.586 78.3778 217.338C77.0546 213.868 74.3563 209.248 72.464 206.046C71.7592 204.924 71.0648 203.792 70.381 202.655L68.4316 199.635L66.3938 196.761L64.4518 194.038C63.7311 194.953 62.9491 196.185 62.2853 197.17L61.173 199.054L60.0942 201.292L59.3212 203.413C58.4971 206.065 58.2826 207.569 58.0712 210.338Z" fill="#8D9576" fill-opacity="0.1"/>
<path d="M62.4437 225.827C65.6706 230.059 68.8693 232.82 74.5188 232.869C78.2303 232.271 79.8496 231.696 80.7223 227.816C80.909 224.243 79.7461 220.586 78.3784 217.338C76.9271 217.339 76.2586 217.048 75.3782 218.292C75.2156 219.321 75.6998 220.281 75.9327 221.476C75.6342 222.166 75.8756 221.897 75.1069 222.234C73.1888 221.64 68.1567 214.566 65.7078 218.785C65.383 220.853 66.628 221.679 68.5028 221.821L68.6471 222C66.7235 224.432 65.1099 223.967 62.4437 225.827Z" fill="#8D9576" fill-opacity="0.1"/>
<path d="M75.6039 228.658C75.4283 230.575 75.2135 231.154 74.5173 232.868C78.2284 232.271 79.8476 231.696 80.7202 227.816C76.3641 228.091 78.8169 224.543 75.0006 225.578C74.5092 225.711 74.6929 225.693 74.4361 226.135C74.5345 227.122 75.073 227.79 75.6039 228.658Z" fill="#8D9576" fill-opacity="0.1"/>
<path d="M69.8235 220.497C69.9437 220.954 70.8602 222.977 71.1516 223.291L71.7341 223.035C71.3621 222.027 71.1227 220.545 70.3786 220.012L69.8235 220.497Z" fill="#8D9576" fill-opacity="0.1"/>
<path d="M58.1092 213.164L58.3797 215.577C58.6947 217.172 58.9021 218.197 59.3995 219.739C59.9084 221.03 60.3433 222.132 60.9431 223.39L61.3576 224.08L62.4436 225.829C65.1098 223.97 66.7234 224.434 68.647 222.002L68.5027 221.823C66.6279 221.681 65.3829 220.855 65.7077 218.787C68.1567 214.569 73.1887 221.642 75.1069 222.236C75.8755 221.9 75.6341 222.169 75.9327 221.478C75.6997 220.283 75.2155 219.324 75.3781 218.294C76.2585 217.05 76.927 217.342 78.3783 217.34C77.0552 213.871 74.3568 209.25 72.4646 206.048C64.9246 206.176 68.5379 210.89 70.0593 215.786L67.5896 217.348C65.9175 216.853 61.661 215.364 61.5147 213.297C61.8545 212.937 62.1469 212.608 62.4701 212.234C62.3769 211.551 62.5025 211.862 61.9471 211.348C61.0699 211.22 61.4638 211.144 60.7141 211.524C60.2145 212.625 60.9367 212.355 60.6344 213.306C59.5847 213.118 59.0147 212.846 58.1092 213.164Z" fill="#8D9576" fill-opacity="0.1"/>
<path d="M58.3791 215.576C58.694 217.171 58.9014 218.196 59.3988 219.738C60.6193 219.647 61.4478 218.737 62.7761 219.164C63.1257 219.276 63.6309 219.303 63.9991 219.262C64.0169 218.653 63.4454 217.858 63.11 217.283C63.2214 216.472 63.2994 216.748 63.0374 216.066C61.938 215.645 59.5551 215.492 58.3791 215.576Z" fill="#8D9576" fill-opacity="0.1"/>
<path d="M61.3561 224.074C62.9919 224.349 64.0765 224.624 64.9997 222.834C65.3632 222.129 65.3355 221.695 65.0746 220.93C63.4884 219.386 61.2338 221.417 60.9416 223.384L61.3561 224.074Z" fill="#8D9576" fill-opacity="0.1"/>
<path d="M59.3189 203.414C58.4949 206.067 58.2803 207.571 58.0689 210.339C59.3975 209.36 62.2543 206.583 63.1718 205.202C63.2876 204.306 63.2363 204.181 63.0756 203.269C64.0092 202.968 64.6707 202.898 65.1289 202.128C65.0033 201.296 64.7851 201.029 64.3695 200.309L64.6126 200.109C65.6211 200.331 65.9493 202.176 68.3322 202.512C69.0095 202.612 69.6939 202.661 70.3788 202.657L68.4293 199.637L66.3915 196.762L64.4496 194.039C63.7288 194.955 62.9469 196.186 62.283 197.172L61.1707 199.056L60.0919 201.294L59.3189 203.414Z" fill="#8D9576" fill-opacity="0.1"/>
<path d="M66.3944 196.762C65.8968 197.709 65.5536 198.18 65.4558 199.235C66.042 200.435 67.2813 199.973 68.432 199.636L66.3944 196.762Z" fill="#8D9576" fill-opacity="0.1"/>
<path d="M59.3217 203.412C60.5725 203.304 61.6328 203.331 62.8818 203.341C61.7546 202.365 61.3966 202.058 60.0947 201.291L59.3217 203.412Z" fill="#8D9576" fill-opacity="0.1"/>
<path d="M62.2863 197.169L61.1741 199.053C62.0807 199.359 63.0831 199.673 63.9567 200.047C63.3901 199.095 62.8081 198.146 62.2863 197.169Z" fill="#8D9576" fill-opacity="0.1"/>
<path d="M62.9707 212.305C63.1104 213.116 63.0972 213.229 63.4408 213.998L63.911 214.078L64.8124 213.391C64.8765 212.563 64.9805 212.924 64.5334 212.267C63.7483 212 63.7423 212.065 62.9707 212.305Z" fill="#8D9576" fill-opacity="0.1"/>
<path d="M28.815 238.252C26.3903 239.907 21.024 245.886 21.4012 248.829C21.9212 249.207 22.7109 249.132 23.4004 249.163C24.3815 249.173 25.3026 249.177 26.2831 249.146L28.9101 249.143C30.5248 249.142 31.9661 249.178 33.5722 248.976C36.7761 248.778 38.5127 248.643 41.6865 248.084C44.3916 247.497 46.4169 246.97 48.7821 245.437C50.8719 243.374 50.6203 241.885 49.4821 239.299C49.3125 239.045 49.1341 238.795 48.9474 238.553C46.76 235.749 43.6002 235.077 40.3221 234.689C39.2606 234.684 38.6852 234.732 37.6289 234.86C36.8369 234.96 35.859 235.157 35.0554 235.294L32.3179 236.267L30.2243 237.352L28.815 238.252Z" fill="#8D9576" fill-opacity="0.1"/>
<path d="M32.3171 236.269C32.7471 237.648 33.331 238.217 34.3505 239.238L34.3785 239.209C35.3336 240.23 35.6777 240.471 36.7851 241.27L36.9064 241.425L37.1561 241.6C39.1663 242.993 40.5594 243.3 42.9229 244.074C42.9818 244.174 43.041 244.275 43.0999 244.375C42.3824 245.705 40.2801 245.313 40.5166 246.978C41.0272 247.596 41.0095 247.707 41.6856 248.086C44.3908 247.499 46.416 246.972 48.7813 245.439C50.8711 243.376 50.6194 241.887 49.4813 239.301C49.3117 239.047 49.1332 238.797 48.9465 238.555C46.7592 235.751 43.5994 235.08 40.3213 234.691C39.2597 234.686 38.6843 234.734 37.6281 234.862C36.8361 234.963 35.8581 235.159 35.0546 235.297L32.3171 236.269Z" fill="#8D9576" fill-opacity="0.1"/>
<path d="M32.3171 236.269C32.747 237.648 33.3309 238.217 34.3503 239.238L34.3783 239.209C35.3334 240.23 35.6774 240.471 36.7846 241.27C36.886 238.537 38.2335 238.498 40.0601 239.957C41.4004 238.676 39.8013 236.632 40.3205 234.691C39.2591 234.686 38.6838 234.734 37.6276 234.862C36.8357 234.963 35.8578 235.159 35.0543 235.297L32.3171 236.269Z" fill="#8D9576" fill-opacity="0.1"/>
<path d="M32.3172 236.269C32.7472 237.648 33.331 238.217 34.3504 239.238L34.3784 239.209C35.0304 238.489 35.3278 238.506 36.2703 238.255C36.2862 238.326 35.1575 235.533 35.0544 235.297L32.3172 236.269Z" fill="#8D9576" fill-opacity="0.1"/>
<path d="M37.6283 234.86C37.1201 235.915 36.5222 237.557 37.678 238.347C38.2944 238.237 38.3081 238.253 38.8642 237.984C39.4522 237.317 39.6162 237.229 39.7093 236.336C39.2563 235.091 38.8928 235.031 37.6283 234.86Z" fill="#8D9576" fill-opacity="0.1"/>
<path d="M49.4807 239.298C48.0193 241.958 45.5603 241.487 45.1988 243.185C46.3726 245.094 47.0931 242.729 48.7808 245.436C50.8704 243.373 50.6188 241.884 49.4807 239.298Z" fill="#8D9576" fill-opacity="0.1"/>
<path d="M37.0943 243.564C35.6084 243.998 30.6857 244.596 30.7934 246.583C30.9069 248.674 31.813 248.835 33.571 248.979C36.7748 248.78 38.5115 248.645 41.6853 248.086C41.0091 247.707 41.0268 247.596 40.5163 246.978C40.2797 245.313 42.382 245.705 43.0995 244.374C43.0406 244.275 42.9814 244.174 42.9225 244.074C40.559 243.3 39.1659 242.993 37.1557 241.6L36.906 241.425C36.9261 242.203 37 242.788 37.0943 243.564Z" fill="#8D9576" fill-opacity="0.1"/>
<path d="M28.8129 238.252C26.3884 239.907 21.0226 245.886 21.3997 248.829C21.9197 249.207 22.7093 249.132 23.3988 249.162C24.3798 249.173 25.3008 249.176 26.2812 249.146L28.9079 249.143C27.4205 247.263 27.612 247.295 25.2172 246.776L25.0485 246.466C25.9212 246.227 26.1409 246.337 26.6124 245.771C26.6968 244.275 27.5512 243.089 27.9804 241.684C28.3186 240.577 28.5602 239.384 28.8129 238.252Z" fill="#8D9576" fill-opacity="0.1"/>
<path d="M23.3997 249.161C24.3807 249.171 25.3018 249.175 26.2822 249.144C25.8609 248.304 25.7748 247.791 25.0799 247.376C24.3956 247.648 23.8721 248.528 23.3997 249.161Z" fill="#8D9576" fill-opacity="0.1"/>
<path d="M30.222 237.353C31.1883 238.48 32.7502 240.048 34.3486 239.236C33.3292 238.216 32.7454 237.647 32.3154 236.268L30.222 237.353Z" fill="#8D9576" fill-opacity="0.1"/>
<path d="M41.2845 203.286C39.1685 207.696 38.0391 211.215 38.6395 216.162C38.7642 216.812 38.9336 217.876 39.1034 218.485L39.6181 220.301C39.9847 221.131 40.3755 222.092 40.7994 222.881L42.0543 224.963C45.1361 228.961 48.2093 231.26 53.5681 230.684C56.0491 229.776 57.8427 228.821 57.4113 225.746C56.9428 222.87 55.8875 221.09 54.3872 218.667C52.7716 216.013 50.674 213.551 48.7035 211.147C48.2094 210.496 47.3057 209.531 46.742 208.888L45.0593 207.093L42.922 204.884L41.2845 203.286Z" fill="#8D9576" fill-opacity="0.1"/>
<path d="M41.2845 203.286C39.1685 207.696 38.0391 211.215 38.6395 216.162C38.7642 216.812 38.9336 217.876 39.1034 218.485L39.4627 217.974L40.7984 217.9L40.7644 217.641C40.7202 217.281 40.7001 216.98 40.6776 216.619C41.2442 216.241 40.933 216.379 41.6912 216.37L41.9091 216.659C41.7622 217.165 41.6219 217.626 41.4551 218.125C43.8985 219.749 43.559 219.787 46.3482 220.016L46.5524 220.054C47.0849 219.597 47.6383 219.107 48.1804 218.668C47.4989 217.441 46.2205 215.425 45.7759 214.145C44.9982 211.908 47.0114 211.531 48.7035 211.147C48.2093 210.496 47.3057 209.531 46.742 208.888L45.0593 207.093L42.922 204.884L41.2845 203.286Z" fill="#8D9576" fill-opacity="0.1"/>
<path d="M41.2845 203.286C39.1685 207.696 38.0391 211.215 38.6395 216.162C39.9076 214.512 42.2433 212.36 41.4108 210.362C42.2444 209.677 42.7635 209.647 42.8828 208.933C42.4905 208.505 42.2864 208.304 41.9623 207.821L42.2259 207.569C44.2685 208.463 42.3819 209.396 46.742 208.888L45.0593 207.093L42.922 204.884L41.2845 203.286Z" fill="#8D9576" fill-opacity="0.1"/>
<path d="M42.9209 204.886C42.8117 205.665 42.5966 206.484 42.8814 207.183C43.6325 207.603 44.1598 207.344 45.0579 207.095L42.9209 204.886Z" fill="#8D9576" fill-opacity="0.1"/>
<path d="M48.7021 211.148C47.01 211.532 44.9968 211.909 45.7745 214.146C46.2191 215.425 47.4975 217.442 48.179 218.669C47.6369 219.108 47.0835 219.598 46.551 220.055C47.3883 220.262 47.9576 220.424 48.7701 220.687C50.0778 221.105 51.8383 222.915 53.0235 222.483C52.69 220.944 51.9829 220.486 52.7545 219.204C53.5059 218.817 53.5824 218.835 54.3858 218.668C52.7701 216.013 50.6726 213.552 48.7021 211.148Z" fill="#8D9576" fill-opacity="0.1"/>
<path d="M39.1042 218.486L39.6188 220.302C39.9854 221.132 40.3762 222.093 40.8 222.882L42.0548 224.964C42.4273 223.779 43.1393 223.23 44.2281 222.647C45.584 222.859 45.0187 224.559 45.6258 225.574L46.045 225.633C46.7551 225.015 46.756 225.054 47.1916 224.238C47.1756 222.58 45.8326 223.271 45.2457 221.905C45.2953 220.965 45.6571 220.625 46.3483 220.017C43.5593 219.788 43.8988 219.751 41.4557 218.127C41.6224 217.628 41.7627 217.166 41.9096 216.661L41.6917 216.371C40.9336 216.38 41.2448 216.242 40.6782 216.62C40.7007 216.981 40.7208 217.282 40.765 217.643L40.799 217.902L39.4634 217.975L39.1042 218.486Z" fill="#8D9576" fill-opacity="0.1"/>
<path d="M39.6176 220.301C39.9842 221.131 40.375 222.091 40.7988 222.88C41.957 222.221 42.2608 222.152 43.5865 221.996L43.6133 221.725L43.8526 222.032C43.4893 221.515 43.3421 220.834 43.1547 220.216C42.214 219.326 40.522 219.443 39.6176 220.301Z" fill="#8D9576" fill-opacity="0.1"/>
<path d="M57.4091 225.746C57.0812 226.295 57.291 226.05 56.6225 226.358C55.0189 226.324 54.6474 224.549 53.1285 225.115C52.3721 226.364 54.6007 227.779 53.5662 230.683C56.047 229.776 57.8405 228.821 57.4091 225.746Z" fill="#8D9576" fill-opacity="0.1"/>
<path d="M7.62308 224.896L9.83869 225.991L12.3416 227.173L14.837 228.267L17.5353 229.363C20.8153 230.637 23.0852 231.391 26.562 232.227C29.5499 232.95 31.536 233.181 34.6062 232.696C37.5509 231.343 37.8451 229.633 37.4078 226.528C35.2686 220.611 29.4887 217.928 23.514 217.819C22.7632 217.733 21.7041 217.841 20.9222 217.883L19.0245 218.17C14.0644 219.147 11.1633 221.541 7.62308 224.896Z" fill="#8D9576" fill-opacity="0.1"/>
<path d="M23.5134 217.82C22.6423 218.677 23.0321 220.129 23.7107 221.017C24.6613 221.374 24.7604 221.064 26.1259 221.628C25.1731 221.989 24.9473 221.076 24.2976 221.592C24.5054 222.053 25.1171 223.257 25.137 223.673L25.1283 224.407C26.1471 225.748 27.0284 227.051 28.34 228.093C28.9596 228.585 29.4167 228.84 29.6034 229.472C28.4842 229.821 27.5124 229.711 26.6514 230.236C26.2924 230.984 26.3656 231.249 26.5615 232.228C29.5494 232.952 31.5354 233.182 34.6057 232.697C37.5504 231.344 37.8446 229.635 37.4072 226.53C35.2681 220.612 29.4882 217.929 23.5134 217.82Z" fill="#8D9576" fill-opacity="0.1"/>
<path d="M37.4085 226.528C37.3042 227.224 37.3558 227.286 36.981 227.858C34.953 229.208 35.0154 228.551 32.6218 228.327L32.2444 228.743C32.084 229.687 32.0176 229.266 32.3199 230.073C34.0103 230.816 34.2114 230.806 34.6072 232.696C37.5517 231.342 37.8459 229.633 37.4085 226.528Z" fill="#8D9576" fill-opacity="0.1"/>
<path d="M27.4609 225.84L27.8377 226.237C28.9561 226.565 29.135 226.492 30.333 226.38C29.1623 225.857 28.6341 225.579 27.4609 225.84Z" fill="#8D9576" fill-opacity="0.1"/>
<path d="M24.4175 226.342C23.2558 226.153 22.0439 225.937 20.8897 225.72C17.3008 225.051 17.2508 226.58 17.5357 229.364C20.8157 230.637 23.0856 231.391 26.5625 232.227C26.3666 231.247 26.2934 230.983 26.6524 230.234C27.5134 229.71 28.4851 229.82 29.6044 229.471C29.4176 228.839 28.9606 228.584 28.341 228.092C27.0294 227.049 26.1481 225.747 25.1292 224.405L24.4175 226.342Z" fill="#8D9576" fill-opacity="0.1"/>
<path d="M7.6242 224.894L9.83982 225.99L12.3427 227.171L14.8381 228.266C14.6619 227.643 14.3932 226.588 14.0994 226.029C13.5791 225.038 12.3147 225.264 12.2535 224.204C13.3578 224.288 13.427 224.5 14.0774 224.002L14.273 222.854C15.1293 222.385 15.1031 222.844 15.5113 222.647C16.5135 222.166 18.4568 219.003 19.0256 218.169C14.0655 219.146 11.1644 221.539 7.6242 224.894Z" fill="#8D9576" fill-opacity="0.1"/>
<path d="M9.84069 225.991L12.3434 227.173C12.3378 226.376 12.4425 225.664 11.8358 225.119C11.0361 225.132 10.5411 225.56 9.84069 225.991Z" fill="#8D9576" fill-opacity="0.1"/>
<path d="M20.9237 217.881C20.858 218.69 20.9935 218.913 21.2576 219.669C20.8434 219.762 20.4312 219.867 20.0211 219.979C19.8573 220.701 19.8504 220.331 20.1981 221.113L20.5874 221.166L21.6002 220.246C22.2617 220.778 22.9919 221.187 23.7399 221.579C24.2193 222.277 24.5071 223.324 25.1386 223.67C25.1187 223.253 24.507 222.049 24.2993 221.589C24.949 221.072 25.1747 221.986 26.1275 221.624C24.7621 221.061 24.6629 221.371 23.7125 221.014C23.0339 220.125 22.6442 218.674 23.5152 217.817C22.7645 217.731 21.7055 217.839 20.9237 217.881Z" fill="#8D9576" fill-opacity="0.1"/>
</svg>
