<svg width="215" height="200" viewBox="0 0 215 200" fill="none" xmlns="http://www.w3.org/2000/svg">
<path d="M98.7496 108.98C99.1013 110.815 99.3481 112.669 99.4888 114.533C99.5447 115.563 99.5891 116.489 99.586 117.525C99.5642 118.971 99.4996 120.209 99.395 121.653C99.2703 122.699 99.1714 123.634 98.9431 124.666C98.3535 127.956 97.3101 131.438 95.8502 134.45C95.2508 135.685 94.3231 137.148 93.8487 138.167C93.4004 138.904 91.8437 141.242 91.2662 141.895C89.9269 143.486 88.8412 144.718 87.3363 146.17C84.576 148.623 82.2712 150.377 78.9265 152.094C74.0364 154.396 69.0242 155.842 63.5668 154.816C61.9869 154.461 60.7386 154.11 59.2907 153.353C54.3277 150.934 51.1713 145.98 54.1996 140.709C54.5254 139.846 55.8185 138.012 56.4005 137.255C58.1767 134.916 61.696 131.598 64.0139 129.796C68.6255 125.93 74.6001 122.248 79.7024 119.104C81.4719 118.065 83.2544 117.052 85.0508 116.061C86.5704 115.182 88.1131 114.343 89.6772 113.546C91.186 112.731 92.707 111.94 94.2398 111.171C95.7346 110.424 97.2379 109.693 98.7496 108.98Z" fill="#8D9576" fill-opacity="0.3"/>
<path d="M98.7483 108.98C99.1 110.815 99.3468 112.669 99.4875 114.533C99.5434 115.563 99.5878 116.488 99.5847 117.525C99.5628 118.971 99.4983 120.209 99.3937 121.653C99.269 122.699 99.1701 123.633 98.9418 124.666C98.3522 127.956 97.3088 131.438 95.8489 134.45C95.2494 135.685 94.3218 137.148 93.8474 138.166C93.1876 137.422 90.2527 137.017 89.2678 136.979C87.8843 136.922 86.6959 136.988 85.4156 137.559L84.8458 138.683C82.6464 138.068 80.7181 137.618 78.434 137.353L78.3263 137.317C77.8277 136.618 77.5301 135.856 77.113 135.109C76.6525 134.286 76.6516 134.28 75.8073 134.028C75.7494 133.558 81.8336 128.254 82.5311 127.598C87.044 123.354 83.8906 121.323 79.7011 119.104C81.4706 118.065 83.2531 117.052 85.0495 116.061C86.569 115.182 88.1117 114.343 89.6759 113.546C91.1847 112.731 92.7056 111.94 94.2384 111.171C95.7333 110.423 97.2366 109.693 98.7483 108.98Z" fill="#8D9576" fill-opacity="0.3"/>
<path d="M98.7481 108.979C99.0997 110.815 99.3466 112.669 99.4873 114.532C99.5432 115.562 99.5876 116.488 99.5845 117.524C99.5626 118.971 99.498 120.209 99.3934 121.652C99.2687 122.698 99.1699 123.633 98.9416 124.666C98.3519 127.955 97.3086 131.437 95.8487 134.45C94.335 133.181 94.5815 131.254 93.9866 129.506C93.1816 127.135 92.3668 125.75 92.8765 123.171C93.443 122.862 94.0118 122.609 94.5961 122.339C91.2134 119.566 91.4343 118.7 95.2622 117.072C94.4881 116.763 93.9801 116.529 93.2373 116.15C92.717 116.877 92.3387 117.295 91.699 117.898C89.1686 118.171 87.2153 117.17 85.0492 116.06C86.5688 115.181 88.1115 114.343 89.6757 113.545C91.1844 112.731 92.7054 111.939 94.2382 111.171C95.733 110.423 97.2363 109.693 98.7481 108.979Z" fill="#8D9576" fill-opacity="0.3"/>
<path d="M89.6769 113.546C91.1856 112.731 92.7066 111.94 94.2394 111.171C94.455 113.462 94.4556 114.168 93.2199 116.145C91.8806 115.399 90.7805 114.624 89.6769 113.546Z" fill="#8D9576" fill-opacity="0.3"/>
<path d="M99.3941 121.652C99.2694 122.698 99.1706 123.633 98.9423 124.666C97.1232 123.702 96.5678 123.647 94.6523 122.331C96.6077 121.652 97.3523 121.524 99.3941 121.652Z" fill="#8D9576" fill-opacity="0.3"/>
<path d="M99.4884 114.532C99.5442 115.562 99.5887 116.488 99.5856 117.524C97.7272 117.728 97.0701 117.603 95.2668 117.068C96.9418 116.374 97.9276 115.397 99.4884 114.532Z" fill="#8D9576" fill-opacity="0.3"/>
<path d="M90.46 133.457C90.6392 133.561 91.0244 133.78 91.1479 133.922C92.0769 134.984 90.4361 136.91 89.2909 136.746C89.0668 135.747 88.6852 134.866 88.6163 133.859C89.3961 133.55 89.616 133.475 90.46 133.457Z" fill="#8D9576" fill-opacity="0.3"/>
<path d="M86.7228 132.804C87.1281 133.099 87.5315 133.337 87.5801 133.9C87.653 134.757 86.3921 136.044 85.5758 136.025L85.3707 135.797C85.2085 134.958 84.558 133.829 85.0355 133.078C85.5825 132.683 86.053 132.751 86.7228 132.804Z" fill="#8D9576" fill-opacity="0.3"/>
<path d="M79.7029 119.104C83.8924 121.323 87.0458 123.354 82.5329 127.598C81.8354 128.254 75.7512 133.558 75.8091 134.028C76.6534 134.28 76.6543 134.286 77.1148 135.109C77.5319 135.856 77.8295 136.618 78.3281 137.317C73.6277 136.816 69.4234 136.764 65.0768 138.932C64.5799 138.199 64.3203 137.765 63.9073 136.981C67.3307 133.98 70.1386 132.088 64.0144 129.796C68.626 125.93 74.6006 122.248 79.7029 119.104Z" fill="#8D9576" fill-opacity="0.3"/>
<path d="M85.4168 137.559C86.6971 136.988 87.8855 136.921 89.2691 136.978C90.2539 137.017 93.1888 137.421 93.8487 138.166C93.4003 138.903 91.8436 141.242 91.2661 141.894C89.9268 143.486 88.8412 144.717 87.3362 146.169C84.576 148.622 82.2711 150.376 78.9264 152.093C78.706 150.951 77.184 148.795 76.452 147.798C76.3204 147.619 75.0033 147.36 74.541 146.918C74.0863 146.484 74.8183 145.512 74.6762 145.026C74.4532 144.263 72.5088 141.02 72.0093 140.719C70.603 140.696 70.0798 142.991 69.5875 143.175C69.3501 142.532 69.2582 142.364 68.8138 141.844C70.7064 140.383 71.681 139.33 73.1643 137.539C72.7024 138.881 72.236 140.426 73.1472 141.71C74.2739 143.316 77.0323 143.561 78.5477 142.367C80.5727 140.771 79.667 138.958 78.4353 137.352C80.7193 137.618 82.6476 138.068 84.8471 138.683L85.4168 137.559Z" fill="#8D9576" fill-opacity="0.3"/>
<path d="M84.8316 138.697C86.3982 139.097 89.9571 140.356 91.2245 141.416C91.3726 141.54 91.2984 141.634 91.2664 141.895C89.927 143.486 88.8414 144.717 87.3364 146.17C85.5402 144.965 85.9035 144.625 84.6194 143.323C84.1036 143.076 83.6929 143.491 83.3326 143.408C82.664 143.253 81.542 142.814 81.5353 142.029C82.2526 140.904 84.0374 141.258 84.4458 139.927L84.8316 138.697Z" fill="#8D9576" fill-opacity="0.3"/>
<path d="M80.4855 142.883C81.0832 143.425 81.5272 144.469 82.0235 145.133C83.6381 147.292 83.6931 149.398 80.5688 149.859C75.3741 149.437 78.5493 143.279 80.4855 142.883Z" fill="#8D9576" fill-opacity="0.3"/>
<path d="M62.4181 151.519C62.6894 152.642 63.0045 153.801 63.5663 154.815C61.9865 154.46 60.7382 154.108 59.2903 153.351C60.8207 152.569 61.0061 152.682 62.4181 151.519Z" fill="#8D9576" fill-opacity="0.3"/>
<path d="M54.1988 140.709C54.5246 139.845 55.8176 138.011 56.3997 137.255C56.8004 137.853 57.4939 138.47 57.9989 139.047C56.244 139.294 55.3101 139.162 54.1988 140.709Z" fill="#8D9576" fill-opacity="0.3"/>
<path d="M16.0745 106.962C17.6225 108.038 19.1262 109.175 20.5823 110.372C21.2925 110.99 22.1423 111.694 22.8006 112.348C23.8211 113.378 24.6442 114.269 25.6 115.36C26.2181 116.134 26.8248 116.917 27.4214 117.708C29.6258 120.939 30.8843 123.162 32.2984 126.828C32.7648 128.138 33.1764 129.367 33.5232 130.718C33.8839 132.188 34.117 133.425 34.377 134.92C35.4226 143.649 34.1854 153.005 28.6192 160.119C27.414 161.681 25.9785 163.053 24.3625 164.185C23.0728 165.022 21.8223 165.749 20.3465 166.22L19.5814 166.455C14.6792 167.629 10.7154 167.183 8.27232 162.347C6.11435 158.212 6.39779 150.963 6.77018 146.324C7.51214 139.586 8.52057 134.364 10.0301 127.76C10.5604 125.769 11.0576 123.75 11.5644 121.752C12.0636 120.101 12.5214 118.335 12.9822 116.666C13.4585 115.408 14.0642 113.18 14.4829 111.824C14.9958 110.198 15.5261 108.578 16.0745 106.962Z" fill="#8D9576" fill-opacity="0.3"/>
<path d="M16.0745 106.962C17.6225 108.038 19.1262 109.175 20.5823 110.372C21.2925 110.99 22.1423 111.694 22.8006 112.348C23.8211 113.378 24.6442 114.269 25.6 115.36C26.2181 116.134 26.8248 116.917 27.4214 117.708C29.6258 120.939 30.8843 123.162 32.2984 126.828C32.7648 128.138 33.1764 129.367 33.5232 130.718C33.8839 132.188 34.117 133.425 34.377 134.92C31.1402 135.154 25.6559 139.03 22.9592 141.072C22.8943 141.121 22.8327 141.245 22.7897 141.323C22.47 141.415 22.5899 141.402 22.2611 141.363L22.1547 141.379C21.0619 141.225 20.0917 140.783 19.0419 140.58C18.7613 140.526 18.5462 140.901 18.0295 140.893C17.3185 139.668 18.7153 130.788 17.7054 128.651C16.217 125.499 12.7702 126.664 10.0301 127.76C10.5604 125.769 11.0576 123.75 11.5644 121.752C12.0636 120.101 12.5214 118.335 12.9822 116.666C13.4585 115.408 14.0642 113.18 14.4829 111.824C14.9958 110.198 15.5261 108.578 16.0745 106.962Z" fill="#8D9576" fill-opacity="0.3"/>
<path d="M16.0745 106.962C17.6225 108.038 19.1262 109.175 20.5823 110.372C21.2925 110.99 22.1423 111.694 22.8006 112.348C23.8211 113.378 24.6442 114.269 25.6 115.36C26.2181 116.134 26.8248 116.917 27.4214 117.708C29.6258 120.939 30.8843 123.162 32.2984 126.828C30.5464 127.054 29.0386 125.526 27.5406 124.762C25.4372 123.688 23.4023 123.194 22.1733 121.026C22.3622 120.43 22.5372 119.824 22.7808 119.25C18.3739 119.792 17.9603 118.999 19.4348 115.122C18.7497 115.407 18.0721 115.71 17.3596 115.915C17.4973 116.824 17.5445 117.364 17.5509 118.294C15.6765 120.316 14.1897 120.91 11.5644 121.752C12.0636 120.101 12.5214 118.335 12.9822 116.666C13.4585 115.408 14.0642 113.18 14.4829 111.824C14.9958 110.198 15.5261 108.578 16.0745 106.962Z" fill="#8D9576" fill-opacity="0.3"/>
<path d="M14.4825 111.825C16 112.802 16.9026 113.826 17.3036 115.668C17.3223 115.754 17.3396 115.84 17.3556 115.927C15.8169 116.444 14.6109 116.582 12.9818 116.667C13.4581 115.408 14.0638 113.181 14.4825 111.825Z" fill="#8D9576" fill-opacity="0.3"/>
<path d="M25.6002 115.361C26.2183 116.135 26.825 116.918 27.4216 117.709C27.2115 117.775 26.5838 118.082 26.2957 118.199C25.0047 118.72 24.0706 119.006 22.7145 119.258C23.6461 117.489 24.1396 116.716 25.6002 115.361Z" fill="#8D9576" fill-opacity="0.3"/>
<path d="M20.5823 110.372C21.2925 110.989 22.1423 111.693 22.8006 112.348C22.6107 112.477 22.6609 112.42 22.5277 112.598C21.6459 113.776 20.7575 114.397 19.4879 115.086C20.0365 113.387 20.1002 112.016 20.5823 110.372Z" fill="#8D9576" fill-opacity="0.3"/>
<path d="M33.5224 130.718C33.8832 132.188 34.1163 133.426 34.3762 134.92C31.1395 135.155 25.6551 139.03 22.9584 141.073C22.8936 141.122 22.832 141.245 22.7889 141.324C22.4692 141.416 22.5892 141.403 22.2603 141.363C23.5648 140.16 26.1203 138.568 27.6507 137.666L27.2215 136.437C28.557 133.604 30.7351 132.016 33.5224 130.718Z" fill="#8D9576" fill-opacity="0.3"/>
<path d="M29.0592 129.821C29.9185 130.438 30.2445 132.203 29.4933 132.922C29.0335 132.994 29.1558 132.954 28.642 132.667C27.9638 132.363 26.3518 131.68 27.3056 130.468C27.6939 129.974 28.4429 129.85 29.0592 129.821Z" fill="#8D9576" fill-opacity="0.3"/>
<path d="M26.0622 132.157C26.581 132.921 27.1477 134.623 26.1619 135.223C25.6119 135.212 25.5634 135.074 25.0489 134.763C22.6683 133.675 24.1089 132.039 26.0622 132.157Z" fill="#8D9576" fill-opacity="0.3"/>
<path d="M10.0295 127.76C12.7696 126.665 16.2164 125.5 17.7048 128.652C18.7146 130.788 17.3179 139.669 18.0289 140.894C18.5456 140.902 18.7607 140.526 19.0413 140.581C20.091 140.783 21.0613 141.226 22.154 141.38C18.7355 144.158 15.2988 147.645 14.0721 151.996C13.2231 151.855 12.7188 151.737 11.8876 151.506C11.9114 150.776 11.9757 149.943 11.9587 149.243C11.9189 147.63 12.5336 145.374 10.1673 145.439C8.79311 145.477 7.98524 146.019 6.76956 146.324C7.51152 139.586 8.51995 134.365 10.0295 127.76Z" fill="#8D9576" fill-opacity="0.3"/>
<path d="M15.7662 156.15C16.0488 156.722 16.3839 157.303 16.6936 157.864C14.9819 161.666 16.5498 164.143 19.5809 166.456C14.6786 167.629 10.7149 167.184 8.27176 162.347C11.1327 161.667 12.1631 159.533 12.4782 156.827C13.4936 156.704 14.779 156.407 15.7662 156.15Z" fill="#8D9576" fill-opacity="0.3"/>
<path d="M21.2688 162.665C22.3283 163.36 23.1935 163.701 24.3621 164.185C23.0724 165.022 21.822 165.749 20.3461 166.22C20.9462 164.763 21.0843 164.229 21.2688 162.665Z" fill="#8D9576" fill-opacity="0.3"/>
<path d="M52.974 174.734C53.8829 175.173 54.9992 175.908 55.8147 176.502C56.6928 177.165 57.4774 177.76 58.3181 178.476C60.5752 180.536 61.9005 182.076 63.6631 184.588C64.0825 185.257 64.5548 185.97 64.9052 186.67C65.4251 187.575 65.8853 188.512 66.2836 189.478C66.6023 190.231 66.902 190.945 67.1889 191.71C67.6886 193.118 68.0631 194.557 68.4064 196.011C67.1287 195.943 65.7755 195.895 64.5056 195.804C63.1146 195.731 61.7256 195.644 60.3363 195.542L56.3643 195.166C54.7252 194.997 53.0876 194.82 51.451 194.634C46.6303 193.924 41.5035 193.18 36.8158 191.796C34.3281 191.109 31.1402 190.063 28.9141 188.771C28.2206 188.371 27.7306 188.062 27.0736 187.606C26.444 187.165 26.0265 186.779 25.4566 186.266C22.9236 183.269 23.2187 179.716 25.6575 176.794L26.021 176.271C26.9352 175.241 27.4921 174.778 28.5922 173.939C36.0275 169.269 45.6006 170.605 52.974 174.734Z" fill="#8D9576" fill-opacity="0.3"/>
<path d="M55.8145 176.502C56.6926 177.165 57.4772 177.761 58.318 178.477C60.575 180.537 61.9003 182.076 63.6629 184.588C64.0823 185.257 64.5546 185.97 64.905 186.67C65.4249 187.576 65.8851 188.513 66.2834 189.478C66.6021 190.231 66.9018 190.945 67.1887 191.71C67.6884 193.119 68.0629 194.557 68.4062 196.012C67.1285 195.943 65.7753 195.895 64.5054 195.804C63.1144 195.731 61.7254 195.644 60.3361 195.543L56.3641 195.167C54.725 194.998 53.0874 194.82 51.4508 194.635C58.0141 187.583 48.8244 187.475 44.0626 185.17L44.0664 184.922C45.0837 183.854 44.3999 183.427 44.8541 181.857L44.9234 181.768C46.2546 181.234 48.3237 179.15 49.2082 179.109C50.7503 179.828 51.4327 179.375 52.9032 178.69C54.2936 177.927 54.6744 177.621 55.8145 176.502Z" fill="#8D9576" fill-opacity="0.3"/>
<path d="M58.3176 178.476C60.5747 180.536 61.9 182.076 63.6626 184.588C64.082 185.257 64.5543 185.97 64.9047 186.67C65.4246 187.575 65.8848 188.512 66.2831 189.478C66.6017 190.231 66.9015 190.945 67.1884 191.71C67.6881 193.118 68.0625 194.557 68.4059 196.011C67.1282 195.943 65.775 195.895 64.5051 195.804C63.114 195.731 61.7251 195.644 60.3357 195.542L56.3638 195.166C57.332 193.741 58.8253 192.25 60.5099 191.752C61.0692 191.961 61.6485 192.246 62.1946 192.497C62.5861 192.067 62.9848 191.643 63.3897 191.224C60.1086 191.367 59.6161 190.576 61.301 187.651C60.7984 187.645 60.2007 187.585 59.6924 187.547C58.2226 185.294 58.6952 182.098 58.0464 179.496C58.0022 179.32 58.2445 178.668 58.3176 178.476Z" fill="#8D9576" fill-opacity="0.3"/>
<path d="M62.2186 192.532C63.6586 193.648 63.888 194.101 64.5053 195.804C63.1143 195.731 61.7253 195.644 60.336 195.543C60.8783 194.489 61.5076 193.481 62.2186 192.532Z" fill="#8D9576" fill-opacity="0.3"/>
<path d="M63.6622 184.589C64.0816 185.258 64.5539 185.971 64.9043 186.671C64.733 186.702 64.8017 186.677 64.6522 186.749C63.4294 187.334 62.5947 187.553 61.2569 187.659C62.0581 186.438 62.667 185.655 63.6622 184.589Z" fill="#8D9576" fill-opacity="0.3"/>
<path d="M66.2833 189.479C66.602 190.231 66.9017 190.945 67.1886 191.71C65.9026 191.53 64.6122 191.244 63.3433 191.238C64.5046 190.285 64.8909 190.079 66.2833 189.479Z" fill="#8D9576" fill-opacity="0.3"/>
<path d="M52.9028 178.691C53.7964 178.818 55.0816 179.047 55.1996 180.12C55.0392 180.57 54.9693 180.68 54.5715 180.994C54.1705 181.097 53.9328 181.205 53.5389 181.092C52.8949 180.61 52.9925 179.475 52.9028 178.691Z" fill="#8D9576" fill-opacity="0.3"/>
<path d="M51.5379 180.679C53.3971 181.785 52.5762 182.775 50.7971 182.922C50.4825 182.354 50.2095 181.191 50.5864 180.6C51.0304 180.462 51.0023 180.546 51.5379 180.679Z" fill="#8D9576" fill-opacity="0.3"/>
<path d="M34.7414 184.854C38.2901 185.229 41.8624 183.587 44.854 181.857C44.3998 183.427 45.0836 183.854 44.0663 184.922L44.0624 185.169C48.8243 187.474 58.014 187.583 51.4507 194.634C46.6299 193.924 41.5032 193.18 36.8155 191.797C40.2612 188.127 38.2614 187.836 34.4925 186.645C34.5373 186.007 34.6339 185.48 34.7414 184.854Z" fill="#8D9576" fill-opacity="0.3"/>
<path d="M25.6571 176.795C25.5887 177.403 26.2967 178.761 26.6856 179.235C28.0322 180.876 29.1112 181.398 31.1786 181.343C31.4861 181.708 31.8097 182.11 32.1277 182.461C31.6358 183.194 31.156 183.932 30.6868 184.68C28.4687 184.217 26.9116 184.265 25.4563 186.267C22.9233 183.27 23.2184 179.717 25.6571 176.795Z" fill="#8D9576" fill-opacity="0.3"/>
<path d="M52.974 174.734C53.8828 175.172 54.9992 175.908 55.8146 176.502C54.6746 177.62 54.2937 177.927 52.9034 178.69C51.4329 179.375 50.7505 179.827 49.2083 179.108C48.3239 179.149 46.2548 181.234 44.9236 181.767C45.0515 181.188 48.1204 179.66 48.7302 178.906C48.6648 178.52 48.457 178.388 48.1698 178.034L48.2333 177.917C48.5057 178.275 48.7805 178.564 49.0841 178.894C50.2146 177.991 52.2702 175.98 52.974 174.734Z" fill="#8D9576" fill-opacity="0.3"/>
<path d="M28.5921 173.94C28.6547 174.78 28.7041 175.749 28.8325 176.569C27.7088 176.314 27.1972 176.234 26.0209 176.273C26.9351 175.242 27.492 174.779 28.5921 173.94Z" fill="#8D9576" fill-opacity="0.3"/>
<path d="M27.0741 187.607C27.9314 187.34 28.717 187.269 29.5846 187.027L28.9146 188.772C28.2211 188.372 27.7312 188.063 27.0741 187.607Z" fill="#8D9576" fill-opacity="0.3"/>
<path d="M86.2122 166.678C88.8302 168.1 90.4625 169.231 92.702 171.311C93.9779 172.549 94.8032 173.444 95.9318 174.865C96.654 175.876 97.209 176.673 97.857 177.742C98.4098 178.697 98.8264 179.457 99.3041 180.45C100.551 183.023 101.265 185.493 101.795 188.289C101.926 189.133 102.023 189.837 102.096 190.687C102.191 191.821 102.252 192.703 102.257 193.852C102.237 194.641 102.226 195.435 102.169 196.222C102.006 197.743 101.835 199.099 101.558 200.608C100.421 200.081 99.2931 199.527 98.1813 198.947C96.9169 198.331 95.6712 197.68 94.4435 196.995C93.2163 196.356 92.0007 195.693 90.7989 195.007C89.3969 194.222 88.0118 193.409 86.6441 192.567C83.5701 190.844 76.1842 186.111 73.7468 183.599C71.8171 182.129 69.9051 180.055 68.3329 178.212C67.7446 177.4 67.3842 176.862 66.8815 175.998C66.5993 175.505 66.4231 175.054 66.2029 174.532C64.6978 170.496 66.9229 167.877 70.1424 165.849L70.6901 165.577C72.0264 164.929 72.6347 164.714 74.0845 164.401C78.5445 163.695 82.2413 164.714 86.2122 166.678Z" fill="#8D9576" fill-opacity="0.3"/>
<path d="M97.8568 177.742C98.4095 178.697 98.8262 179.457 99.3039 180.45C100.55 183.023 101.265 185.493 101.795 188.288C101.926 189.133 102.023 189.836 102.096 190.686C102.191 191.821 102.252 192.703 102.257 193.851C102.237 194.64 102.226 195.435 102.168 196.222C102.006 197.743 101.835 199.099 101.558 200.608C100.42 200.08 99.2929 199.527 98.1811 198.947C96.9166 198.331 95.6709 197.68 94.4433 196.995C93.216 196.356 92.0005 195.693 90.7986 195.007C89.3966 194.222 88.0115 193.409 86.6439 192.567L86.7817 192.492C88.0661 191.796 90.1415 190.767 90.4996 189.272C91.1693 186.474 84.9741 183.207 83.6466 180.876C83.8362 180.434 84.1684 180.705 84.3554 180.427C84.7767 179.806 85.2089 178.943 85.5673 178.277L85.6845 178.236C87.5727 177.959 88.9381 177.687 90.7554 177.199L91.1792 178.126C93.5109 178.862 95.5832 178.66 97.8568 177.742Z" fill="#8D9576" fill-opacity="0.3"/>
<path d="M99.304 180.45C100.55 183.023 101.265 185.494 101.795 188.289C101.926 189.134 102.023 189.837 102.096 190.687C102.191 191.822 102.252 192.704 102.257 193.852C102.237 194.641 102.226 195.436 102.168 196.222C102.006 197.743 101.835 199.1 101.558 200.608C100.42 200.081 99.293 199.527 98.1812 198.947C96.9168 198.331 95.6711 197.68 94.4434 196.995C93.2162 196.357 92.0006 195.693 90.7987 195.007C92.5582 194.097 94.0637 193.387 96.0975 193.587C96.4941 194.03 96.8884 194.49 97.2812 194.938L98.8566 194.23C95.6559 192.884 95.8375 192.287 98.3328 190.088L97.0412 189.494C96.5445 187.545 97.2817 186.303 97.8538 184.498C98.3112 183.056 98.2856 181.63 99.304 180.45Z" fill="#8D9576" fill-opacity="0.3"/>
<path d="M97.2959 194.962C97.6111 195.525 97.6634 195.668 97.8743 196.189C98.1936 196.981 97.9174 198.532 98.1808 198.947C96.9164 198.331 95.6707 197.68 94.4431 196.995C95.4427 196.031 96.0846 195.627 97.2959 194.962Z" fill="#8D9576" fill-opacity="0.3"/>
<path d="M101.796 188.289C101.926 189.133 102.024 189.837 102.097 190.687C100.473 190.725 99.8488 190.598 98.3162 190.099C99.5508 189.333 100.493 188.884 101.796 188.289Z" fill="#8D9576" fill-opacity="0.3"/>
<path d="M102.257 193.852C102.237 194.641 102.226 195.435 102.169 196.222C100.987 195.527 100.176 194.896 98.8824 194.212C100.322 193.851 100.777 193.792 102.257 193.852Z" fill="#8D9576" fill-opacity="0.3"/>
<path d="M94.3465 178.6C95.5261 179.244 96.8729 180.528 94.9546 181.353C93.0462 181.083 93.8713 179.916 94.3465 178.6Z" fill="#8D9576" fill-opacity="0.3"/>
<path d="M91.437 179.204C92.5454 179.92 93.7929 181.227 91.8643 181.89C91.3419 181.825 91.1793 181.785 90.8483 181.452C90.6627 180.759 90.8148 179.613 91.437 179.204Z" fill="#8D9576" fill-opacity="0.3"/>
<path d="M75.1774 176.908C78.6209 178.622 81.8146 178.587 85.5683 178.278C85.2098 178.943 84.7776 179.806 84.3564 180.428C84.1693 180.705 83.8372 180.435 83.6476 180.877C84.9751 183.208 91.1702 186.475 90.5006 189.273C90.1424 190.768 88.0671 191.797 86.7827 192.493L86.6448 192.568C83.5708 190.844 76.1849 186.111 73.7475 183.6C74.0021 183.675 74.2071 183.903 74.4038 183.905C75.0621 183.93 76.1782 183.243 76.6759 182.847C78.3912 181.483 75.1956 179.252 74.228 178.395L75.1774 176.908Z" fill="#8D9576" fill-opacity="0.3"/>
<path d="M86.213 166.678C88.8309 168.1 90.4633 169.231 92.7028 171.311C93.9786 172.549 94.8039 173.444 95.9325 174.864C96.6548 175.876 97.2098 176.673 97.8578 177.742C95.5842 178.66 93.5119 178.863 91.1802 178.126L90.7564 177.199C88.9391 177.688 87.5737 177.959 85.6855 178.236C86.7107 176.859 87.4359 175.165 85.5059 174.095C84.7143 173.664 83.7834 173.566 82.9195 173.826C80.7688 174.493 81.0064 176.333 81.5604 178.047C80.8014 177.144 80.0486 176.207 79.0999 175.497C78.5269 175.069 78.2433 174.673 78.4205 173.935C78.6807 173.698 78.5338 173.77 78.8778 173.711C79.1299 174.036 80.0651 175.896 80.5883 175.51C81.4416 174.881 82.1366 173.397 82.5946 172.424C82.8545 171.873 82.6661 171.387 82.4414 170.872C83.2065 170.34 83.3687 170.205 84.2833 169.999C84.8469 168.793 85.7568 167.756 86.213 166.678Z" fill="#8D9576" fill-opacity="0.3"/>
<path d="M92.7022 171.31C93.978 172.549 94.8033 173.443 95.9319 174.864C94.8498 175.967 92.2474 176.716 90.7425 177.223C90.6768 176.98 90.6079 176.738 90.5358 176.496C90.0807 175.001 88.3944 175.491 88.0268 174.253C88.5001 173.499 90.399 173.587 90.4997 173.508C91.2963 172.88 91.4691 171.988 92.7022 171.31Z" fill="#8D9576" fill-opacity="0.3"/>
<path d="M88.4729 168.655C88.9415 168.96 89.2784 169.177 89.3976 169.785C89.5859 170.741 87.9436 173.722 87.0254 173.766C86.586 173.564 86.4041 173.247 86.1002 172.859C86.0591 172.791 86.0202 172.721 85.982 172.65C85.4758 171.713 84.9737 170.7 85.3334 169.626C85.8096 168.202 87.3197 168.218 88.4729 168.655Z" fill="#8D9576" fill-opacity="0.3"/>
<path d="M70.1416 165.849C69.6847 168.871 70.3435 171.038 73.3448 172.256C73.5013 172.733 73.6555 173.212 73.8059 173.692C73.072 174.158 72.2913 174.636 71.5903 175.142C69.8828 173.953 68.1043 173.107 66.2022 174.532C64.697 170.496 66.9221 167.877 70.1416 165.849Z" fill="#8D9576" fill-opacity="0.3"/>
<path d="M70.6897 165.576C72.026 164.928 72.6344 164.713 74.0841 164.4C73.6318 165.315 73.4212 165.95 73.133 166.941C72.1932 166.302 71.7628 165.987 70.6897 165.576Z" fill="#8D9576" fill-opacity="0.3"/>
<path d="M66.8806 175.998C68.0083 176.501 68.4185 176.635 69.6291 176.804C69.1088 177.317 68.7768 177.631 68.3321 178.212C67.7438 177.401 67.3834 176.862 66.8806 175.998Z" fill="#8D9576" fill-opacity="0.3"/>
<path d="M125.36 116.641C125.895 117.85 126.288 119.239 126.681 120.51C126.855 121.23 127.042 121.96 127.18 122.686C127.325 123.657 127.49 124.662 127.598 125.634C127.655 126.39 127.724 127.13 127.717 127.889C127.738 130.435 127.44 132.973 126.832 135.446C126.552 136.365 126.274 137.332 125.962 138.236C125.554 139.225 125.174 140.153 124.71 141.119C120.613 148.176 115.106 154.172 106.37 154.525C105.201 154.482 104.359 154.388 103.21 154.092L102.419 153.845C98.9529 152.426 97.0992 150.604 97.4987 146.643C97.6452 145.966 97.7731 145.542 97.9839 144.888C98.1988 144.27 98.5251 143.57 98.79 142.963C100.467 140.138 101.226 138.97 103.31 136.424C106.5 132.708 109.507 129.838 113.078 126.579L116.501 123.632L119.516 121.171C120.174 120.542 121.623 119.474 122.386 118.874L125.36 116.641Z" fill="#8D9576" fill-opacity="0.3"/>
<path d="M125.359 116.641C125.894 117.85 126.287 119.239 126.68 120.51C126.854 121.23 127.041 121.96 127.179 122.686C127.324 123.657 127.489 124.662 127.597 125.634C127.654 126.39 127.723 127.131 127.716 127.889C127.737 130.435 127.439 132.973 126.831 135.446C126.551 136.365 126.273 137.332 125.961 138.236C125.553 139.225 125.173 140.153 124.709 141.119C123.751 140.625 120.493 139.844 119.509 139.987C117.697 139.841 116.488 139.838 114.631 139.907C113.661 138.969 113.786 138.437 112.41 137.797C112.605 136.645 116.749 132.308 117.216 130.678C118.017 127.888 115.218 127.227 113.077 126.579L116.5 123.632L119.515 121.171C120.173 120.542 121.622 119.474 122.385 118.874L125.359 116.641Z" fill="#8D9576" fill-opacity="0.3"/>
<path d="M125.36 116.641C125.895 117.849 126.287 119.239 126.681 120.509C126.854 121.229 127.042 121.96 127.179 122.686C127.325 123.657 127.489 124.662 127.597 125.634C127.655 126.39 127.723 127.13 127.716 127.889C127.737 130.435 127.44 132.973 126.832 135.446C125.592 134.456 125.427 133.271 124.674 131.918C123.768 130.286 123.128 129.548 123.151 127.634L124.243 126.831C121.503 125.348 121.391 124.739 123.949 122.961L122.412 122.582C122.151 123.185 121.935 123.509 121.587 124.055C119.672 124.589 118.329 124.146 116.501 123.632L119.516 121.17C120.174 120.541 121.623 119.474 122.386 118.874L125.36 116.641Z" fill="#8D9576" fill-opacity="0.3"/>
<path d="M119.516 121.171C120.174 120.542 121.622 119.474 122.386 118.874C122.944 120.255 122.996 121.151 122.407 122.586C121.216 122.121 120.599 121.859 119.516 121.171Z" fill="#8D9576" fill-opacity="0.3"/>
<path d="M127.597 125.635C127.654 126.391 127.723 127.131 127.716 127.889C126.34 127.565 125.58 127.364 124.268 126.837C125.493 126.064 126.195 125.857 127.597 125.635Z" fill="#8D9576" fill-opacity="0.3"/>
<path d="M126.681 120.51C126.854 121.23 127.042 121.961 127.179 122.686C125.767 123.091 125.487 123.092 124.018 122.95C125.17 122.11 125.662 121.353 126.681 120.51Z" fill="#8D9576" fill-opacity="0.3"/>
<path d="M125.96 138.236C125.553 139.225 125.173 140.153 124.709 141.119C123.751 140.625 120.493 139.844 119.509 139.987C119.849 138.407 121.164 138.358 122.553 138.062C123.899 137.998 124.63 137.942 125.96 138.236Z" fill="#8D9576" fill-opacity="0.3"/>
<path d="M122.638 135.441C123.115 135.534 123.19 135.52 123.552 135.816C123.965 136.755 123.239 137.472 122.553 138.061C122.25 137.503 121.712 136.7 121.709 136.118C121.956 135.605 122.105 135.608 122.638 135.441Z" fill="#8D9576" fill-opacity="0.3"/>
<path d="M119.941 135.414C120.263 135.572 120.347 135.638 120.634 135.841C121.075 136.598 120.337 138.022 119.523 137.894C119.197 137.191 118.641 136.64 118.906 135.881C119.265 135.547 119.447 135.546 119.941 135.414Z" fill="#8D9576" fill-opacity="0.3"/>
<path d="M113.076 126.578C115.217 127.227 118.016 127.888 117.215 130.678C116.748 132.308 112.604 136.645 112.409 137.796C113.785 138.437 113.66 138.968 114.63 139.906C111.902 139.693 107.541 141.184 105.265 142.862L104.208 141.673C106.455 138.758 107.955 137.604 103.309 136.424C106.498 132.707 109.505 129.837 113.076 126.578Z" fill="#8D9576" fill-opacity="0.3"/>
<path d="M102.347 145.161C103.081 145.47 103.846 145.807 104.587 146.09L104.466 147.468C101.432 149.334 102.153 150.954 102.418 153.845C98.9514 152.427 97.0977 150.604 97.4972 146.644C99.5672 147.464 100.911 146.679 102.347 145.161Z" fill="#8D9576" fill-opacity="0.3"/>
<path d="M105.174 152.336C105.555 153.166 105.897 153.737 106.369 154.525C105.2 154.482 104.358 154.388 103.209 154.092C103.959 153.549 104.543 153.007 105.174 152.336Z" fill="#8D9576" fill-opacity="0.3"/>
<path d="M98.7892 142.962C99.2705 143.276 99.782 143.595 100.243 143.933C99.3958 144.252 98.7945 144.492 97.9831 144.888C98.198 144.269 98.5243 143.57 98.7892 142.962Z" fill="#8D9576" fill-opacity="0.3"/>
<path d="M167.919 80.0297C168.033 80.1883 168.031 80.1636 168.1 80.3419C168.85 82.2729 165.838 96.6358 165.164 99.513C164.386 102.845 163.507 106.153 162.527 109.431C161.336 113.304 159.943 117.113 158.352 120.84C147.617 145.719 130.148 157.116 103.403 159.184C94.17 159.898 86.0276 159.69 76.7707 159.529C63.6572 159.3 49.1791 159.091 36.8086 163.927C25.0007 168.543 16.7609 177.889 11.8135 189.393L9.87599 188.138L8.4279 187.199C9.98278 183.963 11.095 181.82 13.0527 178.836C27.3901 156.439 54.055 156.558 77.7969 157.151C95.6569 157.598 115.791 158.092 132.002 149.307C153.682 137.518 161.835 112.02 165.807 89.2296C166.258 86.6341 166.512 82.0568 167.919 80.0297Z" fill="#8D9576" fill-opacity="0.3"/>
<path d="M126.57 160.366C128.78 161.506 130.426 162.584 132.247 164.327C133.113 165.204 133.753 165.934 134.548 166.865C135.038 167.569 135.567 168.304 136.011 169.032C136.363 169.669 136.788 170.393 137.069 171.05C138.116 173.342 138.5 174.584 138.976 177.017L139.221 178.884C139.282 179.672 139.351 180.395 139.326 181.185C139.299 181.821 139.279 182.457 139.229 183.091C139.143 184.305 139.003 185.167 138.802 186.356C138.289 186.105 137.403 185.701 136.945 185.42C135.84 184.939 134.45 184.174 133.366 183.603C132.471 183.111 131.582 182.612 130.698 182.102C129.451 181.459 128.654 180.896 127.507 180.246C125.312 179.198 119.986 175.34 118.157 173.816C116.413 172.452 115.115 171.101 113.711 169.426C113.377 168.961 113.054 168.462 112.737 167.985C112.476 167.538 112.311 167.124 112.109 166.651C111 163.492 112.502 161.739 115.018 160.09L115.526 159.813C116.443 159.393 117.089 159.219 118.06 158.963C121.217 158.457 123.691 159.137 126.57 160.366Z" fill="#8D9576" fill-opacity="0.3"/>
<path d="M136.011 169.032C136.363 169.669 136.788 170.393 137.069 171.05C138.116 173.341 138.501 174.584 138.976 177.017L139.221 178.884C139.283 179.671 139.351 180.395 139.326 181.185C139.3 181.821 139.28 182.457 139.23 183.091C139.143 184.305 139.003 185.167 138.803 186.356C138.289 186.105 137.403 185.701 136.945 185.42C135.84 184.939 134.45 184.174 133.366 183.603C132.471 183.111 131.582 182.612 130.698 182.102C129.452 181.459 128.654 180.896 127.507 180.246C134.782 177.127 126.848 174.329 125.34 171.431C126.028 171.004 126.294 170.214 126.682 169.454L126.807 169.416C127.655 169.308 130.125 168.695 130.595 168.789C131.697 170.308 134.52 169.672 136.011 169.032Z" fill="#8D9576" fill-opacity="0.3"/>
<path d="M137.069 171.05C138.116 173.341 138.501 174.584 138.976 177.017L139.222 178.883C139.283 179.671 139.351 180.395 139.326 181.185C139.3 181.821 139.28 182.457 139.23 183.09C139.143 184.305 139.004 185.166 138.803 186.356C138.289 186.104 137.404 185.7 136.945 185.419C135.84 184.938 134.45 184.173 133.366 183.602C132.471 183.11 131.583 182.611 130.698 182.101C132.163 181.297 132.913 181.01 134.601 180.964C134.924 181.291 135.256 181.666 135.57 182.009L136.7 181.551C135.999 181.201 135.113 180.936 134.984 180.098C135.155 179.326 135.772 178.925 136.375 178.392C134.132 177.471 135.775 175.593 136.073 173.761C136.205 172.956 136.633 171.708 137.069 171.05Z" fill="#8D9576" fill-opacity="0.3"/>
<path d="M135.578 182.051C135.628 182.146 135.678 182.241 135.729 182.337L135.791 182.465C136.161 183.207 136.091 183.794 136.231 184.603C136.314 185.089 136.51 185.101 136.944 185.42C135.839 184.939 134.449 184.174 133.365 183.603C134.226 182.872 134.597 182.59 135.578 182.051Z" fill="#8D9576" fill-opacity="0.3"/>
<path d="M138.976 177.017L139.221 178.883C137.961 178.803 137.579 178.743 136.372 178.418C137.281 177.808 137.955 177.424 138.976 177.017Z" fill="#8D9576" fill-opacity="0.3"/>
<path d="M139.327 181.185C139.3 181.821 139.28 182.457 139.23 183.09C138.185 182.406 137.86 182.051 136.693 181.496C137.729 181.241 138.28 181.198 139.327 181.185Z" fill="#8D9576" fill-opacity="0.3"/>
<path d="M131.351 170.275C131.905 170.707 132.385 171.081 132.115 171.817C131.795 172.124 131.706 172.115 131.282 172.211C130.98 172.088 130.693 172.054 130.646 171.77C130.54 171.139 130.749 170.754 131.046 170.263L131.351 170.275Z" fill="#8D9576" fill-opacity="0.3"/>
<path d="M133.331 169.648C133.866 169.992 134.485 170.441 134.526 171.115C134.32 171.584 134.377 171.442 133.895 171.78C133.417 171.724 133.232 171.708 132.937 171.334C132.851 170.846 133.16 170.15 133.331 169.648Z" fill="#8D9576" fill-opacity="0.3"/>
<path d="M118.158 173.817C122.818 172.516 118.832 170.813 118.352 169.473C118.383 169.091 118.52 168.978 118.755 168.674C119.354 168.445 120.884 169.305 121.896 169.42C123.761 169.631 124.82 169.612 126.683 169.454C126.294 170.214 126.028 171.004 125.34 171.432C126.848 174.33 134.783 177.128 127.507 180.246C125.313 179.199 119.986 175.34 118.158 173.817Z" fill="#8D9576" fill-opacity="0.3"/>
<path d="M126.569 160.366C128.78 161.505 130.425 162.584 132.246 164.326C133.112 165.203 133.753 165.933 134.548 166.865C135.037 167.568 135.566 168.303 136.011 169.032C134.519 169.671 131.696 170.307 130.594 168.789C130.124 168.695 127.654 169.308 126.806 169.415C129.106 166.469 125.292 164.856 123.665 166.882C123.199 167.462 123.413 168.355 123.567 169.05C123.004 168.465 121.596 167.236 121.202 166.739C121.288 166.407 121.272 166.317 121.522 166.088C122.181 166.37 122.144 167.348 122.968 167.387C123.406 167.119 123.989 165.877 124.358 165.376C124.71 164.896 124.528 164.326 124.368 163.798C124.858 163.51 125.153 163.389 125.683 163.172C126.084 162.566 126.938 161.563 127.013 160.845C127.027 160.706 126.693 160.475 126.569 160.366Z" fill="#8D9576" fill-opacity="0.3"/>
<path d="M132.247 164.326C133.113 165.203 133.753 165.933 134.549 166.865C133.731 167.714 131.729 168.295 130.591 168.661C130.132 166.614 129.386 167.789 128.616 166.52C128.827 165.81 130.298 166.03 130.608 165.748C131.147 165.257 131.223 164.413 132.247 164.326Z" fill="#8D9576" fill-opacity="0.3"/>
<path d="M129.042 162.015C130.362 163.224 128.811 165.778 127.881 166.039C127.492 165.918 127.341 165.656 127.073 165.337C125.85 162.954 126.293 161.937 129.042 162.015Z" fill="#8D9576" fill-opacity="0.3"/>
<path d="M115.018 160.09C114.566 164.985 117.229 163.488 117.829 165.975L116.159 167.085C114.835 166.146 113.574 165.56 112.109 166.652C111 163.492 112.502 161.739 115.018 160.09Z" fill="#8D9576" fill-opacity="0.3"/>
<path d="M118.06 158.964C117.656 159.747 117.568 160.037 117.311 160.884C116.738 160.513 116.141 160.1 115.526 159.814C116.443 159.393 117.089 159.22 118.06 158.964Z" fill="#8D9576" fill-opacity="0.3"/>
<path d="M114.685 168.33C114.343 168.697 114.022 169.031 113.711 169.426C113.376 168.961 113.054 168.462 112.736 167.985C113.398 168.076 114.028 168.203 114.685 168.33Z" fill="#8D9576" fill-opacity="0.3"/>
<path d="M138.826 106.562C139.546 106.841 140.639 107.517 141.271 107.973C143.039 109.258 144.082 110.173 145.534 111.833L146.772 113.446C147.19 114.113 147.668 114.835 148.018 115.53C148.62 116.635 148.962 117.333 149.379 118.526C149.749 119.669 149.989 120.582 150.272 121.739L150.287 122.035C150.409 122.837 150.471 123.422 150.527 124.231C150.58 127.49 150.237 129.884 148.432 132.675C147.849 133.436 147.443 133.874 146.716 134.515L146.333 134.77C143.997 136.298 141.847 136.806 139.619 134.691C139.325 134.391 139.012 133.962 138.749 133.624L137.925 132.296C136.97 130.53 136.425 128.703 135.882 126.786C135.049 124.334 134.321 119.008 133.996 116.435C133.832 115.206 133.728 114.234 133.642 112.994L133.393 110.118C133.303 109.223 133.273 108.144 133.223 107.233L133.128 104.482C134.201 104.741 134.946 104.945 135.987 105.302C136.541 105.494 137.214 105.78 137.769 106.001C138.147 106.169 138.468 106.359 138.826 106.562Z" fill="#8D9576" fill-opacity="0.3"/>
<path d="M138.826 106.562C139.546 106.841 140.639 107.517 141.271 107.973C143.039 109.258 144.082 110.173 145.534 111.833L146.772 113.446C145.773 114.416 144.032 116.769 144.917 118.15C144.779 118.627 143.315 120.543 142.901 121.181L142.851 121.234C142.14 121.281 141.449 121.332 140.755 121.509C140.703 121.522 140.475 121.31 140.477 121.314C138.675 118.101 139.288 111.85 133.996 116.435C133.832 115.206 133.728 114.234 133.642 112.994L133.393 110.118C133.303 109.223 133.273 108.144 133.223 107.233L133.128 104.482C134.201 104.741 134.946 104.945 135.987 105.302C136.541 105.494 137.214 105.78 137.769 106.001C138.147 106.169 138.468 106.359 138.826 106.562Z" fill="#8D9576" fill-opacity="0.3"/>
<path d="M138.826 106.562C139.546 106.841 140.639 107.517 141.271 107.973C143.039 109.258 144.082 110.173 145.534 111.833C145.278 111.79 145.087 111.841 144.955 111.825C143.005 111.59 140.827 111.627 139.067 110.732C139.018 110.36 138.962 109.994 138.938 109.62C138.24 109.92 137.639 110.293 136.916 110.069C136.349 109.621 136.444 109.2 136.447 108.533L136.447 108.124L135.592 108.84C135.932 109.608 136.098 109.822 135.791 110.679C135.527 111.418 134.278 112.556 133.642 112.994L133.393 110.118C133.303 109.223 133.273 108.144 133.223 107.233L133.128 104.482C134.201 104.741 134.946 104.945 135.987 105.302C136.541 105.494 137.214 105.78 137.769 106.001C138.147 106.169 138.468 106.359 138.826 106.562Z" fill="#8D9576" fill-opacity="0.3"/>
<path d="M133.223 107.233C135.921 108.147 135.94 108.935 133.392 110.118C133.303 109.223 133.272 108.144 133.223 107.233Z" fill="#8D9576" fill-opacity="0.3"/>
<path d="M138.825 106.562C139.544 106.841 140.637 107.517 141.27 107.973C140.778 108.007 139.804 109.06 138.937 109.555L138.96 109.383C139.137 108.013 140.04 107.317 138.825 106.562Z" fill="#8D9576" fill-opacity="0.3"/>
<path d="M135.986 105.302C136.541 105.494 137.213 105.78 137.768 106.001C137.303 106.865 137.083 107.285 136.487 108.049C136.426 107.452 136.289 105.767 135.986 105.302Z" fill="#8D9576" fill-opacity="0.3"/>
<path d="M144.426 113.783C144.806 114.107 145.265 114.778 145.147 115.298C144.848 115.525 144.932 115.45 144.428 115.398C143.847 115.325 143.896 115.385 143.539 115.049C143.374 114.295 143.806 114.036 144.426 113.783Z" fill="#8D9576" fill-opacity="0.3"/>
<path d="M143.145 115.598C143.559 115.918 144.023 116.579 143.915 117.126C143.628 117.36 143.797 117.272 143.297 117.238C142.869 117.19 142.718 117.212 142.375 116.949C142.004 116.187 142.515 115.903 143.145 115.598Z" fill="#8D9576" fill-opacity="0.3"/>
<path d="M133.995 116.435C139.287 111.85 138.674 118.1 140.476 121.314C140.474 121.31 140.702 121.522 140.754 121.509C141.449 121.332 142.139 121.281 142.85 121.234C141.6 123.503 140.562 125.636 140.763 128.303C140.354 128.353 139.88 128.424 139.473 128.448C138.793 126.134 138.359 124.203 135.881 126.786C135.048 124.334 134.32 119.008 133.995 116.435Z" fill="#8D9576" fill-opacity="0.3"/>
<path d="M146.77 113.446C147.188 114.113 147.666 114.835 148.017 115.531C148.618 116.635 148.96 117.333 149.377 118.526C149.747 119.67 149.987 120.582 150.27 121.739L150.286 122.035C150.407 122.837 150.469 123.422 150.525 124.231C149.712 124.049 148.847 124.401 147.899 124.433C147.551 124.771 147.406 124.982 146.959 125.115C145.109 124.858 145.401 124.644 143.564 125.165C144.508 124.629 145.2 124.217 145.465 123.078C145.937 121.045 144.463 120.726 142.899 121.181C143.313 120.543 144.778 118.628 144.915 118.151C144.03 116.769 145.771 114.416 146.77 113.446Z" fill="#8D9576" fill-opacity="0.3"/>
<path d="M148.018 115.53C148.62 116.635 148.962 117.333 149.379 118.526C148.708 119.201 148.193 119.097 147.423 119.361C147.236 119.426 146.945 120.595 146.168 120.775C145.758 120.386 145.82 119.416 145.794 118.815C145.474 118.602 145.368 118.589 145.175 118.283C145.396 117.552 147.291 115.748 148.018 115.53Z" fill="#8D9576" fill-opacity="0.3"/>
<path d="M150.287 122.035C150.029 122.526 149.691 123.146 149.279 123.526C148.054 124.655 145.957 122.546 146.254 121.383C146.355 121.333 146.537 121.239 146.647 121.228C148.792 121.01 148.663 120.62 150.271 121.739L150.287 122.035Z" fill="#8D9576" fill-opacity="0.3"/>
<path d="M140.836 131.077C141.378 130.731 141.859 130.331 142.493 130.338C143.826 131.101 142.292 133.087 146.332 134.77C143.996 136.298 141.847 136.806 139.619 134.691C141.134 134.221 141.119 132.339 140.836 131.077Z" fill="#8D9576" fill-opacity="0.3"/>
<path d="M146.608 132.486L148.432 132.675C147.849 133.436 147.442 133.874 146.715 134.516C146.81 133.802 146.691 133.205 146.608 132.486Z" fill="#8D9576" fill-opacity="0.3"/>
<path d="M137.924 132.296L139.208 131.885L138.748 133.624L137.924 132.296Z" fill="#8D9576" fill-opacity="0.3"/>
<path d="M143.349 124.895L143.459 124.884L143.56 124.969C143.284 125.132 143.274 125.111 143.105 125.376C143.142 126.007 143.612 126.142 143.806 126.814C143.542 127.041 143.486 126.955 143.03 126.957C142.745 125.788 142.456 125.125 141.952 124.036L143.349 124.895Z" fill="#8D9576" fill-opacity="0.3"/>
<path d="M170.462 141.579C171.292 141.965 172.064 142.461 172.761 143.055C173.652 143.727 174.324 144.299 175.158 145.032L172.866 146.404L170.398 147.84C169.615 148.266 168.676 148.812 167.887 149.196C166.923 149.704 165.964 150.222 164.972 150.674C162.197 152.122 158.545 153.734 155.558 154.691C153.849 155.229 151.734 155.829 149.954 155.965C149.51 155.986 148.978 156.028 148.543 156.016C144.454 155.923 143.344 153.557 143.498 149.88C143.61 149.021 143.735 148.558 144.015 147.753C145.084 144.907 147.342 142.972 149.83 141.4C151.486 140.461 153.132 139.827 154.962 139.33C156.143 139.083 157.015 138.955 158.199 138.807C159.042 138.732 159.665 138.732 160.514 138.738C161.106 138.732 162.053 138.857 162.667 138.922C164.697 139.151 166.221 139.644 168.11 140.357L169.65 141.071L170.462 141.579Z" fill="#8D9576" fill-opacity="0.3"/>
<path d="M170.462 141.579C171.292 141.965 172.064 142.461 172.761 143.055C173.652 143.727 174.324 144.299 175.158 145.032L172.866 146.404L170.398 147.84C169.615 148.266 168.676 148.812 167.887 149.196C166.923 149.704 165.965 150.222 164.972 150.674C165.415 145.861 163.805 146.403 159.947 147.502C159.169 147.724 158.069 148.174 157.284 147.965C157.166 147.817 156.625 146.562 156.315 146.07L156.361 145.931C156.706 145.205 157.393 143.095 157.718 142.736C157.9 142.731 158.326 142.726 158.457 142.625C159.571 141.757 160.37 140.087 160.514 138.738C161.106 138.732 162.053 138.858 162.667 138.923C164.697 139.151 166.221 139.645 168.11 140.357L169.65 141.071L170.462 141.579Z" fill="#8D9576" fill-opacity="0.3"/>
<path d="M170.463 141.579C171.292 141.965 172.065 142.461 172.761 143.055C173.653 143.727 174.324 144.299 175.159 145.032L172.866 146.404L170.398 147.84C169.615 148.266 168.676 148.812 167.888 149.196C168.019 148.256 168.127 146.877 168.675 146.116C169.145 145.464 169.527 145.5 170.285 145.386L170.393 144.329C169.779 144.71 169.285 145.161 168.553 144.941C167.973 144.471 167.988 143.791 167.886 143.049C167.773 143.113 167.185 143.446 167.075 143.465C166.272 143.566 165.14 142.119 164.692 141.557C164.053 140.755 162.896 139.878 162.667 138.923C164.697 139.151 166.221 139.644 168.111 140.357L169.651 141.071L170.463 141.579Z" fill="#8D9576" fill-opacity="0.3"/>
<path d="M170.284 145.41C171.517 145.507 171.9 145.715 172.866 146.404L170.398 147.839C170.247 146.966 170.251 146.286 170.284 145.41Z" fill="#8D9576" fill-opacity="0.3"/>
<path d="M168.111 140.357L169.65 141.071L169.521 141.216C168.78 142.051 168.901 142.209 167.874 143.027C167.86 141.9 167.937 141.469 168.111 140.357Z" fill="#8D9576" fill-opacity="0.3"/>
<path d="M170.463 141.579C171.292 141.965 172.065 142.461 172.761 143.054C172.057 143.46 171.153 143.862 170.409 144.21C170.684 143.364 171.125 142.95 171.213 142.345C171.043 141.884 170.942 141.936 170.463 141.579Z" fill="#8D9576" fill-opacity="0.3"/>
<path d="M161.401 140.749C161.692 141.365 161.613 141.955 160.963 142.274C160.584 142.208 160.748 142.292 160.473 141.982C160.112 141.598 159.773 141.409 160.074 140.927C160.531 140.724 160.899 140.761 161.401 140.749Z" fill="#8D9576" fill-opacity="0.3"/>
<path d="M160.572 142.662C160.898 143.243 160.9 143.699 160.351 144.143C159.905 144.205 160.111 144.247 159.718 143.986L158.831 142.966C159.541 142.785 159.854 142.743 160.572 142.662Z" fill="#8D9576" fill-opacity="0.3"/>
<path d="M156.315 146.07C156.625 146.561 157.167 147.816 157.285 147.964C158.069 148.173 159.169 147.723 159.947 147.501C163.806 146.403 165.415 145.861 164.972 150.674C162.197 152.122 158.546 153.733 155.558 154.69C156.15 151.344 154.729 151.916 152.27 152.627C152.081 152.264 151.898 151.897 151.722 151.529C153.893 150.24 155.206 148.318 156.315 146.07Z" fill="#8D9576" fill-opacity="0.3"/>
<path d="M160.514 138.738C160.37 140.087 159.571 141.756 158.457 142.624C158.327 142.726 157.9 142.73 157.718 142.736C157.393 143.094 156.706 145.204 156.361 145.93C155.285 142.829 152.16 144.768 152.845 147.025C153.052 147.705 153.821 147.986 154.444 148.254C154.044 148.329 151.642 148.906 151.494 148.858L151.311 148.396C151.556 148.165 152.033 148.26 152.585 148.154C153.286 147.497 152.399 146.214 151.837 145.699C151.324 145.229 150.965 145.272 150.95 144.467C150.929 143.334 150.519 142.283 149.83 141.4C151.486 140.46 153.132 139.826 154.962 139.33C156.144 139.083 157.015 138.954 158.199 138.807C159.042 138.731 159.665 138.732 160.514 138.738Z" fill="#8D9576" fill-opacity="0.3"/>
<path d="M154.962 139.33C156.144 139.083 157.015 138.954 158.2 138.807C158.315 139.897 157.976 141.644 157.592 142.663L156.749 142.404C156.209 142.714 155.504 143.208 154.902 143.135C154.716 142.601 155.412 141.713 155.353 141.329C155.236 140.566 154.914 140.193 154.962 139.33Z" fill="#8D9576" fill-opacity="0.3"/>
<path d="M152.552 140.562C153.435 141.007 154.666 142.581 154.11 143.575C153.739 143.786 153.428 143.738 152.993 143.741C150.155 143.277 150.552 140.945 152.552 140.562Z" fill="#8D9576" fill-opacity="0.3"/>
<path d="M144.016 147.754C144.472 148.21 144.786 148.552 145.205 149.037C144.551 149.327 144.121 149.521 143.498 149.88C143.61 149.021 143.735 148.559 144.016 147.754Z" fill="#8D9576" fill-opacity="0.3"/>
<path d="M149.581 154.725C149.687 155.148 149.821 155.549 149.954 155.964C149.51 155.985 148.979 156.027 148.543 156.015C148.853 155.593 149.245 155.136 149.581 154.725Z" fill="#8D9576" fill-opacity="0.3"/>
<path d="M151.62 89.2632C152.032 89.5048 152.834 89.9415 153.165 90.2349L154.451 91.2068C158.03 94.4821 160.341 98.4786 159.437 103.436C159.233 103.969 159.038 104.496 158.805 105.017L158.441 105.575C157.04 107.289 155.999 108.04 153.765 107.271C151.484 106.013 150.403 104.585 148.802 102.571C147.253 100.379 145.918 98.0586 144.659 95.6936C144.244 94.9668 143.872 94.1898 143.499 93.4393C143.185 92.8685 142.814 92.0103 142.529 91.3995C142.221 90.8034 141.856 89.9299 141.567 89.2999C141.27 88.6881 141.031 88.0622 140.78 87.4311C141.645 87.3114 142.293 87.2639 143.168 87.2185L144.466 87.2457C145.028 87.2708 145.629 87.3617 146.191 87.432L147.413 87.6662C149.061 88.0708 150.125 88.501 151.62 89.2632Z" fill="#8D9576" fill-opacity="0.3"/>
<path d="M151.62 89.2632C152.032 89.5048 152.834 89.9415 153.165 90.2349L154.451 91.2068C153.901 91.79 153.27 93.2341 153.053 94.0067L153.063 94.0947C152.708 94.8739 152.503 95.8527 152.362 96.6987C151.856 96.9541 151.198 97.2624 150.72 97.543C148.647 95.3204 147.063 91.457 144.659 95.6936C144.244 94.9668 143.872 94.1898 143.499 93.4393C143.185 92.8685 142.814 92.0103 142.529 91.3995C142.221 90.8034 141.856 89.9299 141.567 89.2999C141.27 88.6881 141.031 88.0622 140.78 87.4311C141.645 87.3114 142.293 87.2639 143.168 87.2185L144.466 87.2457C145.028 87.2708 145.629 87.3617 146.191 87.432L147.413 87.6662C149.061 88.0708 150.125 88.501 151.62 89.2632Z" fill="#8D9576" fill-opacity="0.3"/>
<path d="M147.412 87.666C149.061 88.0707 150.125 88.5008 151.62 89.263C150.885 89.6807 147.695 90.4759 146.836 90.2551C146.577 90.0462 146.568 89.967 146.417 89.6708L146.276 89.6164C145.874 89.8979 145.523 90.3333 145.081 90.4362C144.51 90.2753 144.447 89.9196 144.195 89.3935L144.047 89.3838C143.745 89.8578 143.687 89.891 144.116 90.3379C144.834 91.0865 143.922 92.5766 143.499 93.4392C143.184 92.8683 142.814 92.0102 142.529 91.3993C142.221 90.8032 141.855 89.9297 141.567 89.2997C141.27 88.6879 141.031 88.0621 140.779 87.4309C141.644 87.3113 142.293 87.2637 143.168 87.2183L144.466 87.2455C145.028 87.2706 145.629 87.3615 146.19 87.4318L147.412 87.666Z" fill="#8D9576" fill-opacity="0.3"/>
<path d="M141.567 89.3004C142.186 89.3659 142.976 89.3553 143.381 89.8175C143.496 90.5395 142.996 90.879 142.529 91.4C142.221 90.8039 141.855 89.9304 141.567 89.3004Z" fill="#8D9576" fill-opacity="0.3"/>
<path d="M146.191 87.433L147.412 87.6672C147.028 88.3932 146.771 88.8258 146.314 89.5073C146.148 88.6608 146.042 88.2981 146.191 87.433Z" fill="#8D9576" fill-opacity="0.3"/>
<path d="M143.167 87.2191L144.465 87.2463C144.421 88.097 144.365 88.2926 144.143 89.1008C143.809 88.3453 143.46 87.8439 143.167 87.2191Z" fill="#8D9576" fill-opacity="0.3"/>
<path d="M153.164 90.2358L154.451 91.2077C153.901 91.7909 153.27 93.235 153.052 94.0076C152.243 93.3488 152.396 92.9819 152.396 92.0078C151.867 92.1384 151.261 92.4292 150.964 91.889C150.986 91.4399 150.956 91.2026 151.409 91.0343C151.812 91.1479 151.935 91.3048 152.249 91.5817L152.369 91.6889L152.519 91.5939C152.629 91.0197 152.625 90.5139 153.164 90.2358Z" fill="#8D9576" fill-opacity="0.3"/>
<path d="M150.98 92.5531C151.345 92.7786 151.804 93.0411 151.915 93.454C151.702 93.7859 151.732 93.6845 151.222 93.8237C150.839 93.8958 151.012 93.9242 150.681 93.7647L150.593 93.5045C150.649 92.9972 150.674 92.9808 150.98 92.5531Z" fill="#8D9576" fill-opacity="0.3"/>
<path d="M153.063 94.0955C153.14 94.8625 152.005 97.8642 152.059 99.0757C152.112 100.264 152.384 101.281 152.629 102.417C152.172 102.681 152.403 102.638 151.93 102.628C150.948 102.054 151.17 101.291 150.038 101.214C149.365 101.47 149.184 101.949 148.802 102.572C147.253 100.38 145.917 98.0594 144.658 95.6943C147.063 91.4578 148.646 95.3212 150.719 97.5438C151.197 97.2632 151.856 96.9549 152.362 96.6995C152.502 95.8535 152.708 94.8747 153.063 94.0955Z" fill="#8D9576" fill-opacity="0.3"/>
<path d="M158.441 105.575C157.04 107.29 155.999 108.041 153.765 107.272C154.528 106.118 154.321 105.361 153.544 104.279C155.023 102.49 154.728 103.404 155.84 104.631C156.406 105.256 157.612 105.373 158.441 105.575Z" fill="#8D9576" fill-opacity="0.3"/>
<path d="M158.052 103.732L159.436 103.437C159.233 103.97 159.038 104.496 158.805 105.017C158.559 104.586 158.308 104.157 158.052 103.732Z" fill="#8D9576" fill-opacity="0.3"/>
<path d="M153.717 99.1852C153.632 99.7621 153.996 100.033 154.342 100.481L154.31 100.651L154.08 100.722L153.902 100.544C153.503 100.021 153.014 99.5313 152.56 99.049L153.717 99.1852Z" fill="#8D9576" fill-opacity="0.3"/>
<path d="M180.406 117.564C181.068 117.791 182.395 118.698 182.941 119.166C183.4 119.559 183.937 119.995 184.369 120.407L182.676 121.415C182.064 121.767 181.382 122.183 180.768 122.513C180.137 122.854 179.475 123.226 178.838 123.546L176.643 124.704C174.162 125.91 172.143 126.787 169.533 127.716C165.644 128.921 159.979 130.199 160.374 124.035C160.439 123.507 160.589 123.03 160.729 122.516C162.658 118.138 167.004 116.151 171.556 115.666C172.064 115.622 172.776 115.624 173.3 115.609C173.752 115.61 174.418 115.683 174.886 115.72C176.386 115.942 177.613 116.316 179.025 116.842C179.379 117.017 179.872 117.215 180.245 117.378L180.406 117.564Z" fill="#8D9576" fill-opacity="0.3"/>
<path d="M180.406 117.564C181.067 117.792 182.395 118.699 182.94 119.167C183.399 119.559 183.936 119.996 184.369 120.408L182.676 121.416C182.064 121.768 181.382 122.184 180.767 122.514C180.136 122.855 179.475 123.227 178.838 123.546L176.643 124.705C177.21 119.933 173.751 122.196 170.798 122.733C170.649 122.081 170.498 121.785 170.086 121.243L170.131 121.024L169.965 120.611C170.217 119.858 170.587 120.085 170.793 118.754L170.408 118.457C170.61 118.464 170.802 118.497 171 118.537C171.443 118.16 171.6 116.247 171.556 115.667C172.063 115.622 172.775 115.624 173.3 115.61C173.751 115.611 174.418 115.684 174.885 115.721C176.386 115.942 177.613 116.317 179.025 116.843C179.379 117.018 179.872 117.215 180.245 117.379L180.406 117.564Z" fill="#8D9576" fill-opacity="0.3"/>
<path d="M180.406 117.564C181.068 117.791 182.396 118.698 182.941 119.166C183.4 119.558 183.937 119.995 184.369 120.407L182.676 121.415C182.064 121.767 181.382 122.183 180.768 122.513C180.137 122.854 179.475 123.226 178.838 123.546C179.011 122.376 179.118 121.968 179.533 120.879C180.139 120.765 180.671 120.774 180.813 120.066L180.647 119.935C180.179 120.203 180.054 120.297 179.546 120.434C178.765 120.115 179.228 119.71 178.818 118.99C178.587 119.036 178.516 119.058 178.302 119.143L178.107 119.222C177.325 118.959 175.13 116.477 174.886 115.72C176.386 115.941 177.613 116.316 179.025 116.842C179.38 117.017 179.872 117.214 180.245 117.378L180.406 117.564Z" fill="#8D9576" fill-opacity="0.3"/>
<path d="M180.767 122.513C180.666 121.841 180.452 121.238 180.99 120.768C181.634 120.675 182.126 121.075 182.676 121.414C182.064 121.766 181.382 122.183 180.767 122.513Z" fill="#8D9576" fill-opacity="0.3"/>
<path d="M179.026 116.842C179.38 117.017 179.872 117.214 180.246 117.377C179.818 117.879 179.362 118.443 178.903 118.908C178.836 117.9 178.913 117.802 179.026 116.842Z" fill="#8D9576" fill-opacity="0.3"/>
<path d="M180.406 117.563C181.067 117.791 182.395 118.697 182.941 119.166C182.187 118.839 181.374 119.426 180.665 119.783C180.909 119.341 181.235 118.965 181.346 118.48C181.17 118.003 180.861 117.886 180.406 117.563Z" fill="#8D9576" fill-opacity="0.3"/>
<path d="M171.557 115.665C172.064 115.621 172.776 115.623 173.301 115.608C173.158 116.205 173.049 116.543 172.838 117.122C173.266 117.339 173.528 116.969 174.041 117.279C174.168 117.692 174.113 117.97 173.788 118.275C173.169 118.203 172.84 117.41 172.545 117.624C170.858 118.847 170.953 119.382 170.132 121.022L169.966 120.609C170.218 119.857 170.588 120.083 170.794 118.752L170.409 118.455C170.611 118.462 170.803 118.496 171.001 118.536C171.444 118.159 171.601 116.245 171.557 115.665Z" fill="#8D9576" fill-opacity="0.3"/>
<path d="M173.162 118.601L173.395 118.809C173.538 119.219 173.521 119.013 173.432 119.452C173.073 119.766 173.273 119.676 172.821 119.752C172.494 119.371 172.294 119.265 172.256 118.843C172.519 118.604 172.793 118.633 173.162 118.601Z" fill="#8D9576" fill-opacity="0.3"/>
<path d="M170.799 122.733C173.752 122.195 177.211 119.932 176.644 124.704C174.163 125.91 172.143 126.787 169.534 127.716C169.656 127.114 169.785 126.592 169.541 126.027C168.529 125.18 167.368 126.506 166.698 125.725C166.722 124.97 167.847 124.55 168.408 123.859C169.138 122.959 169.55 122.254 170.086 121.242C170.499 121.784 170.65 122.08 170.799 122.733Z" fill="#8D9576" fill-opacity="0.3"/>
<path d="M160.729 122.515C161.158 122.894 161.294 122.889 161.457 123.352C161.248 123.684 160.75 123.855 160.375 124.035C160.439 123.506 160.589 123.029 160.729 122.515Z" fill="#8D9576" fill-opacity="0.3"/>
<path d="M167.675 122.352C167.807 122.452 168.393 122.751 168.572 122.847C168.03 122.939 167.441 123.087 166.899 123.21C166.562 123.337 166.734 123.327 166.366 123.212L166.305 123.014L166.506 122.839C167.158 122.819 167.269 122.878 167.675 122.352Z" fill="#8D9576" fill-opacity="0.3"/>
<path d="M184.1 98.6944C184.521 98.96 184.949 99.2136 185.34 99.5203C185.883 99.9643 186.507 100.453 187.021 100.921L185.521 101.831C184.968 102.145 184.284 102.561 183.731 102.846L182.084 103.728L180.076 104.8C177.722 105.905 176.107 106.621 173.682 107.495C171.853 108.055 169.885 108.583 167.952 108.282C165.985 107.713 165.616 106.643 165.523 104.726L165.526 104.218C165.585 103.787 165.762 103.174 165.874 102.737C166.834 100.719 167.963 99.5905 169.867 98.4563C170.388 98.171 170.674 98.0027 171.248 97.81L171.279 97.7692C171.931 97.432 172.593 97.2609 173.294 97.0482C174.02 96.8686 174.689 96.8091 175.43 96.7244C175.963 96.6796 176.551 96.6748 177.09 96.6573C177.289 96.6478 178.187 96.7309 178.437 96.7485C180.017 96.9832 180.762 97.1954 182.264 97.7534L183.205 98.1998L184.1 98.6944Z" fill="#8D9576" fill-opacity="0.3"/>
<path d="M184.1 98.6954C184.522 98.961 184.949 99.2146 185.341 99.5213C185.884 99.9654 186.508 100.454 187.021 100.922L185.521 101.832C184.969 102.146 184.284 102.562 183.731 102.847L182.085 103.729L180.077 104.802C180.63 100.676 177.501 102.416 174.892 103.035C174.653 102.357 174.592 102.206 174.206 101.602L174.296 101.452C173.304 99.7278 171.756 100.466 171.808 102.092L171.729 102.152C171.541 101.846 171.202 101.222 170.902 101.065C170.395 100.799 170.579 100.445 170.625 99.9002C170.364 99.4241 170.111 98.9432 169.868 98.4573C170.389 98.172 170.674 98.0037 171.249 97.811L171.28 97.7702C171.932 97.433 172.594 97.2619 173.295 97.0492C174.02 96.8696 174.689 96.8101 175.43 96.7255C175.963 96.6806 176.552 96.6758 177.091 96.6583C177.29 96.6488 178.187 96.732 178.438 96.7496C180.018 96.9842 180.763 97.1964 182.265 97.7544L183.206 98.2009L184.1 98.6954Z" fill="#8D9576" fill-opacity="0.3"/>
<path d="M175.431 96.7243C175.964 96.6794 176.552 96.6746 177.091 96.6572C176.969 97.1426 176.856 97.5377 176.701 98.0136C177.129 98.2068 177.289 97.8736 177.758 98.149C177.878 98.5428 177.846 98.3365 177.723 98.8174L177.521 99.0244C176.928 98.9499 176.855 98.3735 176.459 98.3998C174.88 99.8699 175.026 99.4918 174.297 101.45C173.304 99.7266 171.756 100.465 171.808 102.09L171.729 102.15C171.542 101.845 171.203 101.221 170.902 101.064C170.395 100.797 170.58 100.443 170.626 99.899C170.364 99.423 170.112 98.942 169.868 98.4561C170.389 98.1708 170.675 98.0025 171.249 97.8099L171.28 97.7691C171.932 97.4319 172.594 97.2607 173.295 97.0481C174.021 96.8685 174.69 96.8089 175.431 96.7243Z" fill="#8D9576" fill-opacity="0.3"/>
<path d="M175.43 96.7244C175.972 98.4439 174.278 100.092 173.277 99.5645C173.145 99.0167 173.431 98.8805 173.574 98.4777C173.545 98.5577 173.308 97.2319 173.295 97.0481C174.021 96.8685 174.69 96.809 175.43 96.7244Z" fill="#8D9576" fill-opacity="0.3"/>
<path d="M171.279 97.7688C172.102 98.0398 172.996 98.877 172.748 99.7868C171.89 100.582 169.655 99.8412 171.248 97.8096L171.279 97.7688Z" fill="#8D9576" fill-opacity="0.3"/>
<path d="M184.1 98.6941C184.522 98.9597 184.95 99.2133 185.341 99.52C185.884 99.964 186.508 100.453 187.021 100.92L185.522 101.831C184.969 102.145 184.284 102.561 183.732 102.846L182.085 103.728C182.162 102.786 182.338 102.241 182.648 101.373C183.025 101.311 183.249 101.3 183.589 101.119C183.771 100.737 183.738 100.93 183.71 100.523C183.244 100.737 182.923 100.985 182.484 100.926C182.099 100.575 182.282 100.186 182.018 99.7C181.808 99.7476 181.291 99.8841 181.145 99.808C180.517 99.4803 178.716 97.276 178.438 96.7482C180.018 96.9829 180.763 97.195 182.265 97.7531L183.206 98.1995L184.1 98.6941Z" fill="#8D9576" fill-opacity="0.3"/>
<path d="M183.731 102.845C183.69 102.245 183.484 101.529 184.073 101.238C184.632 101.296 185.018 101.563 185.521 101.831C184.968 102.145 184.284 102.561 183.731 102.845Z" fill="#8D9576" fill-opacity="0.3"/>
<path d="M182.264 97.7536L183.205 98.2C182.932 98.6318 182.774 98.9809 182.348 99.249L182.145 99.2129C181.984 98.8019 182.148 98.188 182.264 97.7536Z" fill="#8D9576" fill-opacity="0.3"/>
<path d="M184.1 98.6953C184.521 98.9609 184.949 99.2145 185.34 99.5213C184.818 99.8523 184.675 99.9613 184.088 100.134L183.987 100.024C184.137 99.6589 184.241 99.4204 184.342 99.0326L184.1 98.6953Z" fill="#8D9576" fill-opacity="0.3"/>
<path d="M176.951 99.2747C177.307 99.5791 177.266 99.6417 177.211 100.061C176.888 100.403 177.075 100.316 176.656 100.384C176.411 100.11 176.221 99.9618 176.151 99.6063C176.437 99.3184 176.481 99.3892 176.951 99.2747Z" fill="#8D9576" fill-opacity="0.3"/>
<path d="M174.892 103.034C177.501 102.415 180.629 100.675 180.076 104.801C177.723 105.905 176.107 106.622 173.682 107.495C173.861 106.819 174.021 106.243 173.445 105.774C172.573 105.602 171.822 106.222 171.17 105.748C171.156 105.055 172.621 104.19 173.159 103.404C173.697 102.619 173.781 102.466 174.206 101.602C174.592 102.205 174.652 102.356 174.892 103.034Z" fill="#8D9576" fill-opacity="0.3"/>
<path d="M167.864 105.432C168.31 105.192 168.624 104.954 169.113 104.974C169.654 105.318 169.541 105.631 169.53 106.253C168.432 106.844 168.088 106.97 167.952 108.282C165.985 107.713 165.616 106.643 165.523 104.726C166.503 105.214 166.754 105.394 167.864 105.432Z" fill="#8D9576" fill-opacity="0.3"/>
<path d="M165.874 102.737C166.167 103.01 166.437 103.183 166.512 103.558C166.255 103.935 165.974 103.989 165.527 104.218C165.586 103.787 165.763 103.174 165.874 102.737Z" fill="#8D9576" fill-opacity="0.3"/>
<path d="M172.702 103.008C172.699 103.059 172.695 103.11 172.691 103.16C172.147 103.304 171.338 103.568 170.804 103.556L170.811 103.351C171.031 103.018 171.749 102.969 172.182 102.773L172.702 103.008Z" fill="#8D9576" fill-opacity="0.3"/>
<path d="M188.642 82.8576C189.164 83.2076 189.754 83.5641 190.193 84.0018C190.521 84.2739 190.844 84.55 191.164 84.8315L189.688 85.7096L187.902 86.7436L186.215 87.6657C185.657 87.9542 184.82 88.4203 184.27 88.6649C182.073 89.7361 180.218 90.5875 177.888 91.3701C175.976 91.9469 174.165 92.4782 172.137 92.1743C170.154 91.6086 169.811 90.4894 169.673 88.5904C169.814 85.7116 171.62 83.8547 173.913 82.4068C174.485 82.0919 174.782 81.9202 175.408 81.6969C176.02 81.3545 176.853 81.1409 177.533 80.9465C178.283 80.7633 178.895 80.6934 179.66 80.5959C180.149 80.5526 180.774 80.5615 181.276 80.5542L182.619 80.6433C184.053 80.803 185.108 81.1451 186.442 81.6558L187.387 82.1211C187.772 82.3034 188.266 82.6285 188.642 82.8576Z" fill="#8D9576" fill-opacity="0.3"/>
<path d="M188.642 82.8581C189.163 83.208 189.754 83.5645 190.193 84.0023C190.521 84.2743 190.844 84.5505 191.163 84.8319L189.688 85.71L187.902 86.744L186.215 87.6662C185.657 87.9546 184.82 88.4208 184.27 88.6654C184.647 84.3855 181.771 86.4561 179.047 86.9135C178.835 86.2541 178.746 86.0781 178.407 85.4712L178.451 85.3781C177.474 83.6146 176.171 84.21 175.891 86.0198L175.813 86.0292C175.426 85.2352 175.485 85.2649 174.793 84.7133C174.713 84.3765 174.779 84.1429 174.829 83.8005C174.558 83.3253 174.295 82.7847 173.913 82.4072C174.484 82.0923 174.781 81.9207 175.408 81.6974C176.019 81.3549 176.853 81.1413 177.533 80.947C178.283 80.7637 178.895 80.6938 179.659 80.5963C180.148 80.553 180.774 80.5619 181.275 80.5546L182.619 80.6437C184.053 80.8034 185.108 81.1456 186.442 81.6562L187.387 82.1215C187.771 82.3039 188.266 82.6289 188.642 82.8581Z" fill="#8D9576" fill-opacity="0.3"/>
<path d="M179.659 80.5962C180.148 80.5528 180.774 80.5617 181.275 80.5545C181.149 81.2148 181.051 81.4408 180.807 82.0555C181.283 81.938 181.694 81.8345 182.063 82.2623C182.014 82.6396 182.021 82.528 181.685 82.8652L181.421 82.908C181.096 82.6648 181.022 82.5258 180.788 82.2021C180.123 82.5525 180.708 82.9259 179.322 83.3139C178.922 84.058 178.82 84.6561 178.451 85.378C177.474 83.6144 176.171 84.2098 175.891 86.0196L175.813 86.029C175.426 85.235 175.485 85.2647 174.793 84.7132C174.713 84.3763 174.778 84.1427 174.829 83.8003C174.558 83.3251 174.294 82.7845 173.913 82.407C174.484 82.0921 174.781 81.9205 175.408 81.6972C176.019 81.3547 176.853 81.1411 177.533 80.9468C178.283 80.7636 178.894 80.6936 179.659 80.5962Z" fill="#8D9576" fill-opacity="0.3"/>
<path d="M177.533 80.9467C178.283 80.7635 178.894 80.6935 179.659 80.5961C179.745 81.2763 179.593 82.3495 179.365 82.9987L179.188 83.1669C178.044 82.8928 178.152 83.524 177.487 83.4481C177.51 83.2938 177.552 82.9542 177.607 82.8221C177.906 82.1031 177.438 81.6587 177.533 80.9467Z" fill="#8D9576" fill-opacity="0.3"/>
<path d="M175.408 81.6976C176.297 81.9056 177.224 82.8927 177.044 83.7815L176.74 83.9657C174.984 83.9313 174.153 83.3521 175.408 81.6976Z" fill="#8D9576" fill-opacity="0.3"/>
<path d="M188.642 82.8575C189.163 83.2074 189.754 83.5639 190.193 84.0017C190.521 84.2737 190.844 84.5499 191.164 84.8313L189.688 85.7094L187.902 86.7434L186.215 87.6656C186.361 86.8431 186.456 85.7629 187.091 85.2255C187.425 85.1797 187.569 85.1853 187.861 85.0087C187.957 84.6164 187.992 84.7791 187.885 84.4579C187.498 84.5827 186.98 84.8182 186.62 84.7072C186.351 84.4054 186.298 83.9239 186.206 83.5104C185.841 83.6868 185.863 83.7016 185.465 83.6997C184.654 83.374 182.996 81.3849 182.619 80.6431C184.053 80.8028 185.108 81.145 186.442 81.6556L187.387 82.1209C187.771 82.3033 188.266 82.6283 188.642 82.8575Z" fill="#8D9576" fill-opacity="0.3"/>
<path d="M187.902 86.7438C187.874 86.0945 187.656 85.351 188.347 85.1263C188.915 85.2354 189.185 85.4292 189.688 85.7098L187.902 86.7438Z" fill="#8D9576" fill-opacity="0.3"/>
<path d="M186.442 81.6564L187.387 82.1217C187.102 82.5463 186.93 82.9049 186.492 83.1453L186.306 83.0759C186.174 82.5953 186.332 82.1593 186.442 81.6564Z" fill="#8D9576" fill-opacity="0.3"/>
<path d="M188.642 82.8579C189.164 83.2078 189.754 83.5644 190.193 84.0021C189.163 83.3365 189.451 83.8155 188.19 83.9764C188.157 83.612 188.45 83.2023 188.642 82.8579Z" fill="#8D9576" fill-opacity="0.3"/>
<path d="M181.126 83.1475C181.469 83.4619 181.432 83.5054 181.379 83.9268C181.06 84.2631 181.246 84.1639 180.82 84.265C180.571 83.9787 180.462 83.8923 180.333 83.5279C180.586 83.217 180.65 83.2874 181.126 83.1475Z" fill="#8D9576" fill-opacity="0.3"/>
<path d="M179.046 86.9131C181.77 86.4557 184.646 84.3851 184.269 88.665C182.072 89.7362 180.217 90.5875 177.887 91.3701C178.395 88.3887 176.329 90.2597 175.446 89.7109C175.402 89.5398 175.277 89.2417 175.472 89.1151C176.787 88.2558 177.661 87.0255 178.344 85.6019L178.406 85.4708C178.746 86.0777 178.834 86.2537 179.046 86.9131Z" fill="#8D9576" fill-opacity="0.3"/>
<path d="M172.135 89.3078C172.567 89.0442 172.771 88.8513 173.254 88.8436C173.827 89.1624 173.702 89.5312 173.709 90.1694C172.602 90.6949 172.218 90.8848 172.137 92.1747C170.154 91.609 169.811 90.4898 169.673 88.5908C170.73 89.1336 170.941 89.323 172.135 89.3078Z" fill="#8D9576" fill-opacity="0.3"/>
<path d="M176.93 86.9105C176.916 86.9601 176.901 87.0099 176.886 87.0596C176.346 87.1924 175.486 87.4566 174.965 87.4218C175.007 86.842 175.815 86.8965 176.366 86.642L176.93 86.9105Z" fill="#8D9576" fill-opacity="0.3"/>
<path d="M155.544 76.1517C155.899 76.3594 156.452 76.6533 156.752 76.9042L157.722 77.6499C158.328 78.2016 158.716 78.5583 159.251 79.1749C159.675 79.7309 160.037 80.2058 160.423 80.7924L160.613 81.1511L161.084 82.0755C162.068 84.5706 162.425 86.6699 160.973 89.1191C159.747 90.5639 159.077 91.1124 157.176 90.477C155.587 89.6261 154.313 88.1711 153.268 86.7343C152.117 85.2591 150.828 82.8908 149.941 81.2399C149.64 80.6433 149.333 80.0488 149.021 79.4575L148.227 77.8293L147.519 76.2011L146.851 74.6537C147.433 74.5816 148.168 74.5654 148.766 74.536L149.869 74.5475L151.115 74.6657L152.231 74.8852C153.59 75.2215 154.295 75.5209 155.544 76.1517Z" fill="#8D9576" fill-opacity="0.3"/>
<path d="M161.083 82.0763C162.067 84.5714 162.424 86.6706 160.972 89.1199C159.746 90.5647 159.076 91.1132 157.175 90.4778C155.586 89.6269 154.312 88.1719 153.268 86.7351C153.647 86.1096 153.695 85.7453 154.461 85.69C154.948 85.8882 155.235 86.3473 155.69 86.7592C156.065 86.8105 155.886 86.8445 156.232 86.6008C156.476 85.6186 154.737 81.6042 157.195 81.648C158.172 82.047 158.203 82.7993 157.776 83.6448L157.815 83.7538C159.366 83.5583 159.586 82.7412 161.083 82.0763Z" fill="#8D9576" fill-opacity="0.3"/>
<path d="M158.874 88.4902C159.746 88.9142 160.052 88.9727 160.973 89.1194C159.748 90.5643 159.077 91.1127 157.176 90.4773C158.431 88.6703 156.261 88.803 157.702 87.4268C157.888 87.2496 157.832 87.3241 158.09 87.3287C158.49 87.6286 158.638 88.0349 158.874 88.4902Z" fill="#8D9576" fill-opacity="0.3"/>
<path d="M156.861 83.8697C157.027 84.0406 157.66 84.9632 157.72 85.1709L157.458 85.3554C157.12 84.9322 156.543 84.4424 156.507 83.9825L156.861 83.8697Z" fill="#8D9576" fill-opacity="0.3"/>
<path d="M156.752 76.9043L157.722 77.65C158.328 78.2017 158.716 78.5584 159.251 79.175C159.675 79.731 160.037 80.2059 160.423 80.7924L160.612 81.1512L161.084 82.0756C159.587 82.7405 159.366 83.5576 157.816 83.7531L157.776 83.6442C158.204 82.7986 158.172 82.0463 157.196 81.6473C154.738 81.6035 156.476 85.6179 156.233 86.6001C155.887 86.8438 156.066 86.8098 155.69 86.7585C155.236 86.3466 154.948 85.8876 154.462 85.6893C153.696 85.7446 153.647 86.109 153.268 86.7344C152.117 85.2592 150.828 82.8909 149.94 81.24C151.961 78.0216 153.052 80.8089 154.767 82.7414L156.084 82.0836C156.307 81.2334 156.774 79.0095 155.921 78.4076C155.677 78.4602 155.459 78.5006 155.214 78.5426C154.943 78.3242 155.045 78.4595 154.968 78.0858C155.142 77.6743 155.006 77.8242 155.365 77.5999C155.97 77.6716 155.665 77.9125 156.155 78.0302C156.347 77.5285 156.378 77.2118 156.752 76.9043Z" fill="#8D9576" fill-opacity="0.3"/>
<path d="M157.721 77.6502C158.326 78.2019 158.714 78.5586 159.25 79.1753C158.893 79.6781 158.284 79.7981 158.122 80.4823C158.079 80.6622 157.959 80.8873 157.845 81.0355C157.578 80.8843 157.384 80.4305 157.223 80.1358C156.845 79.9725 156.943 80.0781 156.718 79.7872C156.823 79.2033 157.378 78.1355 157.721 77.6502Z" fill="#8D9576" fill-opacity="0.3"/>
<path d="M160.612 81.1519C160.304 81.9292 160.139 82.4684 159.127 82.4C158.728 82.3731 158.548 82.2478 158.286 81.9358C158.034 80.8491 159.498 80.4063 160.422 80.7932L160.612 81.1519Z" fill="#8D9576" fill-opacity="0.3"/>
<path d="M152.232 74.8862C153.59 75.2224 154.295 75.5219 155.544 76.1526C154.775 76.4703 152.833 76.9783 151.998 77.0138C151.581 76.8301 151.541 76.7754 151.189 76.4685C150.816 76.7926 150.613 77.0596 150.162 77.0564C149.836 76.7853 149.778 76.6217 149.575 76.2547L149.426 76.3074C149.258 76.8001 149.969 77.4229 149.492 78.538C149.359 78.8562 149.202 79.1641 149.021 79.4584L148.227 77.8303L147.519 76.2021L146.851 74.6546C147.434 74.5825 148.168 74.5664 148.766 74.5369L149.869 74.5484L151.115 74.6666L152.232 74.8862Z" fill="#8D9576" fill-opacity="0.3"/>
<path d="M147.518 76.2012C148.056 76.2334 148.348 76.2083 148.829 76.441C149.193 77.0068 148.671 77.4208 148.226 77.8294L147.518 76.2012Z" fill="#8D9576" fill-opacity="0.3"/>
<path d="M152.23 74.8856C151.858 75.3971 151.593 75.8612 151.271 76.4026C151.144 75.662 151.105 75.4275 151.114 74.6661L152.23 74.8856Z" fill="#8D9576" fill-opacity="0.3"/>
<path d="M148.765 74.5364L149.868 74.5479C149.763 75.0187 149.637 75.5329 149.571 76.0072C149.308 75.5146 149.05 75.0161 148.765 74.5364Z" fill="#8D9576" fill-opacity="0.3"/>
<path d="M155.114 78.7773C155.427 79.049 155.48 79.0729 155.722 79.4215L155.634 79.6452L155.102 79.8548C154.729 79.6667 154.857 79.8055 154.69 79.4414C154.78 79.0333 154.81 79.0476 155.114 78.7773Z" fill="#8D9576" fill-opacity="0.3"/>
<path d="M175.21 70.8121C176.556 70.1979 180.534 69.4426 181.705 70.3726C181.732 70.6953 181.494 71.0164 181.327 71.3217C181.076 71.7476 180.837 72.1458 180.568 72.5606L179.882 73.6927C179.461 74.3889 179.1 75.0197 178.595 75.66C177.674 76.9898 177.163 77.7038 176.094 78.9266C175.136 79.9403 174.381 80.6762 173.103 81.2966C171.668 81.6601 171.092 81.1634 170.273 79.9982C170.208 79.8588 170.147 79.7168 170.091 79.5731C169.452 77.8987 169.986 76.3609 170.673 74.8459C170.948 74.3867 171.119 74.1512 171.449 73.7291C171.699 73.4136 172.039 73.0431 172.308 72.7324L173.441 71.8054L174.455 71.1855L175.21 70.8121Z" fill="#8D9576" fill-opacity="0.3"/>
<path d="M173.441 71.806C173.924 72.3509 174.017 72.7511 174.191 73.457L174.172 73.4616C174.363 74.1397 174.377 74.3509 174.433 75.0368L174.468 75.1294L174.478 75.2828C174.555 76.513 174.324 77.1938 174.042 78.4149C174.069 78.4662 174.098 78.5182 174.125 78.5695C174.886 78.607 175.265 77.5981 175.922 78.1342C176.055 78.5154 176.107 78.5368 176.094 78.9272C175.136 79.9409 174.381 80.6768 173.103 81.2972C171.669 81.6607 171.092 81.164 170.273 79.9988C170.208 79.8594 170.147 79.7174 170.091 79.5738C169.452 77.8993 169.986 76.3615 170.674 74.8465C170.948 74.3873 171.119 74.1518 171.45 73.7297C171.699 73.4142 172.039 73.0437 172.308 72.733L173.441 71.806Z" fill="#8D9576" fill-opacity="0.3"/>
<path d="M173.441 71.806C173.924 72.3509 174.017 72.7511 174.191 73.457L174.172 73.4616C174.363 74.1397 174.377 74.3509 174.433 75.0368C173.228 74.3681 172.86 74.9389 173.013 76.1073C172.111 76.3513 171.646 75.1286 170.674 74.8465C170.948 74.3873 171.119 74.1518 171.45 73.7297C171.699 73.4142 172.039 73.0437 172.308 72.733L173.441 71.806Z" fill="#8D9576" fill-opacity="0.3"/>
<path d="M173.44 71.8065C173.923 72.3514 174.016 72.7516 174.191 73.4574L174.171 73.462C173.691 73.5556 173.62 73.6883 173.266 74.0294C173.293 74.0548 172.382 72.8395 172.307 72.7335L173.44 71.8065Z" fill="#8D9576" fill-opacity="0.3"/>
<path d="M171.45 73.7296C172.038 73.7856 172.902 73.9558 172.941 74.6604C172.733 74.8976 172.736 74.9076 172.475 75.0772C172.034 75.157 171.953 75.2046 171.544 75.0119C171.125 74.4921 171.194 74.3195 171.45 73.7296Z" fill="#8D9576" fill-opacity="0.3"/>
<path d="M170.273 79.9988C171.801 80.0619 172.239 78.8785 173.066 79.1653C173.583 80.1694 172.375 79.8635 173.103 81.2971C171.668 81.6607 171.092 81.1639 170.273 79.9988Z" fill="#8D9576" fill-opacity="0.3"/>
<path d="M175.341 75.7685C175.916 75.2409 177.457 73.2737 178.286 73.8383C179.158 74.4324 178.991 74.8651 178.595 75.6608C177.674 76.9907 177.163 77.7046 176.094 78.9274C176.107 78.537 176.055 78.5156 175.921 78.1344C175.265 77.5984 174.886 78.6072 174.125 78.5697C174.098 78.5185 174.069 78.4664 174.042 78.4151C174.324 77.194 174.555 76.5132 174.478 75.2831L174.468 75.1297C174.798 75.3413 175.031 75.5257 175.341 75.7685Z" fill="#8D9576" fill-opacity="0.3"/>
<path d="M175.21 70.813C176.556 70.1988 180.534 69.4435 181.705 70.3735C181.732 70.6962 181.494 71.0173 181.327 71.3226C181.076 71.7485 180.838 72.1467 180.569 72.5615L179.883 73.6936C179.46 72.562 179.424 72.653 179.824 71.4846L179.734 71.3312C179.404 71.6452 179.394 71.7685 179.027 71.8245C178.36 71.4706 177.625 71.5301 176.907 71.3488C176.342 71.206 175.764 70.9991 175.21 70.813Z" fill="#8D9576" fill-opacity="0.3"/>
<path d="M181.327 71.322C181.076 71.7478 180.837 72.146 180.569 72.5608C180.316 72.1602 180.117 71.9892 180.12 71.5813C180.415 71.3569 180.931 71.3608 181.327 71.322Z" fill="#8D9576" fill-opacity="0.3"/>
<path d="M174.455 71.1856C174.689 71.8961 174.958 72.9787 174.191 73.4565C174.016 72.7506 173.923 72.3504 173.441 71.8055L174.455 71.1856Z" fill="#8D9576" fill-opacity="0.3"/>
<path d="M156.879 67.0741C159.333 67.3113 161.145 67.7416 163.122 69.2904C163.37 69.5137 163.784 69.864 164.003 70.0961L164.652 70.7915C164.914 71.1661 165.227 71.5851 165.456 71.9736L166.027 73.0577C166.948 75.4291 167.138 77.354 165.492 79.5148C164.454 80.348 163.575 80.8726 162.361 79.8848C161.243 78.9331 160.75 78.0138 160.096 76.7349C159.373 75.3461 158.858 73.7997 158.335 72.3231C158.183 71.9404 158.003 71.299 157.872 70.8881L157.537 69.6946L157.142 68.1969L156.879 67.0741Z" fill="#8D9576" fill-opacity="0.3"/>
<path d="M156.879 67.0741C159.333 67.3113 161.145 67.7416 163.122 69.2904C163.37 69.5137 163.784 69.864 164.003 70.0961L163.689 70.1178L163.309 70.6746L163.206 70.5924C163.062 70.4794 162.937 70.3922 162.787 70.2884C162.477 70.4343 162.617 70.336 162.416 70.6607L162.484 70.8301C162.74 70.8985 162.976 70.9583 163.235 71.0166C163.298 72.4937 163.403 72.3571 162.774 73.6196L162.737 73.7178C162.402 73.8282 162.046 73.9391 161.715 74.0584C161.364 73.4446 160.827 72.3676 160.392 71.8423C159.629 70.9235 158.942 71.6934 158.335 72.3231C158.183 71.9404 158.003 71.299 157.872 70.8881L157.537 69.6946L157.142 68.1969L156.879 67.0741Z" fill="#8D9576" fill-opacity="0.3"/>
<path d="M156.879 67.0741C159.333 67.3113 161.145 67.7416 163.122 69.2904C162.08 69.4071 160.543 69.8534 159.898 68.9734C159.385 69.1544 159.237 69.3703 158.898 69.2356C158.815 68.9547 158.782 68.8145 158.658 68.5487L158.481 68.5967C158.334 69.7108 159.228 69.1403 157.872 70.8881L157.537 69.6946L157.142 68.1969L156.879 67.0741Z" fill="#8D9576" fill-opacity="0.3"/>
<path d="M157.142 68.1962C157.506 68.3521 157.916 68.4729 158.143 68.7781C158.128 69.2115 157.879 69.3715 157.538 69.6939L157.142 68.1962Z" fill="#8D9576" fill-opacity="0.3"/>
<path d="M158.335 72.323C158.941 71.6934 159.629 70.9234 160.391 71.8422C160.827 72.3675 161.363 73.4445 161.715 74.0583C162.045 73.939 162.401 73.8281 162.737 73.7177C162.608 74.1328 162.529 74.4204 162.431 74.8395C162.27 75.5125 162.592 76.7437 162.097 77.142C161.52 76.597 161.506 76.1725 160.752 76.1711C160.39 76.3943 160.378 76.432 160.096 76.7348C159.372 75.346 158.858 73.7996 158.335 72.323Z" fill="#8D9576" fill-opacity="0.3"/>
<path d="M164.002 70.0961L164.651 70.7915C164.914 71.1661 165.226 71.5851 165.456 71.9736L166.027 73.0577C165.419 72.9095 164.996 73.0735 164.461 73.391C164.199 74.0309 165.079 74.2305 165.359 74.757L165.275 74.9531C164.823 75.0982 164.84 75.1089 164.375 75.0841C163.663 74.6447 164.312 74.2458 163.876 73.6364C163.457 73.4128 163.216 73.4801 162.774 73.6196C163.402 72.3571 163.298 72.4937 163.234 71.0166C162.975 70.9583 162.74 70.8985 162.483 70.8301L162.415 70.6607C162.617 70.336 162.476 70.4343 162.787 70.2884C162.937 70.3922 163.062 70.4794 163.205 70.5924L163.308 70.6747L163.688 70.1178L164.002 70.0961Z" fill="#8D9576" fill-opacity="0.3"/>
<path d="M164.651 70.7912C164.914 71.1658 165.226 71.5848 165.456 71.9733C164.87 72.3009 164.761 72.414 164.348 72.9451L164.224 72.8861L164.294 73.0693C164.166 72.7779 163.91 72.5367 163.693 72.2948C163.554 71.657 164.046 70.9576 164.651 70.7912Z" fill="#8D9576" fill-opacity="0.3"/>
<path d="M162.361 79.8844C162.683 79.8861 162.522 79.9127 162.829 79.7046C163.233 79.0041 162.564 78.3811 163.205 77.8737C163.94 77.8731 163.97 79.2033 165.492 79.5144C164.454 80.3476 163.574 80.8722 162.361 79.8844Z" fill="#8D9576" fill-opacity="0.3"/>
<path d="M174.974 58.1917L174.869 59.4328L174.726 60.8203L174.547 62.1818L174.316 63.6313C174.01 65.3779 173.744 66.5535 173.198 68.2707C172.731 69.748 172.312 70.6646 171.303 71.8623C169.951 72.7794 169.138 72.4606 167.913 71.4625C165.918 68.9972 166.268 65.8049 167.779 63.1998C167.938 62.8537 168.26 62.4249 168.482 62.0987L169.101 61.3553C170.816 59.4709 172.604 58.8438 174.974 58.1917Z" fill="#8D9576" fill-opacity="0.3"/>
<path d="M167.779 63.1996C168.376 63.0473 168.9 63.5939 169.106 64.1181C169.013 64.6212 168.853 64.5831 168.74 65.319C169.145 65.0024 168.809 64.6668 169.202 64.5213C169.346 64.7309 169.706 65.3086 169.88 65.4258L170.199 65.6132C170.512 66.4024 170.844 67.122 170.951 67.9595C171.002 68.3549 170.993 68.6186 171.216 68.8638C171.659 68.4722 171.865 68.0244 172.315 67.7898C172.732 67.8301 172.827 67.9307 173.198 68.2705C172.731 69.7478 172.313 70.6643 171.303 71.8621C169.952 72.7792 169.138 72.4604 167.913 71.4623C165.919 68.9969 166.268 65.8047 167.779 63.1996Z" fill="#8D9576" fill-opacity="0.3"/>
<path d="M167.913 71.4623C168.24 71.5985 168.253 71.6371 168.597 71.6244C169.709 71.1017 169.409 70.9574 169.936 69.8665L170.215 69.8125C170.663 69.9894 170.499 69.8508 170.768 70.1917C170.648 71.1145 170.591 71.1987 171.303 71.8621C169.952 72.7791 169.138 72.4604 167.913 71.4623Z" fill="#8D9576" fill-opacity="0.3"/>
<path d="M170.211 66.9938L170.284 67.2598C170.134 67.8277 170.055 67.8858 169.694 68.3731C169.774 67.732 169.792 67.4317 170.211 66.9938Z" fill="#8D9576" fill-opacity="0.3"/>
<path d="M171.219 65.8111C171.441 65.261 171.663 64.6819 171.871 64.1277C172.518 62.4053 173.191 62.7826 174.317 63.6311C174.011 65.3776 173.744 66.5533 173.198 68.2705C172.827 67.9307 172.732 67.8301 172.315 67.7898C171.865 68.0244 171.659 68.4722 171.216 68.8638C170.993 68.6186 171.002 68.3549 170.951 67.9595C170.843 67.122 170.511 66.4023 170.199 65.6132L171.219 65.8111Z" fill="#8D9576" fill-opacity="0.3"/>
<path d="M174.974 58.1911L174.869 59.4322L174.726 60.8197L174.548 62.1812C174.325 61.9428 173.94 61.5519 173.776 61.2795C173.484 60.7968 173.911 60.3104 173.47 60.0075C173.218 60.5058 173.291 60.5909 172.907 60.7414L172.361 60.5265C171.935 60.7735 172.14 60.8821 171.949 61.0068C171.48 61.3136 169.609 61.3269 169.101 61.3547C170.816 59.4703 172.605 58.8432 174.974 58.1911Z" fill="#8D9576" fill-opacity="0.3"/>
<path d="M174.87 59.433L174.727 60.8205C174.384 60.6102 174.05 60.4699 173.974 60.0662C174.188 59.7246 174.501 59.6227 174.87 59.433Z" fill="#8D9576" fill-opacity="0.3"/>
<path d="M168.483 62.0983C168.849 62.2809 168.91 62.3975 169.167 62.7084C169.315 62.5541 169.468 62.4037 169.623 62.2559C169.977 62.3737 169.819 62.274 170.066 62.628L169.987 62.8097L169.327 63.0068C169.383 63.4307 169.369 63.8523 169.344 64.2772C169.519 64.6658 169.896 65.063 169.88 65.4256C169.706 65.3084 169.346 64.7307 169.202 64.521C168.81 64.6665 169.145 65.0021 168.74 65.3187C168.853 64.5829 169.013 64.621 169.107 64.1178C168.901 63.5936 168.376 63.047 167.78 63.1993C167.938 62.8532 168.261 62.4245 168.483 62.0983Z" fill="#8D9576" fill-opacity="0.3"/>
</svg>
